G04 #@! TF.GenerationSoftware,KiCad,Pcbnew,5.1.9*
G04 #@! TF.CreationDate,2021-04-10T12:49:15-07:00*
G04 #@! TF.ProjectId,SofleKeyboard,536f666c-654b-4657-9962-6f6172642e6b,rev?*
G04 #@! TF.SameCoordinates,Original*
G04 #@! TF.FileFunction,Copper,L1,Top*
G04 #@! TF.FilePolarity,Positive*
%FSLAX46Y46*%
G04 Gerber Fmt 4.6, Leading zero omitted, Abs format (unit mm)*
G04 Created by KiCad (PCBNEW 5.1.9) date 2021-04-10 12:49:15*
%MOMM*%
%LPD*%
G01*
G04 APERTURE LIST*
G04 #@! TA.AperFunction,SMDPad,CuDef*
%ADD10R,1.143000X0.635000*%
G04 #@! TD*
G04 #@! TA.AperFunction,ComponentPad*
%ADD11C,4.000000*%
G04 #@! TD*
G04 #@! TA.AperFunction,ComponentPad*
%ADD12C,1.524000*%
G04 #@! TD*
G04 #@! TA.AperFunction,ComponentPad*
%ADD13C,2.000000*%
G04 #@! TD*
G04 #@! TA.AperFunction,ComponentPad*
%ADD14C,1.397000*%
G04 #@! TD*
G04 #@! TA.AperFunction,ComponentPad*
%ADD15R,1.524000X1.524000*%
G04 #@! TD*
G04 #@! TA.AperFunction,ComponentPad*
%ADD16O,2.500000X1.700000*%
G04 #@! TD*
G04 #@! TA.AperFunction,ComponentPad*
%ADD17C,0.700000*%
G04 #@! TD*
G04 #@! TA.AperFunction,ComponentPad*
%ADD18C,4.400000*%
G04 #@! TD*
G04 #@! TA.AperFunction,ComponentPad*
%ADD19R,1.500000X1.800000*%
G04 #@! TD*
G04 #@! TA.AperFunction,ComponentPad*
%ADD20R,1.800000X1.500000*%
G04 #@! TD*
G04 #@! TA.AperFunction,ViaPad*
%ADD21C,0.400000*%
G04 #@! TD*
G04 #@! TA.AperFunction,Conductor*
%ADD22C,0.250000*%
G04 #@! TD*
G04 #@! TA.AperFunction,Conductor*
%ADD23C,0.500000*%
G04 #@! TD*
G04 #@! TA.AperFunction,Conductor*
%ADD24C,0.254000*%
G04 #@! TD*
G04 #@! TA.AperFunction,Conductor*
%ADD25C,0.100000*%
G04 #@! TD*
G04 APERTURE END LIST*
D10*
X103746996Y-93725873D03*
X103746996Y-92725113D03*
X106496996Y-92725113D03*
X106496996Y-93725873D03*
X96500000Y-93500000D03*
X96500000Y-94500760D03*
D11*
X93756996Y-106698013D03*
X109256996Y-106698013D03*
G04 #@! TA.AperFunction,SMDPad,CuDef*
G36*
G01*
X98896268Y-93747478D02*
X98896268Y-93272478D01*
G75*
G02*
X99133768Y-93034978I237500J0D01*
G01*
X99633768Y-93034978D01*
G75*
G02*
X99871268Y-93272478I0J-237500D01*
G01*
X99871268Y-93747478D01*
G75*
G02*
X99633768Y-93984978I-237500J0D01*
G01*
X99133768Y-93984978D01*
G75*
G02*
X98896268Y-93747478I0J237500D01*
G01*
G37*
G04 #@! TD.AperFunction*
G04 #@! TA.AperFunction,SMDPad,CuDef*
G36*
G01*
X100721268Y-93747478D02*
X100721268Y-93272478D01*
G75*
G02*
X100958768Y-93034978I237500J0D01*
G01*
X101458768Y-93034978D01*
G75*
G02*
X101696268Y-93272478I0J-237500D01*
G01*
X101696268Y-93747478D01*
G75*
G02*
X101458768Y-93984978I-237500J0D01*
G01*
X100958768Y-93984978D01*
G75*
G02*
X100721268Y-93747478I0J237500D01*
G01*
G37*
G04 #@! TD.AperFunction*
D12*
X109676996Y-54428013D03*
X109676996Y-56968013D03*
X109676996Y-59508013D03*
X109676996Y-62048013D03*
X109676996Y-64588013D03*
X109676996Y-67128013D03*
X109676996Y-69668013D03*
X109676996Y-72208013D03*
X109676996Y-74748013D03*
X109676996Y-77288013D03*
X109676996Y-79828013D03*
X109676996Y-82368013D03*
X94436996Y-82368013D03*
X94436996Y-79828013D03*
X94436996Y-77288013D03*
X94436996Y-74748013D03*
X94436996Y-72208013D03*
X94436996Y-69668013D03*
X94436996Y-67128013D03*
X94436996Y-64588013D03*
X94436996Y-62048013D03*
X94436996Y-59508013D03*
X94436996Y-56968013D03*
X94436996Y-54428013D03*
X110975811Y-65783758D03*
X110975811Y-70863758D03*
X95735811Y-55623758D03*
X110975811Y-58163758D03*
X110975811Y-81023758D03*
X95735811Y-83563758D03*
X110975811Y-73403758D03*
X110975811Y-75943758D03*
X95735811Y-73403758D03*
X95735811Y-78483758D03*
X95735811Y-65783758D03*
X95735811Y-63243758D03*
X95735811Y-58163758D03*
X95735811Y-68323758D03*
X110975811Y-83563758D03*
X95735811Y-75943758D03*
X110975811Y-55623758D03*
X110975811Y-60703758D03*
X95735811Y-81023758D03*
X110975811Y-63243758D03*
X110975811Y-68323758D03*
X95735811Y-70863758D03*
X110975811Y-78483758D03*
X95735811Y-60703758D03*
D13*
X92256996Y-86500000D03*
X92256996Y-93000000D03*
D10*
X101456996Y-82998393D03*
X101456996Y-81997633D03*
D14*
X98956996Y-87798013D03*
X101496996Y-87798013D03*
X104036996Y-87798013D03*
X106576996Y-87798013D03*
D15*
X110156996Y-89198013D03*
X110156996Y-91798013D03*
X110156996Y-94298013D03*
D10*
X98956996Y-82998393D03*
X98956996Y-81997633D03*
X106556996Y-82998393D03*
X106556996Y-81997633D03*
X103956996Y-82998393D03*
X103956996Y-81997633D03*
D16*
X102056996Y-100948013D03*
X100556996Y-96748013D03*
X96556996Y-96748013D03*
X93556996Y-96748013D03*
X96556996Y-102698013D03*
X93556996Y-102698013D03*
X102056996Y-98498013D03*
X100556996Y-102698013D03*
G04 #@! TA.AperFunction,SMDPad,CuDef*
G36*
G01*
X98896268Y-91497478D02*
X98896268Y-91022478D01*
G75*
G02*
X99133768Y-90784978I237500J0D01*
G01*
X99633768Y-90784978D01*
G75*
G02*
X99871268Y-91022478I0J-237500D01*
G01*
X99871268Y-91497478D01*
G75*
G02*
X99633768Y-91734978I-237500J0D01*
G01*
X99133768Y-91734978D01*
G75*
G02*
X98896268Y-91497478I0J237500D01*
G01*
G37*
G04 #@! TD.AperFunction*
G04 #@! TA.AperFunction,SMDPad,CuDef*
G36*
G01*
X100721268Y-91497478D02*
X100721268Y-91022478D01*
G75*
G02*
X100958768Y-90784978I237500J0D01*
G01*
X101458768Y-90784978D01*
G75*
G02*
X101696268Y-91022478I0J-237500D01*
G01*
X101696268Y-91497478D01*
G75*
G02*
X101458768Y-91734978I-237500J0D01*
G01*
X100958768Y-91734978D01*
G75*
G02*
X100721268Y-91497478I0J237500D01*
G01*
G37*
G04 #@! TD.AperFunction*
D13*
X127747000Y-56178100D03*
X122747000Y-58278100D03*
X117747000Y-56178100D03*
D17*
X204823722Y-96581287D03*
X203656996Y-96098013D03*
X202490270Y-96581287D03*
X202006996Y-97748013D03*
X202490270Y-98914739D03*
X203656996Y-99398013D03*
X204823722Y-98914739D03*
X205306996Y-97748013D03*
D18*
X203656996Y-97748013D03*
D17*
X204913722Y-62858386D03*
X203746996Y-62375112D03*
X202580270Y-62858386D03*
X202096996Y-64025112D03*
X202580270Y-65191838D03*
X203746996Y-65675112D03*
X204913722Y-65191838D03*
X205396996Y-64025112D03*
D18*
X203746996Y-64025112D03*
D13*
X127747000Y-90178100D03*
X122747000Y-92278100D03*
X117747000Y-90178100D03*
X163747000Y-103478100D03*
X158747000Y-105578100D03*
X153747000Y-103478100D03*
X217747000Y-77078100D03*
X212747000Y-79178100D03*
X207747000Y-77078100D03*
X199747000Y-109578100D03*
X194747000Y-111678100D03*
X189747000Y-109578100D03*
X181747000Y-53878100D03*
X176747000Y-55978100D03*
X171747000Y-53878100D03*
X199747000Y-92578100D03*
X194747000Y-94678100D03*
X189747000Y-92578100D03*
D17*
X101040266Y-114785996D03*
X100556992Y-115952722D03*
X101040266Y-117119448D03*
X102206992Y-117602722D03*
X103373718Y-117119448D03*
X103856992Y-115952722D03*
X103373718Y-114785996D03*
X102206992Y-114302722D03*
D18*
X102206992Y-115952722D03*
D13*
X145747000Y-87878100D03*
X140747000Y-89978100D03*
X135747000Y-87878100D03*
X181747000Y-70878100D03*
X176747000Y-72978100D03*
X171747000Y-70878100D03*
X145747000Y-70878100D03*
X140747000Y-72978100D03*
X135747000Y-70878100D03*
X181747000Y-104878100D03*
X176747000Y-106978100D03*
X171747000Y-104878100D03*
X217747000Y-94078100D03*
X212747000Y-96178100D03*
X207747000Y-94078100D03*
X163747000Y-86478100D03*
X158747000Y-88578100D03*
X153747000Y-86478100D03*
X163747000Y-69478100D03*
X158747000Y-71578100D03*
X153747000Y-69478100D03*
X199747000Y-75578100D03*
X194747000Y-77678100D03*
X189747000Y-75578100D03*
X145747000Y-53878100D03*
X140747000Y-55978100D03*
X135747000Y-53878100D03*
X107416099Y-132578140D03*
X103097446Y-129298013D03*
X102416099Y-123917886D03*
X192247000Y-127578100D03*
X187247000Y-129678100D03*
X182247000Y-127578100D03*
X217747000Y-60078100D03*
X212747000Y-62178100D03*
X207747000Y-60078100D03*
X217747000Y-111078100D03*
X212747000Y-113178100D03*
X207747000Y-111078100D03*
X181747000Y-87878100D03*
X176747000Y-89978100D03*
X171747000Y-87878100D03*
X145747000Y-104878100D03*
X140747000Y-106978100D03*
X135747000Y-104878100D03*
D17*
X132913722Y-92558387D03*
X131746996Y-92075113D03*
X130580270Y-92558387D03*
X130096996Y-93725113D03*
X130580270Y-94891839D03*
X131746996Y-95375113D03*
X132913722Y-94891839D03*
X133396996Y-93725113D03*
D18*
X131746996Y-93725113D03*
D13*
X127747000Y-107178100D03*
X122747000Y-109278100D03*
X117747000Y-107178100D03*
X199747000Y-58578100D03*
X194747000Y-60678100D03*
X189747000Y-58578100D03*
X135940142Y-125074423D03*
X131654032Y-128396962D03*
X126280883Y-127662613D03*
X156247000Y-122878100D03*
X151247000Y-124978100D03*
X146247000Y-122878100D03*
X174247000Y-122878100D03*
X169247000Y-124978100D03*
X164247000Y-122878100D03*
X127747000Y-73178100D03*
X122747000Y-75278100D03*
X117747000Y-73178100D03*
X163747000Y-52478100D03*
X158747000Y-54578100D03*
X153747000Y-52478100D03*
D17*
X132913722Y-58558387D03*
X131746996Y-58075113D03*
X130580270Y-58558387D03*
X130096996Y-59725113D03*
X130580270Y-60891839D03*
X131746996Y-61375113D03*
X132913722Y-60891839D03*
X133396996Y-59725113D03*
D18*
X131746996Y-59725113D03*
D19*
X167956992Y-102702722D03*
X167956992Y-106102722D03*
X149706992Y-102702722D03*
X149706992Y-106102722D03*
X131606992Y-104152722D03*
X131606992Y-107552722D03*
D20*
X117250000Y-95000000D03*
X120650000Y-95000000D03*
D19*
X203706992Y-105452722D03*
X203706992Y-102052722D03*
X185706992Y-97902722D03*
X185706992Y-94502722D03*
X167706992Y-96702722D03*
X167706992Y-93302722D03*
X149706992Y-97902722D03*
X149706992Y-94502722D03*
X131806992Y-101152722D03*
X131806992Y-97752722D03*
D20*
X127500000Y-95000000D03*
X124100000Y-95000000D03*
D19*
X203706992Y-90202722D03*
X203706992Y-93602722D03*
X185706992Y-87202722D03*
X185706992Y-90602722D03*
X167706992Y-85802722D03*
X167706992Y-89202722D03*
X149706992Y-85802722D03*
X149706992Y-89202722D03*
X131706992Y-79952722D03*
X131706992Y-83352722D03*
X131806992Y-86252722D03*
X131806992Y-89652722D03*
X203706992Y-72102722D03*
X203706992Y-68702722D03*
X185706992Y-68602722D03*
X185706992Y-65202722D03*
X167706992Y-64102722D03*
X167706992Y-60702722D03*
X149600000Y-64102722D03*
X149600000Y-60702722D03*
X131706992Y-73602722D03*
X131706992Y-70202722D03*
X131706992Y-67202722D03*
X131706992Y-63802722D03*
X203731992Y-55702722D03*
X203731992Y-59102722D03*
X185956992Y-53052722D03*
X185956992Y-56452722D03*
X167706992Y-51552722D03*
X167706992Y-54952722D03*
X149706992Y-51802722D03*
X149706992Y-55202722D03*
X131706992Y-52052722D03*
X131706992Y-55452722D03*
X131706992Y-45702722D03*
X131706992Y-49102722D03*
X185706992Y-104202722D03*
X185706992Y-107602722D03*
D21*
X107584829Y-80270182D03*
X115106992Y-109152722D03*
X107956996Y-72198013D03*
X115506992Y-60052722D03*
X107956996Y-75098013D03*
X115306992Y-64652722D03*
X107956996Y-77198013D03*
X116656992Y-80202722D03*
X107856996Y-78398013D03*
X114879120Y-109819440D03*
X102656996Y-63243758D03*
X102657004Y-81998013D03*
X108456996Y-93898013D03*
X97756268Y-91259978D03*
X98956996Y-80998013D03*
X99156996Y-58163758D03*
X99156996Y-61998013D03*
X108956996Y-87898013D03*
X104931996Y-70863758D03*
X211186992Y-46042722D03*
X105431996Y-73403758D03*
X193356992Y-42422722D03*
X105956996Y-75943758D03*
X175556992Y-41137732D03*
X106556996Y-77773013D03*
X157456992Y-41002722D03*
X107256996Y-79198013D03*
X140106992Y-44052722D03*
X107856996Y-64598013D03*
X98306996Y-81003860D03*
X98356996Y-64588013D03*
X105356996Y-81098013D03*
X101208768Y-93509978D03*
X107957002Y-54798013D03*
X107957014Y-67398013D03*
X103456996Y-67098013D03*
X105256996Y-81998013D03*
X102836268Y-91259978D03*
X107956988Y-69898013D03*
X97356996Y-57398013D03*
X107956996Y-57198013D03*
X97056996Y-83798013D03*
X112556996Y-77298013D03*
D22*
X129422001Y-54503099D02*
X127747000Y-56178100D01*
X129422001Y-47987713D02*
X129422001Y-54503099D01*
X131706992Y-45702722D02*
X129422001Y-47987713D01*
X106512682Y-79198035D02*
X107584829Y-80270182D01*
X97056996Y-81398013D02*
X97056996Y-80338983D01*
X97056996Y-80338983D02*
X98197944Y-79198035D01*
X98197944Y-79198035D02*
X106512682Y-79198035D01*
X94436996Y-82368013D02*
X96086996Y-82368013D01*
X96086996Y-82368013D02*
X97056996Y-81398013D01*
X115106992Y-91628642D02*
X115106992Y-91096372D01*
X115983039Y-92504689D02*
X115106992Y-91628642D01*
X119154690Y-92504690D02*
X115983039Y-92504689D01*
X120650000Y-94000000D02*
X119154690Y-92504690D01*
X120650000Y-95000000D02*
X120650000Y-94000000D01*
X115106992Y-109152722D02*
X115106992Y-91096372D01*
X115106992Y-87694940D02*
X114861526Y-87449474D01*
X115106992Y-91096372D02*
X115106992Y-87694940D01*
X114861526Y-87449474D02*
X110975811Y-83563758D01*
X115106992Y-87694939D02*
X114861526Y-87449474D01*
X133921622Y-52052722D02*
X135747000Y-53878100D01*
X131706992Y-52052722D02*
X133921622Y-52052722D01*
X153071622Y-51802722D02*
X153747000Y-52478100D01*
X149706992Y-51802722D02*
X153071622Y-51802722D01*
X107946996Y-72208013D02*
X107956996Y-72198013D01*
X94436996Y-72208013D02*
X107946996Y-72208013D01*
X112456992Y-71922577D02*
X110975811Y-73403758D01*
X112456992Y-63102722D02*
X115506992Y-60052722D01*
X112456992Y-71922577D02*
X112456992Y-63102722D01*
X169421622Y-51552722D02*
X171747000Y-53878100D01*
X167706992Y-51552722D02*
X169421622Y-51552722D01*
X107506996Y-74648013D02*
X107956996Y-75098013D01*
X94486996Y-74648013D02*
X107506996Y-74648013D01*
X112621556Y-74298013D02*
X110975811Y-75943758D01*
X112907002Y-74012567D02*
X110975811Y-75943758D01*
X112907002Y-67052712D02*
X115306992Y-64652722D01*
X112907002Y-74012567D02*
X112907002Y-67052712D01*
X189747000Y-57992730D02*
X189747000Y-58578100D01*
X185956992Y-54202722D02*
X189747000Y-57992730D01*
X185956992Y-53052722D02*
X185956992Y-54202722D01*
X94436996Y-77288013D02*
X96162751Y-77288013D01*
X96162751Y-77288013D02*
X96252751Y-77198013D01*
X96252751Y-77198013D02*
X107956996Y-77198013D01*
X111256847Y-78202722D02*
X110975811Y-78483758D01*
X114938028Y-78483758D02*
X116656992Y-80202722D01*
X110975811Y-78483758D02*
X114938028Y-78483758D01*
X203731992Y-56063092D02*
X207747000Y-60078100D01*
X203731992Y-55702722D02*
X203731992Y-56063092D01*
X107756996Y-78298013D02*
X107856996Y-78398013D01*
X97756996Y-78298013D02*
X107756996Y-78298013D01*
X96226996Y-79828013D02*
X97756996Y-78298013D01*
X94436996Y-79828013D02*
X96226996Y-79828013D01*
X112604088Y-82652035D02*
X110975811Y-81023758D01*
X112604088Y-84555625D02*
X112604088Y-82652035D01*
X122950000Y-95000000D02*
X120004680Y-92054680D01*
X124100000Y-95000000D02*
X122950000Y-95000000D01*
X115557002Y-91442242D02*
X115557002Y-90220502D01*
X116169440Y-92054680D02*
X115557002Y-91442242D01*
X120004680Y-92054680D02*
X116169440Y-92054680D01*
X115557002Y-87508540D02*
X115370231Y-87321769D01*
X115557002Y-89674998D02*
X115557002Y-87508540D01*
X115370231Y-87321769D02*
X112604088Y-84555625D01*
X115557001Y-87508538D02*
X115370231Y-87321769D01*
X115557002Y-90220502D02*
X115557002Y-89674998D01*
X115557002Y-89674998D02*
X115557001Y-89508538D01*
X131706992Y-67803895D02*
X131706992Y-67202722D01*
X127747000Y-71763887D02*
X131706992Y-67803895D01*
X127747000Y-73178100D02*
X127747000Y-71763887D01*
X133022378Y-73602722D02*
X135747000Y-70878100D01*
X131706992Y-73602722D02*
X133022378Y-73602722D01*
X149600000Y-65331100D02*
X153747000Y-69478100D01*
X149600000Y-64102722D02*
X149600000Y-65331100D01*
X167706992Y-66838092D02*
X167706992Y-64102722D01*
X171747000Y-70878100D02*
X167706992Y-66838092D01*
X185706992Y-71538092D02*
X189747000Y-75578100D01*
X185706992Y-68602722D02*
X185706992Y-71538092D01*
X203706992Y-73038092D02*
X207747000Y-77078100D01*
X203706992Y-72102722D02*
X203706992Y-73038092D01*
X131672378Y-86252722D02*
X131806992Y-86252722D01*
X127747000Y-90178100D02*
X131672378Y-86252722D01*
X132781993Y-81027723D02*
X131706992Y-79952722D01*
X132781993Y-84913093D02*
X132781993Y-81027723D01*
X135747000Y-87878100D02*
X132781993Y-84913093D01*
X150382370Y-86478100D02*
X149706992Y-85802722D01*
X153747000Y-86478100D02*
X150382370Y-86478100D01*
X169782370Y-87878100D02*
X167706992Y-85802722D01*
X171747000Y-87878100D02*
X169782370Y-87878100D01*
X189747000Y-91242730D02*
X185706992Y-87202722D01*
X189747000Y-92578100D02*
X189747000Y-91242730D01*
X203871622Y-90202722D02*
X203706992Y-90202722D01*
X207747000Y-94078100D02*
X203871622Y-90202722D01*
X127041999Y-106473099D02*
X127747000Y-107178100D01*
X127041999Y-98734099D02*
X127041999Y-106473099D01*
X127500000Y-98276098D02*
X127041999Y-98734099D01*
X127500000Y-95000000D02*
X127500000Y-98276098D01*
X132021622Y-101152722D02*
X135747000Y-104878100D01*
X131806992Y-101152722D02*
X132021622Y-101152722D01*
X149706992Y-99438092D02*
X153747000Y-103478100D01*
X149706992Y-97902722D02*
X149706992Y-99438092D01*
X171747000Y-103317102D02*
X171747000Y-104878100D01*
X167706992Y-99277094D02*
X171747000Y-103317102D01*
X167706992Y-96702722D02*
X167706992Y-99277094D01*
X188071999Y-107903099D02*
X189747000Y-109578100D01*
X188071999Y-100267729D02*
X188071999Y-107903099D01*
X185706992Y-97902722D02*
X188071999Y-100267729D01*
X203706992Y-107038092D02*
X207747000Y-111078100D01*
X203706992Y-105452722D02*
X203706992Y-107038092D01*
X115217276Y-109819440D02*
X114879120Y-109819440D01*
X115631993Y-109404723D02*
X115217276Y-109819440D01*
X115631993Y-96618007D02*
X115631993Y-109404723D01*
X117250000Y-95000000D02*
X115631993Y-96618007D01*
X126280883Y-123547115D02*
X126280883Y-127662613D01*
X133157092Y-116670906D02*
X126280883Y-123547115D01*
X133157092Y-106867820D02*
X133157092Y-116670906D01*
X131606992Y-105317720D02*
X133157092Y-106867820D01*
X131606992Y-104152722D02*
X131606992Y-105317720D01*
X148631991Y-120493109D02*
X146247000Y-122878100D01*
X148631991Y-103777723D02*
X148631991Y-120493109D01*
X149706992Y-102702722D02*
X148631991Y-103777723D01*
D23*
X99734813Y-91259978D02*
X97756268Y-91259978D01*
X108056996Y-93498013D02*
X108456996Y-93898013D01*
X102657004Y-81998013D02*
X102657004Y-88337787D01*
X102657384Y-81997633D02*
X102657004Y-81998013D01*
X109676996Y-62048013D02*
X108481251Y-63243758D01*
X95681556Y-63298013D02*
X95735811Y-63243758D01*
X102657004Y-81998013D02*
X102756996Y-82098005D01*
X103956996Y-81997633D02*
X102657384Y-81997633D01*
X102656996Y-63243758D02*
X95735811Y-63243758D01*
X102657004Y-88337787D02*
X104017230Y-89698013D01*
X104017230Y-89698013D02*
X108056996Y-89698013D01*
X102657004Y-88337787D02*
X99734813Y-91259978D01*
X108481251Y-63243758D02*
X102656996Y-63243758D01*
X108056996Y-89698013D02*
X108056996Y-93498013D01*
X102657004Y-81998013D02*
X102888495Y-82229504D01*
X100356986Y-102498003D02*
X100556996Y-102698013D01*
X99383768Y-93509978D02*
X99383768Y-91259978D01*
X99731952Y-80223057D02*
X105482038Y-80223057D01*
X94486996Y-61998013D02*
X99156996Y-61998013D01*
X94436996Y-62048013D02*
X94486996Y-61998013D01*
X105482038Y-80223057D02*
X106556996Y-81298015D01*
X106556996Y-81298015D02*
X106556996Y-81997633D01*
X98956996Y-80998013D02*
X99731952Y-80223057D01*
X95735811Y-58163758D02*
X99156996Y-58163758D01*
X107933234Y-61998013D02*
X109133234Y-60798013D01*
X99156996Y-58163758D02*
X108481251Y-58163758D01*
X94436996Y-62048013D02*
X94436996Y-59508013D01*
X106556996Y-81997633D02*
X107255238Y-81997633D01*
X110975811Y-60703758D02*
X110975811Y-63243758D01*
X107933234Y-61998013D02*
X99156996Y-61998013D01*
X109133234Y-60798013D02*
X110956996Y-60798013D01*
X93926996Y-58998013D02*
X94436996Y-59508013D01*
X108481251Y-58163758D02*
X109676996Y-56968013D01*
X108956996Y-87998013D02*
X110156996Y-89198013D01*
X108956996Y-87898013D02*
X108956996Y-87998013D01*
X107255238Y-81997633D02*
X108956996Y-83699391D01*
X108956996Y-83699391D02*
X108956996Y-87898013D01*
X94436996Y-59508013D02*
X94436996Y-59462573D01*
X94436996Y-59462573D02*
X95735811Y-58163758D01*
D22*
X108422741Y-70863758D02*
X108426996Y-70868013D01*
X108426996Y-70868013D02*
X109726996Y-69568013D01*
X104931996Y-70863758D02*
X95735811Y-70863758D01*
X108422741Y-70863758D02*
X104931996Y-70863758D01*
X214772001Y-98203101D02*
X212747000Y-96178100D01*
X214772001Y-111153099D02*
X214772001Y-98203101D01*
X212747000Y-113178100D02*
X214772001Y-111153099D01*
X214772001Y-81203101D02*
X212747000Y-79178100D01*
X214772001Y-94153099D02*
X214772001Y-81203101D01*
X212747000Y-96178100D02*
X214772001Y-94153099D01*
X214772001Y-64203101D02*
X212747000Y-62178100D01*
X214772001Y-77153099D02*
X214772001Y-64203101D01*
X212747000Y-79178100D02*
X214772001Y-77153099D01*
X214772001Y-60153099D02*
X212747000Y-62178100D01*
X214772001Y-49627731D02*
X214772001Y-60153099D01*
X211186992Y-46042722D02*
X214772001Y-49627731D01*
X108481251Y-73403758D02*
X109676996Y-72208013D01*
X105431996Y-73403758D02*
X108481251Y-73403758D01*
X95735811Y-73403758D02*
X105431996Y-73403758D01*
X189272001Y-117153099D02*
X194747000Y-111678100D01*
X189272001Y-127653099D02*
X189272001Y-117153099D01*
X187247000Y-129678100D02*
X189272001Y-127653099D01*
X196772001Y-109653099D02*
X194747000Y-111678100D01*
X196772001Y-96703101D02*
X196772001Y-109653099D01*
X194747000Y-94678100D02*
X196772001Y-96703101D01*
X196772001Y-92653099D02*
X194747000Y-94678100D01*
X196772001Y-79703101D02*
X196772001Y-92653099D01*
X194747000Y-77678100D02*
X196772001Y-79703101D01*
X196772001Y-75653099D02*
X194747000Y-77678100D01*
X196772001Y-62703101D02*
X196772001Y-75653099D01*
X194747000Y-60678100D02*
X196772001Y-62703101D01*
X196772001Y-58653099D02*
X194747000Y-60678100D01*
X196772001Y-45837731D02*
X196772001Y-58653099D01*
X193356992Y-42422722D02*
X196772001Y-45837731D01*
X109676996Y-74748013D02*
X108481251Y-75943758D01*
X105956996Y-75943758D02*
X95735811Y-75943758D01*
X108481251Y-75943758D02*
X105956996Y-75943758D01*
X171272001Y-112453099D02*
X176747000Y-106978100D01*
X171272001Y-122953099D02*
X171272001Y-112453099D01*
X169247000Y-124978100D02*
X171272001Y-122953099D01*
X178772001Y-53953099D02*
X176747000Y-55978100D01*
X178772001Y-44352741D02*
X178772001Y-53953099D01*
X175556992Y-41137732D02*
X178772001Y-44352741D01*
X178772001Y-70953099D02*
X176747000Y-72978100D01*
X178772001Y-58003101D02*
X178772001Y-70953099D01*
X176747000Y-55978100D02*
X178772001Y-58003101D01*
X178772001Y-87953099D02*
X176747000Y-89978100D01*
X178772001Y-75003101D02*
X178772001Y-87953099D01*
X176747000Y-72978100D02*
X178772001Y-75003101D01*
X178772001Y-104953099D02*
X176747000Y-106978100D01*
X178772001Y-92003101D02*
X178772001Y-104953099D01*
X176747000Y-89978100D02*
X178772001Y-92003101D01*
X106556996Y-77773013D02*
X96446556Y-77773013D01*
X106556996Y-77773013D02*
X109191996Y-77773013D01*
X109191996Y-77773013D02*
X109676996Y-77288013D01*
X96446556Y-77773013D02*
X95735811Y-78483758D01*
X153272001Y-111053099D02*
X158747000Y-105578100D01*
X153272001Y-122953099D02*
X153272001Y-111053099D01*
X151247000Y-124978100D02*
X153272001Y-122953099D01*
X160772001Y-73603101D02*
X158747000Y-71578100D01*
X160772001Y-86553099D02*
X160772001Y-73603101D01*
X158747000Y-88578100D02*
X160772001Y-86553099D01*
X160772001Y-56603101D02*
X158747000Y-54578100D01*
X160772001Y-69553099D02*
X160772001Y-56603101D01*
X158747000Y-71578100D02*
X160772001Y-69553099D01*
X160772001Y-52553099D02*
X158747000Y-54578100D01*
X160772001Y-44317731D02*
X160772001Y-52553099D01*
X157456992Y-41002722D02*
X160772001Y-44317731D01*
X160772001Y-103553099D02*
X158747000Y-105578100D01*
X160772001Y-90603101D02*
X160772001Y-103553099D01*
X158747000Y-88578100D02*
X160772001Y-90603101D01*
X106807007Y-78748024D02*
X107256996Y-79198013D01*
X95735811Y-81023758D02*
X98011545Y-78748024D01*
X98011545Y-78748024D02*
X106807007Y-78748024D01*
X107886996Y-79828013D02*
X107256996Y-79198013D01*
X109676996Y-79828013D02*
X107886996Y-79828013D01*
X140747000Y-117889781D02*
X140747000Y-106978100D01*
X131654032Y-126982749D02*
X140747000Y-117889781D01*
X131654032Y-128396962D02*
X131654032Y-126982749D01*
X142772001Y-75003101D02*
X140747000Y-72978100D01*
X142772001Y-87953099D02*
X142772001Y-75003101D01*
X140747000Y-89978100D02*
X142772001Y-87953099D01*
X142772001Y-58003101D02*
X140747000Y-55978100D01*
X142772001Y-70953099D02*
X142772001Y-58003101D01*
X140747000Y-72978100D02*
X142772001Y-70953099D01*
X140747000Y-106978100D02*
X142772001Y-104953099D01*
X142772001Y-104953099D02*
X142772001Y-92003101D01*
X142772001Y-92003101D02*
X140747000Y-89978100D01*
X142772001Y-53953099D02*
X140747000Y-55978100D01*
X142772001Y-46717731D02*
X142772001Y-53953099D01*
X140106992Y-44052722D02*
X142772001Y-46717731D01*
X100410561Y-80798068D02*
X105057051Y-80798068D01*
X98956996Y-81997633D02*
X99210996Y-81997633D01*
X98356996Y-64588013D02*
X107846996Y-64588013D01*
X98306996Y-81347633D02*
X98306996Y-81003860D01*
X105057051Y-80798068D02*
X105356996Y-81098013D01*
X94436996Y-64588013D02*
X98356996Y-64588013D01*
X99210996Y-81997633D02*
X100410561Y-80798068D01*
X98956996Y-81997633D02*
X98306996Y-81347633D01*
X94134303Y-64588013D02*
X94436996Y-64588013D01*
X107846996Y-64588013D02*
X107856996Y-64598013D01*
X101993633Y-92725113D02*
X101208768Y-93509978D01*
X103746996Y-92725113D02*
X101993633Y-92725113D01*
X94436996Y-54428013D02*
X107587002Y-54428013D01*
X107587002Y-54428013D02*
X107957002Y-54798013D01*
X101456996Y-81997633D02*
X101456996Y-81298013D01*
X101456996Y-81298013D02*
X104731378Y-81298013D01*
X107957014Y-67398013D02*
X107687014Y-67128013D01*
X107687014Y-67128013D02*
X94436996Y-67128013D01*
X105256996Y-81823631D02*
X105256996Y-81998013D01*
X93844303Y-67128013D02*
X94436996Y-67128013D01*
X104731378Y-81298013D02*
X105256996Y-81823631D01*
X101208768Y-91259978D02*
X102836268Y-91259978D01*
X105031861Y-91259978D02*
X101208768Y-91259978D01*
X106496996Y-92725113D02*
X105031861Y-91259978D01*
X95735811Y-60703758D02*
X106651251Y-60703758D01*
X106651251Y-60703758D02*
X107956996Y-59398013D01*
X107956996Y-59398013D02*
X109716996Y-59398013D01*
X109716996Y-59398013D02*
X109726996Y-59408013D01*
X166881991Y-120243109D02*
X164247000Y-122878100D01*
X166881991Y-103777723D02*
X166881991Y-120243109D01*
X167956992Y-102702722D02*
X166881991Y-103777723D01*
X95735811Y-55623758D02*
X108481251Y-55623758D01*
X108481251Y-55623758D02*
X109676996Y-54428013D01*
X107726988Y-69668013D02*
X107956988Y-69898013D01*
X94436996Y-69668013D02*
X107726988Y-69668013D01*
X96956996Y-56968013D02*
X107726996Y-56968013D01*
X96956996Y-56998013D02*
X97356996Y-57398013D01*
X94436996Y-56968013D02*
X96956996Y-56968013D01*
X96956996Y-56968013D02*
X97226996Y-56968013D01*
X96956996Y-56968013D02*
X96956996Y-56998013D01*
X107726996Y-56968013D02*
X107956996Y-57198013D01*
X96706450Y-87502180D02*
X96706450Y-87502179D01*
X96581450Y-87627180D02*
X96706450Y-87502180D01*
X96706450Y-87502180D02*
X96510996Y-87697633D01*
X97056996Y-87151634D02*
X96581450Y-87627180D01*
X97056996Y-83798013D02*
X97056996Y-87151634D01*
X96500000Y-87708630D02*
X96581450Y-87627180D01*
X96500000Y-93500000D02*
X96500000Y-87708630D01*
X98956996Y-82998393D02*
X98956996Y-87798013D01*
X101456996Y-82998393D02*
X101456996Y-87758013D01*
X101456996Y-87758013D02*
X101496996Y-87798013D01*
X103956996Y-87718013D02*
X104036996Y-87798013D01*
X103956996Y-82998393D02*
X103956996Y-87718013D01*
X106556996Y-87778013D02*
X106576996Y-87798013D01*
X106556996Y-82998393D02*
X106556996Y-87778013D01*
X184631991Y-125193109D02*
X182247000Y-127578100D01*
X184631991Y-105277723D02*
X184631991Y-125193109D01*
X185706992Y-104202722D02*
X184631991Y-105277723D01*
X97556996Y-81742573D02*
X97556996Y-80478672D01*
X98387622Y-79648046D02*
X106220215Y-79648046D01*
X95735811Y-83563758D02*
X97556996Y-81742573D01*
X106220215Y-79648046D02*
X108178183Y-81606014D01*
X108178183Y-81606014D02*
X108914997Y-81606014D01*
X108914997Y-81606014D02*
X109676996Y-82368013D01*
X97556996Y-80478672D02*
X98387622Y-79648046D01*
X122747000Y-75278100D02*
X120721999Y-77303101D01*
X123613102Y-92278100D02*
X122747000Y-92278100D01*
X125325001Y-93989999D02*
X123613102Y-92278100D01*
X125325001Y-106700099D02*
X125325001Y-93989999D01*
X122747000Y-109278100D02*
X125325001Y-106700099D01*
X103097446Y-127513441D02*
X103097446Y-129298013D01*
X121332787Y-109278100D02*
X103097446Y-127513441D01*
X122747000Y-109278100D02*
X121332787Y-109278100D01*
X117078011Y-77298013D02*
X117083099Y-77303101D01*
X112556996Y-77298013D02*
X117078011Y-77298013D01*
X117083099Y-77303101D02*
X114551908Y-77303101D01*
X120721999Y-77303101D02*
X117083099Y-77303101D01*
X124772001Y-90253099D02*
X122747000Y-92278100D01*
X124772001Y-77303101D02*
X124772001Y-90253099D01*
X122747000Y-75278100D02*
X124772001Y-77303101D01*
X124772001Y-73253099D02*
X122747000Y-75278100D01*
X124772001Y-60303101D02*
X124772001Y-73253099D01*
X122747000Y-58278100D02*
X124772001Y-60303101D01*
X108481251Y-68323758D02*
X109676996Y-67128013D01*
X95735811Y-68323758D02*
X108481251Y-68323758D01*
X95735811Y-65783758D02*
X108481251Y-65783758D01*
X108481251Y-65783758D02*
X109676996Y-64588013D01*
X102456996Y-98498013D02*
X102056996Y-98498013D01*
X102056996Y-98165873D02*
X106496996Y-93725873D01*
X102056996Y-98498013D02*
X102056996Y-98165873D01*
X93956996Y-96748013D02*
X93556996Y-96748013D01*
X93556996Y-96748013D02*
X93556996Y-102698013D01*
X94252747Y-96748013D02*
X96500000Y-94500760D01*
X93556996Y-96748013D02*
X94252747Y-96748013D01*
X102887717Y-93725873D02*
X103746996Y-93725873D01*
X102112830Y-94500760D02*
X102887717Y-93725873D01*
X96500000Y-94500760D02*
X102112830Y-94500760D01*
D24*
X107638182Y-82146015D02*
X107667180Y-82169813D01*
X107753906Y-82240988D01*
X107833221Y-82283383D01*
X107885936Y-82311560D01*
X108029197Y-82355017D01*
X108140850Y-82366014D01*
X108140860Y-82366014D01*
X108178183Y-82369690D01*
X108215506Y-82366014D01*
X108279996Y-82366014D01*
X108279996Y-82505605D01*
X108333682Y-82775503D01*
X108438991Y-83029740D01*
X108591876Y-83258548D01*
X108786461Y-83453133D01*
X109015269Y-83606018D01*
X109269506Y-83711327D01*
X109539404Y-83765013D01*
X109591474Y-83765013D01*
X109632497Y-83971248D01*
X109737806Y-84225485D01*
X109890691Y-84454293D01*
X110085276Y-84648878D01*
X110314084Y-84801763D01*
X110568321Y-84907072D01*
X110838219Y-84960758D01*
X111113403Y-84960758D01*
X111267381Y-84930130D01*
X113619996Y-87282746D01*
X113619996Y-103598113D01*
X102139363Y-103598113D01*
X102197702Y-103527027D01*
X102335595Y-103269047D01*
X102420509Y-102989124D01*
X102449181Y-102698013D01*
X102423081Y-102433013D01*
X102529946Y-102433013D01*
X102748107Y-102411526D01*
X103028030Y-102326612D01*
X103286010Y-102188719D01*
X103512130Y-102003147D01*
X103697702Y-101777027D01*
X103835595Y-101519047D01*
X103920509Y-101239124D01*
X103949181Y-100948013D01*
X103920509Y-100656902D01*
X103835595Y-100376979D01*
X103697702Y-100118999D01*
X103512130Y-99892879D01*
X103305148Y-99723013D01*
X103512130Y-99553147D01*
X103697702Y-99327027D01*
X103835595Y-99069047D01*
X103920509Y-98789124D01*
X103949181Y-98498013D01*
X103920509Y-98206902D01*
X103835595Y-97926979D01*
X103697702Y-97668999D01*
X103666586Y-97631084D01*
X106616226Y-94681445D01*
X107068496Y-94681445D01*
X107192978Y-94669185D01*
X107312676Y-94632875D01*
X107422990Y-94573910D01*
X107519681Y-94494558D01*
X107599033Y-94397867D01*
X107636039Y-94328634D01*
X107861950Y-94554545D01*
X107962937Y-94637423D01*
X108116682Y-94719601D01*
X108283505Y-94770207D01*
X108456995Y-94787294D01*
X108630485Y-94770207D01*
X108756924Y-94731852D01*
X108756924Y-95060013D01*
X108769184Y-95184495D01*
X108805494Y-95304193D01*
X108864459Y-95414507D01*
X108943811Y-95511198D01*
X109040502Y-95590550D01*
X109150816Y-95649515D01*
X109270514Y-95685825D01*
X109394996Y-95698085D01*
X110918996Y-95698085D01*
X111043478Y-95685825D01*
X111163176Y-95649515D01*
X111273490Y-95590550D01*
X111370181Y-95511198D01*
X111449533Y-95414507D01*
X111508498Y-95304193D01*
X111544808Y-95184495D01*
X111557068Y-95060013D01*
X111557068Y-93536013D01*
X111544808Y-93411531D01*
X111508498Y-93291833D01*
X111449533Y-93181519D01*
X111370181Y-93084828D01*
X111325322Y-93048013D01*
X111370181Y-93011198D01*
X111449533Y-92914507D01*
X111508498Y-92804193D01*
X111544808Y-92684495D01*
X111557068Y-92560013D01*
X111557068Y-91036013D01*
X111544808Y-90911531D01*
X111508498Y-90791833D01*
X111449533Y-90681519D01*
X111370181Y-90584828D01*
X111273490Y-90505476D01*
X111259528Y-90498013D01*
X111273490Y-90490550D01*
X111370181Y-90411198D01*
X111449533Y-90314507D01*
X111508498Y-90204193D01*
X111544808Y-90084495D01*
X111557068Y-89960013D01*
X111553996Y-89483763D01*
X111395246Y-89325013D01*
X110283996Y-89325013D01*
X110283996Y-89345013D01*
X110029996Y-89345013D01*
X110029996Y-89325013D01*
X110009996Y-89325013D01*
X110009996Y-89071013D01*
X110029996Y-89071013D01*
X110029996Y-87959763D01*
X110283996Y-87959763D01*
X110283996Y-89071013D01*
X111395246Y-89071013D01*
X111553996Y-88912263D01*
X111557068Y-88436013D01*
X111544808Y-88311531D01*
X111508498Y-88191833D01*
X111449533Y-88081519D01*
X111370181Y-87984828D01*
X111273490Y-87905476D01*
X111163176Y-87846511D01*
X111043478Y-87810201D01*
X110918996Y-87797941D01*
X110442746Y-87801013D01*
X110283996Y-87959763D01*
X110029996Y-87959763D01*
X109871246Y-87801013D01*
X109394996Y-87797941D01*
X109270514Y-87810201D01*
X109150816Y-87846511D01*
X109040502Y-87905476D01*
X108943811Y-87984828D01*
X108864459Y-88081519D01*
X108805494Y-88191833D01*
X108769184Y-88311531D01*
X108756924Y-88436013D01*
X108759996Y-88912263D01*
X108918744Y-89071011D01*
X108759996Y-89071011D01*
X108759996Y-89159587D01*
X108685813Y-89069196D01*
X108551055Y-88958602D01*
X108397309Y-88876424D01*
X108230486Y-88825818D01*
X108100473Y-88813013D01*
X108100472Y-88813013D01*
X108056996Y-88808731D01*
X108013519Y-88813013D01*
X107447850Y-88813013D01*
X107612793Y-88648070D01*
X107758728Y-88429662D01*
X107859250Y-88186981D01*
X107910496Y-87929351D01*
X107910496Y-87666675D01*
X107859250Y-87409045D01*
X107758728Y-87166364D01*
X107612793Y-86947956D01*
X107427053Y-86762216D01*
X107316996Y-86688679D01*
X107316996Y-83922285D01*
X107372676Y-83905395D01*
X107482990Y-83846430D01*
X107579681Y-83767078D01*
X107659033Y-83670387D01*
X107717998Y-83560073D01*
X107754308Y-83440375D01*
X107766568Y-83315893D01*
X107766568Y-82680893D01*
X107754308Y-82556411D01*
X107736593Y-82498013D01*
X107754308Y-82439615D01*
X107766568Y-82315133D01*
X107763496Y-82283383D01*
X107604748Y-82124635D01*
X107620636Y-82124635D01*
X107638182Y-82146015D01*
G04 #@! TA.AperFunction,Conductor*
D25*
G36*
X107638182Y-82146015D02*
G01*
X107667180Y-82169813D01*
X107753906Y-82240988D01*
X107833221Y-82283383D01*
X107885936Y-82311560D01*
X108029197Y-82355017D01*
X108140850Y-82366014D01*
X108140860Y-82366014D01*
X108178183Y-82369690D01*
X108215506Y-82366014D01*
X108279996Y-82366014D01*
X108279996Y-82505605D01*
X108333682Y-82775503D01*
X108438991Y-83029740D01*
X108591876Y-83258548D01*
X108786461Y-83453133D01*
X109015269Y-83606018D01*
X109269506Y-83711327D01*
X109539404Y-83765013D01*
X109591474Y-83765013D01*
X109632497Y-83971248D01*
X109737806Y-84225485D01*
X109890691Y-84454293D01*
X110085276Y-84648878D01*
X110314084Y-84801763D01*
X110568321Y-84907072D01*
X110838219Y-84960758D01*
X111113403Y-84960758D01*
X111267381Y-84930130D01*
X113619996Y-87282746D01*
X113619996Y-103598113D01*
X102139363Y-103598113D01*
X102197702Y-103527027D01*
X102335595Y-103269047D01*
X102420509Y-102989124D01*
X102449181Y-102698013D01*
X102423081Y-102433013D01*
X102529946Y-102433013D01*
X102748107Y-102411526D01*
X103028030Y-102326612D01*
X103286010Y-102188719D01*
X103512130Y-102003147D01*
X103697702Y-101777027D01*
X103835595Y-101519047D01*
X103920509Y-101239124D01*
X103949181Y-100948013D01*
X103920509Y-100656902D01*
X103835595Y-100376979D01*
X103697702Y-100118999D01*
X103512130Y-99892879D01*
X103305148Y-99723013D01*
X103512130Y-99553147D01*
X103697702Y-99327027D01*
X103835595Y-99069047D01*
X103920509Y-98789124D01*
X103949181Y-98498013D01*
X103920509Y-98206902D01*
X103835595Y-97926979D01*
X103697702Y-97668999D01*
X103666586Y-97631084D01*
X106616226Y-94681445D01*
X107068496Y-94681445D01*
X107192978Y-94669185D01*
X107312676Y-94632875D01*
X107422990Y-94573910D01*
X107519681Y-94494558D01*
X107599033Y-94397867D01*
X107636039Y-94328634D01*
X107861950Y-94554545D01*
X107962937Y-94637423D01*
X108116682Y-94719601D01*
X108283505Y-94770207D01*
X108456995Y-94787294D01*
X108630485Y-94770207D01*
X108756924Y-94731852D01*
X108756924Y-95060013D01*
X108769184Y-95184495D01*
X108805494Y-95304193D01*
X108864459Y-95414507D01*
X108943811Y-95511198D01*
X109040502Y-95590550D01*
X109150816Y-95649515D01*
X109270514Y-95685825D01*
X109394996Y-95698085D01*
X110918996Y-95698085D01*
X111043478Y-95685825D01*
X111163176Y-95649515D01*
X111273490Y-95590550D01*
X111370181Y-95511198D01*
X111449533Y-95414507D01*
X111508498Y-95304193D01*
X111544808Y-95184495D01*
X111557068Y-95060013D01*
X111557068Y-93536013D01*
X111544808Y-93411531D01*
X111508498Y-93291833D01*
X111449533Y-93181519D01*
X111370181Y-93084828D01*
X111325322Y-93048013D01*
X111370181Y-93011198D01*
X111449533Y-92914507D01*
X111508498Y-92804193D01*
X111544808Y-92684495D01*
X111557068Y-92560013D01*
X111557068Y-91036013D01*
X111544808Y-90911531D01*
X111508498Y-90791833D01*
X111449533Y-90681519D01*
X111370181Y-90584828D01*
X111273490Y-90505476D01*
X111259528Y-90498013D01*
X111273490Y-90490550D01*
X111370181Y-90411198D01*
X111449533Y-90314507D01*
X111508498Y-90204193D01*
X111544808Y-90084495D01*
X111557068Y-89960013D01*
X111553996Y-89483763D01*
X111395246Y-89325013D01*
X110283996Y-89325013D01*
X110283996Y-89345013D01*
X110029996Y-89345013D01*
X110029996Y-89325013D01*
X110009996Y-89325013D01*
X110009996Y-89071013D01*
X110029996Y-89071013D01*
X110029996Y-87959763D01*
X110283996Y-87959763D01*
X110283996Y-89071013D01*
X111395246Y-89071013D01*
X111553996Y-88912263D01*
X111557068Y-88436013D01*
X111544808Y-88311531D01*
X111508498Y-88191833D01*
X111449533Y-88081519D01*
X111370181Y-87984828D01*
X111273490Y-87905476D01*
X111163176Y-87846511D01*
X111043478Y-87810201D01*
X110918996Y-87797941D01*
X110442746Y-87801013D01*
X110283996Y-87959763D01*
X110029996Y-87959763D01*
X109871246Y-87801013D01*
X109394996Y-87797941D01*
X109270514Y-87810201D01*
X109150816Y-87846511D01*
X109040502Y-87905476D01*
X108943811Y-87984828D01*
X108864459Y-88081519D01*
X108805494Y-88191833D01*
X108769184Y-88311531D01*
X108756924Y-88436013D01*
X108759996Y-88912263D01*
X108918744Y-89071011D01*
X108759996Y-89071011D01*
X108759996Y-89159587D01*
X108685813Y-89069196D01*
X108551055Y-88958602D01*
X108397309Y-88876424D01*
X108230486Y-88825818D01*
X108100473Y-88813013D01*
X108100472Y-88813013D01*
X108056996Y-88808731D01*
X108013519Y-88813013D01*
X107447850Y-88813013D01*
X107612793Y-88648070D01*
X107758728Y-88429662D01*
X107859250Y-88186981D01*
X107910496Y-87929351D01*
X107910496Y-87666675D01*
X107859250Y-87409045D01*
X107758728Y-87166364D01*
X107612793Y-86947956D01*
X107427053Y-86762216D01*
X107316996Y-86688679D01*
X107316996Y-83922285D01*
X107372676Y-83905395D01*
X107482990Y-83846430D01*
X107579681Y-83767078D01*
X107659033Y-83670387D01*
X107717998Y-83560073D01*
X107754308Y-83440375D01*
X107766568Y-83315893D01*
X107766568Y-82680893D01*
X107754308Y-82556411D01*
X107736593Y-82498013D01*
X107754308Y-82439615D01*
X107766568Y-82315133D01*
X107763496Y-82283383D01*
X107604748Y-82124635D01*
X107620636Y-82124635D01*
X107638182Y-82146015D01*
G37*
G04 #@! TD.AperFunction*
D24*
X102444776Y-96703291D02*
X102420509Y-96456902D01*
X102335595Y-96176979D01*
X102197702Y-95918999D01*
X102012130Y-95692879D01*
X101786010Y-95507307D01*
X101528030Y-95369414D01*
X101248107Y-95284500D01*
X101029946Y-95263013D01*
X100084046Y-95263013D01*
X99865885Y-95284500D01*
X99585962Y-95369414D01*
X99327982Y-95507307D01*
X99101862Y-95692879D01*
X98916290Y-95918999D01*
X98778397Y-96176979D01*
X98693483Y-96456902D01*
X98664811Y-96748013D01*
X98693483Y-97039124D01*
X98778397Y-97319047D01*
X98916290Y-97577027D01*
X98958931Y-97628985D01*
X98878633Y-97613013D01*
X98635359Y-97613013D01*
X98396760Y-97660473D01*
X98172004Y-97753570D01*
X97969729Y-97888726D01*
X97797709Y-98060746D01*
X97662553Y-98263021D01*
X97569456Y-98487777D01*
X97521996Y-98726376D01*
X97521996Y-98969650D01*
X97569456Y-99208249D01*
X97662553Y-99433005D01*
X97797709Y-99635280D01*
X97885442Y-99723013D01*
X97797709Y-99810746D01*
X97662553Y-100013021D01*
X97569456Y-100237777D01*
X97521996Y-100476376D01*
X97521996Y-100719650D01*
X97569456Y-100958249D01*
X97662553Y-101183005D01*
X97797709Y-101385280D01*
X97969729Y-101557300D01*
X98172004Y-101692456D01*
X98396760Y-101785553D01*
X98635359Y-101833013D01*
X98878633Y-101833013D01*
X98958931Y-101817041D01*
X98916290Y-101868999D01*
X98778397Y-102126979D01*
X98693483Y-102406902D01*
X98664811Y-102698013D01*
X98693483Y-102989124D01*
X98778397Y-103269047D01*
X98916290Y-103527027D01*
X98974629Y-103598113D01*
X98138174Y-103598113D01*
X98262287Y-103417439D01*
X98377559Y-103148966D01*
X98398472Y-103054903D01*
X98277151Y-102825013D01*
X96683996Y-102825013D01*
X96683996Y-102845013D01*
X96429996Y-102845013D01*
X96429996Y-102825013D01*
X96409996Y-102825013D01*
X96409996Y-102571013D01*
X96429996Y-102571013D01*
X96429996Y-101213013D01*
X96683996Y-101213013D01*
X96683996Y-102571013D01*
X98277151Y-102571013D01*
X98398472Y-102341123D01*
X98377559Y-102247060D01*
X98262287Y-101978587D01*
X98096853Y-101737761D01*
X97887615Y-101533837D01*
X97642614Y-101374652D01*
X97371265Y-101266323D01*
X97083996Y-101213013D01*
X96683996Y-101213013D01*
X96429996Y-101213013D01*
X96029996Y-101213013D01*
X95742727Y-101266323D01*
X95471378Y-101374652D01*
X95226377Y-101533837D01*
X95057620Y-101698308D01*
X95012130Y-101642879D01*
X94786010Y-101457307D01*
X94528030Y-101319414D01*
X94316996Y-101255397D01*
X94316996Y-98190629D01*
X94528030Y-98126612D01*
X94786010Y-97988719D01*
X95012130Y-97803147D01*
X95057620Y-97747718D01*
X95226377Y-97912189D01*
X95471378Y-98071374D01*
X95742727Y-98179703D01*
X96029996Y-98233013D01*
X96429996Y-98233013D01*
X96429996Y-96875013D01*
X96683996Y-96875013D01*
X96683996Y-98233013D01*
X97083996Y-98233013D01*
X97371265Y-98179703D01*
X97642614Y-98071374D01*
X97887615Y-97912189D01*
X98096853Y-97708265D01*
X98262287Y-97467439D01*
X98377559Y-97198966D01*
X98398472Y-97104903D01*
X98277151Y-96875013D01*
X96683996Y-96875013D01*
X96429996Y-96875013D01*
X96409996Y-96875013D01*
X96409996Y-96621013D01*
X96429996Y-96621013D01*
X96429996Y-96601013D01*
X96683996Y-96601013D01*
X96683996Y-96621013D01*
X98277151Y-96621013D01*
X98398472Y-96391123D01*
X98377559Y-96297060D01*
X98262287Y-96028587D01*
X98096853Y-95787761D01*
X97887615Y-95583837D01*
X97642614Y-95424652D01*
X97434704Y-95341649D01*
X97522685Y-95269445D01*
X97529813Y-95260760D01*
X102075508Y-95260760D01*
X102112830Y-95264436D01*
X102150152Y-95260760D01*
X102150163Y-95260760D01*
X102261816Y-95249763D01*
X102405077Y-95206306D01*
X102537106Y-95135734D01*
X102652831Y-95040761D01*
X102676633Y-95011758D01*
X103026610Y-94661782D01*
X103051014Y-94669185D01*
X103175496Y-94681445D01*
X104318496Y-94681445D01*
X104442978Y-94669185D01*
X104494516Y-94653551D01*
X102444776Y-96703291D01*
G04 #@! TA.AperFunction,Conductor*
D25*
G36*
X102444776Y-96703291D02*
G01*
X102420509Y-96456902D01*
X102335595Y-96176979D01*
X102197702Y-95918999D01*
X102012130Y-95692879D01*
X101786010Y-95507307D01*
X101528030Y-95369414D01*
X101248107Y-95284500D01*
X101029946Y-95263013D01*
X100084046Y-95263013D01*
X99865885Y-95284500D01*
X99585962Y-95369414D01*
X99327982Y-95507307D01*
X99101862Y-95692879D01*
X98916290Y-95918999D01*
X98778397Y-96176979D01*
X98693483Y-96456902D01*
X98664811Y-96748013D01*
X98693483Y-97039124D01*
X98778397Y-97319047D01*
X98916290Y-97577027D01*
X98958931Y-97628985D01*
X98878633Y-97613013D01*
X98635359Y-97613013D01*
X98396760Y-97660473D01*
X98172004Y-97753570D01*
X97969729Y-97888726D01*
X97797709Y-98060746D01*
X97662553Y-98263021D01*
X97569456Y-98487777D01*
X97521996Y-98726376D01*
X97521996Y-98969650D01*
X97569456Y-99208249D01*
X97662553Y-99433005D01*
X97797709Y-99635280D01*
X97885442Y-99723013D01*
X97797709Y-99810746D01*
X97662553Y-100013021D01*
X97569456Y-100237777D01*
X97521996Y-100476376D01*
X97521996Y-100719650D01*
X97569456Y-100958249D01*
X97662553Y-101183005D01*
X97797709Y-101385280D01*
X97969729Y-101557300D01*
X98172004Y-101692456D01*
X98396760Y-101785553D01*
X98635359Y-101833013D01*
X98878633Y-101833013D01*
X98958931Y-101817041D01*
X98916290Y-101868999D01*
X98778397Y-102126979D01*
X98693483Y-102406902D01*
X98664811Y-102698013D01*
X98693483Y-102989124D01*
X98778397Y-103269047D01*
X98916290Y-103527027D01*
X98974629Y-103598113D01*
X98138174Y-103598113D01*
X98262287Y-103417439D01*
X98377559Y-103148966D01*
X98398472Y-103054903D01*
X98277151Y-102825013D01*
X96683996Y-102825013D01*
X96683996Y-102845013D01*
X96429996Y-102845013D01*
X96429996Y-102825013D01*
X96409996Y-102825013D01*
X96409996Y-102571013D01*
X96429996Y-102571013D01*
X96429996Y-101213013D01*
X96683996Y-101213013D01*
X96683996Y-102571013D01*
X98277151Y-102571013D01*
X98398472Y-102341123D01*
X98377559Y-102247060D01*
X98262287Y-101978587D01*
X98096853Y-101737761D01*
X97887615Y-101533837D01*
X97642614Y-101374652D01*
X97371265Y-101266323D01*
X97083996Y-101213013D01*
X96683996Y-101213013D01*
X96429996Y-101213013D01*
X96029996Y-101213013D01*
X95742727Y-101266323D01*
X95471378Y-101374652D01*
X95226377Y-101533837D01*
X95057620Y-101698308D01*
X95012130Y-101642879D01*
X94786010Y-101457307D01*
X94528030Y-101319414D01*
X94316996Y-101255397D01*
X94316996Y-98190629D01*
X94528030Y-98126612D01*
X94786010Y-97988719D01*
X95012130Y-97803147D01*
X95057620Y-97747718D01*
X95226377Y-97912189D01*
X95471378Y-98071374D01*
X95742727Y-98179703D01*
X96029996Y-98233013D01*
X96429996Y-98233013D01*
X96429996Y-96875013D01*
X96683996Y-96875013D01*
X96683996Y-98233013D01*
X97083996Y-98233013D01*
X97371265Y-98179703D01*
X97642614Y-98071374D01*
X97887615Y-97912189D01*
X98096853Y-97708265D01*
X98262287Y-97467439D01*
X98377559Y-97198966D01*
X98398472Y-97104903D01*
X98277151Y-96875013D01*
X96683996Y-96875013D01*
X96429996Y-96875013D01*
X96409996Y-96875013D01*
X96409996Y-96621013D01*
X96429996Y-96621013D01*
X96429996Y-96601013D01*
X96683996Y-96601013D01*
X96683996Y-96621013D01*
X98277151Y-96621013D01*
X98398472Y-96391123D01*
X98377559Y-96297060D01*
X98262287Y-96028587D01*
X98096853Y-95787761D01*
X97887615Y-95583837D01*
X97642614Y-95424652D01*
X97434704Y-95341649D01*
X97522685Y-95269445D01*
X97529813Y-95260760D01*
X102075508Y-95260760D01*
X102112830Y-95264436D01*
X102150152Y-95260760D01*
X102150163Y-95260760D01*
X102261816Y-95249763D01*
X102405077Y-95206306D01*
X102537106Y-95135734D01*
X102652831Y-95040761D01*
X102676633Y-95011758D01*
X103026610Y-94661782D01*
X103051014Y-94669185D01*
X103175496Y-94681445D01*
X104318496Y-94681445D01*
X104442978Y-94669185D01*
X104494516Y-94653551D01*
X102444776Y-96703291D01*
G37*
G04 #@! TD.AperFunction*
D24*
X113619996Y-60864916D02*
X112008413Y-62476500D01*
X111941376Y-62457798D01*
X111155416Y-63243758D01*
X111169559Y-63257901D01*
X110989954Y-63437506D01*
X110975811Y-63423363D01*
X110961669Y-63437506D01*
X110782064Y-63257901D01*
X110796206Y-63243758D01*
X110782064Y-63229616D01*
X110961669Y-63050011D01*
X110975811Y-63064153D01*
X111761771Y-62278193D01*
X111694791Y-62038102D01*
X111564167Y-61976679D01*
X111578834Y-61971394D01*
X111694791Y-61909414D01*
X111761771Y-61669323D01*
X110975811Y-60883363D01*
X110961669Y-60897506D01*
X110782064Y-60717901D01*
X110796206Y-60703758D01*
X111155416Y-60703758D01*
X111941376Y-61489718D01*
X112181467Y-61422738D01*
X112298567Y-61173710D01*
X112364834Y-60906623D01*
X112377721Y-60631741D01*
X112336733Y-60359625D01*
X112243447Y-60100735D01*
X112181467Y-59984778D01*
X111941376Y-59917798D01*
X111155416Y-60703758D01*
X110796206Y-60703758D01*
X110782064Y-60689616D01*
X110961669Y-60510011D01*
X110975811Y-60524153D01*
X111761771Y-59738193D01*
X111694791Y-59498102D01*
X111559051Y-59434273D01*
X111637538Y-59401763D01*
X111866346Y-59248878D01*
X112060931Y-59054293D01*
X112213816Y-58825485D01*
X112319125Y-58571248D01*
X112372811Y-58301350D01*
X112372811Y-58026166D01*
X112319125Y-57756268D01*
X112213816Y-57502031D01*
X112060931Y-57273223D01*
X111866346Y-57078638D01*
X111637538Y-56925753D01*
X111560296Y-56893758D01*
X111637538Y-56861763D01*
X111866346Y-56708878D01*
X112060931Y-56514293D01*
X112213816Y-56285485D01*
X112319125Y-56031248D01*
X112372811Y-55761350D01*
X112372811Y-55486166D01*
X112319125Y-55216268D01*
X112213816Y-54962031D01*
X112060931Y-54733223D01*
X111866346Y-54538638D01*
X111637538Y-54385753D01*
X111383301Y-54280444D01*
X111113403Y-54226758D01*
X111061333Y-54226758D01*
X111020310Y-54020523D01*
X110915001Y-53766286D01*
X110762116Y-53537478D01*
X110567531Y-53342893D01*
X110338723Y-53190008D01*
X110084486Y-53084699D01*
X109814588Y-53031013D01*
X109539404Y-53031013D01*
X109269506Y-53084699D01*
X109015269Y-53190008D01*
X108786461Y-53342893D01*
X108591876Y-53537478D01*
X108438991Y-53766286D01*
X108333682Y-54020523D01*
X108328221Y-54047980D01*
X108248924Y-54015134D01*
X108150806Y-53917016D01*
X108127003Y-53888012D01*
X108011278Y-53793039D01*
X107879249Y-53722467D01*
X107735988Y-53679010D01*
X107624335Y-53668013D01*
X107624324Y-53668013D01*
X107587002Y-53664337D01*
X107549680Y-53668013D01*
X95609337Y-53668013D01*
X95522116Y-53537478D01*
X95327531Y-53342893D01*
X95098723Y-53190008D01*
X94844486Y-53084699D01*
X94574588Y-53031013D01*
X94299404Y-53031013D01*
X94029506Y-53084699D01*
X93775269Y-53190008D01*
X93546461Y-53342893D01*
X93351876Y-53537478D01*
X93198991Y-53766286D01*
X93093682Y-54020523D01*
X93039996Y-54290421D01*
X93039996Y-54565605D01*
X93093682Y-54835503D01*
X93198991Y-55089740D01*
X93351876Y-55318548D01*
X93546461Y-55513133D01*
X93775269Y-55666018D01*
X93852511Y-55698013D01*
X93775269Y-55730008D01*
X93546461Y-55882893D01*
X93351876Y-56077478D01*
X93198991Y-56306286D01*
X93093682Y-56560523D01*
X93039996Y-56830421D01*
X93039996Y-57105605D01*
X93093682Y-57375503D01*
X93198991Y-57629740D01*
X93351876Y-57858548D01*
X93546461Y-58053133D01*
X93775269Y-58206018D01*
X93846939Y-58235705D01*
X93833973Y-58240377D01*
X93718016Y-58302357D01*
X93651036Y-58542448D01*
X94436996Y-59328408D01*
X95222956Y-58542448D01*
X95213044Y-58506920D01*
X95556206Y-58163758D01*
X95542064Y-58149616D01*
X95721669Y-57970011D01*
X95735811Y-57984153D01*
X95749954Y-57970011D01*
X95929559Y-58149616D01*
X95915416Y-58163758D01*
X96701376Y-58949718D01*
X96941467Y-58882738D01*
X97058567Y-58633710D01*
X97124834Y-58366623D01*
X97132425Y-58204701D01*
X97274756Y-58233013D01*
X97439236Y-58233013D01*
X97600556Y-58200924D01*
X97752517Y-58137980D01*
X97889277Y-58046600D01*
X98005583Y-57930294D01*
X98096963Y-57793534D01*
X98124103Y-57728013D01*
X107306885Y-57728013D01*
X107308409Y-57730294D01*
X107424715Y-57846600D01*
X107561475Y-57937980D01*
X107713436Y-58000924D01*
X107874756Y-58033013D01*
X108039236Y-58033013D01*
X108200556Y-58000924D01*
X108352517Y-57937980D01*
X108489277Y-57846600D01*
X108605583Y-57730294D01*
X108608878Y-57725363D01*
X108711431Y-57753973D01*
X109497391Y-56968013D01*
X109483249Y-56953871D01*
X109662854Y-56774266D01*
X109676996Y-56788408D01*
X109691139Y-56774266D01*
X109870744Y-56953871D01*
X109856601Y-56968013D01*
X109870744Y-56982156D01*
X109691139Y-57161761D01*
X109676996Y-57147618D01*
X108891036Y-57933578D01*
X108958016Y-58173669D01*
X109093756Y-58237498D01*
X109015269Y-58270008D01*
X108786461Y-58422893D01*
X108591876Y-58617478D01*
X108578155Y-58638013D01*
X107994318Y-58638013D01*
X107956995Y-58634337D01*
X107919672Y-58638013D01*
X107919663Y-58638013D01*
X107808010Y-58649010D01*
X107664749Y-58692467D01*
X107532720Y-58763039D01*
X107416995Y-58858012D01*
X107393197Y-58887010D01*
X106336450Y-59943758D01*
X96908152Y-59943758D01*
X96820931Y-59813223D01*
X96626346Y-59618638D01*
X96397538Y-59465753D01*
X96325868Y-59436066D01*
X96338834Y-59431394D01*
X96454791Y-59369414D01*
X96521771Y-59129323D01*
X95735811Y-58343363D01*
X94949851Y-59129323D01*
X94959763Y-59164851D01*
X94616601Y-59508013D01*
X94630744Y-59522156D01*
X94451139Y-59701761D01*
X94436996Y-59687618D01*
X93651036Y-60473578D01*
X93718016Y-60713669D01*
X93848640Y-60775092D01*
X93833973Y-60780377D01*
X93718016Y-60842357D01*
X93651036Y-61082448D01*
X94436996Y-61868408D01*
X94451139Y-61854266D01*
X94630744Y-62033871D01*
X94616601Y-62048013D01*
X94630744Y-62062156D01*
X94451139Y-62241761D01*
X94436996Y-62227618D01*
X93651036Y-63013578D01*
X93718016Y-63253669D01*
X93853756Y-63317498D01*
X93775269Y-63350008D01*
X93546461Y-63502893D01*
X93351876Y-63697478D01*
X93198991Y-63926286D01*
X93093682Y-64180523D01*
X93039996Y-64450421D01*
X93039996Y-64725605D01*
X93093682Y-64995503D01*
X93198991Y-65249740D01*
X93351876Y-65478548D01*
X93546461Y-65673133D01*
X93775269Y-65826018D01*
X93852511Y-65858013D01*
X93775269Y-65890008D01*
X93546461Y-66042893D01*
X93351876Y-66237478D01*
X93198991Y-66466286D01*
X93093682Y-66720523D01*
X93039996Y-66990421D01*
X93039996Y-67265605D01*
X93093682Y-67535503D01*
X93198991Y-67789740D01*
X93351876Y-68018548D01*
X93546461Y-68213133D01*
X93775269Y-68366018D01*
X93852511Y-68398013D01*
X93775269Y-68430008D01*
X93546461Y-68582893D01*
X93351876Y-68777478D01*
X93198991Y-69006286D01*
X93093682Y-69260523D01*
X93039996Y-69530421D01*
X93039996Y-69805605D01*
X93093682Y-70075503D01*
X93198991Y-70329740D01*
X93351876Y-70558548D01*
X93546461Y-70753133D01*
X93775269Y-70906018D01*
X93852511Y-70938013D01*
X93775269Y-70970008D01*
X93546461Y-71122893D01*
X93351876Y-71317478D01*
X93198991Y-71546286D01*
X93093682Y-71800523D01*
X93039996Y-72070421D01*
X93039996Y-72345605D01*
X93093682Y-72615503D01*
X93198991Y-72869740D01*
X93351876Y-73098548D01*
X93546461Y-73293133D01*
X93775269Y-73446018D01*
X93852511Y-73478013D01*
X93775269Y-73510008D01*
X93546461Y-73662893D01*
X93351876Y-73857478D01*
X93198991Y-74086286D01*
X93093682Y-74340523D01*
X93039996Y-74610421D01*
X93039996Y-74885605D01*
X93093682Y-75155503D01*
X93198991Y-75409740D01*
X93351876Y-75638548D01*
X93546461Y-75833133D01*
X93775269Y-75986018D01*
X93852511Y-76018013D01*
X93775269Y-76050008D01*
X93546461Y-76202893D01*
X93351876Y-76397478D01*
X93198991Y-76626286D01*
X93093682Y-76880523D01*
X93039996Y-77150421D01*
X93039996Y-77425605D01*
X93093682Y-77695503D01*
X93198991Y-77949740D01*
X93351876Y-78178548D01*
X93546461Y-78373133D01*
X93775269Y-78526018D01*
X93852511Y-78558013D01*
X93775269Y-78590008D01*
X93546461Y-78742893D01*
X93351876Y-78937478D01*
X93198991Y-79166286D01*
X93093682Y-79420523D01*
X93039996Y-79690421D01*
X93039996Y-79965605D01*
X93093682Y-80235503D01*
X93198991Y-80489740D01*
X93351876Y-80718548D01*
X93546461Y-80913133D01*
X93775269Y-81066018D01*
X93852511Y-81098013D01*
X93775269Y-81130008D01*
X93546461Y-81282893D01*
X93351876Y-81477478D01*
X93198991Y-81706286D01*
X93093682Y-81960523D01*
X93039996Y-82230421D01*
X93039996Y-82505605D01*
X93093682Y-82775503D01*
X93198991Y-83029740D01*
X93351876Y-83258548D01*
X93546461Y-83453133D01*
X93775269Y-83606018D01*
X94029506Y-83711327D01*
X94299404Y-83765013D01*
X94351474Y-83765013D01*
X94392497Y-83971248D01*
X94497806Y-84225485D01*
X94650691Y-84454293D01*
X94845276Y-84648878D01*
X95074084Y-84801763D01*
X95328321Y-84907072D01*
X95598219Y-84960758D01*
X95873403Y-84960758D01*
X96143301Y-84907072D01*
X96296996Y-84843409D01*
X96296997Y-86836832D01*
X96195457Y-86938372D01*
X96166449Y-86962178D01*
X96142644Y-86991185D01*
X95988989Y-87144838D01*
X95960000Y-87168629D01*
X95936202Y-87197627D01*
X95936201Y-87197628D01*
X95865026Y-87284354D01*
X95794454Y-87416384D01*
X95750998Y-87559645D01*
X95736324Y-87708630D01*
X95740001Y-87745962D01*
X95740000Y-92576108D01*
X95684320Y-92592998D01*
X95574006Y-92651963D01*
X95477315Y-92731315D01*
X95397963Y-92828006D01*
X95338998Y-92938320D01*
X95302688Y-93058018D01*
X95290428Y-93182500D01*
X95290428Y-93817500D01*
X95302688Y-93941982D01*
X95320403Y-94000380D01*
X95302688Y-94058778D01*
X95290428Y-94183260D01*
X95290428Y-94635530D01*
X94546612Y-95379346D01*
X94528030Y-95369414D01*
X94248107Y-95284500D01*
X94029946Y-95263013D01*
X93084046Y-95263013D01*
X92865885Y-95284500D01*
X92585962Y-95369414D01*
X92327982Y-95507307D01*
X92101862Y-95692879D01*
X91916290Y-95918999D01*
X91778397Y-96176979D01*
X91693483Y-96456902D01*
X91664811Y-96748013D01*
X91693483Y-97039124D01*
X91778397Y-97319047D01*
X91916290Y-97577027D01*
X91958931Y-97628985D01*
X91878633Y-97613013D01*
X91635359Y-97613013D01*
X91396760Y-97660473D01*
X91172004Y-97753570D01*
X90969729Y-97888726D01*
X90941992Y-97916463D01*
X90941992Y-93974879D01*
X90987009Y-94042252D01*
X91214744Y-94269987D01*
X91482533Y-94448918D01*
X91780084Y-94572168D01*
X92095963Y-94635000D01*
X92418029Y-94635000D01*
X92733908Y-94572168D01*
X93031459Y-94448918D01*
X93299248Y-94269987D01*
X93526983Y-94042252D01*
X93705914Y-93774463D01*
X93829164Y-93476912D01*
X93891996Y-93161033D01*
X93891996Y-92838967D01*
X93829164Y-92523088D01*
X93705914Y-92225537D01*
X93526983Y-91957748D01*
X93299248Y-91730013D01*
X93031459Y-91551082D01*
X92733908Y-91427832D01*
X92418029Y-91365000D01*
X92095963Y-91365000D01*
X91780084Y-91427832D01*
X91482533Y-91551082D01*
X91214744Y-91730013D01*
X90987009Y-91957748D01*
X90941992Y-92025121D01*
X90941992Y-87635413D01*
X91301188Y-87635413D01*
X91396952Y-87899814D01*
X91686567Y-88040704D01*
X91998104Y-88122384D01*
X92319591Y-88141718D01*
X92638671Y-88097961D01*
X92943084Y-87992795D01*
X93117040Y-87899814D01*
X93212804Y-87635413D01*
X92256996Y-86679605D01*
X91301188Y-87635413D01*
X90941992Y-87635413D01*
X90941992Y-87390762D01*
X91121583Y-87455808D01*
X92077391Y-86500000D01*
X92436601Y-86500000D01*
X93392409Y-87455808D01*
X93656810Y-87360044D01*
X93797700Y-87070429D01*
X93879380Y-86758892D01*
X93898714Y-86437405D01*
X93854957Y-86118325D01*
X93749791Y-85813912D01*
X93656810Y-85639956D01*
X93392409Y-85544192D01*
X92436601Y-86500000D01*
X92077391Y-86500000D01*
X91121583Y-85544192D01*
X90941992Y-85609238D01*
X90941992Y-85364587D01*
X91301188Y-85364587D01*
X92256996Y-86320395D01*
X93212804Y-85364587D01*
X93117040Y-85100186D01*
X92827425Y-84959296D01*
X92515888Y-84877616D01*
X92194401Y-84858282D01*
X91875321Y-84902039D01*
X91570908Y-85007205D01*
X91396952Y-85100186D01*
X91301188Y-85364587D01*
X90941992Y-85364587D01*
X90941992Y-62120030D01*
X93035086Y-62120030D01*
X93076074Y-62392146D01*
X93169360Y-62651036D01*
X93231340Y-62766993D01*
X93471431Y-62833973D01*
X94257391Y-62048013D01*
X93471431Y-61262053D01*
X93231340Y-61329033D01*
X93114240Y-61578061D01*
X93047973Y-61845148D01*
X93035086Y-62120030D01*
X90941992Y-62120030D01*
X90941992Y-59580030D01*
X93035086Y-59580030D01*
X93076074Y-59852146D01*
X93169360Y-60111036D01*
X93231340Y-60226993D01*
X93471431Y-60293973D01*
X94257391Y-59508013D01*
X93471431Y-58722053D01*
X93231340Y-58789033D01*
X93114240Y-59038061D01*
X93047973Y-59305148D01*
X93035086Y-59580030D01*
X90941992Y-59580030D01*
X90941992Y-51852113D01*
X113619996Y-51852113D01*
X113619996Y-60864916D01*
G04 #@! TA.AperFunction,Conductor*
D25*
G36*
X113619996Y-60864916D02*
G01*
X112008413Y-62476500D01*
X111941376Y-62457798D01*
X111155416Y-63243758D01*
X111169559Y-63257901D01*
X110989954Y-63437506D01*
X110975811Y-63423363D01*
X110961669Y-63437506D01*
X110782064Y-63257901D01*
X110796206Y-63243758D01*
X110782064Y-63229616D01*
X110961669Y-63050011D01*
X110975811Y-63064153D01*
X111761771Y-62278193D01*
X111694791Y-62038102D01*
X111564167Y-61976679D01*
X111578834Y-61971394D01*
X111694791Y-61909414D01*
X111761771Y-61669323D01*
X110975811Y-60883363D01*
X110961669Y-60897506D01*
X110782064Y-60717901D01*
X110796206Y-60703758D01*
X111155416Y-60703758D01*
X111941376Y-61489718D01*
X112181467Y-61422738D01*
X112298567Y-61173710D01*
X112364834Y-60906623D01*
X112377721Y-60631741D01*
X112336733Y-60359625D01*
X112243447Y-60100735D01*
X112181467Y-59984778D01*
X111941376Y-59917798D01*
X111155416Y-60703758D01*
X110796206Y-60703758D01*
X110782064Y-60689616D01*
X110961669Y-60510011D01*
X110975811Y-60524153D01*
X111761771Y-59738193D01*
X111694791Y-59498102D01*
X111559051Y-59434273D01*
X111637538Y-59401763D01*
X111866346Y-59248878D01*
X112060931Y-59054293D01*
X112213816Y-58825485D01*
X112319125Y-58571248D01*
X112372811Y-58301350D01*
X112372811Y-58026166D01*
X112319125Y-57756268D01*
X112213816Y-57502031D01*
X112060931Y-57273223D01*
X111866346Y-57078638D01*
X111637538Y-56925753D01*
X111560296Y-56893758D01*
X111637538Y-56861763D01*
X111866346Y-56708878D01*
X112060931Y-56514293D01*
X112213816Y-56285485D01*
X112319125Y-56031248D01*
X112372811Y-55761350D01*
X112372811Y-55486166D01*
X112319125Y-55216268D01*
X112213816Y-54962031D01*
X112060931Y-54733223D01*
X111866346Y-54538638D01*
X111637538Y-54385753D01*
X111383301Y-54280444D01*
X111113403Y-54226758D01*
X111061333Y-54226758D01*
X111020310Y-54020523D01*
X110915001Y-53766286D01*
X110762116Y-53537478D01*
X110567531Y-53342893D01*
X110338723Y-53190008D01*
X110084486Y-53084699D01*
X109814588Y-53031013D01*
X109539404Y-53031013D01*
X109269506Y-53084699D01*
X109015269Y-53190008D01*
X108786461Y-53342893D01*
X108591876Y-53537478D01*
X108438991Y-53766286D01*
X108333682Y-54020523D01*
X108328221Y-54047980D01*
X108248924Y-54015134D01*
X108150806Y-53917016D01*
X108127003Y-53888012D01*
X108011278Y-53793039D01*
X107879249Y-53722467D01*
X107735988Y-53679010D01*
X107624335Y-53668013D01*
X107624324Y-53668013D01*
X107587002Y-53664337D01*
X107549680Y-53668013D01*
X95609337Y-53668013D01*
X95522116Y-53537478D01*
X95327531Y-53342893D01*
X95098723Y-53190008D01*
X94844486Y-53084699D01*
X94574588Y-53031013D01*
X94299404Y-53031013D01*
X94029506Y-53084699D01*
X93775269Y-53190008D01*
X93546461Y-53342893D01*
X93351876Y-53537478D01*
X93198991Y-53766286D01*
X93093682Y-54020523D01*
X93039996Y-54290421D01*
X93039996Y-54565605D01*
X93093682Y-54835503D01*
X93198991Y-55089740D01*
X93351876Y-55318548D01*
X93546461Y-55513133D01*
X93775269Y-55666018D01*
X93852511Y-55698013D01*
X93775269Y-55730008D01*
X93546461Y-55882893D01*
X93351876Y-56077478D01*
X93198991Y-56306286D01*
X93093682Y-56560523D01*
X93039996Y-56830421D01*
X93039996Y-57105605D01*
X93093682Y-57375503D01*
X93198991Y-57629740D01*
X93351876Y-57858548D01*
X93546461Y-58053133D01*
X93775269Y-58206018D01*
X93846939Y-58235705D01*
X93833973Y-58240377D01*
X93718016Y-58302357D01*
X93651036Y-58542448D01*
X94436996Y-59328408D01*
X95222956Y-58542448D01*
X95213044Y-58506920D01*
X95556206Y-58163758D01*
X95542064Y-58149616D01*
X95721669Y-57970011D01*
X95735811Y-57984153D01*
X95749954Y-57970011D01*
X95929559Y-58149616D01*
X95915416Y-58163758D01*
X96701376Y-58949718D01*
X96941467Y-58882738D01*
X97058567Y-58633710D01*
X97124834Y-58366623D01*
X97132425Y-58204701D01*
X97274756Y-58233013D01*
X97439236Y-58233013D01*
X97600556Y-58200924D01*
X97752517Y-58137980D01*
X97889277Y-58046600D01*
X98005583Y-57930294D01*
X98096963Y-57793534D01*
X98124103Y-57728013D01*
X107306885Y-57728013D01*
X107308409Y-57730294D01*
X107424715Y-57846600D01*
X107561475Y-57937980D01*
X107713436Y-58000924D01*
X107874756Y-58033013D01*
X108039236Y-58033013D01*
X108200556Y-58000924D01*
X108352517Y-57937980D01*
X108489277Y-57846600D01*
X108605583Y-57730294D01*
X108608878Y-57725363D01*
X108711431Y-57753973D01*
X109497391Y-56968013D01*
X109483249Y-56953871D01*
X109662854Y-56774266D01*
X109676996Y-56788408D01*
X109691139Y-56774266D01*
X109870744Y-56953871D01*
X109856601Y-56968013D01*
X109870744Y-56982156D01*
X109691139Y-57161761D01*
X109676996Y-57147618D01*
X108891036Y-57933578D01*
X108958016Y-58173669D01*
X109093756Y-58237498D01*
X109015269Y-58270008D01*
X108786461Y-58422893D01*
X108591876Y-58617478D01*
X108578155Y-58638013D01*
X107994318Y-58638013D01*
X107956995Y-58634337D01*
X107919672Y-58638013D01*
X107919663Y-58638013D01*
X107808010Y-58649010D01*
X107664749Y-58692467D01*
X107532720Y-58763039D01*
X107416995Y-58858012D01*
X107393197Y-58887010D01*
X106336450Y-59943758D01*
X96908152Y-59943758D01*
X96820931Y-59813223D01*
X96626346Y-59618638D01*
X96397538Y-59465753D01*
X96325868Y-59436066D01*
X96338834Y-59431394D01*
X96454791Y-59369414D01*
X96521771Y-59129323D01*
X95735811Y-58343363D01*
X94949851Y-59129323D01*
X94959763Y-59164851D01*
X94616601Y-59508013D01*
X94630744Y-59522156D01*
X94451139Y-59701761D01*
X94436996Y-59687618D01*
X93651036Y-60473578D01*
X93718016Y-60713669D01*
X93848640Y-60775092D01*
X93833973Y-60780377D01*
X93718016Y-60842357D01*
X93651036Y-61082448D01*
X94436996Y-61868408D01*
X94451139Y-61854266D01*
X94630744Y-62033871D01*
X94616601Y-62048013D01*
X94630744Y-62062156D01*
X94451139Y-62241761D01*
X94436996Y-62227618D01*
X93651036Y-63013578D01*
X93718016Y-63253669D01*
X93853756Y-63317498D01*
X93775269Y-63350008D01*
X93546461Y-63502893D01*
X93351876Y-63697478D01*
X93198991Y-63926286D01*
X93093682Y-64180523D01*
X93039996Y-64450421D01*
X93039996Y-64725605D01*
X93093682Y-64995503D01*
X93198991Y-65249740D01*
X93351876Y-65478548D01*
X93546461Y-65673133D01*
X93775269Y-65826018D01*
X93852511Y-65858013D01*
X93775269Y-65890008D01*
X93546461Y-66042893D01*
X93351876Y-66237478D01*
X93198991Y-66466286D01*
X93093682Y-66720523D01*
X93039996Y-66990421D01*
X93039996Y-67265605D01*
X93093682Y-67535503D01*
X93198991Y-67789740D01*
X93351876Y-68018548D01*
X93546461Y-68213133D01*
X93775269Y-68366018D01*
X93852511Y-68398013D01*
X93775269Y-68430008D01*
X93546461Y-68582893D01*
X93351876Y-68777478D01*
X93198991Y-69006286D01*
X93093682Y-69260523D01*
X93039996Y-69530421D01*
X93039996Y-69805605D01*
X93093682Y-70075503D01*
X93198991Y-70329740D01*
X93351876Y-70558548D01*
X93546461Y-70753133D01*
X93775269Y-70906018D01*
X93852511Y-70938013D01*
X93775269Y-70970008D01*
X93546461Y-71122893D01*
X93351876Y-71317478D01*
X93198991Y-71546286D01*
X93093682Y-71800523D01*
X93039996Y-72070421D01*
X93039996Y-72345605D01*
X93093682Y-72615503D01*
X93198991Y-72869740D01*
X93351876Y-73098548D01*
X93546461Y-73293133D01*
X93775269Y-73446018D01*
X93852511Y-73478013D01*
X93775269Y-73510008D01*
X93546461Y-73662893D01*
X93351876Y-73857478D01*
X93198991Y-74086286D01*
X93093682Y-74340523D01*
X93039996Y-74610421D01*
X93039996Y-74885605D01*
X93093682Y-75155503D01*
X93198991Y-75409740D01*
X93351876Y-75638548D01*
X93546461Y-75833133D01*
X93775269Y-75986018D01*
X93852511Y-76018013D01*
X93775269Y-76050008D01*
X93546461Y-76202893D01*
X93351876Y-76397478D01*
X93198991Y-76626286D01*
X93093682Y-76880523D01*
X93039996Y-77150421D01*
X93039996Y-77425605D01*
X93093682Y-77695503D01*
X93198991Y-77949740D01*
X93351876Y-78178548D01*
X93546461Y-78373133D01*
X93775269Y-78526018D01*
X93852511Y-78558013D01*
X93775269Y-78590008D01*
X93546461Y-78742893D01*
X93351876Y-78937478D01*
X93198991Y-79166286D01*
X93093682Y-79420523D01*
X93039996Y-79690421D01*
X93039996Y-79965605D01*
X93093682Y-80235503D01*
X93198991Y-80489740D01*
X93351876Y-80718548D01*
X93546461Y-80913133D01*
X93775269Y-81066018D01*
X93852511Y-81098013D01*
X93775269Y-81130008D01*
X93546461Y-81282893D01*
X93351876Y-81477478D01*
X93198991Y-81706286D01*
X93093682Y-81960523D01*
X93039996Y-82230421D01*
X93039996Y-82505605D01*
X93093682Y-82775503D01*
X93198991Y-83029740D01*
X93351876Y-83258548D01*
X93546461Y-83453133D01*
X93775269Y-83606018D01*
X94029506Y-83711327D01*
X94299404Y-83765013D01*
X94351474Y-83765013D01*
X94392497Y-83971248D01*
X94497806Y-84225485D01*
X94650691Y-84454293D01*
X94845276Y-84648878D01*
X95074084Y-84801763D01*
X95328321Y-84907072D01*
X95598219Y-84960758D01*
X95873403Y-84960758D01*
X96143301Y-84907072D01*
X96296996Y-84843409D01*
X96296997Y-86836832D01*
X96195457Y-86938372D01*
X96166449Y-86962178D01*
X96142644Y-86991185D01*
X95988989Y-87144838D01*
X95960000Y-87168629D01*
X95936202Y-87197627D01*
X95936201Y-87197628D01*
X95865026Y-87284354D01*
X95794454Y-87416384D01*
X95750998Y-87559645D01*
X95736324Y-87708630D01*
X95740001Y-87745962D01*
X95740000Y-92576108D01*
X95684320Y-92592998D01*
X95574006Y-92651963D01*
X95477315Y-92731315D01*
X95397963Y-92828006D01*
X95338998Y-92938320D01*
X95302688Y-93058018D01*
X95290428Y-93182500D01*
X95290428Y-93817500D01*
X95302688Y-93941982D01*
X95320403Y-94000380D01*
X95302688Y-94058778D01*
X95290428Y-94183260D01*
X95290428Y-94635530D01*
X94546612Y-95379346D01*
X94528030Y-95369414D01*
X94248107Y-95284500D01*
X94029946Y-95263013D01*
X93084046Y-95263013D01*
X92865885Y-95284500D01*
X92585962Y-95369414D01*
X92327982Y-95507307D01*
X92101862Y-95692879D01*
X91916290Y-95918999D01*
X91778397Y-96176979D01*
X91693483Y-96456902D01*
X91664811Y-96748013D01*
X91693483Y-97039124D01*
X91778397Y-97319047D01*
X91916290Y-97577027D01*
X91958931Y-97628985D01*
X91878633Y-97613013D01*
X91635359Y-97613013D01*
X91396760Y-97660473D01*
X91172004Y-97753570D01*
X90969729Y-97888726D01*
X90941992Y-97916463D01*
X90941992Y-93974879D01*
X90987009Y-94042252D01*
X91214744Y-94269987D01*
X91482533Y-94448918D01*
X91780084Y-94572168D01*
X92095963Y-94635000D01*
X92418029Y-94635000D01*
X92733908Y-94572168D01*
X93031459Y-94448918D01*
X93299248Y-94269987D01*
X93526983Y-94042252D01*
X93705914Y-93774463D01*
X93829164Y-93476912D01*
X93891996Y-93161033D01*
X93891996Y-92838967D01*
X93829164Y-92523088D01*
X93705914Y-92225537D01*
X93526983Y-91957748D01*
X93299248Y-91730013D01*
X93031459Y-91551082D01*
X92733908Y-91427832D01*
X92418029Y-91365000D01*
X92095963Y-91365000D01*
X91780084Y-91427832D01*
X91482533Y-91551082D01*
X91214744Y-91730013D01*
X90987009Y-91957748D01*
X90941992Y-92025121D01*
X90941992Y-87635413D01*
X91301188Y-87635413D01*
X91396952Y-87899814D01*
X91686567Y-88040704D01*
X91998104Y-88122384D01*
X92319591Y-88141718D01*
X92638671Y-88097961D01*
X92943084Y-87992795D01*
X93117040Y-87899814D01*
X93212804Y-87635413D01*
X92256996Y-86679605D01*
X91301188Y-87635413D01*
X90941992Y-87635413D01*
X90941992Y-87390762D01*
X91121583Y-87455808D01*
X92077391Y-86500000D01*
X92436601Y-86500000D01*
X93392409Y-87455808D01*
X93656810Y-87360044D01*
X93797700Y-87070429D01*
X93879380Y-86758892D01*
X93898714Y-86437405D01*
X93854957Y-86118325D01*
X93749791Y-85813912D01*
X93656810Y-85639956D01*
X93392409Y-85544192D01*
X92436601Y-86500000D01*
X92077391Y-86500000D01*
X91121583Y-85544192D01*
X90941992Y-85609238D01*
X90941992Y-85364587D01*
X91301188Y-85364587D01*
X92256996Y-86320395D01*
X93212804Y-85364587D01*
X93117040Y-85100186D01*
X92827425Y-84959296D01*
X92515888Y-84877616D01*
X92194401Y-84858282D01*
X91875321Y-84902039D01*
X91570908Y-85007205D01*
X91396952Y-85100186D01*
X91301188Y-85364587D01*
X90941992Y-85364587D01*
X90941992Y-62120030D01*
X93035086Y-62120030D01*
X93076074Y-62392146D01*
X93169360Y-62651036D01*
X93231340Y-62766993D01*
X93471431Y-62833973D01*
X94257391Y-62048013D01*
X93471431Y-61262053D01*
X93231340Y-61329033D01*
X93114240Y-61578061D01*
X93047973Y-61845148D01*
X93035086Y-62120030D01*
X90941992Y-62120030D01*
X90941992Y-59580030D01*
X93035086Y-59580030D01*
X93076074Y-59852146D01*
X93169360Y-60111036D01*
X93231340Y-60226993D01*
X93471431Y-60293973D01*
X94257391Y-59508013D01*
X93471431Y-58722053D01*
X93231340Y-58789033D01*
X93114240Y-59038061D01*
X93047973Y-59305148D01*
X93035086Y-59580030D01*
X90941992Y-59580030D01*
X90941992Y-51852113D01*
X113619996Y-51852113D01*
X113619996Y-60864916D01*
G37*
G04 #@! TD.AperFunction*
D24*
X106683996Y-81870633D02*
X106703996Y-81870633D01*
X106703996Y-82042821D01*
X106409996Y-82042821D01*
X106409996Y-81870633D01*
X106429996Y-81870633D01*
X106429996Y-81850633D01*
X106683996Y-81850633D01*
X106683996Y-81870633D01*
G04 #@! TA.AperFunction,Conductor*
D25*
G36*
X106683996Y-81870633D02*
G01*
X106703996Y-81870633D01*
X106703996Y-82042821D01*
X106409996Y-82042821D01*
X106409996Y-81870633D01*
X106429996Y-81870633D01*
X106429996Y-81850633D01*
X106683996Y-81850633D01*
X106683996Y-81870633D01*
G37*
G04 #@! TD.AperFunction*
D24*
X108438991Y-60169740D02*
X108591876Y-60398548D01*
X108786461Y-60593133D01*
X109015269Y-60746018D01*
X109092511Y-60778013D01*
X109015269Y-60810008D01*
X108786461Y-60962893D01*
X108591876Y-61157478D01*
X108438991Y-61386286D01*
X108333682Y-61640523D01*
X108279996Y-61910421D01*
X108279996Y-62185605D01*
X108281295Y-62192136D01*
X108114673Y-62358758D01*
X96824629Y-62358758D01*
X96820931Y-62353223D01*
X96626346Y-62158638D01*
X96397538Y-62005753D01*
X96320296Y-61973758D01*
X96397538Y-61941763D01*
X96626346Y-61788878D01*
X96820931Y-61594293D01*
X96908152Y-61463758D01*
X106613929Y-61463758D01*
X106651251Y-61467434D01*
X106688573Y-61463758D01*
X106688584Y-61463758D01*
X106800237Y-61452761D01*
X106943498Y-61409304D01*
X107075527Y-61338732D01*
X107191252Y-61243759D01*
X107215055Y-61214755D01*
X108271798Y-60158013D01*
X108434133Y-60158013D01*
X108438991Y-60169740D01*
G04 #@! TA.AperFunction,Conductor*
D25*
G36*
X108438991Y-60169740D02*
G01*
X108591876Y-60398548D01*
X108786461Y-60593133D01*
X109015269Y-60746018D01*
X109092511Y-60778013D01*
X109015269Y-60810008D01*
X108786461Y-60962893D01*
X108591876Y-61157478D01*
X108438991Y-61386286D01*
X108333682Y-61640523D01*
X108279996Y-61910421D01*
X108279996Y-62185605D01*
X108281295Y-62192136D01*
X108114673Y-62358758D01*
X96824629Y-62358758D01*
X96820931Y-62353223D01*
X96626346Y-62158638D01*
X96397538Y-62005753D01*
X96320296Y-61973758D01*
X96397538Y-61941763D01*
X96626346Y-61788878D01*
X96820931Y-61594293D01*
X96908152Y-61463758D01*
X106613929Y-61463758D01*
X106651251Y-61467434D01*
X106688573Y-61463758D01*
X106688584Y-61463758D01*
X106800237Y-61452761D01*
X106943498Y-61409304D01*
X107075527Y-61338732D01*
X107191252Y-61243759D01*
X107215055Y-61214755D01*
X108271798Y-60158013D01*
X108434133Y-60158013D01*
X108438991Y-60169740D01*
G37*
G04 #@! TD.AperFunction*
M02*
