G04 #@! TF.GenerationSoftware,KiCad,Pcbnew,5.1.9*
G04 #@! TF.CreationDate,2021-04-10T12:49:15-07:00*
G04 #@! TF.ProjectId,SofleKeyboard,536f666c-654b-4657-9962-6f6172642e6b,rev?*
G04 #@! TF.SameCoordinates,Original*
G04 #@! TF.FileFunction,Copper,L2,Bot*
G04 #@! TF.FilePolarity,Positive*
%FSLAX46Y46*%
G04 Gerber Fmt 4.6, Leading zero omitted, Abs format (unit mm)*
G04 Created by KiCad (PCBNEW 5.1.9) date 2021-04-10 12:49:15*
%MOMM*%
%LPD*%
G01*
G04 APERTURE LIST*
G04 #@! TA.AperFunction,ComponentPad*
%ADD10C,4.000000*%
G04 #@! TD*
G04 #@! TA.AperFunction,SMDPad,CuDef*
%ADD11R,1.143000X0.635000*%
G04 #@! TD*
G04 #@! TA.AperFunction,ComponentPad*
%ADD12C,1.524000*%
G04 #@! TD*
G04 #@! TA.AperFunction,ComponentPad*
%ADD13C,2.000000*%
G04 #@! TD*
G04 #@! TA.AperFunction,ComponentPad*
%ADD14C,1.397000*%
G04 #@! TD*
G04 #@! TA.AperFunction,ComponentPad*
%ADD15R,1.524000X1.524000*%
G04 #@! TD*
G04 #@! TA.AperFunction,ComponentPad*
%ADD16O,2.500000X1.700000*%
G04 #@! TD*
G04 #@! TA.AperFunction,ComponentPad*
%ADD17C,0.700000*%
G04 #@! TD*
G04 #@! TA.AperFunction,ComponentPad*
%ADD18C,4.400000*%
G04 #@! TD*
G04 #@! TA.AperFunction,ComponentPad*
%ADD19R,1.500000X1.800000*%
G04 #@! TD*
G04 #@! TA.AperFunction,ComponentPad*
%ADD20R,1.800000X1.500000*%
G04 #@! TD*
G04 #@! TA.AperFunction,ViaPad*
%ADD21C,0.400000*%
G04 #@! TD*
G04 #@! TA.AperFunction,Conductor*
%ADD22C,0.250000*%
G04 #@! TD*
G04 #@! TA.AperFunction,Conductor*
%ADD23C,0.500000*%
G04 #@! TD*
G04 #@! TA.AperFunction,Conductor*
%ADD24C,0.254000*%
G04 #@! TD*
G04 #@! TA.AperFunction,Conductor*
%ADD25C,0.100000*%
G04 #@! TD*
G04 APERTURE END LIST*
D10*
X93756996Y-106698013D03*
X109256996Y-106698013D03*
D11*
X106556996Y-82998393D03*
X106556996Y-81997633D03*
D12*
X109676996Y-54428013D03*
X109676996Y-56968013D03*
X109676996Y-59508013D03*
X109676996Y-62048013D03*
X109676996Y-64588013D03*
X109676996Y-67128013D03*
X109676996Y-69668013D03*
X109676996Y-72208013D03*
X109676996Y-74748013D03*
X109676996Y-77288013D03*
X109676996Y-79828013D03*
X109676996Y-82368013D03*
X94436996Y-82368013D03*
X94436996Y-79828013D03*
X94436996Y-77288013D03*
X94436996Y-74748013D03*
X94436996Y-72208013D03*
X94436996Y-69668013D03*
X94436996Y-67128013D03*
X94436996Y-64588013D03*
X94436996Y-62048013D03*
X94436996Y-59508013D03*
X94436996Y-56968013D03*
X94436996Y-54428013D03*
X110975811Y-65783758D03*
X110975811Y-70863758D03*
X95735811Y-55623758D03*
X110975811Y-58163758D03*
X110975811Y-81023758D03*
X95735811Y-83563758D03*
X110975811Y-73403758D03*
X110975811Y-75943758D03*
X95735811Y-73403758D03*
X95735811Y-78483758D03*
X95735811Y-65783758D03*
X95735811Y-63243758D03*
X95735811Y-58163758D03*
X95735811Y-68323758D03*
X110975811Y-83563758D03*
X95735811Y-75943758D03*
X110975811Y-55623758D03*
X110975811Y-60703758D03*
X95735811Y-81023758D03*
X110975811Y-63243758D03*
X110975811Y-68323758D03*
X95735811Y-70863758D03*
X110975811Y-78483758D03*
X95735811Y-60703758D03*
D13*
X92256996Y-86500000D03*
X92256996Y-93000000D03*
D11*
X103956996Y-82998393D03*
X103956996Y-81997633D03*
D14*
X98956996Y-87798013D03*
X101496996Y-87798013D03*
X104036996Y-87798013D03*
X106576996Y-87798013D03*
D15*
X110156996Y-89198013D03*
X110156996Y-91798013D03*
X110156996Y-94298013D03*
D11*
X98956996Y-82998393D03*
X98956996Y-81997633D03*
X101456996Y-82998393D03*
X101456996Y-81997633D03*
D16*
X102056996Y-100948013D03*
X100556996Y-96748013D03*
X96556996Y-96748013D03*
X93556996Y-96748013D03*
X96556996Y-102698013D03*
X93556996Y-102698013D03*
X102056996Y-98498013D03*
X100556996Y-102698013D03*
D13*
X127747000Y-56178100D03*
X122747000Y-58278100D03*
X117747000Y-56178100D03*
D17*
X204823722Y-96581287D03*
X203656996Y-96098013D03*
X202490270Y-96581287D03*
X202006996Y-97748013D03*
X202490270Y-98914739D03*
X203656996Y-99398013D03*
X204823722Y-98914739D03*
X205306996Y-97748013D03*
D18*
X203656996Y-97748013D03*
D17*
X204913722Y-62858386D03*
X203746996Y-62375112D03*
X202580270Y-62858386D03*
X202096996Y-64025112D03*
X202580270Y-65191838D03*
X203746996Y-65675112D03*
X204913722Y-65191838D03*
X205396996Y-64025112D03*
D18*
X203746996Y-64025112D03*
D13*
X127747000Y-90178100D03*
X122747000Y-92278100D03*
X117747000Y-90178100D03*
X163747000Y-103478100D03*
X158747000Y-105578100D03*
X153747000Y-103478100D03*
X217747000Y-77078100D03*
X212747000Y-79178100D03*
X207747000Y-77078100D03*
X199747000Y-109578100D03*
X194747000Y-111678100D03*
X189747000Y-109578100D03*
X181747000Y-53878100D03*
X176747000Y-55978100D03*
X171747000Y-53878100D03*
X199747000Y-92578100D03*
X194747000Y-94678100D03*
X189747000Y-92578100D03*
D17*
X101040266Y-114785996D03*
X100556992Y-115952722D03*
X101040266Y-117119448D03*
X102206992Y-117602722D03*
X103373718Y-117119448D03*
X103856992Y-115952722D03*
X103373718Y-114785996D03*
X102206992Y-114302722D03*
D18*
X102206992Y-115952722D03*
D13*
X145747000Y-87878100D03*
X140747000Y-89978100D03*
X135747000Y-87878100D03*
X181747000Y-70878100D03*
X176747000Y-72978100D03*
X171747000Y-70878100D03*
X145747000Y-70878100D03*
X140747000Y-72978100D03*
X135747000Y-70878100D03*
X181747000Y-104878100D03*
X176747000Y-106978100D03*
X171747000Y-104878100D03*
X217747000Y-94078100D03*
X212747000Y-96178100D03*
X207747000Y-94078100D03*
X163747000Y-86478100D03*
X158747000Y-88578100D03*
X153747000Y-86478100D03*
X163747000Y-69478100D03*
X158747000Y-71578100D03*
X153747000Y-69478100D03*
X199747000Y-75578100D03*
X194747000Y-77678100D03*
X189747000Y-75578100D03*
X145747000Y-53878100D03*
X140747000Y-55978100D03*
X135747000Y-53878100D03*
X107416099Y-132578140D03*
X103097446Y-129298013D03*
X102416099Y-123917886D03*
X192247000Y-127578100D03*
X187247000Y-129678100D03*
X182247000Y-127578100D03*
X217747000Y-60078100D03*
X212747000Y-62178100D03*
X207747000Y-60078100D03*
X217747000Y-111078100D03*
X212747000Y-113178100D03*
X207747000Y-111078100D03*
X181747000Y-87878100D03*
X176747000Y-89978100D03*
X171747000Y-87878100D03*
X145747000Y-104878100D03*
X140747000Y-106978100D03*
X135747000Y-104878100D03*
D17*
X132913722Y-92558387D03*
X131746996Y-92075113D03*
X130580270Y-92558387D03*
X130096996Y-93725113D03*
X130580270Y-94891839D03*
X131746996Y-95375113D03*
X132913722Y-94891839D03*
X133396996Y-93725113D03*
D18*
X131746996Y-93725113D03*
D13*
X127747000Y-107178100D03*
X122747000Y-109278100D03*
X117747000Y-107178100D03*
X199747000Y-58578100D03*
X194747000Y-60678100D03*
X189747000Y-58578100D03*
X135940142Y-125074423D03*
X131654032Y-128396962D03*
X126280883Y-127662613D03*
X156247000Y-122878100D03*
X151247000Y-124978100D03*
X146247000Y-122878100D03*
X174247000Y-122878100D03*
X169247000Y-124978100D03*
X164247000Y-122878100D03*
X127747000Y-73178100D03*
X122747000Y-75278100D03*
X117747000Y-73178100D03*
X163747000Y-52478100D03*
X158747000Y-54578100D03*
X153747000Y-52478100D03*
D17*
X132913722Y-58558387D03*
X131746996Y-58075113D03*
X130580270Y-58558387D03*
X130096996Y-59725113D03*
X130580270Y-60891839D03*
X131746996Y-61375113D03*
X132913722Y-60891839D03*
X133396996Y-59725113D03*
D18*
X131746996Y-59725113D03*
D19*
X167956992Y-102702722D03*
X167956992Y-106102722D03*
X149706992Y-102702722D03*
X149706992Y-106102722D03*
X131606992Y-104152722D03*
X131606992Y-107552722D03*
D20*
X117250000Y-95000000D03*
X120650000Y-95000000D03*
D19*
X203706992Y-105452722D03*
X203706992Y-102052722D03*
X185706992Y-97902722D03*
X185706992Y-94502722D03*
X167706992Y-96702722D03*
X167706992Y-93302722D03*
X149706992Y-97902722D03*
X149706992Y-94502722D03*
X131806992Y-101152722D03*
X131806992Y-97752722D03*
D20*
X127500000Y-95000000D03*
X124100000Y-95000000D03*
D19*
X203706992Y-90202722D03*
X203706992Y-93602722D03*
X185706992Y-87202722D03*
X185706992Y-90602722D03*
X167706992Y-85802722D03*
X167706992Y-89202722D03*
X149706992Y-85802722D03*
X149706992Y-89202722D03*
X131706992Y-79952722D03*
X131706992Y-83352722D03*
X131806992Y-86252722D03*
X131806992Y-89652722D03*
X203706992Y-72102722D03*
X203706992Y-68702722D03*
X185706992Y-68602722D03*
X185706992Y-65202722D03*
X167706992Y-64102722D03*
X167706992Y-60702722D03*
X149600000Y-64102722D03*
X149600000Y-60702722D03*
X131706992Y-73602722D03*
X131706992Y-70202722D03*
X131706992Y-67202722D03*
X131706992Y-63802722D03*
X203731992Y-55702722D03*
X203731992Y-59102722D03*
X185956992Y-53052722D03*
X185956992Y-56452722D03*
X167706992Y-51552722D03*
X167706992Y-54952722D03*
X149706992Y-51802722D03*
X149706992Y-55202722D03*
X131706992Y-52052722D03*
X131706992Y-55452722D03*
X131706992Y-45702722D03*
X131706992Y-49102722D03*
X185706992Y-104202722D03*
X185706992Y-107602722D03*
D21*
X107584829Y-80270182D03*
X115106992Y-109152722D03*
X107956996Y-72198013D03*
X115506992Y-60052722D03*
X107956996Y-75098013D03*
X115306992Y-64652722D03*
X107956996Y-77198013D03*
X116656992Y-80202722D03*
X107856996Y-78398013D03*
X114879120Y-109819440D03*
X102656996Y-63243758D03*
X102657004Y-81998013D03*
X108456996Y-93898013D03*
X97756268Y-91259978D03*
X98956996Y-80998013D03*
X99156996Y-58163758D03*
X99156996Y-61998013D03*
X108956996Y-87898013D03*
X104931996Y-70863758D03*
X211186992Y-46042722D03*
X105431996Y-73403758D03*
X193356992Y-42422722D03*
X105956996Y-75943758D03*
X175556992Y-41137732D03*
X106556996Y-77773013D03*
X157456992Y-41002722D03*
X107256996Y-79198013D03*
X140106992Y-44052722D03*
X107856996Y-64598013D03*
X98306996Y-81003860D03*
X98356996Y-64588013D03*
X105356996Y-81098013D03*
X101208768Y-93509978D03*
X107957002Y-54798013D03*
X107957014Y-67398013D03*
X103456996Y-67098013D03*
X105256996Y-81998013D03*
X102836268Y-91259978D03*
X107956988Y-69898013D03*
X97356996Y-57398013D03*
X107956996Y-57198013D03*
X97056996Y-83798013D03*
X112556996Y-77298013D03*
D22*
X117747000Y-56178100D02*
X127747000Y-56178100D01*
X108456996Y-81142349D02*
X107584829Y-80270182D01*
X108456996Y-82998013D02*
X108456996Y-81142349D01*
X111026996Y-83568013D02*
X109026996Y-83568013D01*
X109026996Y-83568013D02*
X108456996Y-82998013D01*
X147506613Y-108303101D02*
X149706992Y-106102722D01*
X132357371Y-108303101D02*
X147506613Y-108303101D01*
X131606992Y-107552722D02*
X132357371Y-108303101D01*
X167156613Y-106903101D02*
X167956992Y-106102722D01*
X150507371Y-106903101D02*
X167156613Y-106903101D01*
X149706992Y-106102722D02*
X150507371Y-106903101D01*
X167956992Y-106102722D02*
X170206992Y-108352722D01*
X184956992Y-108352722D02*
X185706992Y-107602722D01*
X170206992Y-108352722D02*
X184956992Y-108352722D01*
X116706992Y-110752722D02*
X115106992Y-109152722D01*
X128406992Y-110752722D02*
X116706992Y-110752722D01*
X128406992Y-110752722D02*
X131606992Y-107552722D01*
X135747000Y-53878100D02*
X145747000Y-53878100D01*
X153747000Y-52478100D02*
X163747000Y-52478100D01*
X111026996Y-73408013D02*
X109166996Y-73408013D01*
X109166996Y-73408013D02*
X107956996Y-72198013D01*
X190357371Y-62003101D02*
X185956992Y-57602722D01*
X185956992Y-57602722D02*
X185956992Y-56452722D01*
X200831613Y-62003101D02*
X190357371Y-62003101D01*
X203731992Y-59102722D02*
X200831613Y-62003101D01*
X170057371Y-57303101D02*
X167706992Y-54952722D01*
X185106613Y-57303101D02*
X170057371Y-57303101D01*
X185956992Y-56452722D02*
X185106613Y-57303101D01*
X150407371Y-55903101D02*
X149706992Y-55202722D01*
X166756613Y-55903101D02*
X150407371Y-55903101D01*
X167706992Y-54952722D02*
X166756613Y-55903101D01*
X133557371Y-57303101D02*
X131706992Y-55452722D01*
X147606613Y-57303101D02*
X133557371Y-57303101D01*
X149706992Y-55202722D02*
X147606613Y-57303101D01*
X132781993Y-54377721D02*
X131706992Y-55452722D01*
X132781993Y-50177723D02*
X132781993Y-54377721D01*
X131706992Y-49102722D02*
X132781993Y-50177723D01*
X127106992Y-60052722D02*
X115506992Y-60052722D01*
X131706992Y-55452722D02*
X127106992Y-60052722D01*
X171747000Y-53878100D02*
X181747000Y-53878100D01*
X108806996Y-75948013D02*
X107956996Y-75098013D01*
X111026996Y-75948013D02*
X108806996Y-75948013D01*
X130631991Y-64877723D02*
X131706992Y-63802722D01*
X130631991Y-69127721D02*
X130631991Y-64877723D01*
X131706992Y-70202722D02*
X130631991Y-69127721D01*
X134656992Y-60702722D02*
X149600000Y-60702722D01*
X131706992Y-63652722D02*
X134656992Y-60702722D01*
X131706992Y-63802722D02*
X131706992Y-63652722D01*
X167557369Y-60553099D02*
X167706992Y-60702722D01*
X149749623Y-60553099D02*
X167557369Y-60553099D01*
X149600000Y-60702722D02*
X149749623Y-60553099D01*
X185660624Y-65202722D02*
X185706992Y-65202722D01*
X181160624Y-60702722D02*
X185660624Y-65202722D01*
X167706992Y-60702722D02*
X181160624Y-60702722D01*
X200206992Y-65202722D02*
X203706992Y-68702722D01*
X185706992Y-65202722D02*
X200206992Y-65202722D01*
X116156992Y-63802722D02*
X115306992Y-64652722D01*
X131706992Y-63802722D02*
X116156992Y-63802722D01*
X189747000Y-58578100D02*
X199747000Y-58578100D01*
X110975811Y-78483758D02*
X109242741Y-78483758D01*
X109242741Y-78483758D02*
X107956996Y-77198013D01*
X147606613Y-91303101D02*
X149706992Y-89202722D01*
X133457371Y-91303101D02*
X147606613Y-91303101D01*
X131806992Y-89652722D02*
X133457371Y-91303101D01*
X167006613Y-89903101D02*
X167706992Y-89202722D01*
X150407371Y-89903101D02*
X167006613Y-89903101D01*
X149706992Y-89202722D02*
X150407371Y-89903101D01*
X167706992Y-89202722D02*
X170056992Y-91552722D01*
X184756992Y-91552722D02*
X185706992Y-90602722D01*
X170056992Y-91552722D02*
X184756992Y-91552722D01*
X201306613Y-96003101D02*
X203706992Y-93602722D01*
X189957371Y-96003101D02*
X201306613Y-96003101D01*
X185706992Y-91752722D02*
X189957371Y-96003101D01*
X185706992Y-90602722D02*
X185706992Y-91752722D01*
X132881993Y-88577721D02*
X131806992Y-89652722D01*
X132881993Y-84527723D02*
X132881993Y-88577721D01*
X131706992Y-83352722D02*
X132881993Y-84527723D01*
X128556992Y-80202722D02*
X116656992Y-80202722D01*
X131706992Y-83352722D02*
X128556992Y-80202722D01*
X207747000Y-60078100D02*
X217747000Y-60078100D01*
X108456996Y-80340506D02*
X108456996Y-78998013D01*
X108456996Y-78998013D02*
X107856996Y-78398013D01*
X111026996Y-81028013D02*
X109144503Y-81028013D01*
X109144503Y-81028013D02*
X108456996Y-80340506D01*
X130081993Y-96027723D02*
X131806992Y-97752722D01*
X148256615Y-95953099D02*
X149706992Y-94502722D01*
X133606615Y-95953099D02*
X148256615Y-95953099D01*
X131806992Y-97752722D02*
X133606615Y-95953099D01*
X166506992Y-94502722D02*
X167706992Y-93302722D01*
X149706992Y-94502722D02*
X166506992Y-94502722D01*
X184506992Y-93302722D02*
X185706992Y-94502722D01*
X167706992Y-93302722D02*
X184506992Y-93302722D01*
X202307369Y-100653099D02*
X203706992Y-102052722D01*
X191857369Y-100653099D02*
X202307369Y-100653099D01*
X185706992Y-94502722D02*
X191857369Y-100653099D01*
X125175001Y-96075001D02*
X124100000Y-95000000D01*
X130034715Y-96075001D02*
X125175001Y-96075001D01*
X130081993Y-96027723D02*
X130034715Y-96075001D01*
X117747000Y-73178100D02*
X127747000Y-73178100D01*
X135747000Y-70878100D02*
X145747000Y-70878100D01*
X153747000Y-69478100D02*
X163747000Y-69478100D01*
X171747000Y-70878100D02*
X181747000Y-70878100D01*
X189747000Y-75578100D02*
X199747000Y-75578100D01*
X207747000Y-77078100D02*
X217747000Y-77078100D01*
X117747000Y-90178100D02*
X127747000Y-90178100D01*
X135747000Y-87878100D02*
X145747000Y-87878100D01*
X153747000Y-86478100D02*
X163747000Y-86478100D01*
X171747000Y-87878100D02*
X181747000Y-87878100D01*
X189747000Y-92578100D02*
X199747000Y-92578100D01*
X207747000Y-94078100D02*
X217747000Y-94078100D01*
X117747000Y-107178100D02*
X127747000Y-107178100D01*
X135747000Y-104878100D02*
X145747000Y-104878100D01*
X153747000Y-103478100D02*
X163747000Y-103478100D01*
X171747000Y-104878100D02*
X181747000Y-104878100D01*
X189747000Y-109578100D02*
X199747000Y-109578100D01*
X207747000Y-111078100D02*
X217747000Y-111078100D01*
X102416099Y-122282461D02*
X102416099Y-123917886D01*
X114879120Y-109819440D02*
X102416099Y-122282461D01*
X107416099Y-128917886D02*
X107416099Y-132578140D01*
X102416099Y-123917886D02*
X107416099Y-128917886D01*
X134351951Y-126662614D02*
X135940142Y-125074423D01*
X127280882Y-126662614D02*
X134351951Y-126662614D01*
X126280883Y-127662613D02*
X127280882Y-126662614D01*
X146247000Y-122878100D02*
X156247000Y-122878100D01*
D23*
X102657004Y-81998013D02*
X102657004Y-63243766D01*
X102656624Y-81997633D02*
X102657004Y-81998013D01*
X100356986Y-102498003D02*
X100556996Y-102698013D01*
X100156996Y-96748013D02*
X100556996Y-96748013D01*
X100556996Y-96748013D02*
X100556996Y-97759522D01*
X100356986Y-97959532D02*
X100356986Y-102498003D01*
X97756268Y-94347285D02*
X100156996Y-96748013D01*
X100556996Y-97759522D02*
X100356986Y-97959532D01*
X108456996Y-93898013D02*
X109756996Y-93898013D01*
X101456996Y-81997633D02*
X102656624Y-81997633D01*
X102657004Y-63243766D02*
X102656996Y-63243758D01*
X97756268Y-91259978D02*
X97756268Y-94347285D01*
X109756996Y-93898013D02*
X110156996Y-94298013D01*
X96556996Y-102698013D02*
X95795487Y-102698013D01*
X98956996Y-81997633D02*
X98956996Y-80998013D01*
X98956996Y-80998013D02*
X99156996Y-80798013D01*
X99156996Y-80798013D02*
X99156996Y-61998013D01*
X99156996Y-61998013D02*
X99156996Y-58163758D01*
X109856996Y-89498013D02*
X110156996Y-89198013D01*
X96556996Y-96748013D02*
X96556996Y-90800000D01*
X96556996Y-90800000D02*
X92256996Y-86500000D01*
X96556996Y-96748013D02*
X96556996Y-102698013D01*
D22*
X209926992Y-44582722D02*
X211186992Y-45842722D01*
X211186992Y-45842722D02*
X211186992Y-46042722D01*
X205136992Y-44582722D02*
X209926992Y-44582722D01*
X203566992Y-43012722D02*
X205136992Y-44582722D01*
X196996992Y-43012722D02*
X203566992Y-43012722D01*
X195386992Y-41402722D02*
X196996992Y-43012722D01*
X187236992Y-41402722D02*
X195386992Y-41402722D01*
X185996992Y-40162722D02*
X187236992Y-41402722D01*
X175336992Y-40162722D02*
X185996992Y-40162722D01*
X174196992Y-39022722D02*
X175336992Y-40162722D01*
X152466992Y-39022722D02*
X174196992Y-39022722D01*
X151696992Y-39792722D02*
X152466992Y-39022722D01*
X141116992Y-39792722D02*
X151696992Y-39792722D01*
X139466992Y-41442722D02*
X141116992Y-39792722D01*
X129546992Y-41442722D02*
X139466992Y-41442722D01*
X127916992Y-43072722D02*
X129546992Y-41442722D01*
X120716992Y-43072722D02*
X127916992Y-43072722D01*
X119286992Y-44502722D02*
X120716992Y-43072722D01*
X116606992Y-44502722D02*
X119286992Y-44502722D01*
X114615876Y-44502723D02*
X117295278Y-44502723D01*
X104931996Y-54186603D02*
X114615876Y-44502723D01*
X104931996Y-70863758D02*
X104931996Y-54186603D01*
X119473393Y-44952731D02*
X116793392Y-44952732D01*
X120903392Y-43522732D02*
X119473393Y-44952731D01*
X129836982Y-41892732D02*
X128206982Y-43522732D01*
X139653393Y-41892731D02*
X129836982Y-41892732D01*
X193356992Y-42422722D02*
X192787002Y-41852732D01*
X192787002Y-41852732D02*
X187050592Y-41852732D01*
X187050592Y-41852732D02*
X185810592Y-40612732D01*
X128206982Y-43522732D02*
X120903392Y-43522732D01*
X185810592Y-40612732D02*
X175150592Y-40612732D01*
X175150592Y-40612732D02*
X174110582Y-39572722D01*
X151883393Y-40242731D02*
X141303392Y-40242732D01*
X173837002Y-39472732D02*
X152653392Y-39472732D01*
X174096992Y-39572722D02*
X174006992Y-39482722D01*
X174110582Y-39572722D02*
X174096992Y-39572722D01*
X174006992Y-39482722D02*
X173846992Y-39482722D01*
X173846992Y-39482722D02*
X173837002Y-39472732D01*
X141303392Y-40242732D02*
X139653393Y-41892731D01*
X152653392Y-39472732D02*
X151883393Y-40242731D01*
X114865869Y-44952730D02*
X117723732Y-44952730D01*
X105456996Y-54361603D02*
X114865869Y-44952730D01*
X105456996Y-73378758D02*
X105456996Y-54361603D01*
X105431996Y-73403758D02*
X105456996Y-73378758D01*
X121089792Y-43972742D02*
X128393383Y-43972741D01*
X119659794Y-45402740D02*
X121089792Y-43972742D01*
X128393383Y-43972741D02*
X130023384Y-42342740D01*
X130023384Y-42342740D02*
X139839794Y-42342740D01*
X139839794Y-42342740D02*
X141489794Y-40692740D01*
X141489794Y-40692740D02*
X152069794Y-40692740D01*
X152069794Y-40692740D02*
X152839792Y-39922742D01*
X152839792Y-39922742D02*
X173650602Y-39922742D01*
X174865592Y-41137732D02*
X175556992Y-41137732D01*
X173650602Y-39922742D02*
X174865592Y-41137732D01*
X115125260Y-45402740D02*
X117665740Y-45402740D01*
X117046974Y-45402740D02*
X117665740Y-45402740D01*
X115443000Y-45402740D02*
X118681740Y-45402740D01*
X115052269Y-45402740D02*
X115443000Y-45402740D01*
X105959969Y-54495040D02*
X115052269Y-45402740D01*
X105959969Y-75940785D02*
X105959969Y-54495040D01*
X105956996Y-75943758D02*
X105959969Y-75940785D01*
X118681740Y-45402740D02*
X119659794Y-45402740D01*
X117665740Y-45402740D02*
X118681740Y-45402740D01*
X106556996Y-54536601D02*
X106556996Y-77773013D01*
X115240849Y-45852748D02*
X118993251Y-45852748D01*
X106556996Y-54536601D02*
X115240849Y-45852748D01*
X117233374Y-45852750D02*
X119846195Y-45852749D01*
X153026192Y-40372752D02*
X156827022Y-40372752D01*
X156827022Y-40372752D02*
X157456992Y-41002722D01*
X152256195Y-41142749D02*
X153026192Y-40372752D01*
X141676194Y-41142750D02*
X152256195Y-41142749D01*
X140026195Y-42792749D02*
X141676194Y-41142750D01*
X128579784Y-44422750D02*
X130209784Y-42792750D01*
X130209784Y-42792750D02*
X140026195Y-42792749D01*
X121276194Y-44422750D02*
X128579784Y-44422750D01*
X119846195Y-45852749D02*
X121276194Y-44422750D01*
X107256996Y-54523015D02*
X107256996Y-79198013D01*
X109081999Y-52698012D02*
X107256996Y-54523015D01*
X115427249Y-46302758D02*
X118289242Y-46302758D01*
X109081999Y-52648008D02*
X115427249Y-46302758D01*
X109081999Y-52698012D02*
X109081999Y-52648008D01*
X117419776Y-46302758D02*
X118289242Y-46302758D01*
X118289242Y-46302758D02*
X120032596Y-46302758D01*
X139697028Y-43242758D02*
X140106992Y-43652722D01*
X140106992Y-43652722D02*
X140106992Y-44052722D01*
X130396186Y-43242758D02*
X139697028Y-43242758D01*
X121462594Y-44872760D02*
X128766185Y-44872759D01*
X128766185Y-44872759D02*
X130396186Y-43242758D01*
X120032596Y-46302758D02*
X121462594Y-44872760D01*
X98306996Y-64638013D02*
X98356996Y-64588013D01*
X98306996Y-81003860D02*
X98306996Y-64638013D01*
X106556996Y-81997633D02*
X106256616Y-81997633D01*
X106256616Y-81997633D02*
X105356996Y-81098013D01*
X107856996Y-64598013D02*
X109042741Y-65783758D01*
X109042741Y-65783758D02*
X110975811Y-65783758D01*
X105060497Y-83020890D02*
X105060497Y-89679730D01*
X102836268Y-93509978D02*
X101208768Y-93509978D01*
X106083754Y-81997633D02*
X105060497Y-83020890D01*
X103859769Y-92486477D02*
X102836268Y-93509978D01*
X106556996Y-81997633D02*
X106083754Y-81997633D01*
X103859769Y-90880458D02*
X103859769Y-92486477D01*
X105060497Y-89679730D02*
X103859769Y-90880458D01*
X108782747Y-55623758D02*
X107957002Y-54798013D01*
X110975811Y-55623758D02*
X108782747Y-55623758D01*
X111456996Y-90498013D02*
X111456996Y-89552718D01*
X110156996Y-91798013D02*
X111456996Y-90498013D01*
X111456996Y-90310013D02*
X111456996Y-89552718D01*
X112062812Y-84592197D02*
X112062812Y-82728607D01*
X111456996Y-85198013D02*
X112062812Y-84592197D01*
X111456996Y-89552718D02*
X111456996Y-85198013D01*
X110975811Y-56365811D02*
X110975811Y-55623758D01*
X113081997Y-58471997D02*
X110975811Y-56365811D01*
X113081997Y-81709422D02*
X113081997Y-58471997D01*
X112062812Y-82728607D02*
X113081997Y-81709422D01*
X103856996Y-81897633D02*
X103956996Y-81997633D01*
X103957376Y-81998013D02*
X103956996Y-81997633D01*
X103456996Y-81997633D02*
X103456996Y-67128013D01*
X105256996Y-81998013D02*
X103957376Y-81998013D01*
X108882759Y-68323758D02*
X107957014Y-67398013D01*
X103470190Y-81998013D02*
X105256996Y-81998013D01*
X110975811Y-68323758D02*
X108882759Y-68323758D01*
X102836268Y-91259978D02*
X102836268Y-82631935D01*
X102836268Y-82631935D02*
X103470190Y-81998013D01*
X95735811Y-60703758D02*
X95478557Y-60961012D01*
X95478557Y-60961012D02*
X93915235Y-60961012D01*
X93915235Y-60961012D02*
X90931995Y-63944252D01*
X90931995Y-91674999D02*
X92256996Y-93000000D01*
X90931995Y-63944252D02*
X90931995Y-91674999D01*
X164247000Y-122878100D02*
X174247000Y-122878100D01*
X110975811Y-70863758D02*
X108922733Y-70863758D01*
X108922733Y-70863758D02*
X107956988Y-69898013D01*
X108922741Y-58163758D02*
X107956996Y-57198013D01*
X110975811Y-58163758D02*
X108922741Y-58163758D01*
X97056996Y-57698013D02*
X97056996Y-83798013D01*
X97356996Y-57398013D02*
X97056996Y-57698013D01*
X98956996Y-82998393D02*
X98956996Y-87798013D01*
X101456996Y-82998393D02*
X101456996Y-87758013D01*
X101456996Y-87758013D02*
X101496996Y-87798013D01*
X103956996Y-82998393D02*
X103956996Y-87718013D01*
X103956996Y-87718013D02*
X104036996Y-87798013D01*
X106556996Y-87778013D02*
X106576996Y-87798013D01*
X106556996Y-82998393D02*
X106556996Y-87778013D01*
X182247000Y-127578100D02*
X192247000Y-127578100D01*
X109676996Y-82368013D02*
X111786996Y-82368013D01*
X112556996Y-81598013D02*
X112556996Y-77298013D01*
X111786996Y-82368013D02*
X112556996Y-81598013D01*
X102456996Y-98498013D02*
X102056996Y-98498013D01*
X102056996Y-100948013D02*
X102056996Y-98498013D01*
D24*
X94630744Y-62033871D02*
X94616601Y-62048013D01*
X94630744Y-62062156D01*
X94451139Y-62241761D01*
X94436996Y-62227618D01*
X93651036Y-63013578D01*
X93718016Y-63253669D01*
X93853756Y-63317498D01*
X93775269Y-63350008D01*
X93546461Y-63502893D01*
X93351876Y-63697478D01*
X93198991Y-63926286D01*
X93093682Y-64180523D01*
X93039996Y-64450421D01*
X93039996Y-64725605D01*
X93093682Y-64995503D01*
X93198991Y-65249740D01*
X93351876Y-65478548D01*
X93546461Y-65673133D01*
X93775269Y-65826018D01*
X93852511Y-65858013D01*
X93775269Y-65890008D01*
X93546461Y-66042893D01*
X93351876Y-66237478D01*
X93198991Y-66466286D01*
X93093682Y-66720523D01*
X93039996Y-66990421D01*
X93039996Y-67265605D01*
X93093682Y-67535503D01*
X93198991Y-67789740D01*
X93351876Y-68018548D01*
X93546461Y-68213133D01*
X93775269Y-68366018D01*
X93852511Y-68398013D01*
X93775269Y-68430008D01*
X93546461Y-68582893D01*
X93351876Y-68777478D01*
X93198991Y-69006286D01*
X93093682Y-69260523D01*
X93039996Y-69530421D01*
X93039996Y-69805605D01*
X93093682Y-70075503D01*
X93198991Y-70329740D01*
X93351876Y-70558548D01*
X93546461Y-70753133D01*
X93775269Y-70906018D01*
X93852511Y-70938013D01*
X93775269Y-70970008D01*
X93546461Y-71122893D01*
X93351876Y-71317478D01*
X93198991Y-71546286D01*
X93093682Y-71800523D01*
X93039996Y-72070421D01*
X93039996Y-72345605D01*
X93093682Y-72615503D01*
X93198991Y-72869740D01*
X93351876Y-73098548D01*
X93546461Y-73293133D01*
X93775269Y-73446018D01*
X93852511Y-73478013D01*
X93775269Y-73510008D01*
X93546461Y-73662893D01*
X93351876Y-73857478D01*
X93198991Y-74086286D01*
X93093682Y-74340523D01*
X93039996Y-74610421D01*
X93039996Y-74885605D01*
X93093682Y-75155503D01*
X93198991Y-75409740D01*
X93351876Y-75638548D01*
X93546461Y-75833133D01*
X93775269Y-75986018D01*
X93852511Y-76018013D01*
X93775269Y-76050008D01*
X93546461Y-76202893D01*
X93351876Y-76397478D01*
X93198991Y-76626286D01*
X93093682Y-76880523D01*
X93039996Y-77150421D01*
X93039996Y-77425605D01*
X93093682Y-77695503D01*
X93198991Y-77949740D01*
X93351876Y-78178548D01*
X93546461Y-78373133D01*
X93775269Y-78526018D01*
X93852511Y-78558013D01*
X93775269Y-78590008D01*
X93546461Y-78742893D01*
X93351876Y-78937478D01*
X93198991Y-79166286D01*
X93093682Y-79420523D01*
X93039996Y-79690421D01*
X93039996Y-79965605D01*
X93093682Y-80235503D01*
X93198991Y-80489740D01*
X93351876Y-80718548D01*
X93546461Y-80913133D01*
X93775269Y-81066018D01*
X93852511Y-81098013D01*
X93775269Y-81130008D01*
X93546461Y-81282893D01*
X93351876Y-81477478D01*
X93198991Y-81706286D01*
X93093682Y-81960523D01*
X93039996Y-82230421D01*
X93039996Y-82505605D01*
X93093682Y-82775503D01*
X93198991Y-83029740D01*
X93351876Y-83258548D01*
X93546461Y-83453133D01*
X93775269Y-83606018D01*
X94029506Y-83711327D01*
X94299404Y-83765013D01*
X94351474Y-83765013D01*
X94392497Y-83971248D01*
X94497806Y-84225485D01*
X94650691Y-84454293D01*
X94845276Y-84648878D01*
X95074084Y-84801763D01*
X95328321Y-84907072D01*
X95598219Y-84960758D01*
X95873403Y-84960758D01*
X96143301Y-84907072D01*
X96397538Y-84801763D01*
X96626346Y-84648878D01*
X96715052Y-84560172D01*
X96813436Y-84600924D01*
X96974756Y-84633013D01*
X97139236Y-84633013D01*
X97300556Y-84600924D01*
X97452517Y-84537980D01*
X97589277Y-84446600D01*
X97705583Y-84330294D01*
X97796963Y-84193534D01*
X97859907Y-84041573D01*
X97891996Y-83880253D01*
X97891996Y-83715773D01*
X97891929Y-83715435D01*
X97934311Y-83767078D01*
X98031002Y-83846430D01*
X98141316Y-83905395D01*
X98196996Y-83922285D01*
X98196997Y-86702042D01*
X98106939Y-86762216D01*
X97921199Y-86947956D01*
X97775264Y-87166364D01*
X97674742Y-87409045D01*
X97623496Y-87666675D01*
X97623496Y-87929351D01*
X97674742Y-88186981D01*
X97775264Y-88429662D01*
X97921199Y-88648070D01*
X98106939Y-88833810D01*
X98325347Y-88979745D01*
X98568028Y-89080267D01*
X98825658Y-89131513D01*
X99088334Y-89131513D01*
X99345964Y-89080267D01*
X99588645Y-88979745D01*
X99807053Y-88833810D01*
X99992793Y-88648070D01*
X100138728Y-88429662D01*
X100226996Y-88216565D01*
X100315264Y-88429662D01*
X100461199Y-88648070D01*
X100646939Y-88833810D01*
X100865347Y-88979745D01*
X101108028Y-89080267D01*
X101365658Y-89131513D01*
X101628334Y-89131513D01*
X101885964Y-89080267D01*
X102076268Y-89001440D01*
X102076268Y-90912821D01*
X102033357Y-91016418D01*
X102001268Y-91177738D01*
X102001268Y-91342218D01*
X102033357Y-91503538D01*
X102096301Y-91655499D01*
X102187681Y-91792259D01*
X102303987Y-91908565D01*
X102440747Y-91999945D01*
X102592708Y-92062889D01*
X102754028Y-92094978D01*
X102918508Y-92094978D01*
X103079828Y-92062889D01*
X103099770Y-92054629D01*
X103099770Y-92171674D01*
X102521467Y-92749978D01*
X101555925Y-92749978D01*
X101452328Y-92707067D01*
X101291008Y-92674978D01*
X101126528Y-92674978D01*
X100965208Y-92707067D01*
X100813247Y-92770011D01*
X100676487Y-92861391D01*
X100560181Y-92977697D01*
X100468801Y-93114457D01*
X100405857Y-93266418D01*
X100373768Y-93427738D01*
X100373768Y-93592218D01*
X100405857Y-93753538D01*
X100468801Y-93905499D01*
X100560181Y-94042259D01*
X100676487Y-94158565D01*
X100813247Y-94249945D01*
X100965208Y-94312889D01*
X101126528Y-94344978D01*
X101291008Y-94344978D01*
X101452328Y-94312889D01*
X101555925Y-94269978D01*
X102798946Y-94269978D01*
X102836268Y-94273654D01*
X102873590Y-94269978D01*
X102873601Y-94269978D01*
X102985254Y-94258981D01*
X103128515Y-94215524D01*
X103260544Y-94144952D01*
X103376269Y-94049979D01*
X103400072Y-94020976D01*
X104370772Y-93050276D01*
X104399770Y-93026478D01*
X104446139Y-92969977D01*
X104494743Y-92910754D01*
X104565315Y-92778724D01*
X104586843Y-92707753D01*
X104608772Y-92635463D01*
X104619769Y-92523810D01*
X104619769Y-92523800D01*
X104623445Y-92486477D01*
X104619769Y-92449155D01*
X104619769Y-91195259D01*
X105571500Y-90243529D01*
X105600498Y-90219731D01*
X105695471Y-90104006D01*
X105766043Y-89971977D01*
X105809500Y-89828716D01*
X105820497Y-89717063D01*
X105820497Y-89717053D01*
X105824173Y-89679730D01*
X105820497Y-89642407D01*
X105820497Y-88896323D01*
X105945347Y-88979745D01*
X106188028Y-89080267D01*
X106445658Y-89131513D01*
X106708334Y-89131513D01*
X106965964Y-89080267D01*
X107208645Y-88979745D01*
X107427053Y-88833810D01*
X107612793Y-88648070D01*
X107754484Y-88436013D01*
X108756924Y-88436013D01*
X108759996Y-88912263D01*
X108918746Y-89071013D01*
X110029996Y-89071013D01*
X110029996Y-87959763D01*
X109871246Y-87801013D01*
X109394996Y-87797941D01*
X109270514Y-87810201D01*
X109150816Y-87846511D01*
X109040502Y-87905476D01*
X108943811Y-87984828D01*
X108864459Y-88081519D01*
X108805494Y-88191833D01*
X108769184Y-88311531D01*
X108756924Y-88436013D01*
X107754484Y-88436013D01*
X107758728Y-88429662D01*
X107859250Y-88186981D01*
X107910496Y-87929351D01*
X107910496Y-87666675D01*
X107859250Y-87409045D01*
X107758728Y-87166364D01*
X107612793Y-86947956D01*
X107427053Y-86762216D01*
X107316996Y-86688679D01*
X107316996Y-83922285D01*
X107372676Y-83905395D01*
X107482990Y-83846430D01*
X107579681Y-83767078D01*
X107659033Y-83670387D01*
X107717998Y-83560073D01*
X107754308Y-83440375D01*
X107766348Y-83318130D01*
X107822022Y-83422289D01*
X107861867Y-83470839D01*
X107916995Y-83538014D01*
X107945998Y-83561816D01*
X108463196Y-84079015D01*
X108486995Y-84108014D01*
X108602720Y-84202987D01*
X108734749Y-84273559D01*
X108878010Y-84317016D01*
X108989663Y-84328013D01*
X108989671Y-84328013D01*
X109026996Y-84331689D01*
X109064321Y-84328013D01*
X109806313Y-84328013D01*
X109890691Y-84454293D01*
X110085276Y-84648878D01*
X110314084Y-84801763D01*
X110568321Y-84907072D01*
X110740656Y-84941352D01*
X110707994Y-85049028D01*
X110693320Y-85198013D01*
X110696997Y-85235345D01*
X110696996Y-87799373D01*
X110442746Y-87801013D01*
X110283996Y-87959763D01*
X110283996Y-89071013D01*
X110303996Y-89071013D01*
X110303996Y-89325013D01*
X110283996Y-89325013D01*
X110283996Y-89345013D01*
X110029996Y-89345013D01*
X110029996Y-89325013D01*
X108918746Y-89325013D01*
X108759996Y-89483763D01*
X108756924Y-89960013D01*
X108769184Y-90084495D01*
X108805494Y-90204193D01*
X108864459Y-90314507D01*
X108943811Y-90411198D01*
X109040502Y-90490550D01*
X109054464Y-90498013D01*
X109040502Y-90505476D01*
X108943811Y-90584828D01*
X108864459Y-90681519D01*
X108805494Y-90791833D01*
X108769184Y-90911531D01*
X108756924Y-91036013D01*
X108756924Y-92560013D01*
X108769184Y-92684495D01*
X108805494Y-92804193D01*
X108864459Y-92914507D01*
X108943811Y-93011198D01*
X108946023Y-93013013D01*
X108413519Y-93013013D01*
X108283506Y-93025818D01*
X108116683Y-93076424D01*
X107962937Y-93158602D01*
X107828179Y-93269196D01*
X107717585Y-93403954D01*
X107635407Y-93557700D01*
X107584801Y-93724523D01*
X107567714Y-93898013D01*
X107584801Y-94071503D01*
X107635407Y-94238326D01*
X107717585Y-94392072D01*
X107828179Y-94526830D01*
X107962937Y-94637424D01*
X108116683Y-94719602D01*
X108283506Y-94770208D01*
X108413519Y-94783013D01*
X108756924Y-94783013D01*
X108756924Y-95060013D01*
X108769184Y-95184495D01*
X108805494Y-95304193D01*
X108864459Y-95414507D01*
X108943811Y-95511198D01*
X109040502Y-95590550D01*
X109150816Y-95649515D01*
X109270514Y-95685825D01*
X109394996Y-95698085D01*
X110918996Y-95698085D01*
X111043478Y-95685825D01*
X111163176Y-95649515D01*
X111273490Y-95590550D01*
X111370181Y-95511198D01*
X111449533Y-95414507D01*
X111508498Y-95304193D01*
X111544808Y-95184495D01*
X111557068Y-95060013D01*
X111557068Y-93536013D01*
X111544808Y-93411531D01*
X111508498Y-93291833D01*
X111449533Y-93181519D01*
X111370181Y-93084828D01*
X111325322Y-93048013D01*
X111370181Y-93011198D01*
X111449533Y-92914507D01*
X111508498Y-92804193D01*
X111544808Y-92684495D01*
X111557068Y-92560013D01*
X111557068Y-91472743D01*
X111968000Y-91061811D01*
X111996997Y-91038014D01*
X112091970Y-90922289D01*
X112162542Y-90790260D01*
X112205999Y-90646999D01*
X112216996Y-90535346D01*
X112216996Y-90535338D01*
X112220672Y-90498013D01*
X112216996Y-90460688D01*
X112216996Y-85512814D01*
X112573816Y-85155995D01*
X112602813Y-85132198D01*
X112697786Y-85016473D01*
X112768358Y-84884444D01*
X112811815Y-84741183D01*
X112822812Y-84629530D01*
X112822812Y-84629521D01*
X112826488Y-84592198D01*
X112822812Y-84554875D01*
X112822812Y-83043408D01*
X113593001Y-82273220D01*
X113619996Y-82251066D01*
X113619996Y-103598113D01*
X102139363Y-103598113D01*
X102197702Y-103527027D01*
X102335595Y-103269047D01*
X102420509Y-102989124D01*
X102449181Y-102698013D01*
X102423081Y-102433013D01*
X102529946Y-102433013D01*
X102748107Y-102411526D01*
X103028030Y-102326612D01*
X103286010Y-102188719D01*
X103512130Y-102003147D01*
X103697702Y-101777027D01*
X103835595Y-101519047D01*
X103920509Y-101239124D01*
X103949181Y-100948013D01*
X103920509Y-100656902D01*
X103835595Y-100376979D01*
X103697702Y-100118999D01*
X103512130Y-99892879D01*
X103305148Y-99723013D01*
X103512130Y-99553147D01*
X103697702Y-99327027D01*
X103835595Y-99069047D01*
X103920509Y-98789124D01*
X103949181Y-98498013D01*
X103920509Y-98206902D01*
X103835595Y-97926979D01*
X103697702Y-97668999D01*
X103512130Y-97442879D01*
X103286010Y-97257307D01*
X103028030Y-97119414D01*
X102748107Y-97034500D01*
X102529946Y-97013013D01*
X102423081Y-97013013D01*
X102449181Y-96748013D01*
X102420509Y-96456902D01*
X102335595Y-96176979D01*
X102197702Y-95918999D01*
X102012130Y-95692879D01*
X101786010Y-95507307D01*
X101528030Y-95369414D01*
X101248107Y-95284500D01*
X101029946Y-95263013D01*
X100084046Y-95263013D01*
X99937963Y-95277401D01*
X98641268Y-93980707D01*
X98641268Y-91216501D01*
X98628463Y-91086488D01*
X98577857Y-90919665D01*
X98495679Y-90765919D01*
X98385085Y-90631161D01*
X98250326Y-90520567D01*
X98096580Y-90438389D01*
X97929757Y-90387783D01*
X97756268Y-90370696D01*
X97582778Y-90387783D01*
X97415955Y-90438389D01*
X97262209Y-90520567D01*
X97127451Y-90631161D01*
X97016857Y-90765920D01*
X96934679Y-90919666D01*
X96884073Y-91086489D01*
X96871268Y-91216502D01*
X96871269Y-94303806D01*
X96866987Y-94347285D01*
X96884073Y-94520775D01*
X96934680Y-94687598D01*
X97016858Y-94841344D01*
X97099736Y-94942331D01*
X97099739Y-94942334D01*
X97127452Y-94976102D01*
X97161219Y-95003814D01*
X97541816Y-95384411D01*
X97371265Y-95316323D01*
X97083996Y-95263013D01*
X96683996Y-95263013D01*
X96683996Y-96621013D01*
X98277151Y-96621013D01*
X98398472Y-96391123D01*
X98377559Y-96297060D01*
X98319694Y-96162289D01*
X98686384Y-96528980D01*
X98664811Y-96748013D01*
X98693483Y-97039124D01*
X98778397Y-97319047D01*
X98916290Y-97577027D01*
X98958931Y-97628985D01*
X98878633Y-97613013D01*
X98635359Y-97613013D01*
X98396760Y-97660473D01*
X98172004Y-97753570D01*
X97969729Y-97888726D01*
X97797709Y-98060746D01*
X97662553Y-98263021D01*
X97569456Y-98487777D01*
X97521996Y-98726376D01*
X97521996Y-98969650D01*
X97569456Y-99208249D01*
X97662553Y-99433005D01*
X97797709Y-99635280D01*
X97885442Y-99723013D01*
X97797709Y-99810746D01*
X97662553Y-100013021D01*
X97569456Y-100237777D01*
X97521996Y-100476376D01*
X97521996Y-100719650D01*
X97569456Y-100958249D01*
X97662553Y-101183005D01*
X97797709Y-101385280D01*
X97969729Y-101557300D01*
X98172004Y-101692456D01*
X98396760Y-101785553D01*
X98635359Y-101833013D01*
X98878633Y-101833013D01*
X98958931Y-101817041D01*
X98916290Y-101868999D01*
X98778397Y-102126979D01*
X98693483Y-102406902D01*
X98664811Y-102698013D01*
X98693483Y-102989124D01*
X98778397Y-103269047D01*
X98916290Y-103527027D01*
X98974629Y-103598113D01*
X98138174Y-103598113D01*
X98262287Y-103417439D01*
X98377559Y-103148966D01*
X98398472Y-103054903D01*
X98277151Y-102825013D01*
X96683996Y-102825013D01*
X96683996Y-102845013D01*
X96429996Y-102845013D01*
X96429996Y-102825013D01*
X96409996Y-102825013D01*
X96409996Y-102571013D01*
X96429996Y-102571013D01*
X96429996Y-101213013D01*
X96683996Y-101213013D01*
X96683996Y-102571013D01*
X98277151Y-102571013D01*
X98398472Y-102341123D01*
X98377559Y-102247060D01*
X98262287Y-101978587D01*
X98096853Y-101737761D01*
X97887615Y-101533837D01*
X97642614Y-101374652D01*
X97371265Y-101266323D01*
X97083996Y-101213013D01*
X96683996Y-101213013D01*
X96429996Y-101213013D01*
X96029996Y-101213013D01*
X95742727Y-101266323D01*
X95471378Y-101374652D01*
X95226377Y-101533837D01*
X95057620Y-101698308D01*
X95012130Y-101642879D01*
X94786010Y-101457307D01*
X94528030Y-101319414D01*
X94248107Y-101234500D01*
X94029946Y-101213013D01*
X93084046Y-101213013D01*
X92865885Y-101234500D01*
X92804612Y-101253087D01*
X92851439Y-101183005D01*
X92944536Y-100958249D01*
X92991996Y-100719650D01*
X92991996Y-100476376D01*
X92944536Y-100237777D01*
X92851439Y-100013021D01*
X92716283Y-99810746D01*
X92628550Y-99723013D01*
X92716283Y-99635280D01*
X92851439Y-99433005D01*
X92944536Y-99208249D01*
X92991996Y-98969650D01*
X92991996Y-98726376D01*
X92944536Y-98487777D01*
X92851439Y-98263021D01*
X92804612Y-98192939D01*
X92865885Y-98211526D01*
X93084046Y-98233013D01*
X94029946Y-98233013D01*
X94248107Y-98211526D01*
X94528030Y-98126612D01*
X94786010Y-97988719D01*
X95012130Y-97803147D01*
X95057620Y-97747718D01*
X95226377Y-97912189D01*
X95471378Y-98071374D01*
X95742727Y-98179703D01*
X96029996Y-98233013D01*
X96429996Y-98233013D01*
X96429996Y-96875013D01*
X96683996Y-96875013D01*
X96683996Y-98233013D01*
X97083996Y-98233013D01*
X97371265Y-98179703D01*
X97642614Y-98071374D01*
X97887615Y-97912189D01*
X98096853Y-97708265D01*
X98262287Y-97467439D01*
X98377559Y-97198966D01*
X98398472Y-97104903D01*
X98277151Y-96875013D01*
X96683996Y-96875013D01*
X96429996Y-96875013D01*
X96409996Y-96875013D01*
X96409996Y-96621013D01*
X96429996Y-96621013D01*
X96429996Y-95263013D01*
X96029996Y-95263013D01*
X95742727Y-95316323D01*
X95471378Y-95424652D01*
X95226377Y-95583837D01*
X95057620Y-95748308D01*
X95012130Y-95692879D01*
X94786010Y-95507307D01*
X94528030Y-95369414D01*
X94248107Y-95284500D01*
X94029946Y-95263013D01*
X93084046Y-95263013D01*
X92865885Y-95284500D01*
X92585962Y-95369414D01*
X92327982Y-95507307D01*
X92101862Y-95692879D01*
X91916290Y-95918999D01*
X91778397Y-96176979D01*
X91693483Y-96456902D01*
X91664811Y-96748013D01*
X91693483Y-97039124D01*
X91778397Y-97319047D01*
X91916290Y-97577027D01*
X91958931Y-97628985D01*
X91878633Y-97613013D01*
X91635359Y-97613013D01*
X91396760Y-97660473D01*
X91172004Y-97753570D01*
X90969729Y-97888726D01*
X90941992Y-97916463D01*
X90941992Y-93974879D01*
X90987009Y-94042252D01*
X91214744Y-94269987D01*
X91482533Y-94448918D01*
X91780084Y-94572168D01*
X92095963Y-94635000D01*
X92418029Y-94635000D01*
X92733908Y-94572168D01*
X93031459Y-94448918D01*
X93299248Y-94269987D01*
X93526983Y-94042252D01*
X93705914Y-93774463D01*
X93829164Y-93476912D01*
X93891996Y-93161033D01*
X93891996Y-92838967D01*
X93829164Y-92523088D01*
X93705914Y-92225537D01*
X93526983Y-91957748D01*
X93299248Y-91730013D01*
X93031459Y-91551082D01*
X92733908Y-91427832D01*
X92418029Y-91365000D01*
X92095963Y-91365000D01*
X91780084Y-91427832D01*
X91765620Y-91433823D01*
X91691995Y-91360198D01*
X91691995Y-88042127D01*
X91998104Y-88122384D01*
X92319591Y-88141718D01*
X92638671Y-88097961D01*
X92943084Y-87992795D01*
X93117040Y-87899814D01*
X93212804Y-87635413D01*
X92256996Y-86679605D01*
X92242854Y-86693748D01*
X92063249Y-86514143D01*
X92077391Y-86500000D01*
X92436601Y-86500000D01*
X93392409Y-87455808D01*
X93656810Y-87360044D01*
X93797700Y-87070429D01*
X93879380Y-86758892D01*
X93898714Y-86437405D01*
X93854957Y-86118325D01*
X93749791Y-85813912D01*
X93656810Y-85639956D01*
X93392409Y-85544192D01*
X92436601Y-86500000D01*
X92077391Y-86500000D01*
X92063249Y-86485858D01*
X92242854Y-86306253D01*
X92256996Y-86320395D01*
X93212804Y-85364587D01*
X93117040Y-85100186D01*
X92827425Y-84959296D01*
X92515888Y-84877616D01*
X92194401Y-84858282D01*
X91875321Y-84902039D01*
X91691995Y-84965373D01*
X91691995Y-64259053D01*
X93214870Y-62736179D01*
X93231340Y-62766993D01*
X93471431Y-62833973D01*
X94257391Y-62048013D01*
X94243249Y-62033871D01*
X94422854Y-61854266D01*
X94436996Y-61868408D01*
X94451139Y-61854266D01*
X94630744Y-62033871D01*
G04 #@! TA.AperFunction,Conductor*
D25*
G36*
X94630744Y-62033871D02*
G01*
X94616601Y-62048013D01*
X94630744Y-62062156D01*
X94451139Y-62241761D01*
X94436996Y-62227618D01*
X93651036Y-63013578D01*
X93718016Y-63253669D01*
X93853756Y-63317498D01*
X93775269Y-63350008D01*
X93546461Y-63502893D01*
X93351876Y-63697478D01*
X93198991Y-63926286D01*
X93093682Y-64180523D01*
X93039996Y-64450421D01*
X93039996Y-64725605D01*
X93093682Y-64995503D01*
X93198991Y-65249740D01*
X93351876Y-65478548D01*
X93546461Y-65673133D01*
X93775269Y-65826018D01*
X93852511Y-65858013D01*
X93775269Y-65890008D01*
X93546461Y-66042893D01*
X93351876Y-66237478D01*
X93198991Y-66466286D01*
X93093682Y-66720523D01*
X93039996Y-66990421D01*
X93039996Y-67265605D01*
X93093682Y-67535503D01*
X93198991Y-67789740D01*
X93351876Y-68018548D01*
X93546461Y-68213133D01*
X93775269Y-68366018D01*
X93852511Y-68398013D01*
X93775269Y-68430008D01*
X93546461Y-68582893D01*
X93351876Y-68777478D01*
X93198991Y-69006286D01*
X93093682Y-69260523D01*
X93039996Y-69530421D01*
X93039996Y-69805605D01*
X93093682Y-70075503D01*
X93198991Y-70329740D01*
X93351876Y-70558548D01*
X93546461Y-70753133D01*
X93775269Y-70906018D01*
X93852511Y-70938013D01*
X93775269Y-70970008D01*
X93546461Y-71122893D01*
X93351876Y-71317478D01*
X93198991Y-71546286D01*
X93093682Y-71800523D01*
X93039996Y-72070421D01*
X93039996Y-72345605D01*
X93093682Y-72615503D01*
X93198991Y-72869740D01*
X93351876Y-73098548D01*
X93546461Y-73293133D01*
X93775269Y-73446018D01*
X93852511Y-73478013D01*
X93775269Y-73510008D01*
X93546461Y-73662893D01*
X93351876Y-73857478D01*
X93198991Y-74086286D01*
X93093682Y-74340523D01*
X93039996Y-74610421D01*
X93039996Y-74885605D01*
X93093682Y-75155503D01*
X93198991Y-75409740D01*
X93351876Y-75638548D01*
X93546461Y-75833133D01*
X93775269Y-75986018D01*
X93852511Y-76018013D01*
X93775269Y-76050008D01*
X93546461Y-76202893D01*
X93351876Y-76397478D01*
X93198991Y-76626286D01*
X93093682Y-76880523D01*
X93039996Y-77150421D01*
X93039996Y-77425605D01*
X93093682Y-77695503D01*
X93198991Y-77949740D01*
X93351876Y-78178548D01*
X93546461Y-78373133D01*
X93775269Y-78526018D01*
X93852511Y-78558013D01*
X93775269Y-78590008D01*
X93546461Y-78742893D01*
X93351876Y-78937478D01*
X93198991Y-79166286D01*
X93093682Y-79420523D01*
X93039996Y-79690421D01*
X93039996Y-79965605D01*
X93093682Y-80235503D01*
X93198991Y-80489740D01*
X93351876Y-80718548D01*
X93546461Y-80913133D01*
X93775269Y-81066018D01*
X93852511Y-81098013D01*
X93775269Y-81130008D01*
X93546461Y-81282893D01*
X93351876Y-81477478D01*
X93198991Y-81706286D01*
X93093682Y-81960523D01*
X93039996Y-82230421D01*
X93039996Y-82505605D01*
X93093682Y-82775503D01*
X93198991Y-83029740D01*
X93351876Y-83258548D01*
X93546461Y-83453133D01*
X93775269Y-83606018D01*
X94029506Y-83711327D01*
X94299404Y-83765013D01*
X94351474Y-83765013D01*
X94392497Y-83971248D01*
X94497806Y-84225485D01*
X94650691Y-84454293D01*
X94845276Y-84648878D01*
X95074084Y-84801763D01*
X95328321Y-84907072D01*
X95598219Y-84960758D01*
X95873403Y-84960758D01*
X96143301Y-84907072D01*
X96397538Y-84801763D01*
X96626346Y-84648878D01*
X96715052Y-84560172D01*
X96813436Y-84600924D01*
X96974756Y-84633013D01*
X97139236Y-84633013D01*
X97300556Y-84600924D01*
X97452517Y-84537980D01*
X97589277Y-84446600D01*
X97705583Y-84330294D01*
X97796963Y-84193534D01*
X97859907Y-84041573D01*
X97891996Y-83880253D01*
X97891996Y-83715773D01*
X97891929Y-83715435D01*
X97934311Y-83767078D01*
X98031002Y-83846430D01*
X98141316Y-83905395D01*
X98196996Y-83922285D01*
X98196997Y-86702042D01*
X98106939Y-86762216D01*
X97921199Y-86947956D01*
X97775264Y-87166364D01*
X97674742Y-87409045D01*
X97623496Y-87666675D01*
X97623496Y-87929351D01*
X97674742Y-88186981D01*
X97775264Y-88429662D01*
X97921199Y-88648070D01*
X98106939Y-88833810D01*
X98325347Y-88979745D01*
X98568028Y-89080267D01*
X98825658Y-89131513D01*
X99088334Y-89131513D01*
X99345964Y-89080267D01*
X99588645Y-88979745D01*
X99807053Y-88833810D01*
X99992793Y-88648070D01*
X100138728Y-88429662D01*
X100226996Y-88216565D01*
X100315264Y-88429662D01*
X100461199Y-88648070D01*
X100646939Y-88833810D01*
X100865347Y-88979745D01*
X101108028Y-89080267D01*
X101365658Y-89131513D01*
X101628334Y-89131513D01*
X101885964Y-89080267D01*
X102076268Y-89001440D01*
X102076268Y-90912821D01*
X102033357Y-91016418D01*
X102001268Y-91177738D01*
X102001268Y-91342218D01*
X102033357Y-91503538D01*
X102096301Y-91655499D01*
X102187681Y-91792259D01*
X102303987Y-91908565D01*
X102440747Y-91999945D01*
X102592708Y-92062889D01*
X102754028Y-92094978D01*
X102918508Y-92094978D01*
X103079828Y-92062889D01*
X103099770Y-92054629D01*
X103099770Y-92171674D01*
X102521467Y-92749978D01*
X101555925Y-92749978D01*
X101452328Y-92707067D01*
X101291008Y-92674978D01*
X101126528Y-92674978D01*
X100965208Y-92707067D01*
X100813247Y-92770011D01*
X100676487Y-92861391D01*
X100560181Y-92977697D01*
X100468801Y-93114457D01*
X100405857Y-93266418D01*
X100373768Y-93427738D01*
X100373768Y-93592218D01*
X100405857Y-93753538D01*
X100468801Y-93905499D01*
X100560181Y-94042259D01*
X100676487Y-94158565D01*
X100813247Y-94249945D01*
X100965208Y-94312889D01*
X101126528Y-94344978D01*
X101291008Y-94344978D01*
X101452328Y-94312889D01*
X101555925Y-94269978D01*
X102798946Y-94269978D01*
X102836268Y-94273654D01*
X102873590Y-94269978D01*
X102873601Y-94269978D01*
X102985254Y-94258981D01*
X103128515Y-94215524D01*
X103260544Y-94144952D01*
X103376269Y-94049979D01*
X103400072Y-94020976D01*
X104370772Y-93050276D01*
X104399770Y-93026478D01*
X104446139Y-92969977D01*
X104494743Y-92910754D01*
X104565315Y-92778724D01*
X104586843Y-92707753D01*
X104608772Y-92635463D01*
X104619769Y-92523810D01*
X104619769Y-92523800D01*
X104623445Y-92486477D01*
X104619769Y-92449155D01*
X104619769Y-91195259D01*
X105571500Y-90243529D01*
X105600498Y-90219731D01*
X105695471Y-90104006D01*
X105766043Y-89971977D01*
X105809500Y-89828716D01*
X105820497Y-89717063D01*
X105820497Y-89717053D01*
X105824173Y-89679730D01*
X105820497Y-89642407D01*
X105820497Y-88896323D01*
X105945347Y-88979745D01*
X106188028Y-89080267D01*
X106445658Y-89131513D01*
X106708334Y-89131513D01*
X106965964Y-89080267D01*
X107208645Y-88979745D01*
X107427053Y-88833810D01*
X107612793Y-88648070D01*
X107754484Y-88436013D01*
X108756924Y-88436013D01*
X108759996Y-88912263D01*
X108918746Y-89071013D01*
X110029996Y-89071013D01*
X110029996Y-87959763D01*
X109871246Y-87801013D01*
X109394996Y-87797941D01*
X109270514Y-87810201D01*
X109150816Y-87846511D01*
X109040502Y-87905476D01*
X108943811Y-87984828D01*
X108864459Y-88081519D01*
X108805494Y-88191833D01*
X108769184Y-88311531D01*
X108756924Y-88436013D01*
X107754484Y-88436013D01*
X107758728Y-88429662D01*
X107859250Y-88186981D01*
X107910496Y-87929351D01*
X107910496Y-87666675D01*
X107859250Y-87409045D01*
X107758728Y-87166364D01*
X107612793Y-86947956D01*
X107427053Y-86762216D01*
X107316996Y-86688679D01*
X107316996Y-83922285D01*
X107372676Y-83905395D01*
X107482990Y-83846430D01*
X107579681Y-83767078D01*
X107659033Y-83670387D01*
X107717998Y-83560073D01*
X107754308Y-83440375D01*
X107766348Y-83318130D01*
X107822022Y-83422289D01*
X107861867Y-83470839D01*
X107916995Y-83538014D01*
X107945998Y-83561816D01*
X108463196Y-84079015D01*
X108486995Y-84108014D01*
X108602720Y-84202987D01*
X108734749Y-84273559D01*
X108878010Y-84317016D01*
X108989663Y-84328013D01*
X108989671Y-84328013D01*
X109026996Y-84331689D01*
X109064321Y-84328013D01*
X109806313Y-84328013D01*
X109890691Y-84454293D01*
X110085276Y-84648878D01*
X110314084Y-84801763D01*
X110568321Y-84907072D01*
X110740656Y-84941352D01*
X110707994Y-85049028D01*
X110693320Y-85198013D01*
X110696997Y-85235345D01*
X110696996Y-87799373D01*
X110442746Y-87801013D01*
X110283996Y-87959763D01*
X110283996Y-89071013D01*
X110303996Y-89071013D01*
X110303996Y-89325013D01*
X110283996Y-89325013D01*
X110283996Y-89345013D01*
X110029996Y-89345013D01*
X110029996Y-89325013D01*
X108918746Y-89325013D01*
X108759996Y-89483763D01*
X108756924Y-89960013D01*
X108769184Y-90084495D01*
X108805494Y-90204193D01*
X108864459Y-90314507D01*
X108943811Y-90411198D01*
X109040502Y-90490550D01*
X109054464Y-90498013D01*
X109040502Y-90505476D01*
X108943811Y-90584828D01*
X108864459Y-90681519D01*
X108805494Y-90791833D01*
X108769184Y-90911531D01*
X108756924Y-91036013D01*
X108756924Y-92560013D01*
X108769184Y-92684495D01*
X108805494Y-92804193D01*
X108864459Y-92914507D01*
X108943811Y-93011198D01*
X108946023Y-93013013D01*
X108413519Y-93013013D01*
X108283506Y-93025818D01*
X108116683Y-93076424D01*
X107962937Y-93158602D01*
X107828179Y-93269196D01*
X107717585Y-93403954D01*
X107635407Y-93557700D01*
X107584801Y-93724523D01*
X107567714Y-93898013D01*
X107584801Y-94071503D01*
X107635407Y-94238326D01*
X107717585Y-94392072D01*
X107828179Y-94526830D01*
X107962937Y-94637424D01*
X108116683Y-94719602D01*
X108283506Y-94770208D01*
X108413519Y-94783013D01*
X108756924Y-94783013D01*
X108756924Y-95060013D01*
X108769184Y-95184495D01*
X108805494Y-95304193D01*
X108864459Y-95414507D01*
X108943811Y-95511198D01*
X109040502Y-95590550D01*
X109150816Y-95649515D01*
X109270514Y-95685825D01*
X109394996Y-95698085D01*
X110918996Y-95698085D01*
X111043478Y-95685825D01*
X111163176Y-95649515D01*
X111273490Y-95590550D01*
X111370181Y-95511198D01*
X111449533Y-95414507D01*
X111508498Y-95304193D01*
X111544808Y-95184495D01*
X111557068Y-95060013D01*
X111557068Y-93536013D01*
X111544808Y-93411531D01*
X111508498Y-93291833D01*
X111449533Y-93181519D01*
X111370181Y-93084828D01*
X111325322Y-93048013D01*
X111370181Y-93011198D01*
X111449533Y-92914507D01*
X111508498Y-92804193D01*
X111544808Y-92684495D01*
X111557068Y-92560013D01*
X111557068Y-91472743D01*
X111968000Y-91061811D01*
X111996997Y-91038014D01*
X112091970Y-90922289D01*
X112162542Y-90790260D01*
X112205999Y-90646999D01*
X112216996Y-90535346D01*
X112216996Y-90535338D01*
X112220672Y-90498013D01*
X112216996Y-90460688D01*
X112216996Y-85512814D01*
X112573816Y-85155995D01*
X112602813Y-85132198D01*
X112697786Y-85016473D01*
X112768358Y-84884444D01*
X112811815Y-84741183D01*
X112822812Y-84629530D01*
X112822812Y-84629521D01*
X112826488Y-84592198D01*
X112822812Y-84554875D01*
X112822812Y-83043408D01*
X113593001Y-82273220D01*
X113619996Y-82251066D01*
X113619996Y-103598113D01*
X102139363Y-103598113D01*
X102197702Y-103527027D01*
X102335595Y-103269047D01*
X102420509Y-102989124D01*
X102449181Y-102698013D01*
X102423081Y-102433013D01*
X102529946Y-102433013D01*
X102748107Y-102411526D01*
X103028030Y-102326612D01*
X103286010Y-102188719D01*
X103512130Y-102003147D01*
X103697702Y-101777027D01*
X103835595Y-101519047D01*
X103920509Y-101239124D01*
X103949181Y-100948013D01*
X103920509Y-100656902D01*
X103835595Y-100376979D01*
X103697702Y-100118999D01*
X103512130Y-99892879D01*
X103305148Y-99723013D01*
X103512130Y-99553147D01*
X103697702Y-99327027D01*
X103835595Y-99069047D01*
X103920509Y-98789124D01*
X103949181Y-98498013D01*
X103920509Y-98206902D01*
X103835595Y-97926979D01*
X103697702Y-97668999D01*
X103512130Y-97442879D01*
X103286010Y-97257307D01*
X103028030Y-97119414D01*
X102748107Y-97034500D01*
X102529946Y-97013013D01*
X102423081Y-97013013D01*
X102449181Y-96748013D01*
X102420509Y-96456902D01*
X102335595Y-96176979D01*
X102197702Y-95918999D01*
X102012130Y-95692879D01*
X101786010Y-95507307D01*
X101528030Y-95369414D01*
X101248107Y-95284500D01*
X101029946Y-95263013D01*
X100084046Y-95263013D01*
X99937963Y-95277401D01*
X98641268Y-93980707D01*
X98641268Y-91216501D01*
X98628463Y-91086488D01*
X98577857Y-90919665D01*
X98495679Y-90765919D01*
X98385085Y-90631161D01*
X98250326Y-90520567D01*
X98096580Y-90438389D01*
X97929757Y-90387783D01*
X97756268Y-90370696D01*
X97582778Y-90387783D01*
X97415955Y-90438389D01*
X97262209Y-90520567D01*
X97127451Y-90631161D01*
X97016857Y-90765920D01*
X96934679Y-90919666D01*
X96884073Y-91086489D01*
X96871268Y-91216502D01*
X96871269Y-94303806D01*
X96866987Y-94347285D01*
X96884073Y-94520775D01*
X96934680Y-94687598D01*
X97016858Y-94841344D01*
X97099736Y-94942331D01*
X97099739Y-94942334D01*
X97127452Y-94976102D01*
X97161219Y-95003814D01*
X97541816Y-95384411D01*
X97371265Y-95316323D01*
X97083996Y-95263013D01*
X96683996Y-95263013D01*
X96683996Y-96621013D01*
X98277151Y-96621013D01*
X98398472Y-96391123D01*
X98377559Y-96297060D01*
X98319694Y-96162289D01*
X98686384Y-96528980D01*
X98664811Y-96748013D01*
X98693483Y-97039124D01*
X98778397Y-97319047D01*
X98916290Y-97577027D01*
X98958931Y-97628985D01*
X98878633Y-97613013D01*
X98635359Y-97613013D01*
X98396760Y-97660473D01*
X98172004Y-97753570D01*
X97969729Y-97888726D01*
X97797709Y-98060746D01*
X97662553Y-98263021D01*
X97569456Y-98487777D01*
X97521996Y-98726376D01*
X97521996Y-98969650D01*
X97569456Y-99208249D01*
X97662553Y-99433005D01*
X97797709Y-99635280D01*
X97885442Y-99723013D01*
X97797709Y-99810746D01*
X97662553Y-100013021D01*
X97569456Y-100237777D01*
X97521996Y-100476376D01*
X97521996Y-100719650D01*
X97569456Y-100958249D01*
X97662553Y-101183005D01*
X97797709Y-101385280D01*
X97969729Y-101557300D01*
X98172004Y-101692456D01*
X98396760Y-101785553D01*
X98635359Y-101833013D01*
X98878633Y-101833013D01*
X98958931Y-101817041D01*
X98916290Y-101868999D01*
X98778397Y-102126979D01*
X98693483Y-102406902D01*
X98664811Y-102698013D01*
X98693483Y-102989124D01*
X98778397Y-103269047D01*
X98916290Y-103527027D01*
X98974629Y-103598113D01*
X98138174Y-103598113D01*
X98262287Y-103417439D01*
X98377559Y-103148966D01*
X98398472Y-103054903D01*
X98277151Y-102825013D01*
X96683996Y-102825013D01*
X96683996Y-102845013D01*
X96429996Y-102845013D01*
X96429996Y-102825013D01*
X96409996Y-102825013D01*
X96409996Y-102571013D01*
X96429996Y-102571013D01*
X96429996Y-101213013D01*
X96683996Y-101213013D01*
X96683996Y-102571013D01*
X98277151Y-102571013D01*
X98398472Y-102341123D01*
X98377559Y-102247060D01*
X98262287Y-101978587D01*
X98096853Y-101737761D01*
X97887615Y-101533837D01*
X97642614Y-101374652D01*
X97371265Y-101266323D01*
X97083996Y-101213013D01*
X96683996Y-101213013D01*
X96429996Y-101213013D01*
X96029996Y-101213013D01*
X95742727Y-101266323D01*
X95471378Y-101374652D01*
X95226377Y-101533837D01*
X95057620Y-101698308D01*
X95012130Y-101642879D01*
X94786010Y-101457307D01*
X94528030Y-101319414D01*
X94248107Y-101234500D01*
X94029946Y-101213013D01*
X93084046Y-101213013D01*
X92865885Y-101234500D01*
X92804612Y-101253087D01*
X92851439Y-101183005D01*
X92944536Y-100958249D01*
X92991996Y-100719650D01*
X92991996Y-100476376D01*
X92944536Y-100237777D01*
X92851439Y-100013021D01*
X92716283Y-99810746D01*
X92628550Y-99723013D01*
X92716283Y-99635280D01*
X92851439Y-99433005D01*
X92944536Y-99208249D01*
X92991996Y-98969650D01*
X92991996Y-98726376D01*
X92944536Y-98487777D01*
X92851439Y-98263021D01*
X92804612Y-98192939D01*
X92865885Y-98211526D01*
X93084046Y-98233013D01*
X94029946Y-98233013D01*
X94248107Y-98211526D01*
X94528030Y-98126612D01*
X94786010Y-97988719D01*
X95012130Y-97803147D01*
X95057620Y-97747718D01*
X95226377Y-97912189D01*
X95471378Y-98071374D01*
X95742727Y-98179703D01*
X96029996Y-98233013D01*
X96429996Y-98233013D01*
X96429996Y-96875013D01*
X96683996Y-96875013D01*
X96683996Y-98233013D01*
X97083996Y-98233013D01*
X97371265Y-98179703D01*
X97642614Y-98071374D01*
X97887615Y-97912189D01*
X98096853Y-97708265D01*
X98262287Y-97467439D01*
X98377559Y-97198966D01*
X98398472Y-97104903D01*
X98277151Y-96875013D01*
X96683996Y-96875013D01*
X96429996Y-96875013D01*
X96409996Y-96875013D01*
X96409996Y-96621013D01*
X96429996Y-96621013D01*
X96429996Y-95263013D01*
X96029996Y-95263013D01*
X95742727Y-95316323D01*
X95471378Y-95424652D01*
X95226377Y-95583837D01*
X95057620Y-95748308D01*
X95012130Y-95692879D01*
X94786010Y-95507307D01*
X94528030Y-95369414D01*
X94248107Y-95284500D01*
X94029946Y-95263013D01*
X93084046Y-95263013D01*
X92865885Y-95284500D01*
X92585962Y-95369414D01*
X92327982Y-95507307D01*
X92101862Y-95692879D01*
X91916290Y-95918999D01*
X91778397Y-96176979D01*
X91693483Y-96456902D01*
X91664811Y-96748013D01*
X91693483Y-97039124D01*
X91778397Y-97319047D01*
X91916290Y-97577027D01*
X91958931Y-97628985D01*
X91878633Y-97613013D01*
X91635359Y-97613013D01*
X91396760Y-97660473D01*
X91172004Y-97753570D01*
X90969729Y-97888726D01*
X90941992Y-97916463D01*
X90941992Y-93974879D01*
X90987009Y-94042252D01*
X91214744Y-94269987D01*
X91482533Y-94448918D01*
X91780084Y-94572168D01*
X92095963Y-94635000D01*
X92418029Y-94635000D01*
X92733908Y-94572168D01*
X93031459Y-94448918D01*
X93299248Y-94269987D01*
X93526983Y-94042252D01*
X93705914Y-93774463D01*
X93829164Y-93476912D01*
X93891996Y-93161033D01*
X93891996Y-92838967D01*
X93829164Y-92523088D01*
X93705914Y-92225537D01*
X93526983Y-91957748D01*
X93299248Y-91730013D01*
X93031459Y-91551082D01*
X92733908Y-91427832D01*
X92418029Y-91365000D01*
X92095963Y-91365000D01*
X91780084Y-91427832D01*
X91765620Y-91433823D01*
X91691995Y-91360198D01*
X91691995Y-88042127D01*
X91998104Y-88122384D01*
X92319591Y-88141718D01*
X92638671Y-88097961D01*
X92943084Y-87992795D01*
X93117040Y-87899814D01*
X93212804Y-87635413D01*
X92256996Y-86679605D01*
X92242854Y-86693748D01*
X92063249Y-86514143D01*
X92077391Y-86500000D01*
X92436601Y-86500000D01*
X93392409Y-87455808D01*
X93656810Y-87360044D01*
X93797700Y-87070429D01*
X93879380Y-86758892D01*
X93898714Y-86437405D01*
X93854957Y-86118325D01*
X93749791Y-85813912D01*
X93656810Y-85639956D01*
X93392409Y-85544192D01*
X92436601Y-86500000D01*
X92077391Y-86500000D01*
X92063249Y-86485858D01*
X92242854Y-86306253D01*
X92256996Y-86320395D01*
X93212804Y-85364587D01*
X93117040Y-85100186D01*
X92827425Y-84959296D01*
X92515888Y-84877616D01*
X92194401Y-84858282D01*
X91875321Y-84902039D01*
X91691995Y-84965373D01*
X91691995Y-64259053D01*
X93214870Y-62736179D01*
X93231340Y-62766993D01*
X93471431Y-62833973D01*
X94257391Y-62048013D01*
X94243249Y-62033871D01*
X94422854Y-61854266D01*
X94436996Y-61868408D01*
X94451139Y-61854266D01*
X94630744Y-62033871D01*
G37*
G04 #@! TD.AperFunction*
D24*
X104420994Y-53622804D02*
X104391996Y-53646602D01*
X104368198Y-53675600D01*
X104368197Y-53675601D01*
X104297022Y-53762327D01*
X104226450Y-53894357D01*
X104224245Y-53901627D01*
X104188180Y-54020523D01*
X104182994Y-54037618D01*
X104168320Y-54186603D01*
X104171997Y-54223936D01*
X104171996Y-66665127D01*
X104105583Y-66565732D01*
X103989277Y-66449426D01*
X103852517Y-66358046D01*
X103700556Y-66295102D01*
X103542004Y-66263564D01*
X103542004Y-63287231D01*
X103546285Y-63243765D01*
X103542004Y-63200299D01*
X103542004Y-63200289D01*
X103529199Y-63070276D01*
X103478593Y-62903453D01*
X103396415Y-62749707D01*
X103285821Y-62614949D01*
X103252048Y-62587232D01*
X103252042Y-62587226D01*
X103151055Y-62504348D01*
X102997309Y-62422170D01*
X102830486Y-62371563D01*
X102656996Y-62354477D01*
X102483506Y-62371563D01*
X102316683Y-62422170D01*
X102162937Y-62504348D01*
X102028179Y-62614941D01*
X101917586Y-62749699D01*
X101835408Y-62903445D01*
X101784801Y-63070268D01*
X101767715Y-63243758D01*
X101772005Y-63287318D01*
X101772004Y-81042061D01*
X100885496Y-81042061D01*
X100761014Y-81054321D01*
X100641316Y-81090631D01*
X100531002Y-81149596D01*
X100434311Y-81228948D01*
X100354959Y-81325639D01*
X100295994Y-81435953D01*
X100259684Y-81555651D01*
X100247424Y-81680133D01*
X100247424Y-82315133D01*
X100259684Y-82439615D01*
X100277399Y-82498013D01*
X100259684Y-82556411D01*
X100247424Y-82680893D01*
X100247424Y-83315893D01*
X100259684Y-83440375D01*
X100295994Y-83560073D01*
X100354959Y-83670387D01*
X100434311Y-83767078D01*
X100531002Y-83846430D01*
X100641316Y-83905395D01*
X100696996Y-83922285D01*
X100696997Y-86728769D01*
X100646939Y-86762216D01*
X100461199Y-86947956D01*
X100315264Y-87166364D01*
X100226996Y-87379461D01*
X100138728Y-87166364D01*
X99992793Y-86947956D01*
X99807053Y-86762216D01*
X99716996Y-86702042D01*
X99716996Y-83922285D01*
X99772676Y-83905395D01*
X99882990Y-83846430D01*
X99979681Y-83767078D01*
X100059033Y-83670387D01*
X100117998Y-83560073D01*
X100154308Y-83440375D01*
X100166568Y-83315893D01*
X100166568Y-82680893D01*
X100154308Y-82556411D01*
X100136593Y-82498013D01*
X100154308Y-82439615D01*
X100166568Y-82315133D01*
X100163496Y-82283383D01*
X100004746Y-82124633D01*
X99834866Y-82124633D01*
X99772676Y-82091391D01*
X99652978Y-82055081D01*
X99528496Y-82042821D01*
X98809996Y-82042821D01*
X98809996Y-81870633D01*
X98829996Y-81870633D01*
X98829996Y-81850633D01*
X99083996Y-81850633D01*
X99083996Y-81870633D01*
X100004746Y-81870633D01*
X100163496Y-81711883D01*
X100166568Y-81680133D01*
X100154308Y-81555651D01*
X100117998Y-81435953D01*
X100059033Y-81325639D01*
X99979681Y-81228948D01*
X99882990Y-81149596D01*
X99772676Y-81090631D01*
X99652978Y-81054321D01*
X99528496Y-81042061D01*
X99242746Y-81045133D01*
X99127151Y-81160728D01*
X99141996Y-81086100D01*
X99141996Y-80921620D01*
X99109907Y-80760300D01*
X99066996Y-80656703D01*
X99066996Y-65028383D01*
X99096963Y-64983534D01*
X99159907Y-64831573D01*
X99191996Y-64670253D01*
X99191996Y-64505773D01*
X99159907Y-64344453D01*
X99096963Y-64192492D01*
X99005583Y-64055732D01*
X98889277Y-63939426D01*
X98752517Y-63848046D01*
X98600556Y-63785102D01*
X98439236Y-63753013D01*
X98274756Y-63753013D01*
X98113436Y-63785102D01*
X97961475Y-63848046D01*
X97824715Y-63939426D01*
X97816996Y-63947145D01*
X97816996Y-58094897D01*
X97889277Y-58046600D01*
X98005583Y-57930294D01*
X98096963Y-57793534D01*
X98159907Y-57641573D01*
X98191996Y-57480253D01*
X98191996Y-57315773D01*
X98159907Y-57154453D01*
X98096963Y-57002492D01*
X98005583Y-56865732D01*
X97889277Y-56749426D01*
X97752517Y-56658046D01*
X97600556Y-56595102D01*
X97439236Y-56563013D01*
X97274756Y-56563013D01*
X97113436Y-56595102D01*
X96961475Y-56658046D01*
X96824715Y-56749426D01*
X96708409Y-56865732D01*
X96617029Y-57002492D01*
X96574117Y-57106091D01*
X96545999Y-57134209D01*
X96516995Y-57158012D01*
X96512194Y-57163863D01*
X96454791Y-56958102D01*
X96319051Y-56894273D01*
X96397538Y-56861763D01*
X96626346Y-56708878D01*
X96820931Y-56514293D01*
X96973816Y-56285485D01*
X97079125Y-56031248D01*
X97132811Y-55761350D01*
X97132811Y-55486166D01*
X97079125Y-55216268D01*
X96973816Y-54962031D01*
X96820931Y-54733223D01*
X96626346Y-54538638D01*
X96397538Y-54385753D01*
X96143301Y-54280444D01*
X95873403Y-54226758D01*
X95821333Y-54226758D01*
X95780310Y-54020523D01*
X95675001Y-53766286D01*
X95522116Y-53537478D01*
X95327531Y-53342893D01*
X95098723Y-53190008D01*
X94844486Y-53084699D01*
X94574588Y-53031013D01*
X94299404Y-53031013D01*
X94029506Y-53084699D01*
X93775269Y-53190008D01*
X93546461Y-53342893D01*
X93351876Y-53537478D01*
X93198991Y-53766286D01*
X93093682Y-54020523D01*
X93039996Y-54290421D01*
X93039996Y-54565605D01*
X93093682Y-54835503D01*
X93198991Y-55089740D01*
X93351876Y-55318548D01*
X93546461Y-55513133D01*
X93775269Y-55666018D01*
X93852511Y-55698013D01*
X93775269Y-55730008D01*
X93546461Y-55882893D01*
X93351876Y-56077478D01*
X93198991Y-56306286D01*
X93093682Y-56560523D01*
X93039996Y-56830421D01*
X93039996Y-57105605D01*
X93093682Y-57375503D01*
X93198991Y-57629740D01*
X93351876Y-57858548D01*
X93546461Y-58053133D01*
X93775269Y-58206018D01*
X93846939Y-58235705D01*
X93833973Y-58240377D01*
X93718016Y-58302357D01*
X93651036Y-58542448D01*
X94436996Y-59328408D01*
X95222956Y-58542448D01*
X95213044Y-58506920D01*
X95556206Y-58163758D01*
X95542064Y-58149616D01*
X95721669Y-57970011D01*
X95735811Y-57984153D01*
X95749954Y-57970011D01*
X95929559Y-58149616D01*
X95915416Y-58163758D01*
X95929559Y-58177901D01*
X95749954Y-58357506D01*
X95735811Y-58343363D01*
X94949851Y-59129323D01*
X94959763Y-59164851D01*
X94616601Y-59508013D01*
X94630744Y-59522156D01*
X94451139Y-59701761D01*
X94436996Y-59687618D01*
X94422854Y-59701761D01*
X94243249Y-59522156D01*
X94257391Y-59508013D01*
X93471431Y-58722053D01*
X93231340Y-58789033D01*
X93114240Y-59038061D01*
X93047973Y-59305148D01*
X93035086Y-59580030D01*
X93076074Y-59852146D01*
X93169360Y-60111036D01*
X93231340Y-60226993D01*
X93471429Y-60293972D01*
X93355019Y-60410382D01*
X93370913Y-60426276D01*
X93351440Y-60450004D01*
X90941992Y-62859454D01*
X90941992Y-51852113D01*
X106191685Y-51852113D01*
X104420994Y-53622804D01*
G04 #@! TA.AperFunction,Conductor*
D25*
G36*
X104420994Y-53622804D02*
G01*
X104391996Y-53646602D01*
X104368198Y-53675600D01*
X104368197Y-53675601D01*
X104297022Y-53762327D01*
X104226450Y-53894357D01*
X104224245Y-53901627D01*
X104188180Y-54020523D01*
X104182994Y-54037618D01*
X104168320Y-54186603D01*
X104171997Y-54223936D01*
X104171996Y-66665127D01*
X104105583Y-66565732D01*
X103989277Y-66449426D01*
X103852517Y-66358046D01*
X103700556Y-66295102D01*
X103542004Y-66263564D01*
X103542004Y-63287231D01*
X103546285Y-63243765D01*
X103542004Y-63200299D01*
X103542004Y-63200289D01*
X103529199Y-63070276D01*
X103478593Y-62903453D01*
X103396415Y-62749707D01*
X103285821Y-62614949D01*
X103252048Y-62587232D01*
X103252042Y-62587226D01*
X103151055Y-62504348D01*
X102997309Y-62422170D01*
X102830486Y-62371563D01*
X102656996Y-62354477D01*
X102483506Y-62371563D01*
X102316683Y-62422170D01*
X102162937Y-62504348D01*
X102028179Y-62614941D01*
X101917586Y-62749699D01*
X101835408Y-62903445D01*
X101784801Y-63070268D01*
X101767715Y-63243758D01*
X101772005Y-63287318D01*
X101772004Y-81042061D01*
X100885496Y-81042061D01*
X100761014Y-81054321D01*
X100641316Y-81090631D01*
X100531002Y-81149596D01*
X100434311Y-81228948D01*
X100354959Y-81325639D01*
X100295994Y-81435953D01*
X100259684Y-81555651D01*
X100247424Y-81680133D01*
X100247424Y-82315133D01*
X100259684Y-82439615D01*
X100277399Y-82498013D01*
X100259684Y-82556411D01*
X100247424Y-82680893D01*
X100247424Y-83315893D01*
X100259684Y-83440375D01*
X100295994Y-83560073D01*
X100354959Y-83670387D01*
X100434311Y-83767078D01*
X100531002Y-83846430D01*
X100641316Y-83905395D01*
X100696996Y-83922285D01*
X100696997Y-86728769D01*
X100646939Y-86762216D01*
X100461199Y-86947956D01*
X100315264Y-87166364D01*
X100226996Y-87379461D01*
X100138728Y-87166364D01*
X99992793Y-86947956D01*
X99807053Y-86762216D01*
X99716996Y-86702042D01*
X99716996Y-83922285D01*
X99772676Y-83905395D01*
X99882990Y-83846430D01*
X99979681Y-83767078D01*
X100059033Y-83670387D01*
X100117998Y-83560073D01*
X100154308Y-83440375D01*
X100166568Y-83315893D01*
X100166568Y-82680893D01*
X100154308Y-82556411D01*
X100136593Y-82498013D01*
X100154308Y-82439615D01*
X100166568Y-82315133D01*
X100163496Y-82283383D01*
X100004746Y-82124633D01*
X99834866Y-82124633D01*
X99772676Y-82091391D01*
X99652978Y-82055081D01*
X99528496Y-82042821D01*
X98809996Y-82042821D01*
X98809996Y-81870633D01*
X98829996Y-81870633D01*
X98829996Y-81850633D01*
X99083996Y-81850633D01*
X99083996Y-81870633D01*
X100004746Y-81870633D01*
X100163496Y-81711883D01*
X100166568Y-81680133D01*
X100154308Y-81555651D01*
X100117998Y-81435953D01*
X100059033Y-81325639D01*
X99979681Y-81228948D01*
X99882990Y-81149596D01*
X99772676Y-81090631D01*
X99652978Y-81054321D01*
X99528496Y-81042061D01*
X99242746Y-81045133D01*
X99127151Y-81160728D01*
X99141996Y-81086100D01*
X99141996Y-80921620D01*
X99109907Y-80760300D01*
X99066996Y-80656703D01*
X99066996Y-65028383D01*
X99096963Y-64983534D01*
X99159907Y-64831573D01*
X99191996Y-64670253D01*
X99191996Y-64505773D01*
X99159907Y-64344453D01*
X99096963Y-64192492D01*
X99005583Y-64055732D01*
X98889277Y-63939426D01*
X98752517Y-63848046D01*
X98600556Y-63785102D01*
X98439236Y-63753013D01*
X98274756Y-63753013D01*
X98113436Y-63785102D01*
X97961475Y-63848046D01*
X97824715Y-63939426D01*
X97816996Y-63947145D01*
X97816996Y-58094897D01*
X97889277Y-58046600D01*
X98005583Y-57930294D01*
X98096963Y-57793534D01*
X98159907Y-57641573D01*
X98191996Y-57480253D01*
X98191996Y-57315773D01*
X98159907Y-57154453D01*
X98096963Y-57002492D01*
X98005583Y-56865732D01*
X97889277Y-56749426D01*
X97752517Y-56658046D01*
X97600556Y-56595102D01*
X97439236Y-56563013D01*
X97274756Y-56563013D01*
X97113436Y-56595102D01*
X96961475Y-56658046D01*
X96824715Y-56749426D01*
X96708409Y-56865732D01*
X96617029Y-57002492D01*
X96574117Y-57106091D01*
X96545999Y-57134209D01*
X96516995Y-57158012D01*
X96512194Y-57163863D01*
X96454791Y-56958102D01*
X96319051Y-56894273D01*
X96397538Y-56861763D01*
X96626346Y-56708878D01*
X96820931Y-56514293D01*
X96973816Y-56285485D01*
X97079125Y-56031248D01*
X97132811Y-55761350D01*
X97132811Y-55486166D01*
X97079125Y-55216268D01*
X96973816Y-54962031D01*
X96820931Y-54733223D01*
X96626346Y-54538638D01*
X96397538Y-54385753D01*
X96143301Y-54280444D01*
X95873403Y-54226758D01*
X95821333Y-54226758D01*
X95780310Y-54020523D01*
X95675001Y-53766286D01*
X95522116Y-53537478D01*
X95327531Y-53342893D01*
X95098723Y-53190008D01*
X94844486Y-53084699D01*
X94574588Y-53031013D01*
X94299404Y-53031013D01*
X94029506Y-53084699D01*
X93775269Y-53190008D01*
X93546461Y-53342893D01*
X93351876Y-53537478D01*
X93198991Y-53766286D01*
X93093682Y-54020523D01*
X93039996Y-54290421D01*
X93039996Y-54565605D01*
X93093682Y-54835503D01*
X93198991Y-55089740D01*
X93351876Y-55318548D01*
X93546461Y-55513133D01*
X93775269Y-55666018D01*
X93852511Y-55698013D01*
X93775269Y-55730008D01*
X93546461Y-55882893D01*
X93351876Y-56077478D01*
X93198991Y-56306286D01*
X93093682Y-56560523D01*
X93039996Y-56830421D01*
X93039996Y-57105605D01*
X93093682Y-57375503D01*
X93198991Y-57629740D01*
X93351876Y-57858548D01*
X93546461Y-58053133D01*
X93775269Y-58206018D01*
X93846939Y-58235705D01*
X93833973Y-58240377D01*
X93718016Y-58302357D01*
X93651036Y-58542448D01*
X94436996Y-59328408D01*
X95222956Y-58542448D01*
X95213044Y-58506920D01*
X95556206Y-58163758D01*
X95542064Y-58149616D01*
X95721669Y-57970011D01*
X95735811Y-57984153D01*
X95749954Y-57970011D01*
X95929559Y-58149616D01*
X95915416Y-58163758D01*
X95929559Y-58177901D01*
X95749954Y-58357506D01*
X95735811Y-58343363D01*
X94949851Y-59129323D01*
X94959763Y-59164851D01*
X94616601Y-59508013D01*
X94630744Y-59522156D01*
X94451139Y-59701761D01*
X94436996Y-59687618D01*
X94422854Y-59701761D01*
X94243249Y-59522156D01*
X94257391Y-59508013D01*
X93471431Y-58722053D01*
X93231340Y-58789033D01*
X93114240Y-59038061D01*
X93047973Y-59305148D01*
X93035086Y-59580030D01*
X93076074Y-59852146D01*
X93169360Y-60111036D01*
X93231340Y-60226993D01*
X93471429Y-60293972D01*
X93355019Y-60410382D01*
X93370913Y-60426276D01*
X93351440Y-60450004D01*
X90941992Y-62859454D01*
X90941992Y-51852113D01*
X106191685Y-51852113D01*
X104420994Y-53622804D01*
G37*
G04 #@! TD.AperFunction*
D24*
X112321998Y-58786800D02*
X112321998Y-60318732D01*
X112243447Y-60100735D01*
X112181467Y-59984778D01*
X111941376Y-59917798D01*
X111155416Y-60703758D01*
X111941376Y-61489718D01*
X112181467Y-61422738D01*
X112298567Y-61173710D01*
X112321998Y-61079273D01*
X112321998Y-62858731D01*
X112243447Y-62640735D01*
X112181467Y-62524778D01*
X111941376Y-62457798D01*
X111155416Y-63243758D01*
X111941376Y-64029718D01*
X112181467Y-63962738D01*
X112298567Y-63713710D01*
X112321998Y-63619273D01*
X112321998Y-65390710D01*
X112319125Y-65376268D01*
X112213816Y-65122031D01*
X112060931Y-64893223D01*
X111866346Y-64698638D01*
X111637538Y-64545753D01*
X111565868Y-64516066D01*
X111578834Y-64511394D01*
X111694791Y-64449414D01*
X111761771Y-64209323D01*
X110975811Y-63423363D01*
X110961669Y-63437506D01*
X110782064Y-63257901D01*
X110796206Y-63243758D01*
X110782064Y-63229616D01*
X110961669Y-63050011D01*
X110975811Y-63064153D01*
X111761771Y-62278193D01*
X111694791Y-62038102D01*
X111564167Y-61976679D01*
X111578834Y-61971394D01*
X111694791Y-61909414D01*
X111761771Y-61669323D01*
X110975811Y-60883363D01*
X110961669Y-60897506D01*
X110782064Y-60717901D01*
X110796206Y-60703758D01*
X110782064Y-60689616D01*
X110961669Y-60510011D01*
X110975811Y-60524153D01*
X111761771Y-59738193D01*
X111694791Y-59498102D01*
X111559051Y-59434273D01*
X111637538Y-59401763D01*
X111866346Y-59248878D01*
X112060931Y-59054293D01*
X112213816Y-58825485D01*
X112256833Y-58721634D01*
X112321998Y-58786800D01*
G04 #@! TA.AperFunction,Conductor*
D25*
G36*
X112321998Y-58786800D02*
G01*
X112321998Y-60318732D01*
X112243447Y-60100735D01*
X112181467Y-59984778D01*
X111941376Y-59917798D01*
X111155416Y-60703758D01*
X111941376Y-61489718D01*
X112181467Y-61422738D01*
X112298567Y-61173710D01*
X112321998Y-61079273D01*
X112321998Y-62858731D01*
X112243447Y-62640735D01*
X112181467Y-62524778D01*
X111941376Y-62457798D01*
X111155416Y-63243758D01*
X111941376Y-64029718D01*
X112181467Y-63962738D01*
X112298567Y-63713710D01*
X112321998Y-63619273D01*
X112321998Y-65390710D01*
X112319125Y-65376268D01*
X112213816Y-65122031D01*
X112060931Y-64893223D01*
X111866346Y-64698638D01*
X111637538Y-64545753D01*
X111565868Y-64516066D01*
X111578834Y-64511394D01*
X111694791Y-64449414D01*
X111761771Y-64209323D01*
X110975811Y-63423363D01*
X110961669Y-63437506D01*
X110782064Y-63257901D01*
X110796206Y-63243758D01*
X110782064Y-63229616D01*
X110961669Y-63050011D01*
X110975811Y-63064153D01*
X111761771Y-62278193D01*
X111694791Y-62038102D01*
X111564167Y-61976679D01*
X111578834Y-61971394D01*
X111694791Y-61909414D01*
X111761771Y-61669323D01*
X110975811Y-60883363D01*
X110961669Y-60897506D01*
X110782064Y-60717901D01*
X110796206Y-60703758D01*
X110782064Y-60689616D01*
X110961669Y-60510011D01*
X110975811Y-60524153D01*
X111761771Y-59738193D01*
X111694791Y-59498102D01*
X111559051Y-59434273D01*
X111637538Y-59401763D01*
X111866346Y-59248878D01*
X112060931Y-59054293D01*
X112213816Y-58825485D01*
X112256833Y-58721634D01*
X112321998Y-58786800D01*
G37*
G04 #@! TD.AperFunction*
D24*
X109870744Y-56953871D02*
X109856601Y-56968013D01*
X109870744Y-56982156D01*
X109691139Y-57161761D01*
X109676996Y-57147618D01*
X109662854Y-57161761D01*
X109483249Y-56982156D01*
X109497391Y-56968013D01*
X109483249Y-56953871D01*
X109662854Y-56774266D01*
X109676996Y-56788408D01*
X109691139Y-56774266D01*
X109870744Y-56953871D01*
G04 #@! TA.AperFunction,Conductor*
D25*
G36*
X109870744Y-56953871D02*
G01*
X109856601Y-56968013D01*
X109870744Y-56982156D01*
X109691139Y-57161761D01*
X109676996Y-57147618D01*
X109662854Y-57161761D01*
X109483249Y-56982156D01*
X109497391Y-56968013D01*
X109483249Y-56953871D01*
X109662854Y-56774266D01*
X109676996Y-56788408D01*
X109691139Y-56774266D01*
X109870744Y-56953871D01*
G37*
G04 #@! TD.AperFunction*
M02*
