G04 #@! TF.GenerationSoftware,KiCad,Pcbnew,5.1.9*
G04 #@! TF.CreationDate,2021-04-09T21:29:26-07:00*
G04 #@! TF.ProjectId,SofleKeyboard,536f666c-654b-4657-9962-6f6172642e6b,rev?*
G04 #@! TF.SameCoordinates,Original*
G04 #@! TF.FileFunction,Soldermask,Top*
G04 #@! TF.FilePolarity,Negative*
%FSLAX46Y46*%
G04 Gerber Fmt 4.6, Leading zero omitted, Abs format (unit mm)*
G04 Created by KiCad (PCBNEW 5.1.9) date 2021-04-09 21:29:26*
%MOMM*%
%LPD*%
G01*
G04 APERTURE LIST*
%ADD10R,1.143000X0.635000*%
%ADD11C,4.000000*%
%ADD12C,1.524000*%
%ADD13C,2.000000*%
%ADD14C,1.397000*%
%ADD15R,1.524000X1.524000*%
%ADD16O,2.500000X1.700000*%
%ADD17C,1.200000*%
%ADD18C,0.700000*%
%ADD19C,4.400000*%
%ADD20R,1.500000X1.800000*%
%ADD21C,0.100000*%
%ADD22R,1.800000X1.500000*%
G04 APERTURE END LIST*
D10*
X103746996Y-94725113D03*
X103746996Y-95725873D03*
X106496996Y-94725113D03*
X106496996Y-95725873D03*
X96500000Y-95500000D03*
X96500000Y-96500760D03*
D11*
X93756996Y-108698013D03*
X109256996Y-108698013D03*
G36*
G01*
X98896268Y-95747478D02*
X98896268Y-95272478D01*
G75*
G02*
X99133768Y-95034978I237500J0D01*
G01*
X99633768Y-95034978D01*
G75*
G02*
X99871268Y-95272478I0J-237500D01*
G01*
X99871268Y-95747478D01*
G75*
G02*
X99633768Y-95984978I-237500J0D01*
G01*
X99133768Y-95984978D01*
G75*
G02*
X98896268Y-95747478I0J237500D01*
G01*
G37*
G36*
G01*
X100721268Y-95747478D02*
X100721268Y-95272478D01*
G75*
G02*
X100958768Y-95034978I237500J0D01*
G01*
X101458768Y-95034978D01*
G75*
G02*
X101696268Y-95272478I0J-237500D01*
G01*
X101696268Y-95747478D01*
G75*
G02*
X101458768Y-95984978I-237500J0D01*
G01*
X100958768Y-95984978D01*
G75*
G02*
X100721268Y-95747478I0J237500D01*
G01*
G37*
D12*
X109676996Y-56428013D03*
X109676996Y-58968013D03*
X109676996Y-61508013D03*
X109676996Y-64048013D03*
X109676996Y-66588013D03*
X109676996Y-69128013D03*
X109676996Y-71668013D03*
X109676996Y-74208013D03*
X109676996Y-76748013D03*
X109676996Y-79288013D03*
X109676996Y-81828013D03*
X109676996Y-84368013D03*
X94436996Y-84368013D03*
X94436996Y-81828013D03*
X94436996Y-79288013D03*
X94436996Y-76748013D03*
X94436996Y-74208013D03*
X94436996Y-71668013D03*
X94436996Y-69128013D03*
X94436996Y-66588013D03*
X94436996Y-64048013D03*
X94436996Y-61508013D03*
X94436996Y-58968013D03*
X94436996Y-56428013D03*
X110975811Y-67783758D03*
X110975811Y-72863758D03*
X95735811Y-57623758D03*
X110975811Y-60163758D03*
X110975811Y-83023758D03*
X95735811Y-85563758D03*
X110975811Y-75403758D03*
X110975811Y-77943758D03*
X95735811Y-75403758D03*
X95735811Y-80483758D03*
X95735811Y-67783758D03*
X95735811Y-65243758D03*
X95735811Y-60163758D03*
X95735811Y-70323758D03*
X110975811Y-85563758D03*
X95735811Y-77943758D03*
X110975811Y-57623758D03*
X110975811Y-62703758D03*
X95735811Y-83023758D03*
X110975811Y-65243758D03*
X110975811Y-70323758D03*
X95735811Y-72863758D03*
X110975811Y-80483758D03*
X95735811Y-62703758D03*
D13*
X92256996Y-88500000D03*
X92256996Y-95000000D03*
D10*
X101456996Y-84998393D03*
X101456996Y-83997633D03*
D14*
X98956996Y-89798013D03*
X101496996Y-89798013D03*
X104036996Y-89798013D03*
X106576996Y-89798013D03*
D15*
X110156996Y-91198013D03*
X110156996Y-93798013D03*
X110156996Y-96298013D03*
D10*
X98956996Y-84998393D03*
X98956996Y-83997633D03*
X106556996Y-84998393D03*
X106556996Y-83997633D03*
X103956996Y-84998393D03*
X103956996Y-83997633D03*
D16*
X102056996Y-102948013D03*
X100556996Y-98748013D03*
X96556996Y-98748013D03*
X93556996Y-98748013D03*
D17*
X98756996Y-100848013D03*
X91756996Y-100848013D03*
D16*
X96556996Y-104698013D03*
X93556996Y-104698013D03*
X102056996Y-100498013D03*
X100556996Y-104698013D03*
D17*
X91756996Y-102598013D03*
X98756996Y-102598013D03*
G36*
G01*
X98896268Y-93497478D02*
X98896268Y-93022478D01*
G75*
G02*
X99133768Y-92784978I237500J0D01*
G01*
X99633768Y-92784978D01*
G75*
G02*
X99871268Y-93022478I0J-237500D01*
G01*
X99871268Y-93497478D01*
G75*
G02*
X99633768Y-93734978I-237500J0D01*
G01*
X99133768Y-93734978D01*
G75*
G02*
X98896268Y-93497478I0J237500D01*
G01*
G37*
G36*
G01*
X100721268Y-93497478D02*
X100721268Y-93022478D01*
G75*
G02*
X100958768Y-92784978I237500J0D01*
G01*
X101458768Y-92784978D01*
G75*
G02*
X101696268Y-93022478I0J-237500D01*
G01*
X101696268Y-93497478D01*
G75*
G02*
X101458768Y-93734978I-237500J0D01*
G01*
X100958768Y-93734978D01*
G75*
G02*
X100721268Y-93497478I0J237500D01*
G01*
G37*
D13*
X127747000Y-56178100D03*
X122747000Y-58278100D03*
X117747000Y-56178100D03*
D18*
X204823722Y-96581287D03*
X203656996Y-96098013D03*
X202490270Y-96581287D03*
X202006996Y-97748013D03*
X202490270Y-98914739D03*
X203656996Y-99398013D03*
X204823722Y-98914739D03*
X205306996Y-97748013D03*
D19*
X203656996Y-97748013D03*
D18*
X204913722Y-62858386D03*
X203746996Y-62375112D03*
X202580270Y-62858386D03*
X202096996Y-64025112D03*
X202580270Y-65191838D03*
X203746996Y-65675112D03*
X204913722Y-65191838D03*
X205396996Y-64025112D03*
D19*
X203746996Y-64025112D03*
D13*
X127747000Y-90178100D03*
X122747000Y-92278100D03*
X117747000Y-90178100D03*
X163747000Y-103478100D03*
X158747000Y-105578100D03*
X153747000Y-103478100D03*
X217747000Y-77078100D03*
X212747000Y-79178100D03*
X207747000Y-77078100D03*
X199747000Y-109578100D03*
X194747000Y-111678100D03*
X189747000Y-109578100D03*
X181747000Y-53878100D03*
X176747000Y-55978100D03*
X171747000Y-53878100D03*
X199747000Y-92578100D03*
X194747000Y-94678100D03*
X189747000Y-92578100D03*
D18*
X101040266Y-114785996D03*
X100556992Y-115952722D03*
X101040266Y-117119448D03*
X102206992Y-117602722D03*
X103373718Y-117119448D03*
X103856992Y-115952722D03*
X103373718Y-114785996D03*
X102206992Y-114302722D03*
D19*
X102206992Y-115952722D03*
D13*
X145747000Y-87878100D03*
X140747000Y-89978100D03*
X135747000Y-87878100D03*
X181747000Y-70878100D03*
X176747000Y-72978100D03*
X171747000Y-70878100D03*
X145747000Y-70878100D03*
X140747000Y-72978100D03*
X135747000Y-70878100D03*
X181747000Y-104878100D03*
X176747000Y-106978100D03*
X171747000Y-104878100D03*
X217747000Y-94078100D03*
X212747000Y-96178100D03*
X207747000Y-94078100D03*
X163747000Y-86478100D03*
X158747000Y-88578100D03*
X153747000Y-86478100D03*
X163747000Y-69478100D03*
X158747000Y-71578100D03*
X153747000Y-69478100D03*
X199747000Y-75578100D03*
X194747000Y-77678100D03*
X189747000Y-75578100D03*
X145747000Y-53878100D03*
X140747000Y-55978100D03*
X135747000Y-53878100D03*
X114437123Y-127138910D03*
X111156996Y-131457563D03*
X105776869Y-132138910D03*
X192247000Y-127578100D03*
X187247000Y-129678100D03*
X182247000Y-127578100D03*
X217747000Y-60078100D03*
X212747000Y-62178100D03*
X207747000Y-60078100D03*
X217747000Y-111078100D03*
X212747000Y-113178100D03*
X207747000Y-111078100D03*
X181747000Y-87878100D03*
X176747000Y-89978100D03*
X171747000Y-87878100D03*
X145747000Y-104878100D03*
X140747000Y-106978100D03*
X135747000Y-104878100D03*
D18*
X132913722Y-92558387D03*
X131746996Y-92075113D03*
X130580270Y-92558387D03*
X130096996Y-93725113D03*
X130580270Y-94891839D03*
X131746996Y-95375113D03*
X132913722Y-94891839D03*
X133396996Y-93725113D03*
D19*
X131746996Y-93725113D03*
D13*
X127747000Y-107178100D03*
X122747000Y-109278100D03*
X117747000Y-107178100D03*
X199747000Y-58578100D03*
X194747000Y-60678100D03*
X189747000Y-58578100D03*
X135940142Y-125074423D03*
X131654032Y-128396962D03*
X126280883Y-127662613D03*
X156247000Y-122878100D03*
X151247000Y-124978100D03*
X146247000Y-122878100D03*
X174247000Y-122878100D03*
X169247000Y-124978100D03*
X164247000Y-122878100D03*
X127747000Y-73178100D03*
X122747000Y-75278100D03*
X117747000Y-73178100D03*
X163747000Y-52478100D03*
X158747000Y-54578100D03*
X153747000Y-52478100D03*
D18*
X132913722Y-58558387D03*
X131746996Y-58075113D03*
X130580270Y-58558387D03*
X130096996Y-59725113D03*
X130580270Y-60891839D03*
X131746996Y-61375113D03*
X132913722Y-60891839D03*
X133396996Y-59725113D03*
D19*
X131746996Y-59725113D03*
D20*
X167956992Y-102702722D03*
X167956992Y-106102722D03*
X149706992Y-102702722D03*
X149706992Y-106102722D03*
X131606992Y-104152722D03*
X131606992Y-107552722D03*
D21*
G36*
X116857477Y-121688076D02*
G01*
X118156515Y-120938076D01*
X119056515Y-122496922D01*
X117757477Y-123246922D01*
X116857477Y-121688076D01*
G37*
G36*
X115157477Y-118743590D02*
G01*
X116456515Y-117993590D01*
X117356515Y-119552436D01*
X116057477Y-120302436D01*
X115157477Y-118743590D01*
G37*
D20*
X203706992Y-105452722D03*
X203706992Y-102052722D03*
X185706992Y-97902722D03*
X185706992Y-94502722D03*
X167706992Y-96702722D03*
X167706992Y-93302722D03*
X149706992Y-97902722D03*
X149706992Y-94502722D03*
X131806992Y-101152722D03*
X131806992Y-97752722D03*
D22*
X121606992Y-94952722D03*
X118206992Y-94952722D03*
D20*
X203706992Y-90202722D03*
X203706992Y-93602722D03*
X185706992Y-87202722D03*
X185706992Y-90602722D03*
X167706992Y-85802722D03*
X167706992Y-89202722D03*
X149706992Y-85802722D03*
X149706992Y-89202722D03*
X131706992Y-79952722D03*
X131706992Y-83352722D03*
X131806992Y-86252722D03*
X131806992Y-89652722D03*
X203706992Y-72102722D03*
X203706992Y-68702722D03*
X185706992Y-68602722D03*
X185706992Y-65202722D03*
X167706992Y-64102722D03*
X167706992Y-60702722D03*
X149600000Y-64102722D03*
X149600000Y-60702722D03*
X131706992Y-73602722D03*
X131706992Y-70202722D03*
X131706992Y-67202722D03*
X131706992Y-63802722D03*
X203731992Y-55702722D03*
X203731992Y-59102722D03*
X185956992Y-53052722D03*
X185956992Y-56452722D03*
X167706992Y-51552722D03*
X167706992Y-54952722D03*
X149706992Y-51802722D03*
X149706992Y-55202722D03*
X131706992Y-52052722D03*
X131706992Y-55452722D03*
X131706992Y-45702722D03*
X131706992Y-49102722D03*
X185706992Y-104202722D03*
X185706992Y-107602722D03*
M02*
