G04 #@! TF.GenerationSoftware,KiCad,Pcbnew,5.1.9*
G04 #@! TF.CreationDate,2021-04-09T21:29:26-07:00*
G04 #@! TF.ProjectId,SofleKeyboard,536f666c-654b-4657-9962-6f6172642e6b,rev?*
G04 #@! TF.SameCoordinates,Original*
G04 #@! TF.FileFunction,Copper,L2,Bot*
G04 #@! TF.FilePolarity,Positive*
%FSLAX46Y46*%
G04 Gerber Fmt 4.6, Leading zero omitted, Abs format (unit mm)*
G04 Created by KiCad (PCBNEW 5.1.9) date 2021-04-09 21:29:26*
%MOMM*%
%LPD*%
G01*
G04 APERTURE LIST*
G04 #@! TA.AperFunction,ComponentPad*
%ADD10C,4.000000*%
G04 #@! TD*
G04 #@! TA.AperFunction,SMDPad,CuDef*
%ADD11R,1.143000X0.635000*%
G04 #@! TD*
G04 #@! TA.AperFunction,ComponentPad*
%ADD12C,1.524000*%
G04 #@! TD*
G04 #@! TA.AperFunction,ComponentPad*
%ADD13C,2.000000*%
G04 #@! TD*
G04 #@! TA.AperFunction,ComponentPad*
%ADD14C,1.397000*%
G04 #@! TD*
G04 #@! TA.AperFunction,ComponentPad*
%ADD15R,1.524000X1.524000*%
G04 #@! TD*
G04 #@! TA.AperFunction,ComponentPad*
%ADD16O,2.500000X1.700000*%
G04 #@! TD*
G04 #@! TA.AperFunction,ComponentPad*
%ADD17C,0.700000*%
G04 #@! TD*
G04 #@! TA.AperFunction,ComponentPad*
%ADD18C,4.400000*%
G04 #@! TD*
G04 #@! TA.AperFunction,ComponentPad*
%ADD19R,1.500000X1.800000*%
G04 #@! TD*
G04 #@! TA.AperFunction,ComponentPad*
%ADD20C,0.100000*%
G04 #@! TD*
G04 #@! TA.AperFunction,ComponentPad*
%ADD21R,1.800000X1.500000*%
G04 #@! TD*
G04 #@! TA.AperFunction,ViaPad*
%ADD22C,0.400000*%
G04 #@! TD*
G04 #@! TA.AperFunction,Conductor*
%ADD23C,0.250000*%
G04 #@! TD*
G04 #@! TA.AperFunction,Conductor*
%ADD24C,0.500000*%
G04 #@! TD*
G04 #@! TA.AperFunction,Conductor*
%ADD25C,0.254000*%
G04 #@! TD*
G04 #@! TA.AperFunction,Conductor*
%ADD26C,0.100000*%
G04 #@! TD*
G04 APERTURE END LIST*
D10*
X93756996Y-108698013D03*
X109256996Y-108698013D03*
D11*
X106556996Y-84998393D03*
X106556996Y-83997633D03*
D12*
X109676996Y-56428013D03*
X109676996Y-58968013D03*
X109676996Y-61508013D03*
X109676996Y-64048013D03*
X109676996Y-66588013D03*
X109676996Y-69128013D03*
X109676996Y-71668013D03*
X109676996Y-74208013D03*
X109676996Y-76748013D03*
X109676996Y-79288013D03*
X109676996Y-81828013D03*
X109676996Y-84368013D03*
X94436996Y-84368013D03*
X94436996Y-81828013D03*
X94436996Y-79288013D03*
X94436996Y-76748013D03*
X94436996Y-74208013D03*
X94436996Y-71668013D03*
X94436996Y-69128013D03*
X94436996Y-66588013D03*
X94436996Y-64048013D03*
X94436996Y-61508013D03*
X94436996Y-58968013D03*
X94436996Y-56428013D03*
X110975811Y-67783758D03*
X110975811Y-72863758D03*
X95735811Y-57623758D03*
X110975811Y-60163758D03*
X110975811Y-83023758D03*
X95735811Y-85563758D03*
X110975811Y-75403758D03*
X110975811Y-77943758D03*
X95735811Y-75403758D03*
X95735811Y-80483758D03*
X95735811Y-67783758D03*
X95735811Y-65243758D03*
X95735811Y-60163758D03*
X95735811Y-70323758D03*
X110975811Y-85563758D03*
X95735811Y-77943758D03*
X110975811Y-57623758D03*
X110975811Y-62703758D03*
X95735811Y-83023758D03*
X110975811Y-65243758D03*
X110975811Y-70323758D03*
X95735811Y-72863758D03*
X110975811Y-80483758D03*
X95735811Y-62703758D03*
D13*
X92256996Y-88500000D03*
X92256996Y-95000000D03*
D11*
X103956996Y-84998393D03*
X103956996Y-83997633D03*
D14*
X98956996Y-89798013D03*
X101496996Y-89798013D03*
X104036996Y-89798013D03*
X106576996Y-89798013D03*
D15*
X110156996Y-91198013D03*
X110156996Y-93798013D03*
X110156996Y-96298013D03*
D11*
X98956996Y-84998393D03*
X98956996Y-83997633D03*
X101456996Y-84998393D03*
X101456996Y-83997633D03*
D16*
X102056996Y-102948013D03*
X100556996Y-98748013D03*
X96556996Y-98748013D03*
X93556996Y-98748013D03*
X96556996Y-104698013D03*
X93556996Y-104698013D03*
X102056996Y-100498013D03*
X100556996Y-104698013D03*
D13*
X127747000Y-56178100D03*
X122747000Y-58278100D03*
X117747000Y-56178100D03*
D17*
X204823722Y-96581287D03*
X203656996Y-96098013D03*
X202490270Y-96581287D03*
X202006996Y-97748013D03*
X202490270Y-98914739D03*
X203656996Y-99398013D03*
X204823722Y-98914739D03*
X205306996Y-97748013D03*
D18*
X203656996Y-97748013D03*
D17*
X204913722Y-62858386D03*
X203746996Y-62375112D03*
X202580270Y-62858386D03*
X202096996Y-64025112D03*
X202580270Y-65191838D03*
X203746996Y-65675112D03*
X204913722Y-65191838D03*
X205396996Y-64025112D03*
D18*
X203746996Y-64025112D03*
D13*
X127747000Y-90178100D03*
X122747000Y-92278100D03*
X117747000Y-90178100D03*
X163747000Y-103478100D03*
X158747000Y-105578100D03*
X153747000Y-103478100D03*
X217747000Y-77078100D03*
X212747000Y-79178100D03*
X207747000Y-77078100D03*
X199747000Y-109578100D03*
X194747000Y-111678100D03*
X189747000Y-109578100D03*
X181747000Y-53878100D03*
X176747000Y-55978100D03*
X171747000Y-53878100D03*
X199747000Y-92578100D03*
X194747000Y-94678100D03*
X189747000Y-92578100D03*
D17*
X101040266Y-114785996D03*
X100556992Y-115952722D03*
X101040266Y-117119448D03*
X102206992Y-117602722D03*
X103373718Y-117119448D03*
X103856992Y-115952722D03*
X103373718Y-114785996D03*
X102206992Y-114302722D03*
D18*
X102206992Y-115952722D03*
D13*
X145747000Y-87878100D03*
X140747000Y-89978100D03*
X135747000Y-87878100D03*
X181747000Y-70878100D03*
X176747000Y-72978100D03*
X171747000Y-70878100D03*
X145747000Y-70878100D03*
X140747000Y-72978100D03*
X135747000Y-70878100D03*
X181747000Y-104878100D03*
X176747000Y-106978100D03*
X171747000Y-104878100D03*
X217747000Y-94078100D03*
X212747000Y-96178100D03*
X207747000Y-94078100D03*
X163747000Y-86478100D03*
X158747000Y-88578100D03*
X153747000Y-86478100D03*
X163747000Y-69478100D03*
X158747000Y-71578100D03*
X153747000Y-69478100D03*
X199747000Y-75578100D03*
X194747000Y-77678100D03*
X189747000Y-75578100D03*
X145747000Y-53878100D03*
X140747000Y-55978100D03*
X135747000Y-53878100D03*
X114437123Y-127138910D03*
X111156996Y-131457563D03*
X105776869Y-132138910D03*
X192247000Y-127578100D03*
X187247000Y-129678100D03*
X182247000Y-127578100D03*
X217747000Y-60078100D03*
X212747000Y-62178100D03*
X207747000Y-60078100D03*
X217747000Y-111078100D03*
X212747000Y-113178100D03*
X207747000Y-111078100D03*
X181747000Y-87878100D03*
X176747000Y-89978100D03*
X171747000Y-87878100D03*
X145747000Y-104878100D03*
X140747000Y-106978100D03*
X135747000Y-104878100D03*
D17*
X132913722Y-92558387D03*
X131746996Y-92075113D03*
X130580270Y-92558387D03*
X130096996Y-93725113D03*
X130580270Y-94891839D03*
X131746996Y-95375113D03*
X132913722Y-94891839D03*
X133396996Y-93725113D03*
D18*
X131746996Y-93725113D03*
D13*
X127747000Y-107178100D03*
X122747000Y-109278100D03*
X117747000Y-107178100D03*
X199747000Y-58578100D03*
X194747000Y-60678100D03*
X189747000Y-58578100D03*
X135940142Y-125074423D03*
X131654032Y-128396962D03*
X126280883Y-127662613D03*
X156247000Y-122878100D03*
X151247000Y-124978100D03*
X146247000Y-122878100D03*
X174247000Y-122878100D03*
X169247000Y-124978100D03*
X164247000Y-122878100D03*
X127747000Y-73178100D03*
X122747000Y-75278100D03*
X117747000Y-73178100D03*
X163747000Y-52478100D03*
X158747000Y-54578100D03*
X153747000Y-52478100D03*
D17*
X132913722Y-58558387D03*
X131746996Y-58075113D03*
X130580270Y-58558387D03*
X130096996Y-59725113D03*
X130580270Y-60891839D03*
X131746996Y-61375113D03*
X132913722Y-60891839D03*
X133396996Y-59725113D03*
D18*
X131746996Y-59725113D03*
D19*
X167956992Y-102702722D03*
X167956992Y-106102722D03*
X149706992Y-102702722D03*
X149706992Y-106102722D03*
X131606992Y-104152722D03*
X131606992Y-107552722D03*
G04 #@! TA.AperFunction,ComponentPad*
D20*
G36*
X116857477Y-121688076D02*
G01*
X118156515Y-120938076D01*
X119056515Y-122496922D01*
X117757477Y-123246922D01*
X116857477Y-121688076D01*
G37*
G04 #@! TD.AperFunction*
G04 #@! TA.AperFunction,ComponentPad*
G36*
X115157477Y-118743590D02*
G01*
X116456515Y-117993590D01*
X117356515Y-119552436D01*
X116057477Y-120302436D01*
X115157477Y-118743590D01*
G37*
G04 #@! TD.AperFunction*
D19*
X203706992Y-105452722D03*
X203706992Y-102052722D03*
X185706992Y-97902722D03*
X185706992Y-94502722D03*
X167706992Y-96702722D03*
X167706992Y-93302722D03*
X149706992Y-97902722D03*
X149706992Y-94502722D03*
X131806992Y-101152722D03*
X131806992Y-97752722D03*
D21*
X121606992Y-94952722D03*
X118206992Y-94952722D03*
D19*
X203706992Y-90202722D03*
X203706992Y-93602722D03*
X185706992Y-87202722D03*
X185706992Y-90602722D03*
X167706992Y-85802722D03*
X167706992Y-89202722D03*
X149706992Y-85802722D03*
X149706992Y-89202722D03*
X131706992Y-79952722D03*
X131706992Y-83352722D03*
X131806992Y-86252722D03*
X131806992Y-89652722D03*
X203706992Y-72102722D03*
X203706992Y-68702722D03*
X185706992Y-68602722D03*
X185706992Y-65202722D03*
X167706992Y-64102722D03*
X167706992Y-60702722D03*
X149600000Y-64102722D03*
X149600000Y-60702722D03*
X131706992Y-73602722D03*
X131706992Y-70202722D03*
X131706992Y-67202722D03*
X131706992Y-63802722D03*
X203731992Y-55702722D03*
X203731992Y-59102722D03*
X185956992Y-53052722D03*
X185956992Y-56452722D03*
X167706992Y-51552722D03*
X167706992Y-54952722D03*
X149706992Y-51802722D03*
X149706992Y-55202722D03*
X131706992Y-52052722D03*
X131706992Y-55452722D03*
X131706992Y-45702722D03*
X131706992Y-49102722D03*
X185706992Y-104202722D03*
X185706992Y-107602722D03*
D22*
X107584829Y-82270182D03*
X115106992Y-109152722D03*
X107956996Y-74198013D03*
X115506992Y-60052722D03*
X107956996Y-77098013D03*
X115306992Y-64652722D03*
X107956996Y-79198013D03*
X116656992Y-80202722D03*
X107856996Y-80398013D03*
X102656996Y-65243758D03*
X102657004Y-83998013D03*
X108456996Y-95898013D03*
X97756268Y-93259978D03*
X98956996Y-82998013D03*
X99156996Y-60163758D03*
X99156996Y-63998013D03*
X108956996Y-89898013D03*
X104931996Y-72863758D03*
X211186992Y-46042722D03*
X105431996Y-75403758D03*
X193356992Y-42422722D03*
X105956996Y-77943758D03*
X175556992Y-41137732D03*
X106556996Y-79773013D03*
X157456992Y-41002722D03*
X107256996Y-81198013D03*
X140106992Y-44052722D03*
X107856996Y-66598013D03*
X98306996Y-83003860D03*
X98356996Y-66588013D03*
X105356996Y-83098013D03*
X101208768Y-95509978D03*
X107957002Y-56798013D03*
X107957014Y-69398013D03*
X103456996Y-69098013D03*
X105256996Y-83998013D03*
X102836268Y-93259978D03*
X107956988Y-71898013D03*
X97356996Y-59398013D03*
X107956996Y-59198013D03*
X97056996Y-85798013D03*
X112556996Y-79298013D03*
D23*
X117747000Y-56178100D02*
X127747000Y-56178100D01*
X108456996Y-83142349D02*
X107584829Y-82270182D01*
X108456996Y-84998013D02*
X108456996Y-83142349D01*
X111026996Y-85568013D02*
X109026996Y-85568013D01*
X109026996Y-85568013D02*
X108456996Y-84998013D01*
X116256996Y-119148013D02*
X120011701Y-119148013D01*
X147506613Y-108303101D02*
X149706992Y-106102722D01*
X132357371Y-108303101D02*
X147506613Y-108303101D01*
X131606992Y-107552722D02*
X132357371Y-108303101D01*
X167156613Y-106903101D02*
X167956992Y-106102722D01*
X150507371Y-106903101D02*
X167156613Y-106903101D01*
X149706992Y-106102722D02*
X150507371Y-106903101D01*
X167956992Y-106102722D02*
X170206992Y-108352722D01*
X184956992Y-108352722D02*
X185706992Y-107602722D01*
X170206992Y-108352722D02*
X184956992Y-108352722D01*
X116706992Y-110752722D02*
X115106992Y-109152722D01*
X128406992Y-110752722D02*
X116706992Y-110752722D01*
X120011701Y-119148013D02*
X128406992Y-110752722D01*
X128406992Y-110752722D02*
X131606992Y-107552722D01*
X135747000Y-53878100D02*
X145747000Y-53878100D01*
X153747000Y-52478100D02*
X163747000Y-52478100D01*
X111026996Y-75408013D02*
X109166996Y-75408013D01*
X109166996Y-75408013D02*
X107956996Y-74198013D01*
X190357371Y-62003101D02*
X185956992Y-57602722D01*
X185956992Y-57602722D02*
X185956992Y-56452722D01*
X200831613Y-62003101D02*
X190357371Y-62003101D01*
X203731992Y-59102722D02*
X200831613Y-62003101D01*
X170057371Y-57303101D02*
X167706992Y-54952722D01*
X185106613Y-57303101D02*
X170057371Y-57303101D01*
X185956992Y-56452722D02*
X185106613Y-57303101D01*
X150407371Y-55903101D02*
X149706992Y-55202722D01*
X166756613Y-55903101D02*
X150407371Y-55903101D01*
X167706992Y-54952722D02*
X166756613Y-55903101D01*
X133557371Y-57303101D02*
X131706992Y-55452722D01*
X147606613Y-57303101D02*
X133557371Y-57303101D01*
X149706992Y-55202722D02*
X147606613Y-57303101D01*
X132781993Y-54377721D02*
X131706992Y-55452722D01*
X132781993Y-50177723D02*
X132781993Y-54377721D01*
X131706992Y-49102722D02*
X132781993Y-50177723D01*
X127106992Y-60052722D02*
X115506992Y-60052722D01*
X131706992Y-55452722D02*
X127106992Y-60052722D01*
X171747000Y-53878100D02*
X181747000Y-53878100D01*
X108806996Y-77948013D02*
X107956996Y-77098013D01*
X111026996Y-77948013D02*
X108806996Y-77948013D01*
X130631991Y-64877723D02*
X131706992Y-63802722D01*
X130631991Y-69127721D02*
X130631991Y-64877723D01*
X131706992Y-70202722D02*
X130631991Y-69127721D01*
X134656992Y-60702722D02*
X149600000Y-60702722D01*
X131706992Y-63652722D02*
X134656992Y-60702722D01*
X131706992Y-63802722D02*
X131706992Y-63652722D01*
X167557369Y-60553099D02*
X167706992Y-60702722D01*
X149749623Y-60553099D02*
X167557369Y-60553099D01*
X149600000Y-60702722D02*
X149749623Y-60553099D01*
X185660624Y-65202722D02*
X185706992Y-65202722D01*
X181160624Y-60702722D02*
X185660624Y-65202722D01*
X167706992Y-60702722D02*
X181160624Y-60702722D01*
X200206992Y-65202722D02*
X203706992Y-68702722D01*
X185706992Y-65202722D02*
X200206992Y-65202722D01*
X116156992Y-63802722D02*
X115306992Y-64652722D01*
X131706992Y-63802722D02*
X116156992Y-63802722D01*
X189747000Y-58578100D02*
X199747000Y-58578100D01*
X110975811Y-80483758D02*
X109242741Y-80483758D01*
X109242741Y-80483758D02*
X107956996Y-79198013D01*
X147606613Y-91303101D02*
X149706992Y-89202722D01*
X133457371Y-91303101D02*
X147606613Y-91303101D01*
X131806992Y-89652722D02*
X133457371Y-91303101D01*
X167006613Y-89903101D02*
X167706992Y-89202722D01*
X150407371Y-89903101D02*
X167006613Y-89903101D01*
X149706992Y-89202722D02*
X150407371Y-89903101D01*
X167706992Y-89202722D02*
X170056992Y-91552722D01*
X184756992Y-91552722D02*
X185706992Y-90602722D01*
X170056992Y-91552722D02*
X184756992Y-91552722D01*
X201306613Y-96003101D02*
X203706992Y-93602722D01*
X189957371Y-96003101D02*
X201306613Y-96003101D01*
X185706992Y-91752722D02*
X189957371Y-96003101D01*
X185706992Y-90602722D02*
X185706992Y-91752722D01*
X132881993Y-88577721D02*
X131806992Y-89652722D01*
X132881993Y-84527723D02*
X132881993Y-88577721D01*
X131706992Y-83352722D02*
X132881993Y-84527723D01*
X128556992Y-80202722D02*
X116656992Y-80202722D01*
X131706992Y-83352722D02*
X128556992Y-80202722D01*
X207747000Y-60078100D02*
X217747000Y-60078100D01*
X108456996Y-82340506D02*
X108456996Y-80998013D01*
X108456996Y-80998013D02*
X107856996Y-80398013D01*
X111026996Y-83028013D02*
X109144503Y-83028013D01*
X109144503Y-83028013D02*
X108456996Y-82340506D01*
X130081993Y-96027723D02*
X131806992Y-97752722D01*
X119281993Y-96027723D02*
X130081993Y-96027723D01*
X118206992Y-94952722D02*
X119281993Y-96027723D01*
X148256615Y-95953099D02*
X149706992Y-94502722D01*
X133606615Y-95953099D02*
X148256615Y-95953099D01*
X131806992Y-97752722D02*
X133606615Y-95953099D01*
X166506992Y-94502722D02*
X167706992Y-93302722D01*
X149706992Y-94502722D02*
X166506992Y-94502722D01*
X184506992Y-93302722D02*
X185706992Y-94502722D01*
X167706992Y-93302722D02*
X184506992Y-93302722D01*
X202307369Y-100653099D02*
X203706992Y-102052722D01*
X191857369Y-100653099D02*
X202307369Y-100653099D01*
X185706992Y-94502722D02*
X191857369Y-100653099D01*
X117747000Y-73178100D02*
X127747000Y-73178100D01*
X135747000Y-70878100D02*
X145747000Y-70878100D01*
X153747000Y-69478100D02*
X163747000Y-69478100D01*
X171747000Y-70878100D02*
X181747000Y-70878100D01*
X189747000Y-75578100D02*
X199747000Y-75578100D01*
X207747000Y-77078100D02*
X217747000Y-77078100D01*
X117747000Y-90178100D02*
X127747000Y-90178100D01*
X135747000Y-87878100D02*
X145747000Y-87878100D01*
X153747000Y-86478100D02*
X163747000Y-86478100D01*
X171747000Y-87878100D02*
X181747000Y-87878100D01*
X189747000Y-92578100D02*
X199747000Y-92578100D01*
X207747000Y-94078100D02*
X217747000Y-94078100D01*
X117747000Y-107178100D02*
X127747000Y-107178100D01*
X135747000Y-104878100D02*
X145747000Y-104878100D01*
X153747000Y-103478100D02*
X163747000Y-103478100D01*
X171747000Y-104878100D02*
X181747000Y-104878100D01*
X189747000Y-109578100D02*
X199747000Y-109578100D01*
X207747000Y-111078100D02*
X217747000Y-111078100D01*
X110776869Y-127138910D02*
X114437123Y-127138910D01*
X105776869Y-132138910D02*
X110776869Y-127138910D01*
X114437123Y-125612372D02*
X117956996Y-122092499D01*
X114437123Y-127138910D02*
X114437123Y-125612372D01*
X134351951Y-126662614D02*
X135940142Y-125074423D01*
X127280882Y-126662614D02*
X134351951Y-126662614D01*
X126280883Y-127662613D02*
X127280882Y-126662614D01*
X146247000Y-122878100D02*
X156247000Y-122878100D01*
D24*
X102657004Y-83998013D02*
X102657004Y-65243766D01*
X102656624Y-83997633D02*
X102657004Y-83998013D01*
X100356986Y-104498003D02*
X100556996Y-104698013D01*
X100156996Y-98748013D02*
X100556996Y-98748013D01*
X100556996Y-98748013D02*
X100556996Y-99759522D01*
X100356986Y-99959532D02*
X100356986Y-104498003D01*
X97756268Y-96347285D02*
X100156996Y-98748013D01*
X100556996Y-99759522D02*
X100356986Y-99959532D01*
X108456996Y-95898013D02*
X109756996Y-95898013D01*
X101456996Y-83997633D02*
X102656624Y-83997633D01*
X102657004Y-65243766D02*
X102656996Y-65243758D01*
X97756268Y-93259978D02*
X97756268Y-96347285D01*
X109756996Y-95898013D02*
X110156996Y-96298013D01*
X96556996Y-104698013D02*
X95795487Y-104698013D01*
X98956996Y-83997633D02*
X98956996Y-82998013D01*
X98956996Y-82998013D02*
X99156996Y-82798013D01*
X99156996Y-82798013D02*
X99156996Y-63998013D01*
X99156996Y-63998013D02*
X99156996Y-60163758D01*
X109856996Y-91498013D02*
X110156996Y-91198013D01*
X96556996Y-98748013D02*
X96556996Y-92800000D01*
X96556996Y-92800000D02*
X92256996Y-88500000D01*
X96556996Y-98748013D02*
X96556996Y-104698013D01*
D23*
X108220630Y-52897969D02*
X104931996Y-56186603D01*
X104931996Y-56186603D02*
X104931996Y-72863758D01*
X108220630Y-52897969D02*
X108220630Y-52889084D01*
X108220630Y-52889084D02*
X116606992Y-44502722D01*
X116606992Y-44502722D02*
X119286992Y-44502722D01*
X119286992Y-44502722D02*
X120716992Y-43072722D01*
X120716992Y-43072722D02*
X127916992Y-43072722D01*
X127916992Y-43072722D02*
X129546992Y-41442722D01*
X129546992Y-41442722D02*
X139466992Y-41442722D01*
X139466992Y-41442722D02*
X141116992Y-39792722D01*
X141116992Y-39792722D02*
X151696992Y-39792722D01*
X151696992Y-39792722D02*
X152466992Y-39022722D01*
X152466992Y-39022722D02*
X174196992Y-39022722D01*
X174196992Y-39022722D02*
X175336992Y-40162722D01*
X175336992Y-40162722D02*
X185996992Y-40162722D01*
X185996992Y-40162722D02*
X187236992Y-41402722D01*
X187236992Y-41402722D02*
X195386992Y-41402722D01*
X195386992Y-41402722D02*
X196996992Y-43012722D01*
X196996992Y-43012722D02*
X203566992Y-43012722D01*
X203566992Y-43012722D02*
X205136992Y-44582722D01*
X205136992Y-44582722D02*
X209926992Y-44582722D01*
X211186992Y-45842722D02*
X211186992Y-46042722D01*
X209926992Y-44582722D02*
X211186992Y-45842722D01*
X105456996Y-75378758D02*
X105431996Y-75403758D01*
X108470619Y-53347980D02*
X105456996Y-56361603D01*
X116696992Y-45058017D02*
X108470619Y-53284390D01*
X116696992Y-45049132D02*
X116696992Y-45058017D01*
X119473393Y-44952731D02*
X116793392Y-44952732D01*
X120903392Y-43522732D02*
X119473393Y-44952731D01*
X129836982Y-41892732D02*
X128206982Y-43522732D01*
X139653393Y-41892731D02*
X129836982Y-41892732D01*
X193356992Y-42422722D02*
X192787002Y-41852732D01*
X192787002Y-41852732D02*
X187050592Y-41852732D01*
X108470619Y-53284390D02*
X108470619Y-53347980D01*
X187050592Y-41852732D02*
X185810592Y-40612732D01*
X128206982Y-43522732D02*
X120903392Y-43522732D01*
X185810592Y-40612732D02*
X175150592Y-40612732D01*
X175150592Y-40612732D02*
X174110582Y-39572722D01*
X116793392Y-44952732D02*
X116696992Y-45049132D01*
X151883393Y-40242731D02*
X141303392Y-40242732D01*
X173837002Y-39472732D02*
X152653392Y-39472732D01*
X174096992Y-39572722D02*
X174006992Y-39482722D01*
X105456996Y-56361603D02*
X105456996Y-75378758D01*
X174110582Y-39572722D02*
X174096992Y-39572722D01*
X174006992Y-39482722D02*
X173846992Y-39482722D01*
X173846992Y-39482722D02*
X173837002Y-39472732D01*
X141303392Y-40242732D02*
X139653393Y-41892731D01*
X152653392Y-39472732D02*
X151883393Y-40242731D01*
X105959969Y-77940785D02*
X105956996Y-77943758D01*
X108920628Y-53534381D02*
X105959969Y-56495040D01*
X105959969Y-56495040D02*
X105959969Y-77940785D01*
X108920628Y-53534381D02*
X108920628Y-53529086D01*
X108920628Y-53529086D02*
X117046974Y-45402740D01*
X117046974Y-45402740D02*
X119659794Y-45402740D01*
X121089792Y-43972742D02*
X128393383Y-43972741D01*
X119659794Y-45402740D02*
X121089792Y-43972742D01*
X128393383Y-43972741D02*
X130023384Y-42342740D01*
X130023384Y-42342740D02*
X139839794Y-42342740D01*
X139839794Y-42342740D02*
X141489794Y-40692740D01*
X141489794Y-40692740D02*
X152069794Y-40692740D01*
X152069794Y-40692740D02*
X152839792Y-39922742D01*
X152839792Y-39922742D02*
X173650602Y-39922742D01*
X174865592Y-41137732D02*
X175556992Y-41137732D01*
X173650602Y-39922742D02*
X174865592Y-41137732D01*
X111895197Y-51198400D02*
X106556996Y-56536601D01*
X106556996Y-56536601D02*
X106556996Y-79773013D01*
X111895197Y-51198400D02*
X111895197Y-51190927D01*
X117233374Y-45852750D02*
X119846195Y-45852749D01*
X111895197Y-51190927D02*
X117233374Y-45852750D01*
X119846195Y-45852749D02*
X121276194Y-44422750D01*
X121276194Y-44422750D02*
X128579784Y-44422750D01*
X130209784Y-42792750D02*
X140026195Y-42792749D01*
X128579784Y-44422750D02*
X130209784Y-42792750D01*
X140026195Y-42792749D02*
X141676194Y-41142750D01*
X141676194Y-41142750D02*
X152256195Y-41142749D01*
X152256195Y-41142749D02*
X153026192Y-40372752D01*
X156827022Y-40372752D02*
X157456992Y-41002722D01*
X153026192Y-40372752D02*
X156827022Y-40372752D01*
X107256996Y-56523015D02*
X107256996Y-81198013D01*
X109081999Y-54698012D02*
X107256996Y-56523015D01*
X117356992Y-46373015D02*
X117356992Y-46365542D01*
X109081999Y-54648008D02*
X117356992Y-46373015D01*
X109081999Y-54698012D02*
X109081999Y-54648008D01*
X117419776Y-46302758D02*
X120032596Y-46302758D01*
X117356992Y-46365542D02*
X117419776Y-46302758D01*
X120032596Y-46302758D02*
X121462594Y-44872760D01*
X128766185Y-44872759D02*
X130396186Y-43242758D01*
X121462594Y-44872760D02*
X128766185Y-44872759D01*
X130396186Y-43242758D02*
X139697028Y-43242758D01*
X140106992Y-43652722D02*
X140106992Y-44052722D01*
X139697028Y-43242758D02*
X140106992Y-43652722D01*
X98306996Y-66638013D02*
X98356996Y-66588013D01*
X98306996Y-83003860D02*
X98306996Y-66638013D01*
X106556996Y-83997633D02*
X106256616Y-83997633D01*
X106256616Y-83997633D02*
X105356996Y-83098013D01*
X107856996Y-66598013D02*
X109042741Y-67783758D01*
X109042741Y-67783758D02*
X110975811Y-67783758D01*
X105060497Y-85020890D02*
X105060497Y-91679730D01*
X102836268Y-95509978D02*
X101208768Y-95509978D01*
X106083754Y-83997633D02*
X105060497Y-85020890D01*
X103859769Y-94486477D02*
X102836268Y-95509978D01*
X106556996Y-83997633D02*
X106083754Y-83997633D01*
X103859769Y-92880458D02*
X103859769Y-94486477D01*
X105060497Y-91679730D02*
X103859769Y-92880458D01*
X108782747Y-57623758D02*
X107957002Y-56798013D01*
X110975811Y-57623758D02*
X108782747Y-57623758D01*
X113081997Y-83709422D02*
X113081997Y-59729944D01*
X112062812Y-84728607D02*
X113081997Y-83709422D01*
X113081997Y-59729944D02*
X110975811Y-57623758D01*
X111456996Y-87198013D02*
X112062812Y-86592197D01*
X112062812Y-86592197D02*
X112062812Y-84728607D01*
X111456996Y-92498013D02*
X111456996Y-91552718D01*
X110156996Y-93798013D02*
X111456996Y-92498013D01*
X111456996Y-91552718D02*
X111456996Y-87198013D01*
X111456996Y-92310013D02*
X111456996Y-91552718D01*
X103856996Y-83897633D02*
X103956996Y-83997633D01*
X103957376Y-83998013D02*
X103956996Y-83997633D01*
X103456996Y-83997633D02*
X103456996Y-69128013D01*
X105256996Y-83998013D02*
X103957376Y-83998013D01*
X108882759Y-70323758D02*
X107957014Y-69398013D01*
X103470190Y-83998013D02*
X105256996Y-83998013D01*
X110975811Y-70323758D02*
X108882759Y-70323758D01*
X102836268Y-93259978D02*
X102836268Y-84631935D01*
X102836268Y-84631935D02*
X103470190Y-83998013D01*
X95735811Y-62703758D02*
X95478557Y-62961012D01*
X95478557Y-62961012D02*
X93915235Y-62961012D01*
X93915235Y-62961012D02*
X90931995Y-65944252D01*
X90931995Y-93674999D02*
X92256996Y-95000000D01*
X90931995Y-65944252D02*
X90931995Y-93674999D01*
X164247000Y-122878100D02*
X174247000Y-122878100D01*
X110975811Y-72863758D02*
X108922733Y-72863758D01*
X108922733Y-72863758D02*
X107956988Y-71898013D01*
X108922741Y-60163758D02*
X107956996Y-59198013D01*
X110975811Y-60163758D02*
X108922741Y-60163758D01*
X97056996Y-59698013D02*
X97056996Y-85798013D01*
X97356996Y-59398013D02*
X97056996Y-59698013D01*
X98956996Y-84998393D02*
X98956996Y-89798013D01*
X101456996Y-84998393D02*
X101456996Y-89758013D01*
X101456996Y-89758013D02*
X101496996Y-89798013D01*
X103956996Y-84998393D02*
X103956996Y-89718013D01*
X103956996Y-89718013D02*
X104036996Y-89798013D01*
X106556996Y-89778013D02*
X106576996Y-89798013D01*
X106556996Y-84998393D02*
X106556996Y-89778013D01*
X182247000Y-127578100D02*
X192247000Y-127578100D01*
X109676996Y-84368013D02*
X111786996Y-84368013D01*
X112556996Y-83598013D02*
X112556996Y-79298013D01*
X111786996Y-84368013D02*
X112556996Y-83598013D01*
X102456996Y-100498013D02*
X102056996Y-100498013D01*
X102056996Y-102948013D02*
X102056996Y-100498013D01*
D25*
X94630744Y-64033871D02*
X94616601Y-64048013D01*
X94630744Y-64062156D01*
X94451139Y-64241761D01*
X94436996Y-64227618D01*
X93651036Y-65013578D01*
X93718016Y-65253669D01*
X93853756Y-65317498D01*
X93775269Y-65350008D01*
X93546461Y-65502893D01*
X93351876Y-65697478D01*
X93198991Y-65926286D01*
X93093682Y-66180523D01*
X93039996Y-66450421D01*
X93039996Y-66725605D01*
X93093682Y-66995503D01*
X93198991Y-67249740D01*
X93351876Y-67478548D01*
X93546461Y-67673133D01*
X93775269Y-67826018D01*
X93852511Y-67858013D01*
X93775269Y-67890008D01*
X93546461Y-68042893D01*
X93351876Y-68237478D01*
X93198991Y-68466286D01*
X93093682Y-68720523D01*
X93039996Y-68990421D01*
X93039996Y-69265605D01*
X93093682Y-69535503D01*
X93198991Y-69789740D01*
X93351876Y-70018548D01*
X93546461Y-70213133D01*
X93775269Y-70366018D01*
X93852511Y-70398013D01*
X93775269Y-70430008D01*
X93546461Y-70582893D01*
X93351876Y-70777478D01*
X93198991Y-71006286D01*
X93093682Y-71260523D01*
X93039996Y-71530421D01*
X93039996Y-71805605D01*
X93093682Y-72075503D01*
X93198991Y-72329740D01*
X93351876Y-72558548D01*
X93546461Y-72753133D01*
X93775269Y-72906018D01*
X93852511Y-72938013D01*
X93775269Y-72970008D01*
X93546461Y-73122893D01*
X93351876Y-73317478D01*
X93198991Y-73546286D01*
X93093682Y-73800523D01*
X93039996Y-74070421D01*
X93039996Y-74345605D01*
X93093682Y-74615503D01*
X93198991Y-74869740D01*
X93351876Y-75098548D01*
X93546461Y-75293133D01*
X93775269Y-75446018D01*
X93852511Y-75478013D01*
X93775269Y-75510008D01*
X93546461Y-75662893D01*
X93351876Y-75857478D01*
X93198991Y-76086286D01*
X93093682Y-76340523D01*
X93039996Y-76610421D01*
X93039996Y-76885605D01*
X93093682Y-77155503D01*
X93198991Y-77409740D01*
X93351876Y-77638548D01*
X93546461Y-77833133D01*
X93775269Y-77986018D01*
X93852511Y-78018013D01*
X93775269Y-78050008D01*
X93546461Y-78202893D01*
X93351876Y-78397478D01*
X93198991Y-78626286D01*
X93093682Y-78880523D01*
X93039996Y-79150421D01*
X93039996Y-79425605D01*
X93093682Y-79695503D01*
X93198991Y-79949740D01*
X93351876Y-80178548D01*
X93546461Y-80373133D01*
X93775269Y-80526018D01*
X93852511Y-80558013D01*
X93775269Y-80590008D01*
X93546461Y-80742893D01*
X93351876Y-80937478D01*
X93198991Y-81166286D01*
X93093682Y-81420523D01*
X93039996Y-81690421D01*
X93039996Y-81965605D01*
X93093682Y-82235503D01*
X93198991Y-82489740D01*
X93351876Y-82718548D01*
X93546461Y-82913133D01*
X93775269Y-83066018D01*
X93852511Y-83098013D01*
X93775269Y-83130008D01*
X93546461Y-83282893D01*
X93351876Y-83477478D01*
X93198991Y-83706286D01*
X93093682Y-83960523D01*
X93039996Y-84230421D01*
X93039996Y-84505605D01*
X93093682Y-84775503D01*
X93198991Y-85029740D01*
X93351876Y-85258548D01*
X93546461Y-85453133D01*
X93775269Y-85606018D01*
X94029506Y-85711327D01*
X94299404Y-85765013D01*
X94351474Y-85765013D01*
X94392497Y-85971248D01*
X94497806Y-86225485D01*
X94650691Y-86454293D01*
X94845276Y-86648878D01*
X95074084Y-86801763D01*
X95328321Y-86907072D01*
X95598219Y-86960758D01*
X95873403Y-86960758D01*
X96143301Y-86907072D01*
X96397538Y-86801763D01*
X96626346Y-86648878D01*
X96715052Y-86560172D01*
X96813436Y-86600924D01*
X96974756Y-86633013D01*
X97139236Y-86633013D01*
X97300556Y-86600924D01*
X97452517Y-86537980D01*
X97589277Y-86446600D01*
X97705583Y-86330294D01*
X97796963Y-86193534D01*
X97859907Y-86041573D01*
X97891996Y-85880253D01*
X97891996Y-85715773D01*
X97891929Y-85715435D01*
X97934311Y-85767078D01*
X98031002Y-85846430D01*
X98141316Y-85905395D01*
X98196996Y-85922285D01*
X98196997Y-88702042D01*
X98106939Y-88762216D01*
X97921199Y-88947956D01*
X97775264Y-89166364D01*
X97674742Y-89409045D01*
X97623496Y-89666675D01*
X97623496Y-89929351D01*
X97674742Y-90186981D01*
X97775264Y-90429662D01*
X97921199Y-90648070D01*
X98106939Y-90833810D01*
X98325347Y-90979745D01*
X98568028Y-91080267D01*
X98825658Y-91131513D01*
X99088334Y-91131513D01*
X99345964Y-91080267D01*
X99588645Y-90979745D01*
X99807053Y-90833810D01*
X99992793Y-90648070D01*
X100138728Y-90429662D01*
X100226996Y-90216565D01*
X100315264Y-90429662D01*
X100461199Y-90648070D01*
X100646939Y-90833810D01*
X100865347Y-90979745D01*
X101108028Y-91080267D01*
X101365658Y-91131513D01*
X101628334Y-91131513D01*
X101885964Y-91080267D01*
X102076268Y-91001440D01*
X102076268Y-92912821D01*
X102033357Y-93016418D01*
X102001268Y-93177738D01*
X102001268Y-93342218D01*
X102033357Y-93503538D01*
X102096301Y-93655499D01*
X102187681Y-93792259D01*
X102303987Y-93908565D01*
X102440747Y-93999945D01*
X102592708Y-94062889D01*
X102754028Y-94094978D01*
X102918508Y-94094978D01*
X103079828Y-94062889D01*
X103099770Y-94054629D01*
X103099770Y-94171674D01*
X102521467Y-94749978D01*
X101555925Y-94749978D01*
X101452328Y-94707067D01*
X101291008Y-94674978D01*
X101126528Y-94674978D01*
X100965208Y-94707067D01*
X100813247Y-94770011D01*
X100676487Y-94861391D01*
X100560181Y-94977697D01*
X100468801Y-95114457D01*
X100405857Y-95266418D01*
X100373768Y-95427738D01*
X100373768Y-95592218D01*
X100405857Y-95753538D01*
X100468801Y-95905499D01*
X100560181Y-96042259D01*
X100676487Y-96158565D01*
X100813247Y-96249945D01*
X100965208Y-96312889D01*
X101126528Y-96344978D01*
X101291008Y-96344978D01*
X101452328Y-96312889D01*
X101555925Y-96269978D01*
X102798946Y-96269978D01*
X102836268Y-96273654D01*
X102873590Y-96269978D01*
X102873601Y-96269978D01*
X102985254Y-96258981D01*
X103128515Y-96215524D01*
X103260544Y-96144952D01*
X103376269Y-96049979D01*
X103400072Y-96020976D01*
X104370772Y-95050276D01*
X104399770Y-95026478D01*
X104446139Y-94969977D01*
X104494743Y-94910754D01*
X104565315Y-94778724D01*
X104586843Y-94707753D01*
X104608772Y-94635463D01*
X104619769Y-94523810D01*
X104619769Y-94523800D01*
X104623445Y-94486477D01*
X104619769Y-94449155D01*
X104619769Y-93195259D01*
X105571500Y-92243529D01*
X105600498Y-92219731D01*
X105695471Y-92104006D01*
X105766043Y-91971977D01*
X105809500Y-91828716D01*
X105820497Y-91717063D01*
X105820497Y-91717053D01*
X105824173Y-91679730D01*
X105820497Y-91642407D01*
X105820497Y-90896323D01*
X105945347Y-90979745D01*
X106188028Y-91080267D01*
X106445658Y-91131513D01*
X106708334Y-91131513D01*
X106965964Y-91080267D01*
X107208645Y-90979745D01*
X107427053Y-90833810D01*
X107612793Y-90648070D01*
X107754484Y-90436013D01*
X108756924Y-90436013D01*
X108759996Y-90912263D01*
X108918746Y-91071013D01*
X110029996Y-91071013D01*
X110029996Y-89959763D01*
X109871246Y-89801013D01*
X109394996Y-89797941D01*
X109270514Y-89810201D01*
X109150816Y-89846511D01*
X109040502Y-89905476D01*
X108943811Y-89984828D01*
X108864459Y-90081519D01*
X108805494Y-90191833D01*
X108769184Y-90311531D01*
X108756924Y-90436013D01*
X107754484Y-90436013D01*
X107758728Y-90429662D01*
X107859250Y-90186981D01*
X107910496Y-89929351D01*
X107910496Y-89666675D01*
X107859250Y-89409045D01*
X107758728Y-89166364D01*
X107612793Y-88947956D01*
X107427053Y-88762216D01*
X107316996Y-88688679D01*
X107316996Y-85922285D01*
X107372676Y-85905395D01*
X107482990Y-85846430D01*
X107579681Y-85767078D01*
X107659033Y-85670387D01*
X107717998Y-85560073D01*
X107754308Y-85440375D01*
X107766348Y-85318130D01*
X107822022Y-85422289D01*
X107861867Y-85470839D01*
X107916995Y-85538014D01*
X107945998Y-85561816D01*
X108463196Y-86079015D01*
X108486995Y-86108014D01*
X108602720Y-86202987D01*
X108734749Y-86273559D01*
X108878010Y-86317016D01*
X108989663Y-86328013D01*
X108989671Y-86328013D01*
X109026996Y-86331689D01*
X109064321Y-86328013D01*
X109806313Y-86328013D01*
X109890691Y-86454293D01*
X110085276Y-86648878D01*
X110314084Y-86801763D01*
X110568321Y-86907072D01*
X110740656Y-86941352D01*
X110707994Y-87049028D01*
X110693320Y-87198013D01*
X110696997Y-87235345D01*
X110696996Y-89799373D01*
X110442746Y-89801013D01*
X110283996Y-89959763D01*
X110283996Y-91071013D01*
X110303996Y-91071013D01*
X110303996Y-91325013D01*
X110283996Y-91325013D01*
X110283996Y-91345013D01*
X110029996Y-91345013D01*
X110029996Y-91325013D01*
X108918746Y-91325013D01*
X108759996Y-91483763D01*
X108756924Y-91960013D01*
X108769184Y-92084495D01*
X108805494Y-92204193D01*
X108864459Y-92314507D01*
X108943811Y-92411198D01*
X109040502Y-92490550D01*
X109054464Y-92498013D01*
X109040502Y-92505476D01*
X108943811Y-92584828D01*
X108864459Y-92681519D01*
X108805494Y-92791833D01*
X108769184Y-92911531D01*
X108756924Y-93036013D01*
X108756924Y-94560013D01*
X108769184Y-94684495D01*
X108805494Y-94804193D01*
X108864459Y-94914507D01*
X108943811Y-95011198D01*
X108946023Y-95013013D01*
X108413519Y-95013013D01*
X108283506Y-95025818D01*
X108116683Y-95076424D01*
X107962937Y-95158602D01*
X107828179Y-95269196D01*
X107717585Y-95403954D01*
X107635407Y-95557700D01*
X107584801Y-95724523D01*
X107567714Y-95898013D01*
X107584801Y-96071503D01*
X107635407Y-96238326D01*
X107717585Y-96392072D01*
X107828179Y-96526830D01*
X107962937Y-96637424D01*
X108116683Y-96719602D01*
X108283506Y-96770208D01*
X108413519Y-96783013D01*
X108756924Y-96783013D01*
X108756924Y-97060013D01*
X108769184Y-97184495D01*
X108805494Y-97304193D01*
X108864459Y-97414507D01*
X108943811Y-97511198D01*
X109040502Y-97590550D01*
X109150816Y-97649515D01*
X109270514Y-97685825D01*
X109394996Y-97698085D01*
X110918996Y-97698085D01*
X111043478Y-97685825D01*
X111163176Y-97649515D01*
X111273490Y-97590550D01*
X111370181Y-97511198D01*
X111449533Y-97414507D01*
X111508498Y-97304193D01*
X111544808Y-97184495D01*
X111557068Y-97060013D01*
X111557068Y-95536013D01*
X111544808Y-95411531D01*
X111508498Y-95291833D01*
X111449533Y-95181519D01*
X111370181Y-95084828D01*
X111325322Y-95048013D01*
X111370181Y-95011198D01*
X111449533Y-94914507D01*
X111508498Y-94804193D01*
X111544808Y-94684495D01*
X111557068Y-94560013D01*
X111557068Y-93472743D01*
X111968000Y-93061811D01*
X111996997Y-93038014D01*
X112091970Y-92922289D01*
X112162542Y-92790260D01*
X112205999Y-92646999D01*
X112216996Y-92535346D01*
X112216996Y-92535338D01*
X112220672Y-92498013D01*
X112216996Y-92460688D01*
X112216996Y-87512814D01*
X112573816Y-87155995D01*
X112602813Y-87132198D01*
X112697786Y-87016473D01*
X112768358Y-86884444D01*
X112811815Y-86741183D01*
X112822812Y-86629530D01*
X112822812Y-86629521D01*
X112826488Y-86592198D01*
X112822812Y-86554875D01*
X112822812Y-85043408D01*
X113593001Y-84273220D01*
X113619996Y-84251066D01*
X113619996Y-105598113D01*
X102139363Y-105598113D01*
X102197702Y-105527027D01*
X102335595Y-105269047D01*
X102420509Y-104989124D01*
X102449181Y-104698013D01*
X102423081Y-104433013D01*
X102529946Y-104433013D01*
X102748107Y-104411526D01*
X103028030Y-104326612D01*
X103286010Y-104188719D01*
X103512130Y-104003147D01*
X103697702Y-103777027D01*
X103835595Y-103519047D01*
X103920509Y-103239124D01*
X103949181Y-102948013D01*
X103920509Y-102656902D01*
X103835595Y-102376979D01*
X103697702Y-102118999D01*
X103512130Y-101892879D01*
X103305148Y-101723013D01*
X103512130Y-101553147D01*
X103697702Y-101327027D01*
X103835595Y-101069047D01*
X103920509Y-100789124D01*
X103949181Y-100498013D01*
X103920509Y-100206902D01*
X103835595Y-99926979D01*
X103697702Y-99668999D01*
X103512130Y-99442879D01*
X103286010Y-99257307D01*
X103028030Y-99119414D01*
X102748107Y-99034500D01*
X102529946Y-99013013D01*
X102423081Y-99013013D01*
X102449181Y-98748013D01*
X102420509Y-98456902D01*
X102335595Y-98176979D01*
X102197702Y-97918999D01*
X102012130Y-97692879D01*
X101786010Y-97507307D01*
X101528030Y-97369414D01*
X101248107Y-97284500D01*
X101029946Y-97263013D01*
X100084046Y-97263013D01*
X99937963Y-97277401D01*
X98641268Y-95980707D01*
X98641268Y-93216501D01*
X98628463Y-93086488D01*
X98577857Y-92919665D01*
X98495679Y-92765919D01*
X98385085Y-92631161D01*
X98250326Y-92520567D01*
X98096580Y-92438389D01*
X97929757Y-92387783D01*
X97756268Y-92370696D01*
X97582778Y-92387783D01*
X97415955Y-92438389D01*
X97262209Y-92520567D01*
X97127451Y-92631161D01*
X97016857Y-92765920D01*
X96934679Y-92919666D01*
X96884073Y-93086489D01*
X96871268Y-93216502D01*
X96871269Y-96303806D01*
X96866987Y-96347285D01*
X96884073Y-96520775D01*
X96934680Y-96687598D01*
X97016858Y-96841344D01*
X97099736Y-96942331D01*
X97099739Y-96942334D01*
X97127452Y-96976102D01*
X97161219Y-97003814D01*
X97541816Y-97384411D01*
X97371265Y-97316323D01*
X97083996Y-97263013D01*
X96683996Y-97263013D01*
X96683996Y-98621013D01*
X98277151Y-98621013D01*
X98398472Y-98391123D01*
X98377559Y-98297060D01*
X98319694Y-98162289D01*
X98686384Y-98528980D01*
X98664811Y-98748013D01*
X98693483Y-99039124D01*
X98778397Y-99319047D01*
X98916290Y-99577027D01*
X98958931Y-99628985D01*
X98878633Y-99613013D01*
X98635359Y-99613013D01*
X98396760Y-99660473D01*
X98172004Y-99753570D01*
X97969729Y-99888726D01*
X97797709Y-100060746D01*
X97662553Y-100263021D01*
X97569456Y-100487777D01*
X97521996Y-100726376D01*
X97521996Y-100969650D01*
X97569456Y-101208249D01*
X97662553Y-101433005D01*
X97797709Y-101635280D01*
X97885442Y-101723013D01*
X97797709Y-101810746D01*
X97662553Y-102013021D01*
X97569456Y-102237777D01*
X97521996Y-102476376D01*
X97521996Y-102719650D01*
X97569456Y-102958249D01*
X97662553Y-103183005D01*
X97797709Y-103385280D01*
X97969729Y-103557300D01*
X98172004Y-103692456D01*
X98396760Y-103785553D01*
X98635359Y-103833013D01*
X98878633Y-103833013D01*
X98958931Y-103817041D01*
X98916290Y-103868999D01*
X98778397Y-104126979D01*
X98693483Y-104406902D01*
X98664811Y-104698013D01*
X98693483Y-104989124D01*
X98778397Y-105269047D01*
X98916290Y-105527027D01*
X98974629Y-105598113D01*
X98138174Y-105598113D01*
X98262287Y-105417439D01*
X98377559Y-105148966D01*
X98398472Y-105054903D01*
X98277151Y-104825013D01*
X96683996Y-104825013D01*
X96683996Y-104845013D01*
X96429996Y-104845013D01*
X96429996Y-104825013D01*
X96409996Y-104825013D01*
X96409996Y-104571013D01*
X96429996Y-104571013D01*
X96429996Y-103213013D01*
X96683996Y-103213013D01*
X96683996Y-104571013D01*
X98277151Y-104571013D01*
X98398472Y-104341123D01*
X98377559Y-104247060D01*
X98262287Y-103978587D01*
X98096853Y-103737761D01*
X97887615Y-103533837D01*
X97642614Y-103374652D01*
X97371265Y-103266323D01*
X97083996Y-103213013D01*
X96683996Y-103213013D01*
X96429996Y-103213013D01*
X96029996Y-103213013D01*
X95742727Y-103266323D01*
X95471378Y-103374652D01*
X95226377Y-103533837D01*
X95057620Y-103698308D01*
X95012130Y-103642879D01*
X94786010Y-103457307D01*
X94528030Y-103319414D01*
X94248107Y-103234500D01*
X94029946Y-103213013D01*
X93084046Y-103213013D01*
X92865885Y-103234500D01*
X92804612Y-103253087D01*
X92851439Y-103183005D01*
X92944536Y-102958249D01*
X92991996Y-102719650D01*
X92991996Y-102476376D01*
X92944536Y-102237777D01*
X92851439Y-102013021D01*
X92716283Y-101810746D01*
X92628550Y-101723013D01*
X92716283Y-101635280D01*
X92851439Y-101433005D01*
X92944536Y-101208249D01*
X92991996Y-100969650D01*
X92991996Y-100726376D01*
X92944536Y-100487777D01*
X92851439Y-100263021D01*
X92804612Y-100192939D01*
X92865885Y-100211526D01*
X93084046Y-100233013D01*
X94029946Y-100233013D01*
X94248107Y-100211526D01*
X94528030Y-100126612D01*
X94786010Y-99988719D01*
X95012130Y-99803147D01*
X95057620Y-99747718D01*
X95226377Y-99912189D01*
X95471378Y-100071374D01*
X95742727Y-100179703D01*
X96029996Y-100233013D01*
X96429996Y-100233013D01*
X96429996Y-98875013D01*
X96683996Y-98875013D01*
X96683996Y-100233013D01*
X97083996Y-100233013D01*
X97371265Y-100179703D01*
X97642614Y-100071374D01*
X97887615Y-99912189D01*
X98096853Y-99708265D01*
X98262287Y-99467439D01*
X98377559Y-99198966D01*
X98398472Y-99104903D01*
X98277151Y-98875013D01*
X96683996Y-98875013D01*
X96429996Y-98875013D01*
X96409996Y-98875013D01*
X96409996Y-98621013D01*
X96429996Y-98621013D01*
X96429996Y-97263013D01*
X96029996Y-97263013D01*
X95742727Y-97316323D01*
X95471378Y-97424652D01*
X95226377Y-97583837D01*
X95057620Y-97748308D01*
X95012130Y-97692879D01*
X94786010Y-97507307D01*
X94528030Y-97369414D01*
X94248107Y-97284500D01*
X94029946Y-97263013D01*
X93084046Y-97263013D01*
X92865885Y-97284500D01*
X92585962Y-97369414D01*
X92327982Y-97507307D01*
X92101862Y-97692879D01*
X91916290Y-97918999D01*
X91778397Y-98176979D01*
X91693483Y-98456902D01*
X91664811Y-98748013D01*
X91693483Y-99039124D01*
X91778397Y-99319047D01*
X91916290Y-99577027D01*
X91958931Y-99628985D01*
X91878633Y-99613013D01*
X91635359Y-99613013D01*
X91396760Y-99660473D01*
X91172004Y-99753570D01*
X90969729Y-99888726D01*
X90941992Y-99916463D01*
X90941992Y-95974879D01*
X90987009Y-96042252D01*
X91214744Y-96269987D01*
X91482533Y-96448918D01*
X91780084Y-96572168D01*
X92095963Y-96635000D01*
X92418029Y-96635000D01*
X92733908Y-96572168D01*
X93031459Y-96448918D01*
X93299248Y-96269987D01*
X93526983Y-96042252D01*
X93705914Y-95774463D01*
X93829164Y-95476912D01*
X93891996Y-95161033D01*
X93891996Y-94838967D01*
X93829164Y-94523088D01*
X93705914Y-94225537D01*
X93526983Y-93957748D01*
X93299248Y-93730013D01*
X93031459Y-93551082D01*
X92733908Y-93427832D01*
X92418029Y-93365000D01*
X92095963Y-93365000D01*
X91780084Y-93427832D01*
X91765620Y-93433823D01*
X91691995Y-93360198D01*
X91691995Y-90042127D01*
X91998104Y-90122384D01*
X92319591Y-90141718D01*
X92638671Y-90097961D01*
X92943084Y-89992795D01*
X93117040Y-89899814D01*
X93212804Y-89635413D01*
X92256996Y-88679605D01*
X92242854Y-88693748D01*
X92063249Y-88514143D01*
X92077391Y-88500000D01*
X92436601Y-88500000D01*
X93392409Y-89455808D01*
X93656810Y-89360044D01*
X93797700Y-89070429D01*
X93879380Y-88758892D01*
X93898714Y-88437405D01*
X93854957Y-88118325D01*
X93749791Y-87813912D01*
X93656810Y-87639956D01*
X93392409Y-87544192D01*
X92436601Y-88500000D01*
X92077391Y-88500000D01*
X92063249Y-88485858D01*
X92242854Y-88306253D01*
X92256996Y-88320395D01*
X93212804Y-87364587D01*
X93117040Y-87100186D01*
X92827425Y-86959296D01*
X92515888Y-86877616D01*
X92194401Y-86858282D01*
X91875321Y-86902039D01*
X91691995Y-86965373D01*
X91691995Y-66259053D01*
X93214870Y-64736179D01*
X93231340Y-64766993D01*
X93471431Y-64833973D01*
X94257391Y-64048013D01*
X94243249Y-64033871D01*
X94422854Y-63854266D01*
X94436996Y-63868408D01*
X94451139Y-63854266D01*
X94630744Y-64033871D01*
G04 #@! TA.AperFunction,Conductor*
D26*
G36*
X94630744Y-64033871D02*
G01*
X94616601Y-64048013D01*
X94630744Y-64062156D01*
X94451139Y-64241761D01*
X94436996Y-64227618D01*
X93651036Y-65013578D01*
X93718016Y-65253669D01*
X93853756Y-65317498D01*
X93775269Y-65350008D01*
X93546461Y-65502893D01*
X93351876Y-65697478D01*
X93198991Y-65926286D01*
X93093682Y-66180523D01*
X93039996Y-66450421D01*
X93039996Y-66725605D01*
X93093682Y-66995503D01*
X93198991Y-67249740D01*
X93351876Y-67478548D01*
X93546461Y-67673133D01*
X93775269Y-67826018D01*
X93852511Y-67858013D01*
X93775269Y-67890008D01*
X93546461Y-68042893D01*
X93351876Y-68237478D01*
X93198991Y-68466286D01*
X93093682Y-68720523D01*
X93039996Y-68990421D01*
X93039996Y-69265605D01*
X93093682Y-69535503D01*
X93198991Y-69789740D01*
X93351876Y-70018548D01*
X93546461Y-70213133D01*
X93775269Y-70366018D01*
X93852511Y-70398013D01*
X93775269Y-70430008D01*
X93546461Y-70582893D01*
X93351876Y-70777478D01*
X93198991Y-71006286D01*
X93093682Y-71260523D01*
X93039996Y-71530421D01*
X93039996Y-71805605D01*
X93093682Y-72075503D01*
X93198991Y-72329740D01*
X93351876Y-72558548D01*
X93546461Y-72753133D01*
X93775269Y-72906018D01*
X93852511Y-72938013D01*
X93775269Y-72970008D01*
X93546461Y-73122893D01*
X93351876Y-73317478D01*
X93198991Y-73546286D01*
X93093682Y-73800523D01*
X93039996Y-74070421D01*
X93039996Y-74345605D01*
X93093682Y-74615503D01*
X93198991Y-74869740D01*
X93351876Y-75098548D01*
X93546461Y-75293133D01*
X93775269Y-75446018D01*
X93852511Y-75478013D01*
X93775269Y-75510008D01*
X93546461Y-75662893D01*
X93351876Y-75857478D01*
X93198991Y-76086286D01*
X93093682Y-76340523D01*
X93039996Y-76610421D01*
X93039996Y-76885605D01*
X93093682Y-77155503D01*
X93198991Y-77409740D01*
X93351876Y-77638548D01*
X93546461Y-77833133D01*
X93775269Y-77986018D01*
X93852511Y-78018013D01*
X93775269Y-78050008D01*
X93546461Y-78202893D01*
X93351876Y-78397478D01*
X93198991Y-78626286D01*
X93093682Y-78880523D01*
X93039996Y-79150421D01*
X93039996Y-79425605D01*
X93093682Y-79695503D01*
X93198991Y-79949740D01*
X93351876Y-80178548D01*
X93546461Y-80373133D01*
X93775269Y-80526018D01*
X93852511Y-80558013D01*
X93775269Y-80590008D01*
X93546461Y-80742893D01*
X93351876Y-80937478D01*
X93198991Y-81166286D01*
X93093682Y-81420523D01*
X93039996Y-81690421D01*
X93039996Y-81965605D01*
X93093682Y-82235503D01*
X93198991Y-82489740D01*
X93351876Y-82718548D01*
X93546461Y-82913133D01*
X93775269Y-83066018D01*
X93852511Y-83098013D01*
X93775269Y-83130008D01*
X93546461Y-83282893D01*
X93351876Y-83477478D01*
X93198991Y-83706286D01*
X93093682Y-83960523D01*
X93039996Y-84230421D01*
X93039996Y-84505605D01*
X93093682Y-84775503D01*
X93198991Y-85029740D01*
X93351876Y-85258548D01*
X93546461Y-85453133D01*
X93775269Y-85606018D01*
X94029506Y-85711327D01*
X94299404Y-85765013D01*
X94351474Y-85765013D01*
X94392497Y-85971248D01*
X94497806Y-86225485D01*
X94650691Y-86454293D01*
X94845276Y-86648878D01*
X95074084Y-86801763D01*
X95328321Y-86907072D01*
X95598219Y-86960758D01*
X95873403Y-86960758D01*
X96143301Y-86907072D01*
X96397538Y-86801763D01*
X96626346Y-86648878D01*
X96715052Y-86560172D01*
X96813436Y-86600924D01*
X96974756Y-86633013D01*
X97139236Y-86633013D01*
X97300556Y-86600924D01*
X97452517Y-86537980D01*
X97589277Y-86446600D01*
X97705583Y-86330294D01*
X97796963Y-86193534D01*
X97859907Y-86041573D01*
X97891996Y-85880253D01*
X97891996Y-85715773D01*
X97891929Y-85715435D01*
X97934311Y-85767078D01*
X98031002Y-85846430D01*
X98141316Y-85905395D01*
X98196996Y-85922285D01*
X98196997Y-88702042D01*
X98106939Y-88762216D01*
X97921199Y-88947956D01*
X97775264Y-89166364D01*
X97674742Y-89409045D01*
X97623496Y-89666675D01*
X97623496Y-89929351D01*
X97674742Y-90186981D01*
X97775264Y-90429662D01*
X97921199Y-90648070D01*
X98106939Y-90833810D01*
X98325347Y-90979745D01*
X98568028Y-91080267D01*
X98825658Y-91131513D01*
X99088334Y-91131513D01*
X99345964Y-91080267D01*
X99588645Y-90979745D01*
X99807053Y-90833810D01*
X99992793Y-90648070D01*
X100138728Y-90429662D01*
X100226996Y-90216565D01*
X100315264Y-90429662D01*
X100461199Y-90648070D01*
X100646939Y-90833810D01*
X100865347Y-90979745D01*
X101108028Y-91080267D01*
X101365658Y-91131513D01*
X101628334Y-91131513D01*
X101885964Y-91080267D01*
X102076268Y-91001440D01*
X102076268Y-92912821D01*
X102033357Y-93016418D01*
X102001268Y-93177738D01*
X102001268Y-93342218D01*
X102033357Y-93503538D01*
X102096301Y-93655499D01*
X102187681Y-93792259D01*
X102303987Y-93908565D01*
X102440747Y-93999945D01*
X102592708Y-94062889D01*
X102754028Y-94094978D01*
X102918508Y-94094978D01*
X103079828Y-94062889D01*
X103099770Y-94054629D01*
X103099770Y-94171674D01*
X102521467Y-94749978D01*
X101555925Y-94749978D01*
X101452328Y-94707067D01*
X101291008Y-94674978D01*
X101126528Y-94674978D01*
X100965208Y-94707067D01*
X100813247Y-94770011D01*
X100676487Y-94861391D01*
X100560181Y-94977697D01*
X100468801Y-95114457D01*
X100405857Y-95266418D01*
X100373768Y-95427738D01*
X100373768Y-95592218D01*
X100405857Y-95753538D01*
X100468801Y-95905499D01*
X100560181Y-96042259D01*
X100676487Y-96158565D01*
X100813247Y-96249945D01*
X100965208Y-96312889D01*
X101126528Y-96344978D01*
X101291008Y-96344978D01*
X101452328Y-96312889D01*
X101555925Y-96269978D01*
X102798946Y-96269978D01*
X102836268Y-96273654D01*
X102873590Y-96269978D01*
X102873601Y-96269978D01*
X102985254Y-96258981D01*
X103128515Y-96215524D01*
X103260544Y-96144952D01*
X103376269Y-96049979D01*
X103400072Y-96020976D01*
X104370772Y-95050276D01*
X104399770Y-95026478D01*
X104446139Y-94969977D01*
X104494743Y-94910754D01*
X104565315Y-94778724D01*
X104586843Y-94707753D01*
X104608772Y-94635463D01*
X104619769Y-94523810D01*
X104619769Y-94523800D01*
X104623445Y-94486477D01*
X104619769Y-94449155D01*
X104619769Y-93195259D01*
X105571500Y-92243529D01*
X105600498Y-92219731D01*
X105695471Y-92104006D01*
X105766043Y-91971977D01*
X105809500Y-91828716D01*
X105820497Y-91717063D01*
X105820497Y-91717053D01*
X105824173Y-91679730D01*
X105820497Y-91642407D01*
X105820497Y-90896323D01*
X105945347Y-90979745D01*
X106188028Y-91080267D01*
X106445658Y-91131513D01*
X106708334Y-91131513D01*
X106965964Y-91080267D01*
X107208645Y-90979745D01*
X107427053Y-90833810D01*
X107612793Y-90648070D01*
X107754484Y-90436013D01*
X108756924Y-90436013D01*
X108759996Y-90912263D01*
X108918746Y-91071013D01*
X110029996Y-91071013D01*
X110029996Y-89959763D01*
X109871246Y-89801013D01*
X109394996Y-89797941D01*
X109270514Y-89810201D01*
X109150816Y-89846511D01*
X109040502Y-89905476D01*
X108943811Y-89984828D01*
X108864459Y-90081519D01*
X108805494Y-90191833D01*
X108769184Y-90311531D01*
X108756924Y-90436013D01*
X107754484Y-90436013D01*
X107758728Y-90429662D01*
X107859250Y-90186981D01*
X107910496Y-89929351D01*
X107910496Y-89666675D01*
X107859250Y-89409045D01*
X107758728Y-89166364D01*
X107612793Y-88947956D01*
X107427053Y-88762216D01*
X107316996Y-88688679D01*
X107316996Y-85922285D01*
X107372676Y-85905395D01*
X107482990Y-85846430D01*
X107579681Y-85767078D01*
X107659033Y-85670387D01*
X107717998Y-85560073D01*
X107754308Y-85440375D01*
X107766348Y-85318130D01*
X107822022Y-85422289D01*
X107861867Y-85470839D01*
X107916995Y-85538014D01*
X107945998Y-85561816D01*
X108463196Y-86079015D01*
X108486995Y-86108014D01*
X108602720Y-86202987D01*
X108734749Y-86273559D01*
X108878010Y-86317016D01*
X108989663Y-86328013D01*
X108989671Y-86328013D01*
X109026996Y-86331689D01*
X109064321Y-86328013D01*
X109806313Y-86328013D01*
X109890691Y-86454293D01*
X110085276Y-86648878D01*
X110314084Y-86801763D01*
X110568321Y-86907072D01*
X110740656Y-86941352D01*
X110707994Y-87049028D01*
X110693320Y-87198013D01*
X110696997Y-87235345D01*
X110696996Y-89799373D01*
X110442746Y-89801013D01*
X110283996Y-89959763D01*
X110283996Y-91071013D01*
X110303996Y-91071013D01*
X110303996Y-91325013D01*
X110283996Y-91325013D01*
X110283996Y-91345013D01*
X110029996Y-91345013D01*
X110029996Y-91325013D01*
X108918746Y-91325013D01*
X108759996Y-91483763D01*
X108756924Y-91960013D01*
X108769184Y-92084495D01*
X108805494Y-92204193D01*
X108864459Y-92314507D01*
X108943811Y-92411198D01*
X109040502Y-92490550D01*
X109054464Y-92498013D01*
X109040502Y-92505476D01*
X108943811Y-92584828D01*
X108864459Y-92681519D01*
X108805494Y-92791833D01*
X108769184Y-92911531D01*
X108756924Y-93036013D01*
X108756924Y-94560013D01*
X108769184Y-94684495D01*
X108805494Y-94804193D01*
X108864459Y-94914507D01*
X108943811Y-95011198D01*
X108946023Y-95013013D01*
X108413519Y-95013013D01*
X108283506Y-95025818D01*
X108116683Y-95076424D01*
X107962937Y-95158602D01*
X107828179Y-95269196D01*
X107717585Y-95403954D01*
X107635407Y-95557700D01*
X107584801Y-95724523D01*
X107567714Y-95898013D01*
X107584801Y-96071503D01*
X107635407Y-96238326D01*
X107717585Y-96392072D01*
X107828179Y-96526830D01*
X107962937Y-96637424D01*
X108116683Y-96719602D01*
X108283506Y-96770208D01*
X108413519Y-96783013D01*
X108756924Y-96783013D01*
X108756924Y-97060013D01*
X108769184Y-97184495D01*
X108805494Y-97304193D01*
X108864459Y-97414507D01*
X108943811Y-97511198D01*
X109040502Y-97590550D01*
X109150816Y-97649515D01*
X109270514Y-97685825D01*
X109394996Y-97698085D01*
X110918996Y-97698085D01*
X111043478Y-97685825D01*
X111163176Y-97649515D01*
X111273490Y-97590550D01*
X111370181Y-97511198D01*
X111449533Y-97414507D01*
X111508498Y-97304193D01*
X111544808Y-97184495D01*
X111557068Y-97060013D01*
X111557068Y-95536013D01*
X111544808Y-95411531D01*
X111508498Y-95291833D01*
X111449533Y-95181519D01*
X111370181Y-95084828D01*
X111325322Y-95048013D01*
X111370181Y-95011198D01*
X111449533Y-94914507D01*
X111508498Y-94804193D01*
X111544808Y-94684495D01*
X111557068Y-94560013D01*
X111557068Y-93472743D01*
X111968000Y-93061811D01*
X111996997Y-93038014D01*
X112091970Y-92922289D01*
X112162542Y-92790260D01*
X112205999Y-92646999D01*
X112216996Y-92535346D01*
X112216996Y-92535338D01*
X112220672Y-92498013D01*
X112216996Y-92460688D01*
X112216996Y-87512814D01*
X112573816Y-87155995D01*
X112602813Y-87132198D01*
X112697786Y-87016473D01*
X112768358Y-86884444D01*
X112811815Y-86741183D01*
X112822812Y-86629530D01*
X112822812Y-86629521D01*
X112826488Y-86592198D01*
X112822812Y-86554875D01*
X112822812Y-85043408D01*
X113593001Y-84273220D01*
X113619996Y-84251066D01*
X113619996Y-105598113D01*
X102139363Y-105598113D01*
X102197702Y-105527027D01*
X102335595Y-105269047D01*
X102420509Y-104989124D01*
X102449181Y-104698013D01*
X102423081Y-104433013D01*
X102529946Y-104433013D01*
X102748107Y-104411526D01*
X103028030Y-104326612D01*
X103286010Y-104188719D01*
X103512130Y-104003147D01*
X103697702Y-103777027D01*
X103835595Y-103519047D01*
X103920509Y-103239124D01*
X103949181Y-102948013D01*
X103920509Y-102656902D01*
X103835595Y-102376979D01*
X103697702Y-102118999D01*
X103512130Y-101892879D01*
X103305148Y-101723013D01*
X103512130Y-101553147D01*
X103697702Y-101327027D01*
X103835595Y-101069047D01*
X103920509Y-100789124D01*
X103949181Y-100498013D01*
X103920509Y-100206902D01*
X103835595Y-99926979D01*
X103697702Y-99668999D01*
X103512130Y-99442879D01*
X103286010Y-99257307D01*
X103028030Y-99119414D01*
X102748107Y-99034500D01*
X102529946Y-99013013D01*
X102423081Y-99013013D01*
X102449181Y-98748013D01*
X102420509Y-98456902D01*
X102335595Y-98176979D01*
X102197702Y-97918999D01*
X102012130Y-97692879D01*
X101786010Y-97507307D01*
X101528030Y-97369414D01*
X101248107Y-97284500D01*
X101029946Y-97263013D01*
X100084046Y-97263013D01*
X99937963Y-97277401D01*
X98641268Y-95980707D01*
X98641268Y-93216501D01*
X98628463Y-93086488D01*
X98577857Y-92919665D01*
X98495679Y-92765919D01*
X98385085Y-92631161D01*
X98250326Y-92520567D01*
X98096580Y-92438389D01*
X97929757Y-92387783D01*
X97756268Y-92370696D01*
X97582778Y-92387783D01*
X97415955Y-92438389D01*
X97262209Y-92520567D01*
X97127451Y-92631161D01*
X97016857Y-92765920D01*
X96934679Y-92919666D01*
X96884073Y-93086489D01*
X96871268Y-93216502D01*
X96871269Y-96303806D01*
X96866987Y-96347285D01*
X96884073Y-96520775D01*
X96934680Y-96687598D01*
X97016858Y-96841344D01*
X97099736Y-96942331D01*
X97099739Y-96942334D01*
X97127452Y-96976102D01*
X97161219Y-97003814D01*
X97541816Y-97384411D01*
X97371265Y-97316323D01*
X97083996Y-97263013D01*
X96683996Y-97263013D01*
X96683996Y-98621013D01*
X98277151Y-98621013D01*
X98398472Y-98391123D01*
X98377559Y-98297060D01*
X98319694Y-98162289D01*
X98686384Y-98528980D01*
X98664811Y-98748013D01*
X98693483Y-99039124D01*
X98778397Y-99319047D01*
X98916290Y-99577027D01*
X98958931Y-99628985D01*
X98878633Y-99613013D01*
X98635359Y-99613013D01*
X98396760Y-99660473D01*
X98172004Y-99753570D01*
X97969729Y-99888726D01*
X97797709Y-100060746D01*
X97662553Y-100263021D01*
X97569456Y-100487777D01*
X97521996Y-100726376D01*
X97521996Y-100969650D01*
X97569456Y-101208249D01*
X97662553Y-101433005D01*
X97797709Y-101635280D01*
X97885442Y-101723013D01*
X97797709Y-101810746D01*
X97662553Y-102013021D01*
X97569456Y-102237777D01*
X97521996Y-102476376D01*
X97521996Y-102719650D01*
X97569456Y-102958249D01*
X97662553Y-103183005D01*
X97797709Y-103385280D01*
X97969729Y-103557300D01*
X98172004Y-103692456D01*
X98396760Y-103785553D01*
X98635359Y-103833013D01*
X98878633Y-103833013D01*
X98958931Y-103817041D01*
X98916290Y-103868999D01*
X98778397Y-104126979D01*
X98693483Y-104406902D01*
X98664811Y-104698013D01*
X98693483Y-104989124D01*
X98778397Y-105269047D01*
X98916290Y-105527027D01*
X98974629Y-105598113D01*
X98138174Y-105598113D01*
X98262287Y-105417439D01*
X98377559Y-105148966D01*
X98398472Y-105054903D01*
X98277151Y-104825013D01*
X96683996Y-104825013D01*
X96683996Y-104845013D01*
X96429996Y-104845013D01*
X96429996Y-104825013D01*
X96409996Y-104825013D01*
X96409996Y-104571013D01*
X96429996Y-104571013D01*
X96429996Y-103213013D01*
X96683996Y-103213013D01*
X96683996Y-104571013D01*
X98277151Y-104571013D01*
X98398472Y-104341123D01*
X98377559Y-104247060D01*
X98262287Y-103978587D01*
X98096853Y-103737761D01*
X97887615Y-103533837D01*
X97642614Y-103374652D01*
X97371265Y-103266323D01*
X97083996Y-103213013D01*
X96683996Y-103213013D01*
X96429996Y-103213013D01*
X96029996Y-103213013D01*
X95742727Y-103266323D01*
X95471378Y-103374652D01*
X95226377Y-103533837D01*
X95057620Y-103698308D01*
X95012130Y-103642879D01*
X94786010Y-103457307D01*
X94528030Y-103319414D01*
X94248107Y-103234500D01*
X94029946Y-103213013D01*
X93084046Y-103213013D01*
X92865885Y-103234500D01*
X92804612Y-103253087D01*
X92851439Y-103183005D01*
X92944536Y-102958249D01*
X92991996Y-102719650D01*
X92991996Y-102476376D01*
X92944536Y-102237777D01*
X92851439Y-102013021D01*
X92716283Y-101810746D01*
X92628550Y-101723013D01*
X92716283Y-101635280D01*
X92851439Y-101433005D01*
X92944536Y-101208249D01*
X92991996Y-100969650D01*
X92991996Y-100726376D01*
X92944536Y-100487777D01*
X92851439Y-100263021D01*
X92804612Y-100192939D01*
X92865885Y-100211526D01*
X93084046Y-100233013D01*
X94029946Y-100233013D01*
X94248107Y-100211526D01*
X94528030Y-100126612D01*
X94786010Y-99988719D01*
X95012130Y-99803147D01*
X95057620Y-99747718D01*
X95226377Y-99912189D01*
X95471378Y-100071374D01*
X95742727Y-100179703D01*
X96029996Y-100233013D01*
X96429996Y-100233013D01*
X96429996Y-98875013D01*
X96683996Y-98875013D01*
X96683996Y-100233013D01*
X97083996Y-100233013D01*
X97371265Y-100179703D01*
X97642614Y-100071374D01*
X97887615Y-99912189D01*
X98096853Y-99708265D01*
X98262287Y-99467439D01*
X98377559Y-99198966D01*
X98398472Y-99104903D01*
X98277151Y-98875013D01*
X96683996Y-98875013D01*
X96429996Y-98875013D01*
X96409996Y-98875013D01*
X96409996Y-98621013D01*
X96429996Y-98621013D01*
X96429996Y-97263013D01*
X96029996Y-97263013D01*
X95742727Y-97316323D01*
X95471378Y-97424652D01*
X95226377Y-97583837D01*
X95057620Y-97748308D01*
X95012130Y-97692879D01*
X94786010Y-97507307D01*
X94528030Y-97369414D01*
X94248107Y-97284500D01*
X94029946Y-97263013D01*
X93084046Y-97263013D01*
X92865885Y-97284500D01*
X92585962Y-97369414D01*
X92327982Y-97507307D01*
X92101862Y-97692879D01*
X91916290Y-97918999D01*
X91778397Y-98176979D01*
X91693483Y-98456902D01*
X91664811Y-98748013D01*
X91693483Y-99039124D01*
X91778397Y-99319047D01*
X91916290Y-99577027D01*
X91958931Y-99628985D01*
X91878633Y-99613013D01*
X91635359Y-99613013D01*
X91396760Y-99660473D01*
X91172004Y-99753570D01*
X90969729Y-99888726D01*
X90941992Y-99916463D01*
X90941992Y-95974879D01*
X90987009Y-96042252D01*
X91214744Y-96269987D01*
X91482533Y-96448918D01*
X91780084Y-96572168D01*
X92095963Y-96635000D01*
X92418029Y-96635000D01*
X92733908Y-96572168D01*
X93031459Y-96448918D01*
X93299248Y-96269987D01*
X93526983Y-96042252D01*
X93705914Y-95774463D01*
X93829164Y-95476912D01*
X93891996Y-95161033D01*
X93891996Y-94838967D01*
X93829164Y-94523088D01*
X93705914Y-94225537D01*
X93526983Y-93957748D01*
X93299248Y-93730013D01*
X93031459Y-93551082D01*
X92733908Y-93427832D01*
X92418029Y-93365000D01*
X92095963Y-93365000D01*
X91780084Y-93427832D01*
X91765620Y-93433823D01*
X91691995Y-93360198D01*
X91691995Y-90042127D01*
X91998104Y-90122384D01*
X92319591Y-90141718D01*
X92638671Y-90097961D01*
X92943084Y-89992795D01*
X93117040Y-89899814D01*
X93212804Y-89635413D01*
X92256996Y-88679605D01*
X92242854Y-88693748D01*
X92063249Y-88514143D01*
X92077391Y-88500000D01*
X92436601Y-88500000D01*
X93392409Y-89455808D01*
X93656810Y-89360044D01*
X93797700Y-89070429D01*
X93879380Y-88758892D01*
X93898714Y-88437405D01*
X93854957Y-88118325D01*
X93749791Y-87813912D01*
X93656810Y-87639956D01*
X93392409Y-87544192D01*
X92436601Y-88500000D01*
X92077391Y-88500000D01*
X92063249Y-88485858D01*
X92242854Y-88306253D01*
X92256996Y-88320395D01*
X93212804Y-87364587D01*
X93117040Y-87100186D01*
X92827425Y-86959296D01*
X92515888Y-86877616D01*
X92194401Y-86858282D01*
X91875321Y-86902039D01*
X91691995Y-86965373D01*
X91691995Y-66259053D01*
X93214870Y-64736179D01*
X93231340Y-64766993D01*
X93471431Y-64833973D01*
X94257391Y-64048013D01*
X94243249Y-64033871D01*
X94422854Y-63854266D01*
X94436996Y-63868408D01*
X94451139Y-63854266D01*
X94630744Y-64033871D01*
G37*
G04 #@! TD.AperFunction*
D25*
X104420999Y-55622799D02*
X104391995Y-55646602D01*
X104336867Y-55713777D01*
X104297022Y-55762327D01*
X104282501Y-55789494D01*
X104226450Y-55894357D01*
X104182993Y-56037618D01*
X104171996Y-56149271D01*
X104171996Y-56149281D01*
X104168320Y-56186603D01*
X104171996Y-56223925D01*
X104171997Y-68665127D01*
X104105583Y-68565732D01*
X103989277Y-68449426D01*
X103852517Y-68358046D01*
X103700556Y-68295102D01*
X103542004Y-68263564D01*
X103542004Y-65287231D01*
X103546285Y-65243765D01*
X103542004Y-65200299D01*
X103542004Y-65200289D01*
X103529199Y-65070276D01*
X103478593Y-64903453D01*
X103396415Y-64749707D01*
X103285821Y-64614949D01*
X103252048Y-64587232D01*
X103252042Y-64587226D01*
X103151055Y-64504348D01*
X102997309Y-64422170D01*
X102830486Y-64371563D01*
X102656996Y-64354477D01*
X102483506Y-64371563D01*
X102316683Y-64422170D01*
X102162937Y-64504348D01*
X102028179Y-64614941D01*
X101917586Y-64749699D01*
X101835408Y-64903445D01*
X101784801Y-65070268D01*
X101767715Y-65243758D01*
X101772005Y-65287318D01*
X101772004Y-83042061D01*
X100885496Y-83042061D01*
X100761014Y-83054321D01*
X100641316Y-83090631D01*
X100531002Y-83149596D01*
X100434311Y-83228948D01*
X100354959Y-83325639D01*
X100295994Y-83435953D01*
X100259684Y-83555651D01*
X100247424Y-83680133D01*
X100247424Y-84315133D01*
X100259684Y-84439615D01*
X100277399Y-84498013D01*
X100259684Y-84556411D01*
X100247424Y-84680893D01*
X100247424Y-85315893D01*
X100259684Y-85440375D01*
X100295994Y-85560073D01*
X100354959Y-85670387D01*
X100434311Y-85767078D01*
X100531002Y-85846430D01*
X100641316Y-85905395D01*
X100696996Y-85922285D01*
X100696997Y-88728769D01*
X100646939Y-88762216D01*
X100461199Y-88947956D01*
X100315264Y-89166364D01*
X100226996Y-89379461D01*
X100138728Y-89166364D01*
X99992793Y-88947956D01*
X99807053Y-88762216D01*
X99716996Y-88702042D01*
X99716996Y-85922285D01*
X99772676Y-85905395D01*
X99882990Y-85846430D01*
X99979681Y-85767078D01*
X100059033Y-85670387D01*
X100117998Y-85560073D01*
X100154308Y-85440375D01*
X100166568Y-85315893D01*
X100166568Y-84680893D01*
X100154308Y-84556411D01*
X100136593Y-84498013D01*
X100154308Y-84439615D01*
X100166568Y-84315133D01*
X100163496Y-84283383D01*
X100004746Y-84124633D01*
X99834866Y-84124633D01*
X99772676Y-84091391D01*
X99652978Y-84055081D01*
X99528496Y-84042821D01*
X98809996Y-84042821D01*
X98809996Y-83870633D01*
X98829996Y-83870633D01*
X98829996Y-83850633D01*
X99083996Y-83850633D01*
X99083996Y-83870633D01*
X100004746Y-83870633D01*
X100163496Y-83711883D01*
X100166568Y-83680133D01*
X100154308Y-83555651D01*
X100117998Y-83435953D01*
X100059033Y-83325639D01*
X99979681Y-83228948D01*
X99882990Y-83149596D01*
X99772676Y-83090631D01*
X99652978Y-83054321D01*
X99528496Y-83042061D01*
X99242746Y-83045133D01*
X99127151Y-83160728D01*
X99141996Y-83086100D01*
X99141996Y-82921620D01*
X99109907Y-82760300D01*
X99066996Y-82656703D01*
X99066996Y-67028383D01*
X99096963Y-66983534D01*
X99159907Y-66831573D01*
X99191996Y-66670253D01*
X99191996Y-66505773D01*
X99159907Y-66344453D01*
X99096963Y-66192492D01*
X99005583Y-66055732D01*
X98889277Y-65939426D01*
X98752517Y-65848046D01*
X98600556Y-65785102D01*
X98439236Y-65753013D01*
X98274756Y-65753013D01*
X98113436Y-65785102D01*
X97961475Y-65848046D01*
X97824715Y-65939426D01*
X97816996Y-65947145D01*
X97816996Y-60094897D01*
X97889277Y-60046600D01*
X98005583Y-59930294D01*
X98096963Y-59793534D01*
X98159907Y-59641573D01*
X98191996Y-59480253D01*
X98191996Y-59315773D01*
X98159907Y-59154453D01*
X98096963Y-59002492D01*
X98005583Y-58865732D01*
X97889277Y-58749426D01*
X97752517Y-58658046D01*
X97600556Y-58595102D01*
X97439236Y-58563013D01*
X97274756Y-58563013D01*
X97113436Y-58595102D01*
X96961475Y-58658046D01*
X96824715Y-58749426D01*
X96708409Y-58865732D01*
X96617029Y-59002492D01*
X96574117Y-59106091D01*
X96545999Y-59134209D01*
X96516995Y-59158012D01*
X96512194Y-59163863D01*
X96454791Y-58958102D01*
X96319051Y-58894273D01*
X96397538Y-58861763D01*
X96626346Y-58708878D01*
X96820931Y-58514293D01*
X96973816Y-58285485D01*
X97079125Y-58031248D01*
X97132811Y-57761350D01*
X97132811Y-57486166D01*
X97079125Y-57216268D01*
X96973816Y-56962031D01*
X96820931Y-56733223D01*
X96626346Y-56538638D01*
X96397538Y-56385753D01*
X96143301Y-56280444D01*
X95873403Y-56226758D01*
X95821333Y-56226758D01*
X95780310Y-56020523D01*
X95675001Y-55766286D01*
X95522116Y-55537478D01*
X95327531Y-55342893D01*
X95098723Y-55190008D01*
X94844486Y-55084699D01*
X94574588Y-55031013D01*
X94299404Y-55031013D01*
X94029506Y-55084699D01*
X93775269Y-55190008D01*
X93546461Y-55342893D01*
X93351876Y-55537478D01*
X93198991Y-55766286D01*
X93093682Y-56020523D01*
X93039996Y-56290421D01*
X93039996Y-56565605D01*
X93093682Y-56835503D01*
X93198991Y-57089740D01*
X93351876Y-57318548D01*
X93546461Y-57513133D01*
X93775269Y-57666018D01*
X93852511Y-57698013D01*
X93775269Y-57730008D01*
X93546461Y-57882893D01*
X93351876Y-58077478D01*
X93198991Y-58306286D01*
X93093682Y-58560523D01*
X93039996Y-58830421D01*
X93039996Y-59105605D01*
X93093682Y-59375503D01*
X93198991Y-59629740D01*
X93351876Y-59858548D01*
X93546461Y-60053133D01*
X93775269Y-60206018D01*
X93846939Y-60235705D01*
X93833973Y-60240377D01*
X93718016Y-60302357D01*
X93651036Y-60542448D01*
X94436996Y-61328408D01*
X95222956Y-60542448D01*
X95213044Y-60506920D01*
X95556206Y-60163758D01*
X95542064Y-60149616D01*
X95721669Y-59970011D01*
X95735811Y-59984153D01*
X95749954Y-59970011D01*
X95929559Y-60149616D01*
X95915416Y-60163758D01*
X95929559Y-60177901D01*
X95749954Y-60357506D01*
X95735811Y-60343363D01*
X94949851Y-61129323D01*
X94959763Y-61164851D01*
X94616601Y-61508013D01*
X94630744Y-61522156D01*
X94451139Y-61701761D01*
X94436996Y-61687618D01*
X94422854Y-61701761D01*
X94243249Y-61522156D01*
X94257391Y-61508013D01*
X93471431Y-60722053D01*
X93231340Y-60789033D01*
X93114240Y-61038061D01*
X93047973Y-61305148D01*
X93035086Y-61580030D01*
X93076074Y-61852146D01*
X93169360Y-62111036D01*
X93231340Y-62226993D01*
X93471429Y-62293972D01*
X93355019Y-62410382D01*
X93370913Y-62426276D01*
X93351440Y-62450004D01*
X90941992Y-64859454D01*
X90941992Y-53852113D01*
X106191684Y-53852113D01*
X104420999Y-55622799D01*
G04 #@! TA.AperFunction,Conductor*
D26*
G36*
X104420999Y-55622799D02*
G01*
X104391995Y-55646602D01*
X104336867Y-55713777D01*
X104297022Y-55762327D01*
X104282501Y-55789494D01*
X104226450Y-55894357D01*
X104182993Y-56037618D01*
X104171996Y-56149271D01*
X104171996Y-56149281D01*
X104168320Y-56186603D01*
X104171996Y-56223925D01*
X104171997Y-68665127D01*
X104105583Y-68565732D01*
X103989277Y-68449426D01*
X103852517Y-68358046D01*
X103700556Y-68295102D01*
X103542004Y-68263564D01*
X103542004Y-65287231D01*
X103546285Y-65243765D01*
X103542004Y-65200299D01*
X103542004Y-65200289D01*
X103529199Y-65070276D01*
X103478593Y-64903453D01*
X103396415Y-64749707D01*
X103285821Y-64614949D01*
X103252048Y-64587232D01*
X103252042Y-64587226D01*
X103151055Y-64504348D01*
X102997309Y-64422170D01*
X102830486Y-64371563D01*
X102656996Y-64354477D01*
X102483506Y-64371563D01*
X102316683Y-64422170D01*
X102162937Y-64504348D01*
X102028179Y-64614941D01*
X101917586Y-64749699D01*
X101835408Y-64903445D01*
X101784801Y-65070268D01*
X101767715Y-65243758D01*
X101772005Y-65287318D01*
X101772004Y-83042061D01*
X100885496Y-83042061D01*
X100761014Y-83054321D01*
X100641316Y-83090631D01*
X100531002Y-83149596D01*
X100434311Y-83228948D01*
X100354959Y-83325639D01*
X100295994Y-83435953D01*
X100259684Y-83555651D01*
X100247424Y-83680133D01*
X100247424Y-84315133D01*
X100259684Y-84439615D01*
X100277399Y-84498013D01*
X100259684Y-84556411D01*
X100247424Y-84680893D01*
X100247424Y-85315893D01*
X100259684Y-85440375D01*
X100295994Y-85560073D01*
X100354959Y-85670387D01*
X100434311Y-85767078D01*
X100531002Y-85846430D01*
X100641316Y-85905395D01*
X100696996Y-85922285D01*
X100696997Y-88728769D01*
X100646939Y-88762216D01*
X100461199Y-88947956D01*
X100315264Y-89166364D01*
X100226996Y-89379461D01*
X100138728Y-89166364D01*
X99992793Y-88947956D01*
X99807053Y-88762216D01*
X99716996Y-88702042D01*
X99716996Y-85922285D01*
X99772676Y-85905395D01*
X99882990Y-85846430D01*
X99979681Y-85767078D01*
X100059033Y-85670387D01*
X100117998Y-85560073D01*
X100154308Y-85440375D01*
X100166568Y-85315893D01*
X100166568Y-84680893D01*
X100154308Y-84556411D01*
X100136593Y-84498013D01*
X100154308Y-84439615D01*
X100166568Y-84315133D01*
X100163496Y-84283383D01*
X100004746Y-84124633D01*
X99834866Y-84124633D01*
X99772676Y-84091391D01*
X99652978Y-84055081D01*
X99528496Y-84042821D01*
X98809996Y-84042821D01*
X98809996Y-83870633D01*
X98829996Y-83870633D01*
X98829996Y-83850633D01*
X99083996Y-83850633D01*
X99083996Y-83870633D01*
X100004746Y-83870633D01*
X100163496Y-83711883D01*
X100166568Y-83680133D01*
X100154308Y-83555651D01*
X100117998Y-83435953D01*
X100059033Y-83325639D01*
X99979681Y-83228948D01*
X99882990Y-83149596D01*
X99772676Y-83090631D01*
X99652978Y-83054321D01*
X99528496Y-83042061D01*
X99242746Y-83045133D01*
X99127151Y-83160728D01*
X99141996Y-83086100D01*
X99141996Y-82921620D01*
X99109907Y-82760300D01*
X99066996Y-82656703D01*
X99066996Y-67028383D01*
X99096963Y-66983534D01*
X99159907Y-66831573D01*
X99191996Y-66670253D01*
X99191996Y-66505773D01*
X99159907Y-66344453D01*
X99096963Y-66192492D01*
X99005583Y-66055732D01*
X98889277Y-65939426D01*
X98752517Y-65848046D01*
X98600556Y-65785102D01*
X98439236Y-65753013D01*
X98274756Y-65753013D01*
X98113436Y-65785102D01*
X97961475Y-65848046D01*
X97824715Y-65939426D01*
X97816996Y-65947145D01*
X97816996Y-60094897D01*
X97889277Y-60046600D01*
X98005583Y-59930294D01*
X98096963Y-59793534D01*
X98159907Y-59641573D01*
X98191996Y-59480253D01*
X98191996Y-59315773D01*
X98159907Y-59154453D01*
X98096963Y-59002492D01*
X98005583Y-58865732D01*
X97889277Y-58749426D01*
X97752517Y-58658046D01*
X97600556Y-58595102D01*
X97439236Y-58563013D01*
X97274756Y-58563013D01*
X97113436Y-58595102D01*
X96961475Y-58658046D01*
X96824715Y-58749426D01*
X96708409Y-58865732D01*
X96617029Y-59002492D01*
X96574117Y-59106091D01*
X96545999Y-59134209D01*
X96516995Y-59158012D01*
X96512194Y-59163863D01*
X96454791Y-58958102D01*
X96319051Y-58894273D01*
X96397538Y-58861763D01*
X96626346Y-58708878D01*
X96820931Y-58514293D01*
X96973816Y-58285485D01*
X97079125Y-58031248D01*
X97132811Y-57761350D01*
X97132811Y-57486166D01*
X97079125Y-57216268D01*
X96973816Y-56962031D01*
X96820931Y-56733223D01*
X96626346Y-56538638D01*
X96397538Y-56385753D01*
X96143301Y-56280444D01*
X95873403Y-56226758D01*
X95821333Y-56226758D01*
X95780310Y-56020523D01*
X95675001Y-55766286D01*
X95522116Y-55537478D01*
X95327531Y-55342893D01*
X95098723Y-55190008D01*
X94844486Y-55084699D01*
X94574588Y-55031013D01*
X94299404Y-55031013D01*
X94029506Y-55084699D01*
X93775269Y-55190008D01*
X93546461Y-55342893D01*
X93351876Y-55537478D01*
X93198991Y-55766286D01*
X93093682Y-56020523D01*
X93039996Y-56290421D01*
X93039996Y-56565605D01*
X93093682Y-56835503D01*
X93198991Y-57089740D01*
X93351876Y-57318548D01*
X93546461Y-57513133D01*
X93775269Y-57666018D01*
X93852511Y-57698013D01*
X93775269Y-57730008D01*
X93546461Y-57882893D01*
X93351876Y-58077478D01*
X93198991Y-58306286D01*
X93093682Y-58560523D01*
X93039996Y-58830421D01*
X93039996Y-59105605D01*
X93093682Y-59375503D01*
X93198991Y-59629740D01*
X93351876Y-59858548D01*
X93546461Y-60053133D01*
X93775269Y-60206018D01*
X93846939Y-60235705D01*
X93833973Y-60240377D01*
X93718016Y-60302357D01*
X93651036Y-60542448D01*
X94436996Y-61328408D01*
X95222956Y-60542448D01*
X95213044Y-60506920D01*
X95556206Y-60163758D01*
X95542064Y-60149616D01*
X95721669Y-59970011D01*
X95735811Y-59984153D01*
X95749954Y-59970011D01*
X95929559Y-60149616D01*
X95915416Y-60163758D01*
X95929559Y-60177901D01*
X95749954Y-60357506D01*
X95735811Y-60343363D01*
X94949851Y-61129323D01*
X94959763Y-61164851D01*
X94616601Y-61508013D01*
X94630744Y-61522156D01*
X94451139Y-61701761D01*
X94436996Y-61687618D01*
X94422854Y-61701761D01*
X94243249Y-61522156D01*
X94257391Y-61508013D01*
X93471431Y-60722053D01*
X93231340Y-60789033D01*
X93114240Y-61038061D01*
X93047973Y-61305148D01*
X93035086Y-61580030D01*
X93076074Y-61852146D01*
X93169360Y-62111036D01*
X93231340Y-62226993D01*
X93471429Y-62293972D01*
X93355019Y-62410382D01*
X93370913Y-62426276D01*
X93351440Y-62450004D01*
X90941992Y-64859454D01*
X90941992Y-53852113D01*
X106191684Y-53852113D01*
X104420999Y-55622799D01*
G37*
G04 #@! TD.AperFunction*
D25*
X112321998Y-62318732D02*
X112243447Y-62100735D01*
X112181467Y-61984778D01*
X111941376Y-61917798D01*
X111155416Y-62703758D01*
X111941376Y-63489718D01*
X112181467Y-63422738D01*
X112298567Y-63173710D01*
X112321998Y-63079273D01*
X112321998Y-64858731D01*
X112243447Y-64640735D01*
X112181467Y-64524778D01*
X111941376Y-64457798D01*
X111155416Y-65243758D01*
X111941376Y-66029718D01*
X112181467Y-65962738D01*
X112298567Y-65713710D01*
X112321998Y-65619273D01*
X112321998Y-67390710D01*
X112319125Y-67376268D01*
X112213816Y-67122031D01*
X112060931Y-66893223D01*
X111866346Y-66698638D01*
X111637538Y-66545753D01*
X111565868Y-66516066D01*
X111578834Y-66511394D01*
X111694791Y-66449414D01*
X111761771Y-66209323D01*
X110975811Y-65423363D01*
X110961669Y-65437506D01*
X110782064Y-65257901D01*
X110796206Y-65243758D01*
X110782064Y-65229616D01*
X110961669Y-65050011D01*
X110975811Y-65064153D01*
X111761771Y-64278193D01*
X111694791Y-64038102D01*
X111564167Y-63976679D01*
X111578834Y-63971394D01*
X111694791Y-63909414D01*
X111761771Y-63669323D01*
X110975811Y-62883363D01*
X110961669Y-62897506D01*
X110782064Y-62717901D01*
X110796206Y-62703758D01*
X110782064Y-62689616D01*
X110961669Y-62510011D01*
X110975811Y-62524153D01*
X111761771Y-61738193D01*
X111694791Y-61498102D01*
X111559051Y-61434273D01*
X111637538Y-61401763D01*
X111866346Y-61248878D01*
X112060931Y-61054293D01*
X112213816Y-60825485D01*
X112319125Y-60571248D01*
X112321998Y-60556805D01*
X112321998Y-62318732D01*
G04 #@! TA.AperFunction,Conductor*
D26*
G36*
X112321998Y-62318732D02*
G01*
X112243447Y-62100735D01*
X112181467Y-61984778D01*
X111941376Y-61917798D01*
X111155416Y-62703758D01*
X111941376Y-63489718D01*
X112181467Y-63422738D01*
X112298567Y-63173710D01*
X112321998Y-63079273D01*
X112321998Y-64858731D01*
X112243447Y-64640735D01*
X112181467Y-64524778D01*
X111941376Y-64457798D01*
X111155416Y-65243758D01*
X111941376Y-66029718D01*
X112181467Y-65962738D01*
X112298567Y-65713710D01*
X112321998Y-65619273D01*
X112321998Y-67390710D01*
X112319125Y-67376268D01*
X112213816Y-67122031D01*
X112060931Y-66893223D01*
X111866346Y-66698638D01*
X111637538Y-66545753D01*
X111565868Y-66516066D01*
X111578834Y-66511394D01*
X111694791Y-66449414D01*
X111761771Y-66209323D01*
X110975811Y-65423363D01*
X110961669Y-65437506D01*
X110782064Y-65257901D01*
X110796206Y-65243758D01*
X110782064Y-65229616D01*
X110961669Y-65050011D01*
X110975811Y-65064153D01*
X111761771Y-64278193D01*
X111694791Y-64038102D01*
X111564167Y-63976679D01*
X111578834Y-63971394D01*
X111694791Y-63909414D01*
X111761771Y-63669323D01*
X110975811Y-62883363D01*
X110961669Y-62897506D01*
X110782064Y-62717901D01*
X110796206Y-62703758D01*
X110782064Y-62689616D01*
X110961669Y-62510011D01*
X110975811Y-62524153D01*
X111761771Y-61738193D01*
X111694791Y-61498102D01*
X111559051Y-61434273D01*
X111637538Y-61401763D01*
X111866346Y-61248878D01*
X112060931Y-61054293D01*
X112213816Y-60825485D01*
X112319125Y-60571248D01*
X112321998Y-60556805D01*
X112321998Y-62318732D01*
G37*
G04 #@! TD.AperFunction*
D25*
X109870744Y-58953871D02*
X109856601Y-58968013D01*
X109870744Y-58982156D01*
X109691139Y-59161761D01*
X109676996Y-59147618D01*
X109662854Y-59161761D01*
X109483249Y-58982156D01*
X109497391Y-58968013D01*
X109483249Y-58953871D01*
X109662854Y-58774266D01*
X109676996Y-58788408D01*
X109691139Y-58774266D01*
X109870744Y-58953871D01*
G04 #@! TA.AperFunction,Conductor*
D26*
G36*
X109870744Y-58953871D02*
G01*
X109856601Y-58968013D01*
X109870744Y-58982156D01*
X109691139Y-59161761D01*
X109676996Y-59147618D01*
X109662854Y-59161761D01*
X109483249Y-58982156D01*
X109497391Y-58968013D01*
X109483249Y-58953871D01*
X109662854Y-58774266D01*
X109676996Y-58788408D01*
X109691139Y-58774266D01*
X109870744Y-58953871D01*
G37*
G04 #@! TD.AperFunction*
M02*
