M48
; DRILL file {KiCad 5.1.9} date Sat Apr 10 12:49:20 2021
; FORMAT={-:-/ absolute / metric / decimal}
; #@! TF.CreationDate,2021-04-10T12:49:20-07:00
; #@! TF.GenerationSoftware,Kicad,Pcbnew,5.1.9
; #@! TF.FileFunction,Plated,1,2,PTH
FMAT,2
METRIC
T1C0.300
T2C0.400
T3C0.813
T4C1.000
T5C1.200
T6C1.300
T7C2.200
%
G90
G05
T1
X97.057Y-83.798
X97.357Y-57.398
X97.756Y-91.26
X98.307Y-81.004
X98.357Y-64.588
X98.957Y-80.998
X99.157Y-58.164
X99.157Y-61.998
X101.209Y-93.51
X102.657Y-63.244
X102.657Y-81.998
X102.836Y-91.26
X103.457Y-67.098
X104.932Y-70.864
X105.257Y-81.998
X105.357Y-81.098
X105.432Y-73.404
X105.957Y-75.944
X106.557Y-77.773
X107.257Y-79.198
X107.585Y-80.27
X107.857Y-64.598
X107.857Y-78.398
X107.957Y-69.898
X107.957Y-57.198
X107.957Y-72.198
X107.957Y-75.098
X107.957Y-77.198
X107.957Y-54.798
X107.957Y-67.398
X108.457Y-93.898
X108.957Y-87.898
X112.557Y-77.298
X114.879Y-109.819
X115.107Y-109.153
X115.307Y-64.653
X115.507Y-60.053
X116.657Y-80.203
X140.107Y-44.053
X157.457Y-41.003
X175.557Y-41.138
X193.357Y-42.423
X211.187Y-46.043
T2
X100.557Y-115.953
X101.04Y-114.786
X101.04Y-117.119
X102.207Y-114.303
X102.207Y-117.603
X103.374Y-114.786
X103.374Y-117.119
X103.857Y-115.953
X117.25Y-95.0
X120.65Y-95.0
X124.1Y-95.0
X127.5Y-95.0
X130.097Y-59.725
X130.097Y-93.725
X130.58Y-58.558
X130.58Y-60.892
X130.58Y-92.558
X130.58Y-94.892
X131.607Y-104.153
X131.607Y-107.553
X131.707Y-45.703
X131.707Y-49.103
X131.707Y-52.053
X131.707Y-55.453
X131.707Y-63.803
X131.707Y-67.203
X131.707Y-70.203
X131.707Y-73.603
X131.707Y-79.953
X131.707Y-83.353
X131.747Y-58.075
X131.747Y-61.375
X131.747Y-92.075
X131.747Y-95.375
X131.807Y-86.253
X131.807Y-89.653
X131.807Y-97.753
X131.807Y-101.153
X132.914Y-58.558
X132.914Y-60.892
X132.914Y-92.558
X132.914Y-94.892
X133.397Y-59.725
X133.397Y-93.725
X149.6Y-60.703
X149.6Y-64.103
X149.707Y-51.803
X149.707Y-55.203
X149.707Y-85.803
X149.707Y-89.203
X149.707Y-94.503
X149.707Y-97.903
X149.707Y-102.703
X149.707Y-106.103
X167.707Y-51.553
X167.707Y-54.953
X167.707Y-60.703
X167.707Y-64.103
X167.707Y-85.803
X167.707Y-89.203
X167.707Y-93.303
X167.707Y-96.703
X167.957Y-102.703
X167.957Y-106.103
X185.707Y-65.203
X185.707Y-68.603
X185.707Y-87.203
X185.707Y-90.603
X185.707Y-94.503
X185.707Y-97.903
X185.707Y-104.203
X185.707Y-107.603
X185.957Y-53.053
X185.957Y-56.453
X202.007Y-97.748
X202.097Y-64.025
X202.49Y-96.581
X202.49Y-98.915
X202.58Y-62.858
X202.58Y-65.192
X203.657Y-96.098
X203.657Y-99.398
X203.707Y-68.703
X203.707Y-72.103
X203.707Y-90.203
X203.707Y-93.603
X203.707Y-102.053
X203.707Y-105.453
X203.732Y-55.703
X203.732Y-59.103
X203.747Y-62.375
X203.747Y-65.675
X204.824Y-96.581
X204.824Y-98.915
X204.914Y-62.858
X204.914Y-65.192
X205.307Y-97.748
X205.397Y-64.025
T3
X94.437Y-54.428
X94.437Y-56.968
X94.437Y-59.508
X94.437Y-62.048
X94.437Y-64.588
X94.437Y-67.128
X94.437Y-69.668
X94.437Y-72.208
X94.437Y-74.748
X94.437Y-77.288
X94.437Y-79.828
X94.437Y-82.368
X95.736Y-55.624
X95.736Y-58.164
X95.736Y-60.704
X95.736Y-63.244
X95.736Y-65.784
X95.736Y-68.324
X95.736Y-70.864
X95.736Y-73.404
X95.736Y-75.944
X95.736Y-78.484
X95.736Y-81.024
X95.736Y-83.564
X98.957Y-87.798
X101.497Y-87.798
X104.037Y-87.798
X106.577Y-87.798
X109.677Y-54.428
X109.677Y-56.968
X109.677Y-59.508
X109.677Y-62.048
X109.677Y-64.588
X109.677Y-67.128
X109.677Y-69.668
X109.677Y-72.208
X109.677Y-74.748
X109.677Y-77.288
X109.677Y-79.828
X109.677Y-82.368
X110.976Y-55.624
X110.976Y-58.164
X110.976Y-60.704
X110.976Y-63.244
X110.976Y-65.784
X110.976Y-68.324
X110.976Y-70.864
X110.976Y-73.404
X110.976Y-75.944
X110.976Y-78.484
X110.976Y-81.024
X110.976Y-83.564
T4
X110.157Y-89.198
X110.157Y-91.798
X110.157Y-94.298
T5
X102.416Y-123.918
X103.097Y-129.298
X107.416Y-132.578
X117.747Y-56.178
X117.747Y-73.178
X117.747Y-90.178
X117.747Y-107.178
X122.747Y-58.278
X122.747Y-75.278
X122.747Y-92.278
X122.747Y-109.278
X126.281Y-127.663
X127.747Y-56.178
X127.747Y-73.178
X127.747Y-90.178
X127.747Y-107.178
X131.654Y-128.397
X135.747Y-53.878
X135.747Y-70.878
X135.747Y-87.878
X135.747Y-104.878
X135.94Y-125.074
X140.747Y-55.978
X140.747Y-72.978
X140.747Y-89.978
X140.747Y-106.978
X145.747Y-53.878
X145.747Y-70.878
X145.747Y-87.878
X145.747Y-104.878
X146.247Y-122.878
X151.247Y-124.978
X153.747Y-52.478
X153.747Y-69.478
X153.747Y-86.478
X153.747Y-103.478
X156.247Y-122.878
X158.747Y-54.578
X158.747Y-71.578
X158.747Y-88.578
X158.747Y-105.578
X163.747Y-52.478
X163.747Y-69.478
X163.747Y-86.478
X163.747Y-103.478
X164.247Y-122.878
X169.247Y-124.978
X171.747Y-53.878
X171.747Y-70.878
X171.747Y-87.878
X171.747Y-104.878
X174.247Y-122.878
X176.747Y-55.978
X176.747Y-72.978
X176.747Y-89.978
X176.747Y-106.978
X181.747Y-53.878
X181.747Y-70.878
X181.747Y-87.878
X181.747Y-104.878
X182.247Y-127.578
X187.247Y-129.678
X189.747Y-58.578
X189.747Y-75.578
X189.747Y-92.578
X189.747Y-109.578
X192.247Y-127.578
X194.747Y-60.678
X194.747Y-77.678
X194.747Y-94.678
X194.747Y-111.678
X199.747Y-58.578
X199.747Y-75.578
X199.747Y-92.578
X199.747Y-109.578
X207.747Y-60.078
X207.747Y-77.078
X207.747Y-94.078
X207.747Y-111.078
X212.747Y-62.178
X212.747Y-79.178
X212.747Y-96.178
X212.747Y-113.178
X217.747Y-60.078
X217.747Y-77.078
X217.747Y-94.078
X217.747Y-111.078
T6
X92.257Y-86.5
X92.257Y-93.0
T7
X93.757Y-106.698
X102.207Y-115.953
X109.257Y-106.698
X131.747Y-59.725
X131.747Y-93.725
X203.657Y-97.748
X203.747Y-64.025
T4
X93.307Y-96.748G85X93.807Y-96.748
G05
X93.307Y-102.698G85X93.807Y-102.698
G05
X96.307Y-96.748G85X96.807Y-96.748
G05
X96.307Y-102.698G85X96.807Y-102.698
G05
X100.307Y-96.748G85X100.807Y-96.748
G05
X100.307Y-102.698G85X100.807Y-102.698
G05
X101.807Y-98.498G85X102.307Y-98.498
G05
X101.807Y-100.948G85X102.307Y-100.948
G05
T0
M30
