G04 #@! TF.GenerationSoftware,KiCad,Pcbnew,5.1.9*
G04 #@! TF.CreationDate,2021-04-10T12:49:15-07:00*
G04 #@! TF.ProjectId,SofleKeyboard,536f666c-654b-4657-9962-6f6172642e6b,rev?*
G04 #@! TF.SameCoordinates,Original*
G04 #@! TF.FileFunction,Soldermask,Bot*
G04 #@! TF.FilePolarity,Negative*
%FSLAX46Y46*%
G04 Gerber Fmt 4.6, Leading zero omitted, Abs format (unit mm)*
G04 Created by KiCad (PCBNEW 5.1.9) date 2021-04-10 12:49:15*
%MOMM*%
%LPD*%
G01*
G04 APERTURE LIST*
%ADD10C,4.000000*%
%ADD11R,1.143000X0.635000*%
%ADD12C,1.524000*%
%ADD13C,2.000000*%
%ADD14C,1.397000*%
%ADD15R,1.524000X1.524000*%
%ADD16O,2.500000X1.700000*%
%ADD17C,1.200000*%
%ADD18C,0.700000*%
%ADD19C,4.400000*%
%ADD20R,1.500000X1.800000*%
%ADD21R,1.800000X1.500000*%
G04 APERTURE END LIST*
D10*
X93756996Y-106698013D03*
X109256996Y-106698013D03*
D11*
X106556996Y-82998393D03*
X106556996Y-81997633D03*
D12*
X109676996Y-54428013D03*
X109676996Y-56968013D03*
X109676996Y-59508013D03*
X109676996Y-62048013D03*
X109676996Y-64588013D03*
X109676996Y-67128013D03*
X109676996Y-69668013D03*
X109676996Y-72208013D03*
X109676996Y-74748013D03*
X109676996Y-77288013D03*
X109676996Y-79828013D03*
X109676996Y-82368013D03*
X94436996Y-82368013D03*
X94436996Y-79828013D03*
X94436996Y-77288013D03*
X94436996Y-74748013D03*
X94436996Y-72208013D03*
X94436996Y-69668013D03*
X94436996Y-67128013D03*
X94436996Y-64588013D03*
X94436996Y-62048013D03*
X94436996Y-59508013D03*
X94436996Y-56968013D03*
X94436996Y-54428013D03*
X110975811Y-65783758D03*
X110975811Y-70863758D03*
X95735811Y-55623758D03*
X110975811Y-58163758D03*
X110975811Y-81023758D03*
X95735811Y-83563758D03*
X110975811Y-73403758D03*
X110975811Y-75943758D03*
X95735811Y-73403758D03*
X95735811Y-78483758D03*
X95735811Y-65783758D03*
X95735811Y-63243758D03*
X95735811Y-58163758D03*
X95735811Y-68323758D03*
X110975811Y-83563758D03*
X95735811Y-75943758D03*
X110975811Y-55623758D03*
X110975811Y-60703758D03*
X95735811Y-81023758D03*
X110975811Y-63243758D03*
X110975811Y-68323758D03*
X95735811Y-70863758D03*
X110975811Y-78483758D03*
X95735811Y-60703758D03*
D13*
X92256996Y-86500000D03*
X92256996Y-93000000D03*
D11*
X103956996Y-82998393D03*
X103956996Y-81997633D03*
D14*
X98956996Y-87798013D03*
X101496996Y-87798013D03*
X104036996Y-87798013D03*
X106576996Y-87798013D03*
D15*
X110156996Y-89198013D03*
X110156996Y-91798013D03*
X110156996Y-94298013D03*
D11*
X98956996Y-82998393D03*
X98956996Y-81997633D03*
X101456996Y-82998393D03*
X101456996Y-81997633D03*
D16*
X102056996Y-100948013D03*
X100556996Y-96748013D03*
X96556996Y-96748013D03*
X93556996Y-96748013D03*
D17*
X98756996Y-98848013D03*
X91756996Y-98848013D03*
D16*
X96556996Y-102698013D03*
X93556996Y-102698013D03*
X102056996Y-98498013D03*
X100556996Y-102698013D03*
D17*
X91756996Y-100598013D03*
X98756996Y-100598013D03*
D13*
X127747000Y-56178100D03*
X122747000Y-58278100D03*
X117747000Y-56178100D03*
D18*
X204823722Y-96581287D03*
X203656996Y-96098013D03*
X202490270Y-96581287D03*
X202006996Y-97748013D03*
X202490270Y-98914739D03*
X203656996Y-99398013D03*
X204823722Y-98914739D03*
X205306996Y-97748013D03*
D19*
X203656996Y-97748013D03*
D18*
X204913722Y-62858386D03*
X203746996Y-62375112D03*
X202580270Y-62858386D03*
X202096996Y-64025112D03*
X202580270Y-65191838D03*
X203746996Y-65675112D03*
X204913722Y-65191838D03*
X205396996Y-64025112D03*
D19*
X203746996Y-64025112D03*
D13*
X127747000Y-90178100D03*
X122747000Y-92278100D03*
X117747000Y-90178100D03*
X163747000Y-103478100D03*
X158747000Y-105578100D03*
X153747000Y-103478100D03*
X217747000Y-77078100D03*
X212747000Y-79178100D03*
X207747000Y-77078100D03*
X199747000Y-109578100D03*
X194747000Y-111678100D03*
X189747000Y-109578100D03*
X181747000Y-53878100D03*
X176747000Y-55978100D03*
X171747000Y-53878100D03*
X199747000Y-92578100D03*
X194747000Y-94678100D03*
X189747000Y-92578100D03*
D18*
X101040266Y-114785996D03*
X100556992Y-115952722D03*
X101040266Y-117119448D03*
X102206992Y-117602722D03*
X103373718Y-117119448D03*
X103856992Y-115952722D03*
X103373718Y-114785996D03*
X102206992Y-114302722D03*
D19*
X102206992Y-115952722D03*
D13*
X145747000Y-87878100D03*
X140747000Y-89978100D03*
X135747000Y-87878100D03*
X181747000Y-70878100D03*
X176747000Y-72978100D03*
X171747000Y-70878100D03*
X145747000Y-70878100D03*
X140747000Y-72978100D03*
X135747000Y-70878100D03*
X181747000Y-104878100D03*
X176747000Y-106978100D03*
X171747000Y-104878100D03*
X217747000Y-94078100D03*
X212747000Y-96178100D03*
X207747000Y-94078100D03*
X163747000Y-86478100D03*
X158747000Y-88578100D03*
X153747000Y-86478100D03*
X163747000Y-69478100D03*
X158747000Y-71578100D03*
X153747000Y-69478100D03*
X199747000Y-75578100D03*
X194747000Y-77678100D03*
X189747000Y-75578100D03*
X145747000Y-53878100D03*
X140747000Y-55978100D03*
X135747000Y-53878100D03*
X107416099Y-132578140D03*
X103097446Y-129298013D03*
X102416099Y-123917886D03*
X192247000Y-127578100D03*
X187247000Y-129678100D03*
X182247000Y-127578100D03*
X217747000Y-60078100D03*
X212747000Y-62178100D03*
X207747000Y-60078100D03*
X217747000Y-111078100D03*
X212747000Y-113178100D03*
X207747000Y-111078100D03*
X181747000Y-87878100D03*
X176747000Y-89978100D03*
X171747000Y-87878100D03*
X145747000Y-104878100D03*
X140747000Y-106978100D03*
X135747000Y-104878100D03*
D18*
X132913722Y-92558387D03*
X131746996Y-92075113D03*
X130580270Y-92558387D03*
X130096996Y-93725113D03*
X130580270Y-94891839D03*
X131746996Y-95375113D03*
X132913722Y-94891839D03*
X133396996Y-93725113D03*
D19*
X131746996Y-93725113D03*
D13*
X127747000Y-107178100D03*
X122747000Y-109278100D03*
X117747000Y-107178100D03*
X199747000Y-58578100D03*
X194747000Y-60678100D03*
X189747000Y-58578100D03*
X135940142Y-125074423D03*
X131654032Y-128396962D03*
X126280883Y-127662613D03*
X156247000Y-122878100D03*
X151247000Y-124978100D03*
X146247000Y-122878100D03*
X174247000Y-122878100D03*
X169247000Y-124978100D03*
X164247000Y-122878100D03*
X127747000Y-73178100D03*
X122747000Y-75278100D03*
X117747000Y-73178100D03*
X163747000Y-52478100D03*
X158747000Y-54578100D03*
X153747000Y-52478100D03*
D18*
X132913722Y-58558387D03*
X131746996Y-58075113D03*
X130580270Y-58558387D03*
X130096996Y-59725113D03*
X130580270Y-60891839D03*
X131746996Y-61375113D03*
X132913722Y-60891839D03*
X133396996Y-59725113D03*
D19*
X131746996Y-59725113D03*
D20*
X167956992Y-102702722D03*
X167956992Y-106102722D03*
X149706992Y-102702722D03*
X149706992Y-106102722D03*
X131606992Y-104152722D03*
X131606992Y-107552722D03*
D21*
X117250000Y-95000000D03*
X120650000Y-95000000D03*
D20*
X203706992Y-105452722D03*
X203706992Y-102052722D03*
X185706992Y-97902722D03*
X185706992Y-94502722D03*
X167706992Y-96702722D03*
X167706992Y-93302722D03*
X149706992Y-97902722D03*
X149706992Y-94502722D03*
X131806992Y-101152722D03*
X131806992Y-97752722D03*
D21*
X127500000Y-95000000D03*
X124100000Y-95000000D03*
D20*
X203706992Y-90202722D03*
X203706992Y-93602722D03*
X185706992Y-87202722D03*
X185706992Y-90602722D03*
X167706992Y-85802722D03*
X167706992Y-89202722D03*
X149706992Y-85802722D03*
X149706992Y-89202722D03*
X131706992Y-79952722D03*
X131706992Y-83352722D03*
X131806992Y-86252722D03*
X131806992Y-89652722D03*
X203706992Y-72102722D03*
X203706992Y-68702722D03*
X185706992Y-68602722D03*
X185706992Y-65202722D03*
X167706992Y-64102722D03*
X167706992Y-60702722D03*
X149600000Y-64102722D03*
X149600000Y-60702722D03*
X131706992Y-73602722D03*
X131706992Y-70202722D03*
X131706992Y-67202722D03*
X131706992Y-63802722D03*
X203731992Y-55702722D03*
X203731992Y-59102722D03*
X185956992Y-53052722D03*
X185956992Y-56452722D03*
X167706992Y-51552722D03*
X167706992Y-54952722D03*
X149706992Y-51802722D03*
X149706992Y-55202722D03*
X131706992Y-52052722D03*
X131706992Y-55452722D03*
X131706992Y-45702722D03*
X131706992Y-49102722D03*
X185706992Y-104202722D03*
X185706992Y-107602722D03*
M02*
