G04 #@! TF.GenerationSoftware,KiCad,Pcbnew,5.1.9*
G04 #@! TF.CreationDate,2021-04-09T21:29:26-07:00*
G04 #@! TF.ProjectId,SofleKeyboard,536f666c-654b-4657-9962-6f6172642e6b,rev?*
G04 #@! TF.SameCoordinates,Original*
G04 #@! TF.FileFunction,Copper,L1,Top*
G04 #@! TF.FilePolarity,Positive*
%FSLAX46Y46*%
G04 Gerber Fmt 4.6, Leading zero omitted, Abs format (unit mm)*
G04 Created by KiCad (PCBNEW 5.1.9) date 2021-04-09 21:29:26*
%MOMM*%
%LPD*%
G01*
G04 APERTURE LIST*
G04 #@! TA.AperFunction,SMDPad,CuDef*
%ADD10R,1.143000X0.635000*%
G04 #@! TD*
G04 #@! TA.AperFunction,ComponentPad*
%ADD11C,4.000000*%
G04 #@! TD*
G04 #@! TA.AperFunction,ComponentPad*
%ADD12C,1.524000*%
G04 #@! TD*
G04 #@! TA.AperFunction,ComponentPad*
%ADD13C,2.000000*%
G04 #@! TD*
G04 #@! TA.AperFunction,ComponentPad*
%ADD14C,1.397000*%
G04 #@! TD*
G04 #@! TA.AperFunction,ComponentPad*
%ADD15R,1.524000X1.524000*%
G04 #@! TD*
G04 #@! TA.AperFunction,ComponentPad*
%ADD16O,2.500000X1.700000*%
G04 #@! TD*
G04 #@! TA.AperFunction,ComponentPad*
%ADD17C,0.700000*%
G04 #@! TD*
G04 #@! TA.AperFunction,ComponentPad*
%ADD18C,4.400000*%
G04 #@! TD*
G04 #@! TA.AperFunction,ComponentPad*
%ADD19R,1.500000X1.800000*%
G04 #@! TD*
G04 #@! TA.AperFunction,ComponentPad*
%ADD20C,0.100000*%
G04 #@! TD*
G04 #@! TA.AperFunction,ComponentPad*
%ADD21R,1.800000X1.500000*%
G04 #@! TD*
G04 #@! TA.AperFunction,ViaPad*
%ADD22C,0.400000*%
G04 #@! TD*
G04 #@! TA.AperFunction,Conductor*
%ADD23C,0.250000*%
G04 #@! TD*
G04 #@! TA.AperFunction,Conductor*
%ADD24C,0.500000*%
G04 #@! TD*
G04 #@! TA.AperFunction,Conductor*
%ADD25C,0.254000*%
G04 #@! TD*
G04 #@! TA.AperFunction,Conductor*
%ADD26C,0.100000*%
G04 #@! TD*
G04 APERTURE END LIST*
D10*
X103746996Y-94725113D03*
X103746996Y-95725873D03*
X106496996Y-94725113D03*
X106496996Y-95725873D03*
X96500000Y-95500000D03*
X96500000Y-96500760D03*
D11*
X93756996Y-108698013D03*
X109256996Y-108698013D03*
G04 #@! TA.AperFunction,SMDPad,CuDef*
G36*
G01*
X98896268Y-95747478D02*
X98896268Y-95272478D01*
G75*
G02*
X99133768Y-95034978I237500J0D01*
G01*
X99633768Y-95034978D01*
G75*
G02*
X99871268Y-95272478I0J-237500D01*
G01*
X99871268Y-95747478D01*
G75*
G02*
X99633768Y-95984978I-237500J0D01*
G01*
X99133768Y-95984978D01*
G75*
G02*
X98896268Y-95747478I0J237500D01*
G01*
G37*
G04 #@! TD.AperFunction*
G04 #@! TA.AperFunction,SMDPad,CuDef*
G36*
G01*
X100721268Y-95747478D02*
X100721268Y-95272478D01*
G75*
G02*
X100958768Y-95034978I237500J0D01*
G01*
X101458768Y-95034978D01*
G75*
G02*
X101696268Y-95272478I0J-237500D01*
G01*
X101696268Y-95747478D01*
G75*
G02*
X101458768Y-95984978I-237500J0D01*
G01*
X100958768Y-95984978D01*
G75*
G02*
X100721268Y-95747478I0J237500D01*
G01*
G37*
G04 #@! TD.AperFunction*
D12*
X109676996Y-56428013D03*
X109676996Y-58968013D03*
X109676996Y-61508013D03*
X109676996Y-64048013D03*
X109676996Y-66588013D03*
X109676996Y-69128013D03*
X109676996Y-71668013D03*
X109676996Y-74208013D03*
X109676996Y-76748013D03*
X109676996Y-79288013D03*
X109676996Y-81828013D03*
X109676996Y-84368013D03*
X94436996Y-84368013D03*
X94436996Y-81828013D03*
X94436996Y-79288013D03*
X94436996Y-76748013D03*
X94436996Y-74208013D03*
X94436996Y-71668013D03*
X94436996Y-69128013D03*
X94436996Y-66588013D03*
X94436996Y-64048013D03*
X94436996Y-61508013D03*
X94436996Y-58968013D03*
X94436996Y-56428013D03*
X110975811Y-67783758D03*
X110975811Y-72863758D03*
X95735811Y-57623758D03*
X110975811Y-60163758D03*
X110975811Y-83023758D03*
X95735811Y-85563758D03*
X110975811Y-75403758D03*
X110975811Y-77943758D03*
X95735811Y-75403758D03*
X95735811Y-80483758D03*
X95735811Y-67783758D03*
X95735811Y-65243758D03*
X95735811Y-60163758D03*
X95735811Y-70323758D03*
X110975811Y-85563758D03*
X95735811Y-77943758D03*
X110975811Y-57623758D03*
X110975811Y-62703758D03*
X95735811Y-83023758D03*
X110975811Y-65243758D03*
X110975811Y-70323758D03*
X95735811Y-72863758D03*
X110975811Y-80483758D03*
X95735811Y-62703758D03*
D13*
X92256996Y-88500000D03*
X92256996Y-95000000D03*
D10*
X101456996Y-84998393D03*
X101456996Y-83997633D03*
D14*
X98956996Y-89798013D03*
X101496996Y-89798013D03*
X104036996Y-89798013D03*
X106576996Y-89798013D03*
D15*
X110156996Y-91198013D03*
X110156996Y-93798013D03*
X110156996Y-96298013D03*
D10*
X98956996Y-84998393D03*
X98956996Y-83997633D03*
X106556996Y-84998393D03*
X106556996Y-83997633D03*
X103956996Y-84998393D03*
X103956996Y-83997633D03*
D16*
X102056996Y-102948013D03*
X100556996Y-98748013D03*
X96556996Y-98748013D03*
X93556996Y-98748013D03*
X96556996Y-104698013D03*
X93556996Y-104698013D03*
X102056996Y-100498013D03*
X100556996Y-104698013D03*
G04 #@! TA.AperFunction,SMDPad,CuDef*
G36*
G01*
X98896268Y-93497478D02*
X98896268Y-93022478D01*
G75*
G02*
X99133768Y-92784978I237500J0D01*
G01*
X99633768Y-92784978D01*
G75*
G02*
X99871268Y-93022478I0J-237500D01*
G01*
X99871268Y-93497478D01*
G75*
G02*
X99633768Y-93734978I-237500J0D01*
G01*
X99133768Y-93734978D01*
G75*
G02*
X98896268Y-93497478I0J237500D01*
G01*
G37*
G04 #@! TD.AperFunction*
G04 #@! TA.AperFunction,SMDPad,CuDef*
G36*
G01*
X100721268Y-93497478D02*
X100721268Y-93022478D01*
G75*
G02*
X100958768Y-92784978I237500J0D01*
G01*
X101458768Y-92784978D01*
G75*
G02*
X101696268Y-93022478I0J-237500D01*
G01*
X101696268Y-93497478D01*
G75*
G02*
X101458768Y-93734978I-237500J0D01*
G01*
X100958768Y-93734978D01*
G75*
G02*
X100721268Y-93497478I0J237500D01*
G01*
G37*
G04 #@! TD.AperFunction*
D13*
X127747000Y-56178100D03*
X122747000Y-58278100D03*
X117747000Y-56178100D03*
D17*
X204823722Y-96581287D03*
X203656996Y-96098013D03*
X202490270Y-96581287D03*
X202006996Y-97748013D03*
X202490270Y-98914739D03*
X203656996Y-99398013D03*
X204823722Y-98914739D03*
X205306996Y-97748013D03*
D18*
X203656996Y-97748013D03*
D17*
X204913722Y-62858386D03*
X203746996Y-62375112D03*
X202580270Y-62858386D03*
X202096996Y-64025112D03*
X202580270Y-65191838D03*
X203746996Y-65675112D03*
X204913722Y-65191838D03*
X205396996Y-64025112D03*
D18*
X203746996Y-64025112D03*
D13*
X127747000Y-90178100D03*
X122747000Y-92278100D03*
X117747000Y-90178100D03*
X163747000Y-103478100D03*
X158747000Y-105578100D03*
X153747000Y-103478100D03*
X217747000Y-77078100D03*
X212747000Y-79178100D03*
X207747000Y-77078100D03*
X199747000Y-109578100D03*
X194747000Y-111678100D03*
X189747000Y-109578100D03*
X181747000Y-53878100D03*
X176747000Y-55978100D03*
X171747000Y-53878100D03*
X199747000Y-92578100D03*
X194747000Y-94678100D03*
X189747000Y-92578100D03*
D17*
X101040266Y-114785996D03*
X100556992Y-115952722D03*
X101040266Y-117119448D03*
X102206992Y-117602722D03*
X103373718Y-117119448D03*
X103856992Y-115952722D03*
X103373718Y-114785996D03*
X102206992Y-114302722D03*
D18*
X102206992Y-115952722D03*
D13*
X145747000Y-87878100D03*
X140747000Y-89978100D03*
X135747000Y-87878100D03*
X181747000Y-70878100D03*
X176747000Y-72978100D03*
X171747000Y-70878100D03*
X145747000Y-70878100D03*
X140747000Y-72978100D03*
X135747000Y-70878100D03*
X181747000Y-104878100D03*
X176747000Y-106978100D03*
X171747000Y-104878100D03*
X217747000Y-94078100D03*
X212747000Y-96178100D03*
X207747000Y-94078100D03*
X163747000Y-86478100D03*
X158747000Y-88578100D03*
X153747000Y-86478100D03*
X163747000Y-69478100D03*
X158747000Y-71578100D03*
X153747000Y-69478100D03*
X199747000Y-75578100D03*
X194747000Y-77678100D03*
X189747000Y-75578100D03*
X145747000Y-53878100D03*
X140747000Y-55978100D03*
X135747000Y-53878100D03*
X114437123Y-127138910D03*
X111156996Y-131457563D03*
X105776869Y-132138910D03*
X192247000Y-127578100D03*
X187247000Y-129678100D03*
X182247000Y-127578100D03*
X217747000Y-60078100D03*
X212747000Y-62178100D03*
X207747000Y-60078100D03*
X217747000Y-111078100D03*
X212747000Y-113178100D03*
X207747000Y-111078100D03*
X181747000Y-87878100D03*
X176747000Y-89978100D03*
X171747000Y-87878100D03*
X145747000Y-104878100D03*
X140747000Y-106978100D03*
X135747000Y-104878100D03*
D17*
X132913722Y-92558387D03*
X131746996Y-92075113D03*
X130580270Y-92558387D03*
X130096996Y-93725113D03*
X130580270Y-94891839D03*
X131746996Y-95375113D03*
X132913722Y-94891839D03*
X133396996Y-93725113D03*
D18*
X131746996Y-93725113D03*
D13*
X127747000Y-107178100D03*
X122747000Y-109278100D03*
X117747000Y-107178100D03*
X199747000Y-58578100D03*
X194747000Y-60678100D03*
X189747000Y-58578100D03*
X135940142Y-125074423D03*
X131654032Y-128396962D03*
X126280883Y-127662613D03*
X156247000Y-122878100D03*
X151247000Y-124978100D03*
X146247000Y-122878100D03*
X174247000Y-122878100D03*
X169247000Y-124978100D03*
X164247000Y-122878100D03*
X127747000Y-73178100D03*
X122747000Y-75278100D03*
X117747000Y-73178100D03*
X163747000Y-52478100D03*
X158747000Y-54578100D03*
X153747000Y-52478100D03*
D17*
X132913722Y-58558387D03*
X131746996Y-58075113D03*
X130580270Y-58558387D03*
X130096996Y-59725113D03*
X130580270Y-60891839D03*
X131746996Y-61375113D03*
X132913722Y-60891839D03*
X133396996Y-59725113D03*
D18*
X131746996Y-59725113D03*
D19*
X167956992Y-102702722D03*
X167956992Y-106102722D03*
X149706992Y-102702722D03*
X149706992Y-106102722D03*
X131606992Y-104152722D03*
X131606992Y-107552722D03*
G04 #@! TA.AperFunction,ComponentPad*
D20*
G36*
X116857477Y-121688076D02*
G01*
X118156515Y-120938076D01*
X119056515Y-122496922D01*
X117757477Y-123246922D01*
X116857477Y-121688076D01*
G37*
G04 #@! TD.AperFunction*
G04 #@! TA.AperFunction,ComponentPad*
G36*
X115157477Y-118743590D02*
G01*
X116456515Y-117993590D01*
X117356515Y-119552436D01*
X116057477Y-120302436D01*
X115157477Y-118743590D01*
G37*
G04 #@! TD.AperFunction*
D19*
X203706992Y-105452722D03*
X203706992Y-102052722D03*
X185706992Y-97902722D03*
X185706992Y-94502722D03*
X167706992Y-96702722D03*
X167706992Y-93302722D03*
X149706992Y-97902722D03*
X149706992Y-94502722D03*
X131806992Y-101152722D03*
X131806992Y-97752722D03*
D21*
X121606992Y-94952722D03*
X118206992Y-94952722D03*
D19*
X203706992Y-90202722D03*
X203706992Y-93602722D03*
X185706992Y-87202722D03*
X185706992Y-90602722D03*
X167706992Y-85802722D03*
X167706992Y-89202722D03*
X149706992Y-85802722D03*
X149706992Y-89202722D03*
X131706992Y-79952722D03*
X131706992Y-83352722D03*
X131806992Y-86252722D03*
X131806992Y-89652722D03*
X203706992Y-72102722D03*
X203706992Y-68702722D03*
X185706992Y-68602722D03*
X185706992Y-65202722D03*
X167706992Y-64102722D03*
X167706992Y-60702722D03*
X149600000Y-64102722D03*
X149600000Y-60702722D03*
X131706992Y-73602722D03*
X131706992Y-70202722D03*
X131706992Y-67202722D03*
X131706992Y-63802722D03*
X203731992Y-55702722D03*
X203731992Y-59102722D03*
X185956992Y-53052722D03*
X185956992Y-56452722D03*
X167706992Y-51552722D03*
X167706992Y-54952722D03*
X149706992Y-51802722D03*
X149706992Y-55202722D03*
X131706992Y-52052722D03*
X131706992Y-55452722D03*
X131706992Y-45702722D03*
X131706992Y-49102722D03*
X185706992Y-104202722D03*
X185706992Y-107602722D03*
D22*
X107584829Y-82270182D03*
X115106992Y-109152722D03*
X107956996Y-74198013D03*
X115506992Y-60052722D03*
X107956996Y-77098013D03*
X115306992Y-64652722D03*
X107956996Y-79198013D03*
X116656992Y-80202722D03*
X107856996Y-80398013D03*
X102656996Y-65243758D03*
X102657004Y-83998013D03*
X108456996Y-95898013D03*
X97756268Y-93259978D03*
X98956996Y-82998013D03*
X99156996Y-60163758D03*
X99156996Y-63998013D03*
X108956996Y-89898013D03*
X104931996Y-72863758D03*
X211186992Y-46042722D03*
X105431996Y-75403758D03*
X193356992Y-42422722D03*
X105956996Y-77943758D03*
X175556992Y-41137732D03*
X106556996Y-79773013D03*
X157456992Y-41002722D03*
X107256996Y-81198013D03*
X140106992Y-44052722D03*
X107856996Y-66598013D03*
X98306996Y-83003860D03*
X98356996Y-66588013D03*
X105356996Y-83098013D03*
X101208768Y-95509978D03*
X107957002Y-56798013D03*
X107957014Y-69398013D03*
X103456996Y-69098013D03*
X105256996Y-83998013D03*
X102836268Y-93259978D03*
X107956988Y-71898013D03*
X97356996Y-59398013D03*
X107956996Y-59198013D03*
X97056996Y-85798013D03*
X112556996Y-79298013D03*
D23*
X129422001Y-54503099D02*
X127747000Y-56178100D01*
X129422001Y-47987713D02*
X129422001Y-54503099D01*
X131706992Y-45702722D02*
X129422001Y-47987713D01*
X106512682Y-81198035D02*
X107584829Y-82270182D01*
X97056996Y-83398013D02*
X97056996Y-82338983D01*
X97056996Y-82338983D02*
X98197944Y-81198035D01*
X98197944Y-81198035D02*
X106512682Y-81198035D01*
X94436996Y-84368013D02*
X96086996Y-84368013D01*
X96086996Y-84368013D02*
X97056996Y-83398013D01*
X115106992Y-89694939D02*
X110975811Y-85563758D01*
X115106992Y-109152722D02*
X115106992Y-89694939D01*
X133921622Y-52052722D02*
X135747000Y-53878100D01*
X131706992Y-52052722D02*
X133921622Y-52052722D01*
X153071622Y-51802722D02*
X153747000Y-52478100D01*
X149706992Y-51802722D02*
X153071622Y-51802722D01*
X107946996Y-74208013D02*
X107956996Y-74198013D01*
X94436996Y-74208013D02*
X107946996Y-74208013D01*
X115506992Y-60052722D02*
X113256992Y-60052722D01*
X113256992Y-60052722D02*
X112456992Y-60852722D01*
X112456992Y-73922577D02*
X110975811Y-75403758D01*
X112456992Y-60852722D02*
X112456992Y-73922577D01*
X169421622Y-51552722D02*
X171747000Y-53878100D01*
X167706992Y-51552722D02*
X169421622Y-51552722D01*
X107506996Y-76648013D02*
X107956996Y-77098013D01*
X94486996Y-76648013D02*
X107506996Y-76648013D01*
X112621556Y-76298013D02*
X110975811Y-77943758D01*
X115306992Y-64652722D02*
X112907002Y-67052712D01*
X112907002Y-76012567D02*
X110975811Y-77943758D01*
X112907002Y-67052712D02*
X112907002Y-76012567D01*
X189747000Y-57992730D02*
X189747000Y-58578100D01*
X185956992Y-54202722D02*
X189747000Y-57992730D01*
X185956992Y-53052722D02*
X185956992Y-54202722D01*
X94436996Y-79288013D02*
X96162751Y-79288013D01*
X96162751Y-79288013D02*
X96252751Y-79198013D01*
X96252751Y-79198013D02*
X107956996Y-79198013D01*
X111256847Y-80202722D02*
X110975811Y-80483758D01*
X116656992Y-80202722D02*
X111256847Y-80202722D01*
X203731992Y-56063092D02*
X207747000Y-60078100D01*
X203731992Y-55702722D02*
X203731992Y-56063092D01*
X107756996Y-80298013D02*
X107856996Y-80398013D01*
X97756996Y-80298013D02*
X107756996Y-80298013D01*
X96226996Y-81828013D02*
X97756996Y-80298013D01*
X94436996Y-81828013D02*
X96226996Y-81828013D01*
X118206992Y-94952722D02*
X117007002Y-94952722D01*
X115557002Y-93502722D02*
X115557001Y-89508538D01*
X117007002Y-94952722D02*
X115557002Y-93502722D01*
X115557001Y-89508538D02*
X112604088Y-86555625D01*
X112604088Y-84652035D02*
X110975811Y-83023758D01*
X112604088Y-86555625D02*
X112604088Y-84652035D01*
X131706992Y-67803895D02*
X131706992Y-67202722D01*
X127747000Y-71763887D02*
X131706992Y-67803895D01*
X127747000Y-73178100D02*
X127747000Y-71763887D01*
X133022378Y-73602722D02*
X135747000Y-70878100D01*
X131706992Y-73602722D02*
X133022378Y-73602722D01*
X149600000Y-65331100D02*
X153747000Y-69478100D01*
X149600000Y-64102722D02*
X149600000Y-65331100D01*
X167706992Y-66838092D02*
X167706992Y-64102722D01*
X171747000Y-70878100D02*
X167706992Y-66838092D01*
X185706992Y-71538092D02*
X189747000Y-75578100D01*
X185706992Y-68602722D02*
X185706992Y-71538092D01*
X203706992Y-73038092D02*
X207747000Y-77078100D01*
X203706992Y-72102722D02*
X203706992Y-73038092D01*
X131672378Y-86252722D02*
X131806992Y-86252722D01*
X127747000Y-90178100D02*
X131672378Y-86252722D01*
X132781993Y-81027723D02*
X131706992Y-79952722D01*
X132781993Y-84913093D02*
X132781993Y-81027723D01*
X135747000Y-87878100D02*
X132781993Y-84913093D01*
X150382370Y-86478100D02*
X149706992Y-85802722D01*
X153747000Y-86478100D02*
X150382370Y-86478100D01*
X169782370Y-87878100D02*
X167706992Y-85802722D01*
X171747000Y-87878100D02*
X169782370Y-87878100D01*
X189747000Y-91242730D02*
X185706992Y-87202722D01*
X189747000Y-92578100D02*
X189747000Y-91242730D01*
X203871622Y-90202722D02*
X203706992Y-90202722D01*
X207747000Y-94078100D02*
X203871622Y-90202722D01*
X120721999Y-104203101D02*
X117747000Y-107178100D01*
X120721999Y-95837715D02*
X120721999Y-104203101D01*
X121606992Y-94952722D02*
X120721999Y-95837715D01*
X132021622Y-101152722D02*
X135747000Y-104878100D01*
X131806992Y-101152722D02*
X132021622Y-101152722D01*
X149706992Y-99438092D02*
X153747000Y-103478100D01*
X149706992Y-97902722D02*
X149706992Y-99438092D01*
X171747000Y-103317102D02*
X171747000Y-104878100D01*
X167706992Y-99277094D02*
X171747000Y-103317102D01*
X167706992Y-96702722D02*
X167706992Y-99277094D01*
X188071999Y-107903099D02*
X189747000Y-109578100D01*
X188071999Y-100267729D02*
X188071999Y-107903099D01*
X185706992Y-97902722D02*
X188071999Y-100267729D01*
X203706992Y-107038092D02*
X207747000Y-111078100D01*
X203706992Y-105452722D02*
X203706992Y-107038092D01*
X126280883Y-123547115D02*
X126280883Y-127662613D01*
X133157092Y-116670906D02*
X126280883Y-123547115D01*
X133157092Y-106867820D02*
X133157092Y-116670906D01*
X131606992Y-105317720D02*
X133157092Y-106867820D01*
X131606992Y-104152722D02*
X131606992Y-105317720D01*
X146952001Y-122173099D02*
X146247000Y-122878100D01*
X149706992Y-103852722D02*
X146952001Y-106607713D01*
X146952001Y-106607713D02*
X146952001Y-122173099D01*
X149706992Y-102702722D02*
X149706992Y-103852722D01*
D24*
X99734813Y-93259978D02*
X97756268Y-93259978D01*
X108056996Y-95498013D02*
X108456996Y-95898013D01*
X102657004Y-83998013D02*
X102657004Y-90337787D01*
X102657384Y-83997633D02*
X102657004Y-83998013D01*
X109676996Y-64048013D02*
X108481251Y-65243758D01*
X95681556Y-65298013D02*
X95735811Y-65243758D01*
X102657004Y-83998013D02*
X102756996Y-84098005D01*
X103956996Y-83997633D02*
X102657384Y-83997633D01*
X102656996Y-65243758D02*
X95735811Y-65243758D01*
X102657004Y-90337787D02*
X104017230Y-91698013D01*
X104017230Y-91698013D02*
X108056996Y-91698013D01*
X102657004Y-90337787D02*
X99734813Y-93259978D01*
X108481251Y-65243758D02*
X102656996Y-65243758D01*
X108056996Y-91698013D02*
X108056996Y-95498013D01*
X102657004Y-83998013D02*
X102888495Y-84229504D01*
X100356986Y-104498003D02*
X100556996Y-104698013D01*
X99383768Y-95509978D02*
X99383768Y-93259978D01*
X99731952Y-82223057D02*
X105482038Y-82223057D01*
X94486996Y-63998013D02*
X99156996Y-63998013D01*
X94436996Y-64048013D02*
X94486996Y-63998013D01*
X105482038Y-82223057D02*
X106556996Y-83298015D01*
X106556996Y-83298015D02*
X106556996Y-83997633D01*
X98956996Y-82998013D02*
X99731952Y-82223057D01*
X95735811Y-60163758D02*
X99156996Y-60163758D01*
X107933234Y-63998013D02*
X109133234Y-62798013D01*
X99156996Y-60163758D02*
X108481251Y-60163758D01*
X94436996Y-64048013D02*
X94436996Y-61508013D01*
X106556996Y-83997633D02*
X107255238Y-83997633D01*
X110975811Y-62703758D02*
X110975811Y-65243758D01*
X107933234Y-63998013D02*
X99156996Y-63998013D01*
X109133234Y-62798013D02*
X110956996Y-62798013D01*
X93926996Y-60998013D02*
X94436996Y-61508013D01*
X108481251Y-60163758D02*
X109676996Y-58968013D01*
X108956996Y-89998013D02*
X110156996Y-91198013D01*
X108956996Y-89898013D02*
X108956996Y-89998013D01*
X107255238Y-83997633D02*
X108956996Y-85699391D01*
X108956996Y-85699391D02*
X108956996Y-89898013D01*
X94436996Y-61508013D02*
X94436996Y-61462573D01*
X94436996Y-61462573D02*
X95735811Y-60163758D01*
D23*
X108422741Y-72863758D02*
X108426996Y-72868013D01*
X108426996Y-72868013D02*
X109726996Y-71568013D01*
X104931996Y-72863758D02*
X95735811Y-72863758D01*
X108422741Y-72863758D02*
X104931996Y-72863758D01*
X214772001Y-98203101D02*
X212747000Y-96178100D01*
X214772001Y-111153099D02*
X214772001Y-98203101D01*
X212747000Y-113178100D02*
X214772001Y-111153099D01*
X214772001Y-81203101D02*
X212747000Y-79178100D01*
X214772001Y-94153099D02*
X214772001Y-81203101D01*
X212747000Y-96178100D02*
X214772001Y-94153099D01*
X214772001Y-64203101D02*
X212747000Y-62178100D01*
X214772001Y-77153099D02*
X214772001Y-64203101D01*
X212747000Y-79178100D02*
X214772001Y-77153099D01*
X210721999Y-60153099D02*
X212747000Y-62178100D01*
X210721999Y-46507715D02*
X210721999Y-60153099D01*
X211186992Y-46042722D02*
X210721999Y-46507715D01*
X108481251Y-75403758D02*
X109676996Y-74208013D01*
X105431996Y-75403758D02*
X108481251Y-75403758D01*
X95735811Y-75403758D02*
X105431996Y-75403758D01*
X189272001Y-117153099D02*
X194747000Y-111678100D01*
X189272001Y-127653099D02*
X189272001Y-117153099D01*
X187247000Y-129678100D02*
X189272001Y-127653099D01*
X192721999Y-96703101D02*
X194747000Y-94678100D01*
X192721999Y-109653099D02*
X192721999Y-96703101D01*
X194747000Y-111678100D02*
X192721999Y-109653099D01*
X192721999Y-79703101D02*
X194747000Y-77678100D01*
X192721999Y-92653099D02*
X192721999Y-79703101D01*
X194747000Y-94678100D02*
X192721999Y-92653099D01*
X192721999Y-62703101D02*
X194747000Y-60678100D01*
X192721999Y-75653099D02*
X192721999Y-62703101D01*
X194747000Y-77678100D02*
X192721999Y-75653099D01*
X192721999Y-58653099D02*
X194747000Y-60678100D01*
X192721999Y-43057715D02*
X192721999Y-58653099D01*
X193356992Y-42422722D02*
X192721999Y-43057715D01*
X109676996Y-76748013D02*
X108481251Y-77943758D01*
X105956996Y-77943758D02*
X95735811Y-77943758D01*
X108481251Y-77943758D02*
X105956996Y-77943758D01*
X171272001Y-112453099D02*
X176747000Y-106978100D01*
X171272001Y-122953099D02*
X171272001Y-112453099D01*
X169247000Y-124978100D02*
X171272001Y-122953099D01*
X174721999Y-92003101D02*
X176747000Y-89978100D01*
X174721999Y-104953099D02*
X174721999Y-92003101D01*
X176747000Y-106978100D02*
X174721999Y-104953099D01*
X174721999Y-75003101D02*
X176747000Y-72978100D01*
X174721999Y-87953099D02*
X174721999Y-75003101D01*
X176747000Y-89978100D02*
X174721999Y-87953099D01*
X174721999Y-58003101D02*
X176747000Y-55978100D01*
X174721999Y-70953099D02*
X174721999Y-58003101D01*
X176747000Y-72978100D02*
X174721999Y-70953099D01*
X174721999Y-53953099D02*
X176747000Y-55978100D01*
X174721999Y-41972725D02*
X174721999Y-53953099D01*
X175556992Y-41137732D02*
X174721999Y-41972725D01*
X106556996Y-79773013D02*
X96446556Y-79773013D01*
X106556996Y-79773013D02*
X109191996Y-79773013D01*
X109191996Y-79773013D02*
X109676996Y-79288013D01*
X96446556Y-79773013D02*
X95735811Y-80483758D01*
X153272001Y-111053099D02*
X158747000Y-105578100D01*
X153272001Y-122953099D02*
X153272001Y-111053099D01*
X151247000Y-124978100D02*
X153272001Y-122953099D01*
X156721999Y-90603101D02*
X158747000Y-88578100D01*
X156721999Y-103553099D02*
X156721999Y-90603101D01*
X158747000Y-105578100D02*
X156721999Y-103553099D01*
X160772001Y-73603101D02*
X158747000Y-71578100D01*
X160772001Y-86553099D02*
X160772001Y-73603101D01*
X158747000Y-88578100D02*
X160772001Y-86553099D01*
X160772001Y-56603101D02*
X158747000Y-54578100D01*
X160772001Y-69553099D02*
X160772001Y-56603101D01*
X158747000Y-71578100D02*
X160772001Y-69553099D01*
X156721999Y-52553099D02*
X158747000Y-54578100D01*
X156721999Y-41737715D02*
X156721999Y-52553099D01*
X157456992Y-41002722D02*
X156721999Y-41737715D01*
X106807007Y-80748024D02*
X107256996Y-81198013D01*
X95735811Y-83023758D02*
X98011545Y-80748024D01*
X98011545Y-80748024D02*
X106807007Y-80748024D01*
X107886996Y-81828013D02*
X107256996Y-81198013D01*
X109676996Y-81828013D02*
X107886996Y-81828013D01*
X140747000Y-117889781D02*
X140747000Y-106978100D01*
X131654032Y-126982749D02*
X140747000Y-117889781D01*
X131654032Y-128396962D02*
X131654032Y-126982749D01*
X142772001Y-92003101D02*
X140747000Y-89978100D01*
X142772001Y-104953099D02*
X142772001Y-92003101D01*
X140747000Y-106978100D02*
X142772001Y-104953099D01*
X142772001Y-75003101D02*
X140747000Y-72978100D01*
X142772001Y-87953099D02*
X142772001Y-75003101D01*
X140747000Y-89978100D02*
X142772001Y-87953099D01*
X142772001Y-58003101D02*
X140747000Y-55978100D01*
X142772001Y-70953099D02*
X142772001Y-58003101D01*
X140747000Y-72978100D02*
X142772001Y-70953099D01*
X138721999Y-53953099D02*
X140747000Y-55978100D01*
X138721999Y-45437715D02*
X138721999Y-53953099D01*
X140106992Y-44052722D02*
X138721999Y-45437715D01*
X100410561Y-82798068D02*
X105057051Y-82798068D01*
X98956996Y-83997633D02*
X99210996Y-83997633D01*
X98356996Y-66588013D02*
X107846996Y-66588013D01*
X98306996Y-83347633D02*
X98306996Y-83003860D01*
X105057051Y-82798068D02*
X105356996Y-83098013D01*
X94436996Y-66588013D02*
X98356996Y-66588013D01*
X99210996Y-83997633D02*
X100410561Y-82798068D01*
X98956996Y-83997633D02*
X98306996Y-83347633D01*
X94134303Y-66588013D02*
X94436996Y-66588013D01*
X107846996Y-66588013D02*
X107856996Y-66598013D01*
X101993633Y-94725113D02*
X101208768Y-95509978D01*
X103746996Y-94725113D02*
X101993633Y-94725113D01*
X94436996Y-56428013D02*
X107587002Y-56428013D01*
X107587002Y-56428013D02*
X107957002Y-56798013D01*
X101456996Y-83997633D02*
X101456996Y-83298013D01*
X101456996Y-83298013D02*
X104731378Y-83298013D01*
X107957014Y-69398013D02*
X107687014Y-69128013D01*
X107687014Y-69128013D02*
X94436996Y-69128013D01*
X105256996Y-83823631D02*
X105256996Y-83998013D01*
X93844303Y-69128013D02*
X94436996Y-69128013D01*
X104731378Y-83298013D02*
X105256996Y-83823631D01*
X101208768Y-93259978D02*
X102836268Y-93259978D01*
X105031861Y-93259978D02*
X101208768Y-93259978D01*
X106496996Y-94725113D02*
X105031861Y-93259978D01*
X95735811Y-62703758D02*
X106651251Y-62703758D01*
X106651251Y-62703758D02*
X107956996Y-61398013D01*
X107956996Y-61398013D02*
X109716996Y-61398013D01*
X109716996Y-61398013D02*
X109726996Y-61408013D01*
X165246999Y-121878101D02*
X164247000Y-122878100D01*
X165246999Y-105412715D02*
X165246999Y-121878101D01*
X167956992Y-102702722D02*
X165246999Y-105412715D01*
X95735811Y-57623758D02*
X108481251Y-57623758D01*
X108481251Y-57623758D02*
X109676996Y-56428013D01*
X107726988Y-71668013D02*
X107956988Y-71898013D01*
X94436996Y-71668013D02*
X107726988Y-71668013D01*
X96956996Y-58968013D02*
X107726996Y-58968013D01*
X96956996Y-58998013D02*
X97356996Y-59398013D01*
X94436996Y-58968013D02*
X96956996Y-58968013D01*
X96956996Y-58968013D02*
X97226996Y-58968013D01*
X96956996Y-58968013D02*
X96956996Y-58998013D01*
X107726996Y-58968013D02*
X107956996Y-59198013D01*
X96706450Y-89502180D02*
X96706450Y-89502179D01*
X96581450Y-89627180D02*
X96706450Y-89502180D01*
X96706450Y-89502180D02*
X96510996Y-89697633D01*
X97056996Y-89151634D02*
X96581450Y-89627180D01*
X97056996Y-85798013D02*
X97056996Y-89151634D01*
X96500000Y-89708630D02*
X96581450Y-89627180D01*
X96500000Y-95500000D02*
X96500000Y-89708630D01*
X98956996Y-84998393D02*
X98956996Y-89798013D01*
X101456996Y-84998393D02*
X101456996Y-89758013D01*
X101456996Y-89758013D02*
X101496996Y-89798013D01*
X103956996Y-89718013D02*
X104036996Y-89798013D01*
X103956996Y-84998393D02*
X103956996Y-89718013D01*
X106556996Y-89778013D02*
X106576996Y-89798013D01*
X106556996Y-84998393D02*
X106556996Y-89778013D01*
X184631991Y-125193109D02*
X182247000Y-127578100D01*
X184631991Y-105277723D02*
X184631991Y-125193109D01*
X185706992Y-104202722D02*
X184631991Y-105277723D01*
X97556996Y-83742573D02*
X97556996Y-82478672D01*
X98387622Y-81648046D02*
X106220215Y-81648046D01*
X95735811Y-85563758D02*
X97556996Y-83742573D01*
X106220215Y-81648046D02*
X108178183Y-83606014D01*
X108178183Y-83606014D02*
X108914997Y-83606014D01*
X108914997Y-83606014D02*
X109676996Y-84368013D01*
X97556996Y-82478672D02*
X98387622Y-81648046D01*
X120721999Y-73253099D02*
X122747000Y-75278100D01*
X120721999Y-60303101D02*
X120721999Y-73253099D01*
X122747000Y-58278100D02*
X120721999Y-60303101D01*
X120721999Y-90253099D02*
X122747000Y-92278100D01*
X120721999Y-77303101D02*
X120721999Y-90253099D01*
X122747000Y-75278100D02*
X120721999Y-77303101D01*
X124772001Y-107253099D02*
X122747000Y-109278100D01*
X124772001Y-94303101D02*
X124772001Y-107253099D01*
X122747000Y-92278100D02*
X124772001Y-94303101D01*
X122747000Y-121281772D02*
X122747000Y-109278100D01*
X112571209Y-131457563D02*
X122747000Y-121281772D01*
X111156996Y-131457563D02*
X112571209Y-131457563D01*
X114551908Y-77303101D02*
X112556996Y-79298013D01*
X120721999Y-77303101D02*
X114551908Y-77303101D01*
X108481251Y-70323758D02*
X109676996Y-69128013D01*
X95735811Y-70323758D02*
X108481251Y-70323758D01*
X95735811Y-67783758D02*
X108481251Y-67783758D01*
X108481251Y-67783758D02*
X109676996Y-66588013D01*
X102456996Y-100498013D02*
X102056996Y-100498013D01*
X102056996Y-100165873D02*
X106496996Y-95725873D01*
X102056996Y-100498013D02*
X102056996Y-100165873D01*
X93956996Y-98748013D02*
X93556996Y-98748013D01*
X93556996Y-98748013D02*
X93556996Y-104698013D01*
X94252747Y-98748013D02*
X96500000Y-96500760D01*
X93556996Y-98748013D02*
X94252747Y-98748013D01*
X102887717Y-95725873D02*
X103746996Y-95725873D01*
X102112830Y-96500760D02*
X102887717Y-95725873D01*
X96500000Y-96500760D02*
X102112830Y-96500760D01*
D25*
X107638182Y-84146015D02*
X107667180Y-84169813D01*
X107753906Y-84240988D01*
X107833221Y-84283383D01*
X107885936Y-84311560D01*
X108029197Y-84355017D01*
X108140850Y-84366014D01*
X108140860Y-84366014D01*
X108178183Y-84369690D01*
X108215506Y-84366014D01*
X108279996Y-84366014D01*
X108279996Y-84505605D01*
X108333682Y-84775503D01*
X108438991Y-85029740D01*
X108591876Y-85258548D01*
X108786461Y-85453133D01*
X109015269Y-85606018D01*
X109269506Y-85711327D01*
X109539404Y-85765013D01*
X109591474Y-85765013D01*
X109632497Y-85971248D01*
X109737806Y-86225485D01*
X109890691Y-86454293D01*
X110085276Y-86648878D01*
X110314084Y-86801763D01*
X110568321Y-86907072D01*
X110838219Y-86960758D01*
X111113403Y-86960758D01*
X111267382Y-86930130D01*
X113619996Y-89282745D01*
X113619996Y-105598113D01*
X102139363Y-105598113D01*
X102197702Y-105527027D01*
X102335595Y-105269047D01*
X102420509Y-104989124D01*
X102449181Y-104698013D01*
X102423081Y-104433013D01*
X102529946Y-104433013D01*
X102748107Y-104411526D01*
X103028030Y-104326612D01*
X103286010Y-104188719D01*
X103512130Y-104003147D01*
X103697702Y-103777027D01*
X103835595Y-103519047D01*
X103920509Y-103239124D01*
X103949181Y-102948013D01*
X103920509Y-102656902D01*
X103835595Y-102376979D01*
X103697702Y-102118999D01*
X103512130Y-101892879D01*
X103305148Y-101723013D01*
X103512130Y-101553147D01*
X103697702Y-101327027D01*
X103835595Y-101069047D01*
X103920509Y-100789124D01*
X103949181Y-100498013D01*
X103920509Y-100206902D01*
X103835595Y-99926979D01*
X103697702Y-99668999D01*
X103666586Y-99631084D01*
X106616226Y-96681445D01*
X107068496Y-96681445D01*
X107192978Y-96669185D01*
X107312676Y-96632875D01*
X107422990Y-96573910D01*
X107519681Y-96494558D01*
X107599033Y-96397867D01*
X107636039Y-96328634D01*
X107861950Y-96554545D01*
X107962937Y-96637423D01*
X108116682Y-96719601D01*
X108283505Y-96770207D01*
X108456995Y-96787294D01*
X108630485Y-96770207D01*
X108756924Y-96731852D01*
X108756924Y-97060013D01*
X108769184Y-97184495D01*
X108805494Y-97304193D01*
X108864459Y-97414507D01*
X108943811Y-97511198D01*
X109040502Y-97590550D01*
X109150816Y-97649515D01*
X109270514Y-97685825D01*
X109394996Y-97698085D01*
X110918996Y-97698085D01*
X111043478Y-97685825D01*
X111163176Y-97649515D01*
X111273490Y-97590550D01*
X111370181Y-97511198D01*
X111449533Y-97414507D01*
X111508498Y-97304193D01*
X111544808Y-97184495D01*
X111557068Y-97060013D01*
X111557068Y-95536013D01*
X111544808Y-95411531D01*
X111508498Y-95291833D01*
X111449533Y-95181519D01*
X111370181Y-95084828D01*
X111325322Y-95048013D01*
X111370181Y-95011198D01*
X111449533Y-94914507D01*
X111508498Y-94804193D01*
X111544808Y-94684495D01*
X111557068Y-94560013D01*
X111557068Y-93036013D01*
X111544808Y-92911531D01*
X111508498Y-92791833D01*
X111449533Y-92681519D01*
X111370181Y-92584828D01*
X111273490Y-92505476D01*
X111259528Y-92498013D01*
X111273490Y-92490550D01*
X111370181Y-92411198D01*
X111449533Y-92314507D01*
X111508498Y-92204193D01*
X111544808Y-92084495D01*
X111557068Y-91960013D01*
X111553996Y-91483763D01*
X111395246Y-91325013D01*
X110283996Y-91325013D01*
X110283996Y-91345013D01*
X110029996Y-91345013D01*
X110029996Y-91325013D01*
X110009996Y-91325013D01*
X110009996Y-91071013D01*
X110029996Y-91071013D01*
X110029996Y-89959763D01*
X110283996Y-89959763D01*
X110283996Y-91071013D01*
X111395246Y-91071013D01*
X111553996Y-90912263D01*
X111557068Y-90436013D01*
X111544808Y-90311531D01*
X111508498Y-90191833D01*
X111449533Y-90081519D01*
X111370181Y-89984828D01*
X111273490Y-89905476D01*
X111163176Y-89846511D01*
X111043478Y-89810201D01*
X110918996Y-89797941D01*
X110442746Y-89801013D01*
X110283996Y-89959763D01*
X110029996Y-89959763D01*
X109871246Y-89801013D01*
X109394996Y-89797941D01*
X109270514Y-89810201D01*
X109150816Y-89846511D01*
X109040502Y-89905476D01*
X108943811Y-89984828D01*
X108864459Y-90081519D01*
X108805494Y-90191833D01*
X108769184Y-90311531D01*
X108756924Y-90436013D01*
X108759996Y-90912263D01*
X108918744Y-91071011D01*
X108759996Y-91071011D01*
X108759996Y-91159587D01*
X108685813Y-91069196D01*
X108551055Y-90958602D01*
X108397309Y-90876424D01*
X108230486Y-90825818D01*
X108100473Y-90813013D01*
X108100472Y-90813013D01*
X108056996Y-90808731D01*
X108013519Y-90813013D01*
X107447850Y-90813013D01*
X107612793Y-90648070D01*
X107758728Y-90429662D01*
X107859250Y-90186981D01*
X107910496Y-89929351D01*
X107910496Y-89666675D01*
X107859250Y-89409045D01*
X107758728Y-89166364D01*
X107612793Y-88947956D01*
X107427053Y-88762216D01*
X107316996Y-88688679D01*
X107316996Y-85922285D01*
X107372676Y-85905395D01*
X107482990Y-85846430D01*
X107579681Y-85767078D01*
X107659033Y-85670387D01*
X107717998Y-85560073D01*
X107754308Y-85440375D01*
X107766568Y-85315893D01*
X107766568Y-84680893D01*
X107754308Y-84556411D01*
X107736593Y-84498013D01*
X107754308Y-84439615D01*
X107766568Y-84315133D01*
X107763496Y-84283383D01*
X107604748Y-84124635D01*
X107620636Y-84124635D01*
X107638182Y-84146015D01*
G04 #@! TA.AperFunction,Conductor*
D26*
G36*
X107638182Y-84146015D02*
G01*
X107667180Y-84169813D01*
X107753906Y-84240988D01*
X107833221Y-84283383D01*
X107885936Y-84311560D01*
X108029197Y-84355017D01*
X108140850Y-84366014D01*
X108140860Y-84366014D01*
X108178183Y-84369690D01*
X108215506Y-84366014D01*
X108279996Y-84366014D01*
X108279996Y-84505605D01*
X108333682Y-84775503D01*
X108438991Y-85029740D01*
X108591876Y-85258548D01*
X108786461Y-85453133D01*
X109015269Y-85606018D01*
X109269506Y-85711327D01*
X109539404Y-85765013D01*
X109591474Y-85765013D01*
X109632497Y-85971248D01*
X109737806Y-86225485D01*
X109890691Y-86454293D01*
X110085276Y-86648878D01*
X110314084Y-86801763D01*
X110568321Y-86907072D01*
X110838219Y-86960758D01*
X111113403Y-86960758D01*
X111267382Y-86930130D01*
X113619996Y-89282745D01*
X113619996Y-105598113D01*
X102139363Y-105598113D01*
X102197702Y-105527027D01*
X102335595Y-105269047D01*
X102420509Y-104989124D01*
X102449181Y-104698013D01*
X102423081Y-104433013D01*
X102529946Y-104433013D01*
X102748107Y-104411526D01*
X103028030Y-104326612D01*
X103286010Y-104188719D01*
X103512130Y-104003147D01*
X103697702Y-103777027D01*
X103835595Y-103519047D01*
X103920509Y-103239124D01*
X103949181Y-102948013D01*
X103920509Y-102656902D01*
X103835595Y-102376979D01*
X103697702Y-102118999D01*
X103512130Y-101892879D01*
X103305148Y-101723013D01*
X103512130Y-101553147D01*
X103697702Y-101327027D01*
X103835595Y-101069047D01*
X103920509Y-100789124D01*
X103949181Y-100498013D01*
X103920509Y-100206902D01*
X103835595Y-99926979D01*
X103697702Y-99668999D01*
X103666586Y-99631084D01*
X106616226Y-96681445D01*
X107068496Y-96681445D01*
X107192978Y-96669185D01*
X107312676Y-96632875D01*
X107422990Y-96573910D01*
X107519681Y-96494558D01*
X107599033Y-96397867D01*
X107636039Y-96328634D01*
X107861950Y-96554545D01*
X107962937Y-96637423D01*
X108116682Y-96719601D01*
X108283505Y-96770207D01*
X108456995Y-96787294D01*
X108630485Y-96770207D01*
X108756924Y-96731852D01*
X108756924Y-97060013D01*
X108769184Y-97184495D01*
X108805494Y-97304193D01*
X108864459Y-97414507D01*
X108943811Y-97511198D01*
X109040502Y-97590550D01*
X109150816Y-97649515D01*
X109270514Y-97685825D01*
X109394996Y-97698085D01*
X110918996Y-97698085D01*
X111043478Y-97685825D01*
X111163176Y-97649515D01*
X111273490Y-97590550D01*
X111370181Y-97511198D01*
X111449533Y-97414507D01*
X111508498Y-97304193D01*
X111544808Y-97184495D01*
X111557068Y-97060013D01*
X111557068Y-95536013D01*
X111544808Y-95411531D01*
X111508498Y-95291833D01*
X111449533Y-95181519D01*
X111370181Y-95084828D01*
X111325322Y-95048013D01*
X111370181Y-95011198D01*
X111449533Y-94914507D01*
X111508498Y-94804193D01*
X111544808Y-94684495D01*
X111557068Y-94560013D01*
X111557068Y-93036013D01*
X111544808Y-92911531D01*
X111508498Y-92791833D01*
X111449533Y-92681519D01*
X111370181Y-92584828D01*
X111273490Y-92505476D01*
X111259528Y-92498013D01*
X111273490Y-92490550D01*
X111370181Y-92411198D01*
X111449533Y-92314507D01*
X111508498Y-92204193D01*
X111544808Y-92084495D01*
X111557068Y-91960013D01*
X111553996Y-91483763D01*
X111395246Y-91325013D01*
X110283996Y-91325013D01*
X110283996Y-91345013D01*
X110029996Y-91345013D01*
X110029996Y-91325013D01*
X110009996Y-91325013D01*
X110009996Y-91071013D01*
X110029996Y-91071013D01*
X110029996Y-89959763D01*
X110283996Y-89959763D01*
X110283996Y-91071013D01*
X111395246Y-91071013D01*
X111553996Y-90912263D01*
X111557068Y-90436013D01*
X111544808Y-90311531D01*
X111508498Y-90191833D01*
X111449533Y-90081519D01*
X111370181Y-89984828D01*
X111273490Y-89905476D01*
X111163176Y-89846511D01*
X111043478Y-89810201D01*
X110918996Y-89797941D01*
X110442746Y-89801013D01*
X110283996Y-89959763D01*
X110029996Y-89959763D01*
X109871246Y-89801013D01*
X109394996Y-89797941D01*
X109270514Y-89810201D01*
X109150816Y-89846511D01*
X109040502Y-89905476D01*
X108943811Y-89984828D01*
X108864459Y-90081519D01*
X108805494Y-90191833D01*
X108769184Y-90311531D01*
X108756924Y-90436013D01*
X108759996Y-90912263D01*
X108918744Y-91071011D01*
X108759996Y-91071011D01*
X108759996Y-91159587D01*
X108685813Y-91069196D01*
X108551055Y-90958602D01*
X108397309Y-90876424D01*
X108230486Y-90825818D01*
X108100473Y-90813013D01*
X108100472Y-90813013D01*
X108056996Y-90808731D01*
X108013519Y-90813013D01*
X107447850Y-90813013D01*
X107612793Y-90648070D01*
X107758728Y-90429662D01*
X107859250Y-90186981D01*
X107910496Y-89929351D01*
X107910496Y-89666675D01*
X107859250Y-89409045D01*
X107758728Y-89166364D01*
X107612793Y-88947956D01*
X107427053Y-88762216D01*
X107316996Y-88688679D01*
X107316996Y-85922285D01*
X107372676Y-85905395D01*
X107482990Y-85846430D01*
X107579681Y-85767078D01*
X107659033Y-85670387D01*
X107717998Y-85560073D01*
X107754308Y-85440375D01*
X107766568Y-85315893D01*
X107766568Y-84680893D01*
X107754308Y-84556411D01*
X107736593Y-84498013D01*
X107754308Y-84439615D01*
X107766568Y-84315133D01*
X107763496Y-84283383D01*
X107604748Y-84124635D01*
X107620636Y-84124635D01*
X107638182Y-84146015D01*
G37*
G04 #@! TD.AperFunction*
D25*
X102444776Y-98703291D02*
X102420509Y-98456902D01*
X102335595Y-98176979D01*
X102197702Y-97918999D01*
X102012130Y-97692879D01*
X101786010Y-97507307D01*
X101528030Y-97369414D01*
X101248107Y-97284500D01*
X101029946Y-97263013D01*
X100084046Y-97263013D01*
X99865885Y-97284500D01*
X99585962Y-97369414D01*
X99327982Y-97507307D01*
X99101862Y-97692879D01*
X98916290Y-97918999D01*
X98778397Y-98176979D01*
X98693483Y-98456902D01*
X98664811Y-98748013D01*
X98693483Y-99039124D01*
X98778397Y-99319047D01*
X98916290Y-99577027D01*
X98958931Y-99628985D01*
X98878633Y-99613013D01*
X98635359Y-99613013D01*
X98396760Y-99660473D01*
X98172004Y-99753570D01*
X97969729Y-99888726D01*
X97797709Y-100060746D01*
X97662553Y-100263021D01*
X97569456Y-100487777D01*
X97521996Y-100726376D01*
X97521996Y-100969650D01*
X97569456Y-101208249D01*
X97662553Y-101433005D01*
X97797709Y-101635280D01*
X97885442Y-101723013D01*
X97797709Y-101810746D01*
X97662553Y-102013021D01*
X97569456Y-102237777D01*
X97521996Y-102476376D01*
X97521996Y-102719650D01*
X97569456Y-102958249D01*
X97662553Y-103183005D01*
X97797709Y-103385280D01*
X97969729Y-103557300D01*
X98172004Y-103692456D01*
X98396760Y-103785553D01*
X98635359Y-103833013D01*
X98878633Y-103833013D01*
X98958931Y-103817041D01*
X98916290Y-103868999D01*
X98778397Y-104126979D01*
X98693483Y-104406902D01*
X98664811Y-104698013D01*
X98693483Y-104989124D01*
X98778397Y-105269047D01*
X98916290Y-105527027D01*
X98974629Y-105598113D01*
X98138174Y-105598113D01*
X98262287Y-105417439D01*
X98377559Y-105148966D01*
X98398472Y-105054903D01*
X98277151Y-104825013D01*
X96683996Y-104825013D01*
X96683996Y-104845013D01*
X96429996Y-104845013D01*
X96429996Y-104825013D01*
X96409996Y-104825013D01*
X96409996Y-104571013D01*
X96429996Y-104571013D01*
X96429996Y-103213013D01*
X96683996Y-103213013D01*
X96683996Y-104571013D01*
X98277151Y-104571013D01*
X98398472Y-104341123D01*
X98377559Y-104247060D01*
X98262287Y-103978587D01*
X98096853Y-103737761D01*
X97887615Y-103533837D01*
X97642614Y-103374652D01*
X97371265Y-103266323D01*
X97083996Y-103213013D01*
X96683996Y-103213013D01*
X96429996Y-103213013D01*
X96029996Y-103213013D01*
X95742727Y-103266323D01*
X95471378Y-103374652D01*
X95226377Y-103533837D01*
X95057620Y-103698308D01*
X95012130Y-103642879D01*
X94786010Y-103457307D01*
X94528030Y-103319414D01*
X94316996Y-103255397D01*
X94316996Y-100190629D01*
X94528030Y-100126612D01*
X94786010Y-99988719D01*
X95012130Y-99803147D01*
X95057620Y-99747718D01*
X95226377Y-99912189D01*
X95471378Y-100071374D01*
X95742727Y-100179703D01*
X96029996Y-100233013D01*
X96429996Y-100233013D01*
X96429996Y-98875013D01*
X96683996Y-98875013D01*
X96683996Y-100233013D01*
X97083996Y-100233013D01*
X97371265Y-100179703D01*
X97642614Y-100071374D01*
X97887615Y-99912189D01*
X98096853Y-99708265D01*
X98262287Y-99467439D01*
X98377559Y-99198966D01*
X98398472Y-99104903D01*
X98277151Y-98875013D01*
X96683996Y-98875013D01*
X96429996Y-98875013D01*
X96409996Y-98875013D01*
X96409996Y-98621013D01*
X96429996Y-98621013D01*
X96429996Y-98601013D01*
X96683996Y-98601013D01*
X96683996Y-98621013D01*
X98277151Y-98621013D01*
X98398472Y-98391123D01*
X98377559Y-98297060D01*
X98262287Y-98028587D01*
X98096853Y-97787761D01*
X97887615Y-97583837D01*
X97642614Y-97424652D01*
X97434704Y-97341649D01*
X97522685Y-97269445D01*
X97529813Y-97260760D01*
X102075508Y-97260760D01*
X102112830Y-97264436D01*
X102150152Y-97260760D01*
X102150163Y-97260760D01*
X102261816Y-97249763D01*
X102405077Y-97206306D01*
X102537106Y-97135734D01*
X102652831Y-97040761D01*
X102676633Y-97011758D01*
X103026610Y-96661782D01*
X103051014Y-96669185D01*
X103175496Y-96681445D01*
X104318496Y-96681445D01*
X104442978Y-96669185D01*
X104494516Y-96653551D01*
X102444776Y-98703291D01*
G04 #@! TA.AperFunction,Conductor*
D26*
G36*
X102444776Y-98703291D02*
G01*
X102420509Y-98456902D01*
X102335595Y-98176979D01*
X102197702Y-97918999D01*
X102012130Y-97692879D01*
X101786010Y-97507307D01*
X101528030Y-97369414D01*
X101248107Y-97284500D01*
X101029946Y-97263013D01*
X100084046Y-97263013D01*
X99865885Y-97284500D01*
X99585962Y-97369414D01*
X99327982Y-97507307D01*
X99101862Y-97692879D01*
X98916290Y-97918999D01*
X98778397Y-98176979D01*
X98693483Y-98456902D01*
X98664811Y-98748013D01*
X98693483Y-99039124D01*
X98778397Y-99319047D01*
X98916290Y-99577027D01*
X98958931Y-99628985D01*
X98878633Y-99613013D01*
X98635359Y-99613013D01*
X98396760Y-99660473D01*
X98172004Y-99753570D01*
X97969729Y-99888726D01*
X97797709Y-100060746D01*
X97662553Y-100263021D01*
X97569456Y-100487777D01*
X97521996Y-100726376D01*
X97521996Y-100969650D01*
X97569456Y-101208249D01*
X97662553Y-101433005D01*
X97797709Y-101635280D01*
X97885442Y-101723013D01*
X97797709Y-101810746D01*
X97662553Y-102013021D01*
X97569456Y-102237777D01*
X97521996Y-102476376D01*
X97521996Y-102719650D01*
X97569456Y-102958249D01*
X97662553Y-103183005D01*
X97797709Y-103385280D01*
X97969729Y-103557300D01*
X98172004Y-103692456D01*
X98396760Y-103785553D01*
X98635359Y-103833013D01*
X98878633Y-103833013D01*
X98958931Y-103817041D01*
X98916290Y-103868999D01*
X98778397Y-104126979D01*
X98693483Y-104406902D01*
X98664811Y-104698013D01*
X98693483Y-104989124D01*
X98778397Y-105269047D01*
X98916290Y-105527027D01*
X98974629Y-105598113D01*
X98138174Y-105598113D01*
X98262287Y-105417439D01*
X98377559Y-105148966D01*
X98398472Y-105054903D01*
X98277151Y-104825013D01*
X96683996Y-104825013D01*
X96683996Y-104845013D01*
X96429996Y-104845013D01*
X96429996Y-104825013D01*
X96409996Y-104825013D01*
X96409996Y-104571013D01*
X96429996Y-104571013D01*
X96429996Y-103213013D01*
X96683996Y-103213013D01*
X96683996Y-104571013D01*
X98277151Y-104571013D01*
X98398472Y-104341123D01*
X98377559Y-104247060D01*
X98262287Y-103978587D01*
X98096853Y-103737761D01*
X97887615Y-103533837D01*
X97642614Y-103374652D01*
X97371265Y-103266323D01*
X97083996Y-103213013D01*
X96683996Y-103213013D01*
X96429996Y-103213013D01*
X96029996Y-103213013D01*
X95742727Y-103266323D01*
X95471378Y-103374652D01*
X95226377Y-103533837D01*
X95057620Y-103698308D01*
X95012130Y-103642879D01*
X94786010Y-103457307D01*
X94528030Y-103319414D01*
X94316996Y-103255397D01*
X94316996Y-100190629D01*
X94528030Y-100126612D01*
X94786010Y-99988719D01*
X95012130Y-99803147D01*
X95057620Y-99747718D01*
X95226377Y-99912189D01*
X95471378Y-100071374D01*
X95742727Y-100179703D01*
X96029996Y-100233013D01*
X96429996Y-100233013D01*
X96429996Y-98875013D01*
X96683996Y-98875013D01*
X96683996Y-100233013D01*
X97083996Y-100233013D01*
X97371265Y-100179703D01*
X97642614Y-100071374D01*
X97887615Y-99912189D01*
X98096853Y-99708265D01*
X98262287Y-99467439D01*
X98377559Y-99198966D01*
X98398472Y-99104903D01*
X98277151Y-98875013D01*
X96683996Y-98875013D01*
X96429996Y-98875013D01*
X96409996Y-98875013D01*
X96409996Y-98621013D01*
X96429996Y-98621013D01*
X96429996Y-98601013D01*
X96683996Y-98601013D01*
X96683996Y-98621013D01*
X98277151Y-98621013D01*
X98398472Y-98391123D01*
X98377559Y-98297060D01*
X98262287Y-98028587D01*
X98096853Y-97787761D01*
X97887615Y-97583837D01*
X97642614Y-97424652D01*
X97434704Y-97341649D01*
X97522685Y-97269445D01*
X97529813Y-97260760D01*
X102075508Y-97260760D01*
X102112830Y-97264436D01*
X102150152Y-97260760D01*
X102150163Y-97260760D01*
X102261816Y-97249763D01*
X102405077Y-97206306D01*
X102537106Y-97135734D01*
X102652831Y-97040761D01*
X102676633Y-97011758D01*
X103026610Y-96661782D01*
X103051014Y-96669185D01*
X103175496Y-96681445D01*
X104318496Y-96681445D01*
X104442978Y-96669185D01*
X104494516Y-96653551D01*
X102444776Y-98703291D01*
G37*
G04 #@! TD.AperFunction*
D25*
X113619996Y-59292722D02*
X113294315Y-59292722D01*
X113256992Y-59289046D01*
X113219669Y-59292722D01*
X113219659Y-59292722D01*
X113108006Y-59303719D01*
X112964745Y-59347176D01*
X112832716Y-59417748D01*
X112716991Y-59512721D01*
X112693193Y-59541720D01*
X112345591Y-59889322D01*
X112319125Y-59756268D01*
X112213816Y-59502031D01*
X112060931Y-59273223D01*
X111866346Y-59078638D01*
X111637538Y-58925753D01*
X111560296Y-58893758D01*
X111637538Y-58861763D01*
X111866346Y-58708878D01*
X112060931Y-58514293D01*
X112213816Y-58285485D01*
X112319125Y-58031248D01*
X112372811Y-57761350D01*
X112372811Y-57486166D01*
X112319125Y-57216268D01*
X112213816Y-56962031D01*
X112060931Y-56733223D01*
X111866346Y-56538638D01*
X111637538Y-56385753D01*
X111383301Y-56280444D01*
X111113403Y-56226758D01*
X111061333Y-56226758D01*
X111020310Y-56020523D01*
X110915001Y-55766286D01*
X110762116Y-55537478D01*
X110567531Y-55342893D01*
X110338723Y-55190008D01*
X110084486Y-55084699D01*
X109814588Y-55031013D01*
X109539404Y-55031013D01*
X109269506Y-55084699D01*
X109015269Y-55190008D01*
X108786461Y-55342893D01*
X108591876Y-55537478D01*
X108438991Y-55766286D01*
X108333682Y-56020523D01*
X108328221Y-56047980D01*
X108248924Y-56015134D01*
X108150806Y-55917016D01*
X108127003Y-55888012D01*
X108011278Y-55793039D01*
X107879249Y-55722467D01*
X107735988Y-55679010D01*
X107624335Y-55668013D01*
X107624324Y-55668013D01*
X107587002Y-55664337D01*
X107549680Y-55668013D01*
X95609337Y-55668013D01*
X95522116Y-55537478D01*
X95327531Y-55342893D01*
X95098723Y-55190008D01*
X94844486Y-55084699D01*
X94574588Y-55031013D01*
X94299404Y-55031013D01*
X94029506Y-55084699D01*
X93775269Y-55190008D01*
X93546461Y-55342893D01*
X93351876Y-55537478D01*
X93198991Y-55766286D01*
X93093682Y-56020523D01*
X93039996Y-56290421D01*
X93039996Y-56565605D01*
X93093682Y-56835503D01*
X93198991Y-57089740D01*
X93351876Y-57318548D01*
X93546461Y-57513133D01*
X93775269Y-57666018D01*
X93852511Y-57698013D01*
X93775269Y-57730008D01*
X93546461Y-57882893D01*
X93351876Y-58077478D01*
X93198991Y-58306286D01*
X93093682Y-58560523D01*
X93039996Y-58830421D01*
X93039996Y-59105605D01*
X93093682Y-59375503D01*
X93198991Y-59629740D01*
X93351876Y-59858548D01*
X93546461Y-60053133D01*
X93775269Y-60206018D01*
X93846939Y-60235705D01*
X93833973Y-60240377D01*
X93718016Y-60302357D01*
X93651036Y-60542448D01*
X94436996Y-61328408D01*
X95222956Y-60542448D01*
X95213044Y-60506920D01*
X95556206Y-60163758D01*
X95542064Y-60149616D01*
X95721669Y-59970011D01*
X95735811Y-59984153D01*
X95749954Y-59970011D01*
X95929559Y-60149616D01*
X95915416Y-60163758D01*
X96701376Y-60949718D01*
X96941467Y-60882738D01*
X97058567Y-60633710D01*
X97124834Y-60366623D01*
X97132425Y-60204701D01*
X97274756Y-60233013D01*
X97439236Y-60233013D01*
X97600556Y-60200924D01*
X97752517Y-60137980D01*
X97889277Y-60046600D01*
X98005583Y-59930294D01*
X98096963Y-59793534D01*
X98124103Y-59728013D01*
X107306885Y-59728013D01*
X107308409Y-59730294D01*
X107424715Y-59846600D01*
X107561475Y-59937980D01*
X107713436Y-60000924D01*
X107874756Y-60033013D01*
X108039236Y-60033013D01*
X108200556Y-60000924D01*
X108352517Y-59937980D01*
X108489277Y-59846600D01*
X108605583Y-59730294D01*
X108608878Y-59725363D01*
X108711431Y-59753973D01*
X109497391Y-58968013D01*
X109483249Y-58953871D01*
X109662854Y-58774266D01*
X109676996Y-58788408D01*
X109691139Y-58774266D01*
X109870744Y-58953871D01*
X109856601Y-58968013D01*
X109870744Y-58982156D01*
X109691139Y-59161761D01*
X109676996Y-59147618D01*
X108891036Y-59933578D01*
X108958016Y-60173669D01*
X109093756Y-60237498D01*
X109015269Y-60270008D01*
X108786461Y-60422893D01*
X108591876Y-60617478D01*
X108578155Y-60638013D01*
X107994318Y-60638013D01*
X107956995Y-60634337D01*
X107919672Y-60638013D01*
X107919663Y-60638013D01*
X107808010Y-60649010D01*
X107664749Y-60692467D01*
X107532720Y-60763039D01*
X107416995Y-60858012D01*
X107393197Y-60887010D01*
X106336450Y-61943758D01*
X96908152Y-61943758D01*
X96820931Y-61813223D01*
X96626346Y-61618638D01*
X96397538Y-61465753D01*
X96325868Y-61436066D01*
X96338834Y-61431394D01*
X96454791Y-61369414D01*
X96521771Y-61129323D01*
X95735811Y-60343363D01*
X94949851Y-61129323D01*
X94959763Y-61164851D01*
X94616601Y-61508013D01*
X94630744Y-61522156D01*
X94451139Y-61701761D01*
X94436996Y-61687618D01*
X93651036Y-62473578D01*
X93718016Y-62713669D01*
X93848640Y-62775092D01*
X93833973Y-62780377D01*
X93718016Y-62842357D01*
X93651036Y-63082448D01*
X94436996Y-63868408D01*
X94451139Y-63854266D01*
X94630744Y-64033871D01*
X94616601Y-64048013D01*
X94630744Y-64062156D01*
X94451139Y-64241761D01*
X94436996Y-64227618D01*
X93651036Y-65013578D01*
X93718016Y-65253669D01*
X93853756Y-65317498D01*
X93775269Y-65350008D01*
X93546461Y-65502893D01*
X93351876Y-65697478D01*
X93198991Y-65926286D01*
X93093682Y-66180523D01*
X93039996Y-66450421D01*
X93039996Y-66725605D01*
X93093682Y-66995503D01*
X93198991Y-67249740D01*
X93351876Y-67478548D01*
X93546461Y-67673133D01*
X93775269Y-67826018D01*
X93852511Y-67858013D01*
X93775269Y-67890008D01*
X93546461Y-68042893D01*
X93351876Y-68237478D01*
X93198991Y-68466286D01*
X93093682Y-68720523D01*
X93039996Y-68990421D01*
X93039996Y-69265605D01*
X93093682Y-69535503D01*
X93198991Y-69789740D01*
X93351876Y-70018548D01*
X93546461Y-70213133D01*
X93775269Y-70366018D01*
X93852511Y-70398013D01*
X93775269Y-70430008D01*
X93546461Y-70582893D01*
X93351876Y-70777478D01*
X93198991Y-71006286D01*
X93093682Y-71260523D01*
X93039996Y-71530421D01*
X93039996Y-71805605D01*
X93093682Y-72075503D01*
X93198991Y-72329740D01*
X93351876Y-72558548D01*
X93546461Y-72753133D01*
X93775269Y-72906018D01*
X93852511Y-72938013D01*
X93775269Y-72970008D01*
X93546461Y-73122893D01*
X93351876Y-73317478D01*
X93198991Y-73546286D01*
X93093682Y-73800523D01*
X93039996Y-74070421D01*
X93039996Y-74345605D01*
X93093682Y-74615503D01*
X93198991Y-74869740D01*
X93351876Y-75098548D01*
X93546461Y-75293133D01*
X93775269Y-75446018D01*
X93852511Y-75478013D01*
X93775269Y-75510008D01*
X93546461Y-75662893D01*
X93351876Y-75857478D01*
X93198991Y-76086286D01*
X93093682Y-76340523D01*
X93039996Y-76610421D01*
X93039996Y-76885605D01*
X93093682Y-77155503D01*
X93198991Y-77409740D01*
X93351876Y-77638548D01*
X93546461Y-77833133D01*
X93775269Y-77986018D01*
X93852511Y-78018013D01*
X93775269Y-78050008D01*
X93546461Y-78202893D01*
X93351876Y-78397478D01*
X93198991Y-78626286D01*
X93093682Y-78880523D01*
X93039996Y-79150421D01*
X93039996Y-79425605D01*
X93093682Y-79695503D01*
X93198991Y-79949740D01*
X93351876Y-80178548D01*
X93546461Y-80373133D01*
X93775269Y-80526018D01*
X93852511Y-80558013D01*
X93775269Y-80590008D01*
X93546461Y-80742893D01*
X93351876Y-80937478D01*
X93198991Y-81166286D01*
X93093682Y-81420523D01*
X93039996Y-81690421D01*
X93039996Y-81965605D01*
X93093682Y-82235503D01*
X93198991Y-82489740D01*
X93351876Y-82718548D01*
X93546461Y-82913133D01*
X93775269Y-83066018D01*
X93852511Y-83098013D01*
X93775269Y-83130008D01*
X93546461Y-83282893D01*
X93351876Y-83477478D01*
X93198991Y-83706286D01*
X93093682Y-83960523D01*
X93039996Y-84230421D01*
X93039996Y-84505605D01*
X93093682Y-84775503D01*
X93198991Y-85029740D01*
X93351876Y-85258548D01*
X93546461Y-85453133D01*
X93775269Y-85606018D01*
X94029506Y-85711327D01*
X94299404Y-85765013D01*
X94351474Y-85765013D01*
X94392497Y-85971248D01*
X94497806Y-86225485D01*
X94650691Y-86454293D01*
X94845276Y-86648878D01*
X95074084Y-86801763D01*
X95328321Y-86907072D01*
X95598219Y-86960758D01*
X95873403Y-86960758D01*
X96143301Y-86907072D01*
X96296996Y-86843409D01*
X96296997Y-88836832D01*
X96195457Y-88938372D01*
X96166449Y-88962178D01*
X96142644Y-88991185D01*
X95988989Y-89144838D01*
X95960000Y-89168629D01*
X95936202Y-89197627D01*
X95936201Y-89197628D01*
X95865026Y-89284354D01*
X95794454Y-89416384D01*
X95775705Y-89478194D01*
X95755152Y-89545952D01*
X95750998Y-89559645D01*
X95736324Y-89708630D01*
X95740001Y-89745962D01*
X95740000Y-94576108D01*
X95684320Y-94592998D01*
X95574006Y-94651963D01*
X95477315Y-94731315D01*
X95397963Y-94828006D01*
X95338998Y-94938320D01*
X95302688Y-95058018D01*
X95290428Y-95182500D01*
X95290428Y-95817500D01*
X95302688Y-95941982D01*
X95320403Y-96000380D01*
X95302688Y-96058778D01*
X95290428Y-96183260D01*
X95290428Y-96635530D01*
X94546612Y-97379346D01*
X94528030Y-97369414D01*
X94248107Y-97284500D01*
X94029946Y-97263013D01*
X93084046Y-97263013D01*
X92865885Y-97284500D01*
X92585962Y-97369414D01*
X92327982Y-97507307D01*
X92101862Y-97692879D01*
X91916290Y-97918999D01*
X91778397Y-98176979D01*
X91693483Y-98456902D01*
X91664811Y-98748013D01*
X91693483Y-99039124D01*
X91778397Y-99319047D01*
X91916290Y-99577027D01*
X91958931Y-99628985D01*
X91878633Y-99613013D01*
X91635359Y-99613013D01*
X91396760Y-99660473D01*
X91172004Y-99753570D01*
X90969729Y-99888726D01*
X90941992Y-99916463D01*
X90941992Y-95974879D01*
X90987009Y-96042252D01*
X91214744Y-96269987D01*
X91482533Y-96448918D01*
X91780084Y-96572168D01*
X92095963Y-96635000D01*
X92418029Y-96635000D01*
X92733908Y-96572168D01*
X93031459Y-96448918D01*
X93299248Y-96269987D01*
X93526983Y-96042252D01*
X93705914Y-95774463D01*
X93829164Y-95476912D01*
X93891996Y-95161033D01*
X93891996Y-94838967D01*
X93829164Y-94523088D01*
X93705914Y-94225537D01*
X93526983Y-93957748D01*
X93299248Y-93730013D01*
X93031459Y-93551082D01*
X92733908Y-93427832D01*
X92418029Y-93365000D01*
X92095963Y-93365000D01*
X91780084Y-93427832D01*
X91482533Y-93551082D01*
X91214744Y-93730013D01*
X90987009Y-93957748D01*
X90941992Y-94025121D01*
X90941992Y-89635413D01*
X91301188Y-89635413D01*
X91396952Y-89899814D01*
X91686567Y-90040704D01*
X91998104Y-90122384D01*
X92319591Y-90141718D01*
X92638671Y-90097961D01*
X92943084Y-89992795D01*
X93117040Y-89899814D01*
X93212804Y-89635413D01*
X92256996Y-88679605D01*
X91301188Y-89635413D01*
X90941992Y-89635413D01*
X90941992Y-89390762D01*
X91121583Y-89455808D01*
X92077391Y-88500000D01*
X92436601Y-88500000D01*
X93392409Y-89455808D01*
X93656810Y-89360044D01*
X93797700Y-89070429D01*
X93879380Y-88758892D01*
X93898714Y-88437405D01*
X93854957Y-88118325D01*
X93749791Y-87813912D01*
X93656810Y-87639956D01*
X93392409Y-87544192D01*
X92436601Y-88500000D01*
X92077391Y-88500000D01*
X91121583Y-87544192D01*
X90941992Y-87609238D01*
X90941992Y-87364587D01*
X91301188Y-87364587D01*
X92256996Y-88320395D01*
X93212804Y-87364587D01*
X93117040Y-87100186D01*
X92827425Y-86959296D01*
X92515888Y-86877616D01*
X92194401Y-86858282D01*
X91875321Y-86902039D01*
X91570908Y-87007205D01*
X91396952Y-87100186D01*
X91301188Y-87364587D01*
X90941992Y-87364587D01*
X90941992Y-64120030D01*
X93035086Y-64120030D01*
X93076074Y-64392146D01*
X93169360Y-64651036D01*
X93231340Y-64766993D01*
X93471431Y-64833973D01*
X94257391Y-64048013D01*
X93471431Y-63262053D01*
X93231340Y-63329033D01*
X93114240Y-63578061D01*
X93047973Y-63845148D01*
X93035086Y-64120030D01*
X90941992Y-64120030D01*
X90941992Y-61580030D01*
X93035086Y-61580030D01*
X93076074Y-61852146D01*
X93169360Y-62111036D01*
X93231340Y-62226993D01*
X93471431Y-62293973D01*
X94257391Y-61508013D01*
X93471431Y-60722053D01*
X93231340Y-60789033D01*
X93114240Y-61038061D01*
X93047973Y-61305148D01*
X93035086Y-61580030D01*
X90941992Y-61580030D01*
X90941992Y-53852113D01*
X113619996Y-53852113D01*
X113619996Y-59292722D01*
G04 #@! TA.AperFunction,Conductor*
D26*
G36*
X113619996Y-59292722D02*
G01*
X113294315Y-59292722D01*
X113256992Y-59289046D01*
X113219669Y-59292722D01*
X113219659Y-59292722D01*
X113108006Y-59303719D01*
X112964745Y-59347176D01*
X112832716Y-59417748D01*
X112716991Y-59512721D01*
X112693193Y-59541720D01*
X112345591Y-59889322D01*
X112319125Y-59756268D01*
X112213816Y-59502031D01*
X112060931Y-59273223D01*
X111866346Y-59078638D01*
X111637538Y-58925753D01*
X111560296Y-58893758D01*
X111637538Y-58861763D01*
X111866346Y-58708878D01*
X112060931Y-58514293D01*
X112213816Y-58285485D01*
X112319125Y-58031248D01*
X112372811Y-57761350D01*
X112372811Y-57486166D01*
X112319125Y-57216268D01*
X112213816Y-56962031D01*
X112060931Y-56733223D01*
X111866346Y-56538638D01*
X111637538Y-56385753D01*
X111383301Y-56280444D01*
X111113403Y-56226758D01*
X111061333Y-56226758D01*
X111020310Y-56020523D01*
X110915001Y-55766286D01*
X110762116Y-55537478D01*
X110567531Y-55342893D01*
X110338723Y-55190008D01*
X110084486Y-55084699D01*
X109814588Y-55031013D01*
X109539404Y-55031013D01*
X109269506Y-55084699D01*
X109015269Y-55190008D01*
X108786461Y-55342893D01*
X108591876Y-55537478D01*
X108438991Y-55766286D01*
X108333682Y-56020523D01*
X108328221Y-56047980D01*
X108248924Y-56015134D01*
X108150806Y-55917016D01*
X108127003Y-55888012D01*
X108011278Y-55793039D01*
X107879249Y-55722467D01*
X107735988Y-55679010D01*
X107624335Y-55668013D01*
X107624324Y-55668013D01*
X107587002Y-55664337D01*
X107549680Y-55668013D01*
X95609337Y-55668013D01*
X95522116Y-55537478D01*
X95327531Y-55342893D01*
X95098723Y-55190008D01*
X94844486Y-55084699D01*
X94574588Y-55031013D01*
X94299404Y-55031013D01*
X94029506Y-55084699D01*
X93775269Y-55190008D01*
X93546461Y-55342893D01*
X93351876Y-55537478D01*
X93198991Y-55766286D01*
X93093682Y-56020523D01*
X93039996Y-56290421D01*
X93039996Y-56565605D01*
X93093682Y-56835503D01*
X93198991Y-57089740D01*
X93351876Y-57318548D01*
X93546461Y-57513133D01*
X93775269Y-57666018D01*
X93852511Y-57698013D01*
X93775269Y-57730008D01*
X93546461Y-57882893D01*
X93351876Y-58077478D01*
X93198991Y-58306286D01*
X93093682Y-58560523D01*
X93039996Y-58830421D01*
X93039996Y-59105605D01*
X93093682Y-59375503D01*
X93198991Y-59629740D01*
X93351876Y-59858548D01*
X93546461Y-60053133D01*
X93775269Y-60206018D01*
X93846939Y-60235705D01*
X93833973Y-60240377D01*
X93718016Y-60302357D01*
X93651036Y-60542448D01*
X94436996Y-61328408D01*
X95222956Y-60542448D01*
X95213044Y-60506920D01*
X95556206Y-60163758D01*
X95542064Y-60149616D01*
X95721669Y-59970011D01*
X95735811Y-59984153D01*
X95749954Y-59970011D01*
X95929559Y-60149616D01*
X95915416Y-60163758D01*
X96701376Y-60949718D01*
X96941467Y-60882738D01*
X97058567Y-60633710D01*
X97124834Y-60366623D01*
X97132425Y-60204701D01*
X97274756Y-60233013D01*
X97439236Y-60233013D01*
X97600556Y-60200924D01*
X97752517Y-60137980D01*
X97889277Y-60046600D01*
X98005583Y-59930294D01*
X98096963Y-59793534D01*
X98124103Y-59728013D01*
X107306885Y-59728013D01*
X107308409Y-59730294D01*
X107424715Y-59846600D01*
X107561475Y-59937980D01*
X107713436Y-60000924D01*
X107874756Y-60033013D01*
X108039236Y-60033013D01*
X108200556Y-60000924D01*
X108352517Y-59937980D01*
X108489277Y-59846600D01*
X108605583Y-59730294D01*
X108608878Y-59725363D01*
X108711431Y-59753973D01*
X109497391Y-58968013D01*
X109483249Y-58953871D01*
X109662854Y-58774266D01*
X109676996Y-58788408D01*
X109691139Y-58774266D01*
X109870744Y-58953871D01*
X109856601Y-58968013D01*
X109870744Y-58982156D01*
X109691139Y-59161761D01*
X109676996Y-59147618D01*
X108891036Y-59933578D01*
X108958016Y-60173669D01*
X109093756Y-60237498D01*
X109015269Y-60270008D01*
X108786461Y-60422893D01*
X108591876Y-60617478D01*
X108578155Y-60638013D01*
X107994318Y-60638013D01*
X107956995Y-60634337D01*
X107919672Y-60638013D01*
X107919663Y-60638013D01*
X107808010Y-60649010D01*
X107664749Y-60692467D01*
X107532720Y-60763039D01*
X107416995Y-60858012D01*
X107393197Y-60887010D01*
X106336450Y-61943758D01*
X96908152Y-61943758D01*
X96820931Y-61813223D01*
X96626346Y-61618638D01*
X96397538Y-61465753D01*
X96325868Y-61436066D01*
X96338834Y-61431394D01*
X96454791Y-61369414D01*
X96521771Y-61129323D01*
X95735811Y-60343363D01*
X94949851Y-61129323D01*
X94959763Y-61164851D01*
X94616601Y-61508013D01*
X94630744Y-61522156D01*
X94451139Y-61701761D01*
X94436996Y-61687618D01*
X93651036Y-62473578D01*
X93718016Y-62713669D01*
X93848640Y-62775092D01*
X93833973Y-62780377D01*
X93718016Y-62842357D01*
X93651036Y-63082448D01*
X94436996Y-63868408D01*
X94451139Y-63854266D01*
X94630744Y-64033871D01*
X94616601Y-64048013D01*
X94630744Y-64062156D01*
X94451139Y-64241761D01*
X94436996Y-64227618D01*
X93651036Y-65013578D01*
X93718016Y-65253669D01*
X93853756Y-65317498D01*
X93775269Y-65350008D01*
X93546461Y-65502893D01*
X93351876Y-65697478D01*
X93198991Y-65926286D01*
X93093682Y-66180523D01*
X93039996Y-66450421D01*
X93039996Y-66725605D01*
X93093682Y-66995503D01*
X93198991Y-67249740D01*
X93351876Y-67478548D01*
X93546461Y-67673133D01*
X93775269Y-67826018D01*
X93852511Y-67858013D01*
X93775269Y-67890008D01*
X93546461Y-68042893D01*
X93351876Y-68237478D01*
X93198991Y-68466286D01*
X93093682Y-68720523D01*
X93039996Y-68990421D01*
X93039996Y-69265605D01*
X93093682Y-69535503D01*
X93198991Y-69789740D01*
X93351876Y-70018548D01*
X93546461Y-70213133D01*
X93775269Y-70366018D01*
X93852511Y-70398013D01*
X93775269Y-70430008D01*
X93546461Y-70582893D01*
X93351876Y-70777478D01*
X93198991Y-71006286D01*
X93093682Y-71260523D01*
X93039996Y-71530421D01*
X93039996Y-71805605D01*
X93093682Y-72075503D01*
X93198991Y-72329740D01*
X93351876Y-72558548D01*
X93546461Y-72753133D01*
X93775269Y-72906018D01*
X93852511Y-72938013D01*
X93775269Y-72970008D01*
X93546461Y-73122893D01*
X93351876Y-73317478D01*
X93198991Y-73546286D01*
X93093682Y-73800523D01*
X93039996Y-74070421D01*
X93039996Y-74345605D01*
X93093682Y-74615503D01*
X93198991Y-74869740D01*
X93351876Y-75098548D01*
X93546461Y-75293133D01*
X93775269Y-75446018D01*
X93852511Y-75478013D01*
X93775269Y-75510008D01*
X93546461Y-75662893D01*
X93351876Y-75857478D01*
X93198991Y-76086286D01*
X93093682Y-76340523D01*
X93039996Y-76610421D01*
X93039996Y-76885605D01*
X93093682Y-77155503D01*
X93198991Y-77409740D01*
X93351876Y-77638548D01*
X93546461Y-77833133D01*
X93775269Y-77986018D01*
X93852511Y-78018013D01*
X93775269Y-78050008D01*
X93546461Y-78202893D01*
X93351876Y-78397478D01*
X93198991Y-78626286D01*
X93093682Y-78880523D01*
X93039996Y-79150421D01*
X93039996Y-79425605D01*
X93093682Y-79695503D01*
X93198991Y-79949740D01*
X93351876Y-80178548D01*
X93546461Y-80373133D01*
X93775269Y-80526018D01*
X93852511Y-80558013D01*
X93775269Y-80590008D01*
X93546461Y-80742893D01*
X93351876Y-80937478D01*
X93198991Y-81166286D01*
X93093682Y-81420523D01*
X93039996Y-81690421D01*
X93039996Y-81965605D01*
X93093682Y-82235503D01*
X93198991Y-82489740D01*
X93351876Y-82718548D01*
X93546461Y-82913133D01*
X93775269Y-83066018D01*
X93852511Y-83098013D01*
X93775269Y-83130008D01*
X93546461Y-83282893D01*
X93351876Y-83477478D01*
X93198991Y-83706286D01*
X93093682Y-83960523D01*
X93039996Y-84230421D01*
X93039996Y-84505605D01*
X93093682Y-84775503D01*
X93198991Y-85029740D01*
X93351876Y-85258548D01*
X93546461Y-85453133D01*
X93775269Y-85606018D01*
X94029506Y-85711327D01*
X94299404Y-85765013D01*
X94351474Y-85765013D01*
X94392497Y-85971248D01*
X94497806Y-86225485D01*
X94650691Y-86454293D01*
X94845276Y-86648878D01*
X95074084Y-86801763D01*
X95328321Y-86907072D01*
X95598219Y-86960758D01*
X95873403Y-86960758D01*
X96143301Y-86907072D01*
X96296996Y-86843409D01*
X96296997Y-88836832D01*
X96195457Y-88938372D01*
X96166449Y-88962178D01*
X96142644Y-88991185D01*
X95988989Y-89144838D01*
X95960000Y-89168629D01*
X95936202Y-89197627D01*
X95936201Y-89197628D01*
X95865026Y-89284354D01*
X95794454Y-89416384D01*
X95775705Y-89478194D01*
X95755152Y-89545952D01*
X95750998Y-89559645D01*
X95736324Y-89708630D01*
X95740001Y-89745962D01*
X95740000Y-94576108D01*
X95684320Y-94592998D01*
X95574006Y-94651963D01*
X95477315Y-94731315D01*
X95397963Y-94828006D01*
X95338998Y-94938320D01*
X95302688Y-95058018D01*
X95290428Y-95182500D01*
X95290428Y-95817500D01*
X95302688Y-95941982D01*
X95320403Y-96000380D01*
X95302688Y-96058778D01*
X95290428Y-96183260D01*
X95290428Y-96635530D01*
X94546612Y-97379346D01*
X94528030Y-97369414D01*
X94248107Y-97284500D01*
X94029946Y-97263013D01*
X93084046Y-97263013D01*
X92865885Y-97284500D01*
X92585962Y-97369414D01*
X92327982Y-97507307D01*
X92101862Y-97692879D01*
X91916290Y-97918999D01*
X91778397Y-98176979D01*
X91693483Y-98456902D01*
X91664811Y-98748013D01*
X91693483Y-99039124D01*
X91778397Y-99319047D01*
X91916290Y-99577027D01*
X91958931Y-99628985D01*
X91878633Y-99613013D01*
X91635359Y-99613013D01*
X91396760Y-99660473D01*
X91172004Y-99753570D01*
X90969729Y-99888726D01*
X90941992Y-99916463D01*
X90941992Y-95974879D01*
X90987009Y-96042252D01*
X91214744Y-96269987D01*
X91482533Y-96448918D01*
X91780084Y-96572168D01*
X92095963Y-96635000D01*
X92418029Y-96635000D01*
X92733908Y-96572168D01*
X93031459Y-96448918D01*
X93299248Y-96269987D01*
X93526983Y-96042252D01*
X93705914Y-95774463D01*
X93829164Y-95476912D01*
X93891996Y-95161033D01*
X93891996Y-94838967D01*
X93829164Y-94523088D01*
X93705914Y-94225537D01*
X93526983Y-93957748D01*
X93299248Y-93730013D01*
X93031459Y-93551082D01*
X92733908Y-93427832D01*
X92418029Y-93365000D01*
X92095963Y-93365000D01*
X91780084Y-93427832D01*
X91482533Y-93551082D01*
X91214744Y-93730013D01*
X90987009Y-93957748D01*
X90941992Y-94025121D01*
X90941992Y-89635413D01*
X91301188Y-89635413D01*
X91396952Y-89899814D01*
X91686567Y-90040704D01*
X91998104Y-90122384D01*
X92319591Y-90141718D01*
X92638671Y-90097961D01*
X92943084Y-89992795D01*
X93117040Y-89899814D01*
X93212804Y-89635413D01*
X92256996Y-88679605D01*
X91301188Y-89635413D01*
X90941992Y-89635413D01*
X90941992Y-89390762D01*
X91121583Y-89455808D01*
X92077391Y-88500000D01*
X92436601Y-88500000D01*
X93392409Y-89455808D01*
X93656810Y-89360044D01*
X93797700Y-89070429D01*
X93879380Y-88758892D01*
X93898714Y-88437405D01*
X93854957Y-88118325D01*
X93749791Y-87813912D01*
X93656810Y-87639956D01*
X93392409Y-87544192D01*
X92436601Y-88500000D01*
X92077391Y-88500000D01*
X91121583Y-87544192D01*
X90941992Y-87609238D01*
X90941992Y-87364587D01*
X91301188Y-87364587D01*
X92256996Y-88320395D01*
X93212804Y-87364587D01*
X93117040Y-87100186D01*
X92827425Y-86959296D01*
X92515888Y-86877616D01*
X92194401Y-86858282D01*
X91875321Y-86902039D01*
X91570908Y-87007205D01*
X91396952Y-87100186D01*
X91301188Y-87364587D01*
X90941992Y-87364587D01*
X90941992Y-64120030D01*
X93035086Y-64120030D01*
X93076074Y-64392146D01*
X93169360Y-64651036D01*
X93231340Y-64766993D01*
X93471431Y-64833973D01*
X94257391Y-64048013D01*
X93471431Y-63262053D01*
X93231340Y-63329033D01*
X93114240Y-63578061D01*
X93047973Y-63845148D01*
X93035086Y-64120030D01*
X90941992Y-64120030D01*
X90941992Y-61580030D01*
X93035086Y-61580030D01*
X93076074Y-61852146D01*
X93169360Y-62111036D01*
X93231340Y-62226993D01*
X93471431Y-62293973D01*
X94257391Y-61508013D01*
X93471431Y-60722053D01*
X93231340Y-60789033D01*
X93114240Y-61038061D01*
X93047973Y-61305148D01*
X93035086Y-61580030D01*
X90941992Y-61580030D01*
X90941992Y-53852113D01*
X113619996Y-53852113D01*
X113619996Y-59292722D01*
G37*
G04 #@! TD.AperFunction*
D25*
X106683996Y-83870633D02*
X106703996Y-83870633D01*
X106703996Y-84042821D01*
X106409996Y-84042821D01*
X106409996Y-83870633D01*
X106429996Y-83870633D01*
X106429996Y-83850633D01*
X106683996Y-83850633D01*
X106683996Y-83870633D01*
G04 #@! TA.AperFunction,Conductor*
D26*
G36*
X106683996Y-83870633D02*
G01*
X106703996Y-83870633D01*
X106703996Y-84042821D01*
X106409996Y-84042821D01*
X106409996Y-83870633D01*
X106429996Y-83870633D01*
X106429996Y-83850633D01*
X106683996Y-83850633D01*
X106683996Y-83870633D01*
G37*
G04 #@! TD.AperFunction*
D25*
X111169559Y-65229616D02*
X111155416Y-65243758D01*
X111169559Y-65257901D01*
X110989954Y-65437506D01*
X110975811Y-65423363D01*
X110961669Y-65437506D01*
X110782064Y-65257901D01*
X110796206Y-65243758D01*
X110782064Y-65229616D01*
X110961669Y-65050011D01*
X110975811Y-65064153D01*
X110989954Y-65050011D01*
X111169559Y-65229616D01*
G04 #@! TA.AperFunction,Conductor*
D26*
G36*
X111169559Y-65229616D02*
G01*
X111155416Y-65243758D01*
X111169559Y-65257901D01*
X110989954Y-65437506D01*
X110975811Y-65423363D01*
X110961669Y-65437506D01*
X110782064Y-65257901D01*
X110796206Y-65243758D01*
X110782064Y-65229616D01*
X110961669Y-65050011D01*
X110975811Y-65064153D01*
X110989954Y-65050011D01*
X111169559Y-65229616D01*
G37*
G04 #@! TD.AperFunction*
D25*
X108438991Y-62169740D02*
X108591876Y-62398548D01*
X108786461Y-62593133D01*
X109015269Y-62746018D01*
X109092511Y-62778013D01*
X109015269Y-62810008D01*
X108786461Y-62962893D01*
X108591876Y-63157478D01*
X108438991Y-63386286D01*
X108333682Y-63640523D01*
X108279996Y-63910421D01*
X108279996Y-64185605D01*
X108281295Y-64192136D01*
X108114673Y-64358758D01*
X96824629Y-64358758D01*
X96820931Y-64353223D01*
X96626346Y-64158638D01*
X96397538Y-64005753D01*
X96320296Y-63973758D01*
X96397538Y-63941763D01*
X96626346Y-63788878D01*
X96820931Y-63594293D01*
X96908152Y-63463758D01*
X106613929Y-63463758D01*
X106651251Y-63467434D01*
X106688573Y-63463758D01*
X106688584Y-63463758D01*
X106800237Y-63452761D01*
X106943498Y-63409304D01*
X107075527Y-63338732D01*
X107191252Y-63243759D01*
X107215055Y-63214755D01*
X108271798Y-62158013D01*
X108434133Y-62158013D01*
X108438991Y-62169740D01*
G04 #@! TA.AperFunction,Conductor*
D26*
G36*
X108438991Y-62169740D02*
G01*
X108591876Y-62398548D01*
X108786461Y-62593133D01*
X109015269Y-62746018D01*
X109092511Y-62778013D01*
X109015269Y-62810008D01*
X108786461Y-62962893D01*
X108591876Y-63157478D01*
X108438991Y-63386286D01*
X108333682Y-63640523D01*
X108279996Y-63910421D01*
X108279996Y-64185605D01*
X108281295Y-64192136D01*
X108114673Y-64358758D01*
X96824629Y-64358758D01*
X96820931Y-64353223D01*
X96626346Y-64158638D01*
X96397538Y-64005753D01*
X96320296Y-63973758D01*
X96397538Y-63941763D01*
X96626346Y-63788878D01*
X96820931Y-63594293D01*
X96908152Y-63463758D01*
X106613929Y-63463758D01*
X106651251Y-63467434D01*
X106688573Y-63463758D01*
X106688584Y-63463758D01*
X106800237Y-63452761D01*
X106943498Y-63409304D01*
X107075527Y-63338732D01*
X107191252Y-63243759D01*
X107215055Y-63214755D01*
X108271798Y-62158013D01*
X108434133Y-62158013D01*
X108438991Y-62169740D01*
G37*
G04 #@! TD.AperFunction*
D25*
X111169559Y-62689616D02*
X111155416Y-62703758D01*
X111169559Y-62717901D01*
X110989954Y-62897506D01*
X110975811Y-62883363D01*
X110961669Y-62897506D01*
X110782064Y-62717901D01*
X110796206Y-62703758D01*
X110782064Y-62689616D01*
X110961669Y-62510011D01*
X110975811Y-62524153D01*
X110989954Y-62510011D01*
X111169559Y-62689616D01*
G04 #@! TA.AperFunction,Conductor*
D26*
G36*
X111169559Y-62689616D02*
G01*
X111155416Y-62703758D01*
X111169559Y-62717901D01*
X110989954Y-62897506D01*
X110975811Y-62883363D01*
X110961669Y-62897506D01*
X110782064Y-62717901D01*
X110796206Y-62703758D01*
X110782064Y-62689616D01*
X110961669Y-62510011D01*
X110975811Y-62524153D01*
X110989954Y-62510011D01*
X111169559Y-62689616D01*
G37*
G04 #@! TD.AperFunction*
M02*
