M48
; DRILL file {KiCad 5.1.9} date Sat Apr 10 12:49:20 2021
; FORMAT={-:-/ absolute / metric / decimal}
; #@! TF.CreationDate,2021-04-10T12:49:20-07:00
; #@! TF.GenerationSoftware,Kicad,Pcbnew,5.1.9
; #@! TF.FileFunction,NonPlated,1,2,NPTH
FMAT,2
METRIC
T1C1.200
T2C1.700
T3C3.400
%
G90
G05
T1
X91.757Y-98.848
X91.757Y-100.598
X98.757Y-98.848
X98.757Y-100.598
X109.234Y-119.727
X114.454Y-128.769
X117.527Y-48.178
X117.527Y-65.178
X117.527Y-82.178
X117.527Y-99.178
X123.998Y-119.992
X127.967Y-48.178
X127.967Y-65.178
X127.967Y-82.178
X127.967Y-99.178
X134.082Y-117.29
X135.527Y-45.878
X135.527Y-62.878
X135.527Y-79.878
X135.527Y-96.878
X145.967Y-45.878
X145.967Y-62.878
X145.967Y-79.878
X145.967Y-96.878
X146.027Y-114.878
X153.527Y-44.478
X153.527Y-61.478
X153.527Y-78.478
X153.527Y-95.478
X156.467Y-114.878
X163.967Y-44.478
X163.967Y-61.478
X163.967Y-78.478
X163.967Y-95.478
X164.027Y-114.878
X171.527Y-45.878
X171.527Y-62.878
X171.527Y-79.878
X171.527Y-96.878
X174.467Y-114.878
X181.967Y-45.878
X181.967Y-62.878
X181.967Y-79.878
X181.967Y-96.878
X182.027Y-119.578
X189.527Y-50.578
X189.527Y-67.578
X189.527Y-84.578
X189.527Y-101.578
X192.467Y-119.578
X199.967Y-50.578
X199.967Y-67.578
X199.967Y-84.578
X199.967Y-101.578
X207.527Y-52.078
X207.527Y-69.078
X207.527Y-86.078
X207.527Y-103.078
X217.967Y-52.078
X217.967Y-69.078
X217.967Y-86.078
X217.967Y-103.078
T2
X105.457Y-121.585
X110.957Y-131.111
X117.247Y-52.378
X117.247Y-69.378
X117.247Y-86.378
X117.247Y-103.378
X124.814Y-124.122
X128.247Y-52.378
X128.247Y-69.378
X128.247Y-86.378
X128.247Y-103.378
X135.247Y-50.078
X135.247Y-67.078
X135.247Y-84.078
X135.247Y-101.078
X135.44Y-121.274
X145.747Y-119.078
X146.247Y-50.078
X146.247Y-67.078
X146.247Y-84.078
X146.247Y-101.078
X153.247Y-48.678
X153.247Y-65.678
X153.247Y-82.678
X153.247Y-99.678
X156.747Y-119.078
X163.747Y-119.078
X164.247Y-48.678
X164.247Y-65.678
X164.247Y-82.678
X164.247Y-99.678
X171.247Y-50.078
X171.247Y-67.078
X171.247Y-84.078
X171.247Y-101.078
X174.747Y-119.078
X181.747Y-123.778
X182.247Y-50.078
X182.247Y-67.078
X182.247Y-84.078
X182.247Y-101.078
X189.247Y-54.778
X189.247Y-71.778
X189.247Y-88.778
X189.247Y-105.778
X192.747Y-123.778
X200.247Y-54.778
X200.247Y-71.778
X200.247Y-88.778
X200.247Y-105.778
X207.247Y-56.278
X207.247Y-73.278
X207.247Y-90.278
X207.247Y-107.278
X218.247Y-56.278
X218.247Y-73.278
X218.247Y-90.278
X218.247Y-107.278
T3
X108.207Y-126.348
X122.747Y-52.378
X122.747Y-69.378
X122.747Y-86.378
X122.747Y-103.378
X130.127Y-122.698
X140.747Y-50.078
X140.747Y-67.078
X140.747Y-84.078
X140.747Y-101.078
X151.247Y-119.078
X158.747Y-48.678
X158.747Y-65.678
X158.747Y-82.678
X158.747Y-99.678
X169.247Y-119.078
X176.747Y-50.078
X176.747Y-67.078
X176.747Y-84.078
X176.747Y-101.078
X187.247Y-123.778
X194.747Y-54.778
X194.747Y-71.778
X194.747Y-88.778
X194.747Y-105.778
X212.747Y-56.278
X212.747Y-73.278
X212.747Y-90.278
X212.747Y-107.278
T0
M30
