M48
; DRILL file {KiCad 5.1.9} date Fri Apr  9 21:29:28 2021
; FORMAT={-:-/ absolute / inch / decimal}
; #@! TF.CreationDate,2021-04-09T21:29:28-07:00
; #@! TF.GenerationSoftware,Kicad,Pcbnew,5.1.9
; #@! TF.FileFunction,Plated,1,2,PTH
FMAT,2
INCH
T1C0.0118
T2C0.0157
T3C0.0320
T4C0.0394
T5C0.0472
T6C0.0512
T7C0.0866
%
G90
G05
T1
X3.8211Y-3.3779
X3.833Y-2.3385
X3.8487Y-3.6717
X3.8704Y-3.2679
X3.8723Y-2.6216
X3.8959Y-3.2676
X3.9038Y-2.3687
X3.9038Y-2.5196
X3.9846Y-3.7602
X4.0416Y-2.5687
X4.0416Y-3.307
X4.0487Y-3.6717
X4.0731Y-2.7204
X4.1312Y-2.8687
X4.144Y-3.307
X4.1479Y-3.2716
X4.1509Y-2.9687
X4.1715Y-3.0687
X4.1952Y-3.1407
X4.2227Y-3.1968
X4.2356Y-3.239
X4.2463Y-2.622
X4.2463Y-3.1653
X4.2503Y-2.8306
X4.2503Y-2.3306
X4.2503Y-2.9212
X4.2503Y-3.0354
X4.2503Y-3.118
X4.2503Y-2.2361
X4.2503Y-2.7322
X4.27Y-3.7755
X4.2896Y-3.5393
X4.4314Y-3.122
X4.5318Y-4.2974
X4.5396Y-2.5454
X4.5475Y-2.3643
X4.5928Y-3.1576
X5.516Y-1.7344
X6.1991Y-1.6143
X6.9117Y-1.6196
X7.6125Y-1.6702
X8.3144Y-1.8127
T2
X3.9589Y-4.5651
X3.978Y-4.5191
X3.978Y-4.611
X4.0239Y-4.5001
X4.0239Y-4.63
X4.0698Y-4.5191
X4.0698Y-4.611
X4.0889Y-4.5651
X4.577Y-4.6909
X4.644Y-4.8068
X4.6538Y-3.7383
X4.7877Y-3.7383
X5.1219Y-2.3514
X5.1219Y-3.69
X5.141Y-2.3054
X5.141Y-2.3973
X5.141Y-3.644
X5.141Y-3.7359
X5.1814Y-4.1005
X5.1814Y-4.2344
X5.1853Y-1.7993
X5.1853Y-1.9332
X5.1853Y-2.0493
X5.1853Y-2.1832
X5.1853Y-2.5119
X5.1853Y-2.6458
X5.1853Y-2.7639
X5.1853Y-2.8977
X5.1853Y-3.1477
X5.1853Y-3.2816
X5.1869Y-2.2864
X5.1869Y-2.4163
X5.1869Y-3.625
X5.1869Y-3.7549
X5.1893Y-3.3958
X5.1893Y-3.5296
X5.1893Y-3.8485
X5.1893Y-3.9824
X5.2328Y-2.3054
X5.2328Y-2.3973
X5.2328Y-3.644
X5.2328Y-3.7359
X5.2519Y-2.3514
X5.2519Y-3.69
X5.8898Y-2.3899
X5.8898Y-2.5237
X5.894Y-2.0395
X5.894Y-2.1733
X5.894Y-3.3781
X5.894Y-3.5119
X5.894Y-3.7206
X5.894Y-3.8544
X5.894Y-4.0434
X5.894Y-4.1773
X6.6026Y-2.0296
X6.6026Y-2.1635
X6.6026Y-2.3899
X6.6026Y-2.5237
X6.6026Y-3.3781
X6.6026Y-3.5119
X6.6026Y-3.6733
X6.6026Y-3.8072
X6.6125Y-4.0434
X6.6125Y-4.1773
X7.3113Y-2.567
X7.3113Y-2.7009
X7.3113Y-3.4332
X7.3113Y-3.567
X7.3113Y-3.7206
X7.3113Y-3.8544
X7.3113Y-4.1025
X7.3113Y-4.2363
X7.3211Y-2.0887
X7.3211Y-2.2225
X7.953Y-3.8483
X7.9566Y-2.5207
X7.9721Y-3.8024
X7.9721Y-3.8943
X7.9756Y-2.4747
X7.9756Y-2.5666
X8.018Y-3.7834
X8.018Y-3.9133
X8.02Y-2.7048
X8.02Y-2.8387
X8.02Y-3.5513
X8.02Y-3.6851
X8.02Y-4.0178
X8.02Y-4.1517
X8.0209Y-2.193
X8.0209Y-2.3269
X8.0215Y-2.4557
X8.0215Y-2.5856
X8.0639Y-3.8024
X8.0639Y-3.8943
X8.0675Y-2.4747
X8.0675Y-2.5666
X8.083Y-3.8483
X8.0865Y-2.5207
T3
X3.718Y-2.2216
X3.718Y-2.3216
X3.718Y-2.4216
X3.718Y-2.5216
X3.718Y-2.6216
X3.718Y-2.7216
X3.718Y-2.8216
X3.718Y-2.9216
X3.718Y-3.0216
X3.718Y-3.1216
X3.718Y-3.2216
X3.718Y-3.3216
X3.7691Y-2.2687
X3.7691Y-2.3687
X3.7691Y-2.4687
X3.7691Y-2.5687
X3.7691Y-2.6687
X3.7691Y-2.7687
X3.7691Y-2.8687
X3.7691Y-2.9687
X3.7691Y-3.0687
X3.7691Y-3.1687
X3.7691Y-3.2687
X3.7691Y-3.3687
X3.8959Y-3.5354
X3.9959Y-3.5354
X4.0959Y-3.5354
X4.1959Y-3.5354
X4.318Y-2.2216
X4.318Y-2.3216
X4.318Y-2.4216
X4.318Y-2.5216
X4.318Y-2.6216
X4.318Y-2.7216
X4.318Y-2.8216
X4.318Y-2.9216
X4.318Y-3.0216
X4.318Y-3.1216
X4.318Y-3.2216
X4.318Y-3.3216
X4.3691Y-2.2687
X4.3691Y-2.3687
X4.3691Y-2.4687
X4.3691Y-2.5687
X4.3691Y-2.6687
X4.3691Y-2.7687
X4.3691Y-2.8687
X4.3691Y-2.9687
X4.3691Y-3.0687
X4.3691Y-3.1687
X4.3691Y-3.2687
X4.3691Y-3.3687
T4
X4.3369Y-3.5905
X4.3369Y-3.6928
X4.3369Y-3.7913
T5
X4.1644Y-5.2023
X4.3763Y-5.1755
X4.5054Y-5.0055
X4.6357Y-2.2117
X4.6357Y-2.881
X4.6357Y-3.5503
X4.6357Y-4.2196
X4.8326Y-2.2944
X4.8326Y-2.9637
X4.8326Y-3.633
X4.8326Y-4.3023
X4.9717Y-5.0261
X5.0294Y-2.2117
X5.0294Y-2.881
X5.0294Y-3.5503
X5.0294Y-4.2196
X5.1832Y-5.055
X5.3444Y-2.1212
X5.3444Y-2.7905
X5.3444Y-3.4598
X5.3444Y-4.1291
X5.352Y-4.9242
X5.5412Y-2.2039
X5.5412Y-2.8732
X5.5412Y-3.5424
X5.5412Y-4.2117
X5.7381Y-2.1212
X5.7381Y-2.7905
X5.7381Y-3.4598
X5.7381Y-4.1291
X5.7578Y-4.8377
X5.9546Y-4.9204
X6.053Y-2.0661
X6.053Y-2.7354
X6.053Y-3.4046
X6.053Y-4.0739
X6.1515Y-4.8377
X6.2499Y-2.1487
X6.2499Y-2.818
X6.2499Y-3.4873
X6.2499Y-4.1566
X6.4467Y-2.0661
X6.4467Y-2.7354
X6.4467Y-3.4046
X6.4467Y-4.0739
X6.4664Y-4.8377
X6.6633Y-4.9204
X6.7617Y-2.1212
X6.7617Y-2.7905
X6.7617Y-3.4598
X6.7617Y-4.1291
X6.8601Y-4.8377
X6.9585Y-2.2039
X6.9585Y-2.8732
X6.9585Y-3.5424
X6.9585Y-4.2117
X7.1554Y-2.1212
X7.1554Y-2.7905
X7.1554Y-3.4598
X7.1554Y-4.1291
X7.1751Y-5.0228
X7.3719Y-5.1054
X7.4704Y-2.3062
X7.4704Y-2.9755
X7.4704Y-3.6448
X7.4704Y-4.3141
X7.5688Y-5.0228
X7.6672Y-2.3889
X7.6672Y-3.0582
X7.6672Y-3.7275
X7.6672Y-4.3968
X7.8641Y-2.3062
X7.8641Y-2.9755
X7.8641Y-3.6448
X7.8641Y-4.3141
X8.179Y-2.3653
X8.179Y-3.0346
X8.179Y-3.7039
X8.179Y-4.3732
X8.3759Y-2.448
X8.3759Y-3.1172
X8.3759Y-3.7865
X8.3759Y-4.4558
X8.5727Y-2.3653
X8.5727Y-3.0346
X8.5727Y-3.7039
X8.5727Y-4.3732
T6
X3.6322Y-3.4843
X3.6322Y-3.7402
T7
X3.6912Y-4.2794
X4.0239Y-4.5651
X4.3015Y-4.2794
X5.1869Y-2.3514
X5.1869Y-3.69
X8.018Y-3.8483
X8.0215Y-2.5207
T4
G00X3.6735Y-3.8877
M15
G01X3.6932Y-3.8877
M16
G05
G00X3.6735Y-4.122
M15
G01X3.6932Y-4.122
M16
G05
G00X3.7916Y-3.8877
M15
G01X3.8113Y-3.8877
M16
G05
G00X3.7916Y-4.122
M15
G01X3.8113Y-4.122
M16
G05
G00X3.9491Y-3.8877
M15
G01X3.9688Y-3.8877
M16
G05
G00X3.9491Y-4.122
M15
G01X3.9688Y-4.122
M16
G05
G00X4.0081Y-3.9566
M15
G01X4.0278Y-3.9566
M16
G05
G00X4.0081Y-4.0531
M15
G01X4.0278Y-4.0531
M16
G05
T0
M30
