M48
; DRILL file {KiCad 5.1.9} date Fri Apr  9 21:29:28 2021
; FORMAT={-:-/ absolute / inch / decimal}
; #@! TF.CreationDate,2021-04-09T21:29:28-07:00
; #@! TF.GenerationSoftware,Kicad,Pcbnew,5.1.9
; #@! TF.FileFunction,NonPlated,1,2,NPTH
FMAT,2
INCH
T1C0.0472
T2C0.0669
T3C0.1339
%
G90
G05
T1
X3.6125Y-3.9704
X3.6125Y-4.0393
X3.8881Y-3.9704
X3.8881Y-4.0393
X3.9995Y-4.9339
X4.3554Y-4.7284
X4.627Y-1.8968
X4.627Y-2.5661
X4.627Y-3.2354
X4.627Y-3.9046
X4.8818Y-4.7241
X5.0381Y-1.8968
X5.0381Y-2.5661
X5.0381Y-3.2354
X5.0381Y-3.9046
X5.2788Y-4.6177
X5.3357Y-1.8062
X5.3357Y-2.4755
X5.3357Y-3.1448
X5.3357Y-3.8141
X5.7467Y-1.8062
X5.7467Y-2.4755
X5.7467Y-3.1448
X5.7467Y-3.8141
X5.7491Y-4.5228
X6.0444Y-1.7511
X6.0444Y-2.4204
X6.0444Y-3.0897
X6.0444Y-3.759
X6.1601Y-4.5228
X6.4554Y-1.7511
X6.4554Y-2.4204
X6.4554Y-3.0897
X6.4554Y-3.759
X6.4578Y-4.5228
X6.753Y-1.8062
X6.753Y-2.4755
X6.753Y-3.1448
X6.753Y-3.8141
X6.8688Y-4.5228
X7.1641Y-1.8062
X7.1641Y-2.4755
X7.1641Y-3.1448
X7.1641Y-3.8141
X7.1664Y-4.7078
X7.4617Y-1.9913
X7.4617Y-2.6606
X7.4617Y-3.3298
X7.4617Y-3.9991
X7.5774Y-4.7078
X7.8727Y-1.9913
X7.8727Y-2.6606
X7.8727Y-3.3298
X7.8727Y-3.9991
X8.1704Y-2.0503
X8.1704Y-2.7196
X8.1704Y-3.3889
X8.1704Y-4.0582
X8.5814Y-2.0503
X8.5814Y-2.7196
X8.5814Y-3.3889
X8.5814Y-4.0582
T2
X4.0726Y-5.0826
X4.4476Y-4.8661
X4.616Y-2.0621
X4.616Y-2.7314
X4.616Y-3.4007
X4.616Y-4.07
X4.914Y-4.8867
X5.0491Y-2.0621
X5.0491Y-2.7314
X5.0491Y-3.4007
X5.0491Y-4.07
X5.3247Y-1.9716
X5.3247Y-2.6409
X5.3247Y-3.3102
X5.3247Y-3.9795
X5.3323Y-4.7746
X5.7381Y-4.6881
X5.7578Y-1.9716
X5.7578Y-2.6409
X5.7578Y-3.3102
X5.7578Y-3.9795
X6.0333Y-1.9165
X6.0333Y-2.5858
X6.0333Y-3.255
X6.0333Y-3.9243
X6.1711Y-4.6881
X6.4467Y-4.6881
X6.4664Y-1.9165
X6.4664Y-2.5858
X6.4664Y-3.255
X6.4664Y-3.9243
X6.742Y-1.9716
X6.742Y-2.6409
X6.742Y-3.3102
X6.742Y-3.9795
X6.8798Y-4.6881
X7.1554Y-4.8732
X7.1751Y-1.9716
X7.1751Y-2.6409
X7.1751Y-3.3102
X7.1751Y-3.9795
X7.4507Y-2.1566
X7.4507Y-2.8259
X7.4507Y-3.4952
X7.4507Y-4.1645
X7.5885Y-4.8732
X7.8837Y-2.1566
X7.8837Y-2.8259
X7.8837Y-3.4952
X7.8837Y-4.1645
X8.1593Y-2.2157
X8.1593Y-2.885
X8.1593Y-3.5543
X8.1593Y-4.2235
X8.5924Y-2.2157
X8.5924Y-2.885
X8.5924Y-3.5543
X8.5924Y-4.2235
T3
X4.2601Y-4.9743
X4.8326Y-2.0621
X4.8326Y-2.7314
X4.8326Y-3.4007
X4.8326Y-4.07
X5.1231Y-4.8306
X5.5412Y-1.9716
X5.5412Y-2.6409
X5.5412Y-3.3102
X5.5412Y-3.9795
X5.9546Y-4.6881
X6.2499Y-1.9165
X6.2499Y-2.5858
X6.2499Y-3.255
X6.2499Y-3.9243
X6.6633Y-4.6881
X6.9585Y-1.9716
X6.9585Y-2.6409
X6.9585Y-3.3102
X6.9585Y-3.9795
X7.3719Y-4.8732
X7.6672Y-2.1566
X7.6672Y-2.8259
X7.6672Y-3.4952
X7.6672Y-4.1645
X8.3759Y-2.2157
X8.3759Y-2.885
X8.3759Y-3.5543
X8.3759Y-4.2235
T0
M30
